<svg width="96" height="104" viewBox="0 0 96 104" fill="none" xmlns="http://www.w3.org/2000/svg">
<path opacity="0.2" d="M80.5008 81.2203L41.2637 58.2012L35.7705 61.9941L74.6152 84.6208L80.5008 81.2203Z" fill="#AAAAAA"/>
<path opacity="0.2" d="M60.2283 92.5992L20.9912 69.5801L15.498 73.373L54.3428 95.9997L60.2283 92.5992Z" fill="#AAAAAA"/>
<path d="M63.7596 30.9969L74.8768 37.4057L74.746 82.1359L35.7705 59.7708L35.9013 3.00781L63.7596 19.095V30.9969Z" fill="#C9C9C9"/>
<path d="M35.9014 3.00818L41.0022 0L68.8605 16.0872L63.7597 19.0954L35.9014 3.00818Z" fill="#AAAAAA"/>
<path d="M74.8769 37.4067L79.9777 34.5293L79.8469 79.2596L74.7461 82.2677L74.8769 37.4067Z" fill="#AAAAAA"/>
<path d="M43.4872 42.245L54.6043 48.6537L54.4735 93.384L15.498 71.0188L15.6288 14.2559L43.4872 30.3431V42.245Z" fill="#F4F4F4"/>
<path d="M15.6289 14.2562L20.7297 11.248L48.5881 27.3352L43.4872 30.3434L15.6289 14.2562Z" fill="#DCDCDC"/>
<path d="M54.6044 48.6547L59.7052 45.7773L59.5745 90.5076L54.4736 93.5158L54.6044 48.6547Z" fill="#DCDCDC"/>
<path d="M63.7598 19.0961L68.8606 16.0879L79.9778 34.5293L74.8769 37.4067L63.7598 19.0961Z" fill="#C9C9C9"/>
<path d="M63.7598 19.0957L74.8769 37.4063L63.7598 30.9976V19.0957Z" fill="#DCDCDC"/>
<path d="M43.4873 30.3441L48.5881 27.3359L59.7053 45.7774L54.6045 48.6548L43.4873 30.3441Z" fill="#F4F4F4"/>
<path d="M43.4873 30.3438L54.6045 48.6544L43.4873 42.2457V30.3438Z" fill="#C9C9C9"/>
<path d="M46.8751 52.4595V55.9693L23.2275 42.1367V38.627L46.8751 52.4595Z" fill="#C9C9C9"/>
<path d="M46.8751 59.0658V62.5756L23.2275 48.6914V45.1816L46.8751 59.0658Z" fill="#C9C9C9"/>
<path d="M46.8751 65.3621V68.8719L23.2275 54.9877V51.6328L46.8751 65.3621Z" fill="#C9C9C9"/>
</svg>
