<svg width="14" height="15" viewBox="0 0 14 15" fill="none" xmlns="http://www.w3.org/2000/svg">
<path d="M0 7C0.270833 7 0.528646 6.94792 0.773438 6.84375C1.01823 6.73438 1.22917 6.59115 1.40625 6.41406C1.58854 6.23177 1.73177 6.02083 1.83594 5.78125C1.94531 5.53646 2 5.27604 2 5C2 4.63021 1.99219 4.26042 1.97656 3.89062C1.96094 3.52083 1.97135 3.16146 2.00781 2.8125C2.04948 2.45833 2.13281 2.11719 2.25781 1.78906C2.38802 1.46094 2.59375 1.15625 2.875 0.875C3.15625 0.59375 3.48177 0.377604 3.85156 0.226562C4.22135 0.0755208 4.60417 0 5 0V1C4.72396 1 4.46354 1.05469 4.21875 1.16406C3.97917 1.26823 3.76823 1.41146 3.58594 1.59375C3.40885 1.77083 3.26562 1.98177 3.15625 2.22656C3.05208 2.47135 3 2.72917 3 3C3 3.29167 3.00521 3.58073 3.01562 3.86719C3.02604 4.14844 3.02604 4.42708 3.01562 4.70312C3.01042 4.97396 2.98698 5.23958 2.94531 5.5C2.90365 5.75521 2.83333 6 2.73438 6.23438C2.63542 6.46875 2.5 6.69271 2.32812 6.90625C2.15625 7.11979 1.9349 7.31771 1.66406 7.5C1.9349 7.68229 2.15625 7.88021 2.32812 8.09375C2.5 8.30729 2.63542 8.53125 2.73438 8.76562C2.83333 9 2.90365 9.2474 2.94531 9.50781C2.98698 9.76302 3.01042 10.0286 3.01562 10.3047C3.02604 10.5755 3.02604 10.8542 3.01562 11.1406C3.00521 11.4219 3 11.7083 3 12C3 12.276 3.05208 12.5365 3.15625 12.7812C3.26562 13.0208 3.40885 13.2318 3.58594 13.4141C3.76823 13.5911 3.97917 13.7344 4.21875 13.8438C4.46354 13.9479 4.72396 14 5 14V15C4.60417 15 4.22135 14.9245 3.85156 14.7734C3.48177 14.6224 3.15625 14.4062 2.875 14.125C2.59375 13.8438 2.38802 13.5391 2.25781 13.2109C2.13281 12.8828 2.04948 12.5443 2.00781 12.1953C1.97135 11.8411 1.96094 11.4792 1.97656 11.1094C1.99219 10.7396 2 10.3698 2 10C2 9.72917 1.94531 9.47135 1.83594 9.22656C1.73177 8.98177 1.58854 8.77083 1.40625 8.59375C1.22917 8.41146 1.01823 8.26823 0.773438 8.16406C0.528646 8.05469 0.270833 8 0 8V7ZM9 0C9.39583 0 9.77865 0.0755208 10.1484 0.226562C10.5182 0.377604 10.8438 0.59375 11.125 0.875C11.4062 1.15625 11.6094 1.46094 11.7344 1.78906C11.8646 2.11719 11.9479 2.45833 11.9844 2.8125C12.026 3.16146 12.0391 3.52083 12.0234 3.89062C12.0078 4.26042 12 4.63021 12 5C12 5.27604 12.0521 5.53646 12.1562 5.78125C12.2656 6.02083 12.4089 6.23177 12.5859 6.41406C12.7682 6.59115 12.9792 6.73438 13.2188 6.84375C13.4635 6.94792 13.724 7 14 7V8C13.724 8 13.4635 8.05469 13.2188 8.16406C12.9792 8.26823 12.7682 8.41146 12.5859 8.59375C12.4089 8.77083 12.2656 8.98177 12.1562 9.22656C12.0521 9.47135 12 9.72917 12 10C12 10.3698 12.0078 10.7396 12.0234 11.1094C12.0391 11.4792 12.026 11.8411 11.9844 12.1953C11.9479 12.5443 11.8646 12.8828 11.7344 13.2109C11.6094 13.5391 11.4062 13.8438 11.125 14.125C10.8438 14.4062 10.5182 14.6224 10.1484 14.7734C9.77865 14.9245 9.39583 15 9 15V14C9.27083 14 9.52865 13.9479 9.77344 13.8438C10.0182 13.7344 10.2292 13.5911 10.4062 13.4141C10.5885 13.2318 10.7318 13.0208 10.8359 12.7812C10.9453 12.5365 11 12.276 11 12C11 11.7083 10.9948 11.4219 10.9844 11.1406C10.974 10.8542 10.9714 10.5755 10.9766 10.3047C10.987 10.0286 11.013 9.76302 11.0547 9.50781C11.0964 9.2474 11.1667 9 11.2656 8.76562C11.3646 8.53125 11.5 8.30729 11.6719 8.09375C11.8438 7.88021 12.0651 7.68229 12.3359 7.5C12.0651 7.31771 11.8438 7.11979 11.6719 6.90625C11.5 6.69271 11.3646 6.46875 11.2656 6.23438C11.1667 6 11.0964 5.75521 11.0547 5.5C11.013 5.23958 10.987 4.97396 10.9766 4.70312C10.9714 4.42708 10.974 4.14844 10.9844 3.86719C10.9948 3.58073 11 3.29167 11 3C11 2.72917 10.9453 2.47135 10.8359 2.22656C10.7318 1.98177 10.5885 1.77083 10.4062 1.59375C10.2292 1.41146 10.0182 1.26823 9.77344 1.16406C9.52865 1.05469 9.27083 1 9 1V0Z" fill="#0078D4"/>
</svg>
