<svg width="16" height="16" viewBox="0 0 16 16" fill="none" xmlns="http://www.w3.org/2000/svg">
<path d="M9.3 11.5C10.3 11.8 11.1 12 12.2 12.3C12 11.9 11.9 11.7 11.8 11.5C11.4 10.8 11.1 10.1 10.7 9.4C10.5 9 10.5 8.8 10.8 8.4C11.6 7.5 12.3 6.6 13 5.6C12.8 5.6 12.6 5.7 12.4 5.7C11.4 5.9 10.5 6.2 9.5 6.5C9.1 6.6 9 6.5 8.8 6.2C8.4 5.3 7.8 4.4 7.2 3.4C7.1 3.7 7.1 3.8 7 4C6.9 4.9 6.7 5.8 6.6 6.8C6.5 7.2 6.3 7.5 5.8 7.6C4.8 7.9 3.9 8.2 2.9 8.5C2.8 8.5 2.7 8.6 2.4 8.7C3.4 9.1 4.3 9.5 5.3 9.9C4.7 10.3 4.1 10.7 3.5 11C3.4 11.1 3.2 11 3.1 11C2.5 10.7 1.7 10.4 0.999997 10.1C0.699997 9.9 0.499997 9.8 0.399997 9.6C-0.200003 9 -0.100004 8.2 0.699996 7.8C1.1 7.5 1.5 7.4 2 7.2C2.9 6.9 3.7 6.6 4.6 6.4C5 6.3 5.1 6.1 5.2 5.7C5.4 4.7 5.5 3.7 5.7 2.7C5.8 2.4 5.9 2 6.2 1.6C6.7 0.800003 7.4 0.800003 8 1.5C8.5 2.1 8.9 2.8 9.3 3.5C10 4.8 10 4.8 11.5 4.4C12.4 4.2 13.3 3.9 14.3 3.7C14.6 3.6 14.8 3.6 15.1 3.7C15.7 3.8 15.9 4.2 15.7 4.8C15.6 5.1 15.4 5.3 15.2 5.6C14.4 6.6 13.6 7.5 12.7 8.5C12.4 8.9 12.4 9.1 12.6 9.6C13.1 10.5 13.5 11.4 14 12.3C14.3 12.8 14.4 13.4 14 13.9C13.6 14.4 13 14.5 12.4 14.3C11.6 14.1 10.8 13.8 10 13.6C9.7 13.5 9.5 13.3 9.5 13C9.5 12.5 9.4 12.1 9.3 11.5Z" fill="#0078D4"/>
</svg>
