<svg width="24" height="24" viewBox="0 0 24 24" fill="none" xmlns="http://www.w3.org/2000/svg">
<path d="M19.0104 20.0405H4.32392C4.01036 20.0405 4.01036 20.0405 4.01036 19.7275C4.01036 19.4146 4.01036 19.243 4.01036 19.0007C4.01036 18.7584 4.01036 18.8089 4.20254 18.8089H5.214V17.537H4.03059V16.3155H5.24435V15.0739H4.23289C4.04071 15.0739 3.99013 15.0133 4.00025 14.8316C4.01036 14.6499 4.00025 14.3067 4.00025 14.0341C4.00025 13.7616 4.00025 13.8323 4.20254 13.8323H5.214V12.6108H4.02048V11.3994H5.24435V10.1477C4.92068 10.1477 4.5869 10.1477 4.23289 10.1477C3.87887 10.1477 3.99013 10.0972 4.01036 9.94585C4.03059 9.79443 4.01036 9.41083 4.01036 9.14837C4.01036 8.88591 4.05082 8.93639 4.19243 8.93639H5.20389V7.68465H4.02048V6.47329H5.25446V5.23165C4.90045 5.23165 4.55655 5.23165 4.243 5.23165C4.07105 5.23165 4.02048 5.18118 4.03059 5.01967C4.04071 4.85815 4.03059 4.45437 4.03059 4.18181C4.03059 3.90926 4.05082 3.99001 4.18231 4.00011H19.0104V20.0405ZM17.7865 18.8089V5.24175H6.51879V18.7584L17.7865 18.8089Z" fill="#CCCCCC"/>
<path d="M15.2475 7.70483V10.1275H9.03711V7.70483H15.2475Z" fill="#CCCCCC"/>
</svg>
