<svg width="16" height="16" viewBox="0 0 16 16" fill="none" xmlns="http://www.w3.org/2000/svg">
<g clip-path="url(#clip0)">
<path d="M8.56255 0.0315427C9.06736 0.0315427 9.55376 0.0972564 10.0218 0.228684C10.4898 0.360111 10.9288 0.546739 11.339 0.788565C11.7492 1.03039 12.1225 1.31953 12.4591 1.65599C12.7956 1.99244 13.0848 2.3657 13.3267 2.77575C13.5686 3.18581 13.7553 3.62477 13.8867 4.09266C14.0182 4.56054 14.0839 5.04682 14.0839 5.5515C14.0839 6.27173 13.9459 6.96698 13.6698 7.63726C13.3937 8.30754 13.0007 8.89765 12.4906 9.40759L5.88862 16L5.17873 15.2903L11.7728 8.68999C12.1882 8.27468 12.509 7.79497 12.7351 7.25086C12.9612 6.70675 13.0743 6.1403 13.0743 5.5515C13.0743 4.93642 12.9547 4.35551 12.7154 3.80877C12.4761 3.26203 12.1514 2.78364 11.7413 2.37358C11.3311 1.96353 10.8526 1.6389 10.3057 1.3997C9.75884 1.16051 9.17778 1.04091 8.56255 1.04091C7.99463 1.04091 7.49377 1.12633 7.05994 1.29719C6.62612 1.46805 6.22516 1.6941 5.85707 1.97536C5.48898 2.25661 5.13535 2.57598 4.79618 2.93346C4.45701 3.29095 4.10075 3.65894 3.7274 4.03746H7.04811V5.04682H2V0H3.00962V3.31986C3.29884 3.02546 3.57622 2.74027 3.84177 2.46427C4.10732 2.18827 4.37288 1.92804 4.63843 1.68359C4.90398 1.43913 5.17479 1.21571 5.45086 1.01331C5.72693 0.810908 6.0214 0.637424 6.33428 0.492853C6.64715 0.348283 6.98632 0.235255 7.35179 0.15377C7.71725 0.0722852 8.12084 0.0315427 8.56255 0.0315427Z" fill="#CCCCCC"/>
</g>
<defs>
<clipPath id="clip0">
<rect width="16" height="16" fill="white"/>
</clipPath>
</defs>
</svg>
