<svg width="16" height="16" viewBox="0 0 16 16" fill="none" xmlns="http://www.w3.org/2000/svg">
<path fill-rule="evenodd" clip-rule="evenodd" d="M15 6V16H7V15H1V2H5C5 1.72917 5.05338 1.47136 5.16016 1.22656C5.26693 0.98177 5.41016 0.769532 5.58984 0.589844C5.76953 0.410155 5.98047 0.266928 6.22266 0.160156C6.46484 0.0533849 6.72396 0 7 0C7.27083 0 7.52864 0.0533849 7.77344 0.160156C8.01823 0.266928 8.23047 0.410155 8.41016 0.589844C8.58984 0.769532 8.73307 0.98177 8.83984 1.22656C8.94662 1.47136 9 1.72917 9 2H13V6H15ZM4 3V4H10V3H8C8 2.91667 8.0013 2.82943 8.00391 2.73828C8.00651 2.64713 8.00781 2.55469 8.00781 2.46094C8.00781 2.28385 7.9987 2.10807 7.98047 1.93359C7.96224 1.75911 7.91797 1.60287 7.84766 1.46484C7.77734 1.32682 7.67578 1.21484 7.54297 1.12891C7.41016 1.04297 7.22917 1 7 1C6.77083 1 6.58984 1.04297 6.45703 1.12891C6.32422 1.21484 6.22266 1.32682 6.15234 1.46484C6.08203 1.60287 6.03776 1.75911 6.01953 1.93359C6.0013 2.10807 5.99219 2.28385 5.99219 2.46094C5.99219 2.55469 5.99349 2.64713 5.99609 2.73828C5.9987 2.82943 6 2.91667 6 3H4ZM7 14V6H12V3H11V5H3V3H2V14H7ZM14 7H8V15H14V7Z" fill="#0078D4"/>
</svg>
