<svg width="16" height="17" viewBox="0 0 16 17" fill="none" xmlns="http://www.w3.org/2000/svg">
<path fill-rule="evenodd" clip-rule="evenodd" d="M11.6 12.9264C11.8833 12.937 12.1514 12.9967 12.4042 13.1054C12.6569 13.2142 12.8764 13.3613 13.0625 13.547C13.2486 13.7326 13.3958 13.9475 13.5042 14.1914C13.6125 14.4354 13.6667 14.6927 13.6667 14.9632C13.6667 15.2443 13.6097 15.5082 13.4958 15.7548C13.3819 16.0015 13.2292 16.2163 13.0375 16.3993C12.8458 16.5823 12.6194 16.7282 12.3583 16.8369C12.0972 16.9456 11.8222 17 11.5333 17C11.2389 17 10.9625 16.9456 10.7042 16.8369C10.4458 16.7282 10.2208 16.5823 10.0292 16.3993C9.8375 16.2163 9.68472 16.0015 9.57083 15.7548C9.45694 15.5082 9.4 15.2443 9.4 14.9632C9.4 14.5866 9.50139 14.2365 9.70417 13.913C9.90695 13.5894 10.1833 13.3401 10.5333 13.1651L8.31667 8.94033L6.10833 13.1492C6.28611 13.2394 6.44583 13.3481 6.5875 13.4754C6.72917 13.6027 6.85 13.7459 6.95 13.905C7.05 14.0641 7.12778 14.2326 7.18333 14.4102C7.23889 14.5879 7.26667 14.7723 7.26667 14.9632C7.26667 15.2443 7.20972 15.5082 7.09583 15.7548C6.98194 16.0015 6.82917 16.2163 6.6375 16.3993C6.44583 16.5823 6.21945 16.7282 5.95833 16.8369C5.69722 16.9456 5.42222 17 5.13333 17C4.83889 17 4.5625 16.9456 4.30417 16.8369C4.04583 16.7282 3.82083 16.5823 3.62917 16.3993C3.4375 16.2163 3.28472 16.0015 3.17083 15.7548C3.05694 15.5082 3 15.2443 3 14.9632C3 14.6927 3.05278 14.4368 3.15833 14.1954C3.26389 13.9541 3.40833 13.7419 3.59167 13.5589C3.775 13.3759 3.99028 13.2287 4.2375 13.1174C4.48472 13.006 4.75 12.9423 5.03333 12.9264L7.71667 7.78667L4.89167 2.39234L5.375 1L8.31667 6.63302L11.2583 1L11.7417 2.39234L8.91667 7.78667L11.6 12.9264ZM5.13333 15.9333C5.28333 15.9333 5.42222 15.9056 5.55 15.85C5.67778 15.7944 5.79028 15.7181 5.8875 15.6208C5.98472 15.5236 6.06111 15.4111 6.11667 15.2833C6.17222 15.1556 6.2 15.0167 6.2 14.8667C6.2 14.7167 6.17222 14.5778 6.11667 14.45C6.06111 14.3222 5.98472 14.2097 5.8875 14.1125C5.79028 14.0153 5.67778 13.9389 5.55 13.8833C5.42222 13.8278 5.28333 13.8 5.13333 13.8C4.98333 13.8 4.84445 13.8278 4.71667 13.8833C4.58889 13.9389 4.47639 14.0153 4.37917 14.1125C4.28194 14.2097 4.20556 14.3222 4.15 14.45C4.09444 14.5778 4.06667 14.7167 4.06667 14.8667C4.06667 15.0167 4.09444 15.1556 4.15 15.2833C4.20556 15.4111 4.28194 15.5236 4.37917 15.6208C4.47639 15.7181 4.58889 15.7944 4.71667 15.85C4.84445 15.9056 4.98333 15.9333 5.13333 15.9333ZM11.5333 15.9333C11.6833 15.9333 11.8222 15.9056 11.95 15.85C12.0778 15.7944 12.1903 15.7181 12.2875 15.6208C12.3847 15.5236 12.4611 15.4111 12.5167 15.2833C12.5722 15.1556 12.6 15.0167 12.6 14.8667C12.6 14.7167 12.5722 14.5778 12.5167 14.45C12.4611 14.3222 12.3847 14.2097 12.2875 14.1125C12.1903 14.0153 12.0778 13.9389 11.95 13.8833C11.8222 13.8278 11.6833 13.8 11.5333 13.8C11.3833 13.8 11.2444 13.8278 11.1167 13.8833C10.9889 13.9389 10.8764 14.0153 10.7792 14.1125C10.6819 14.2097 10.6056 14.3222 10.55 14.45C10.4944 14.5778 10.4667 14.7167 10.4667 14.8667C10.4667 15.0167 10.4944 15.1556 10.55 15.2833C10.6056 15.4111 10.6819 15.5236 10.7792 15.6208C10.8764 15.7181 10.9889 15.7944 11.1167 15.85C11.2444 15.9056 11.3833 15.9333 11.5333 15.9333Z" fill="#CCCCCC"/>
</svg>
