<svg width="16" height="16" viewBox="0 0 16 16" fill="none" xmlns="http://www.w3.org/2000/svg">
<mask id="mask0" mask-type="alpha" maskUnits="userSpaceOnUse" x="0" y="0" width="16" height="16">
<path fill-rule="evenodd" clip-rule="evenodd" d="M0 0H15.9998V15.9995H0V0Z" fill="#CCCCCC"/>
</mask>
<g mask="url(#mask0)">
<path fill-rule="evenodd" clip-rule="evenodd" d="M12.5078 1.39452C13.2268 1.89152 13.8448 2.48052 14.3628 3.16052C14.8808 3.83952 15.2828 4.59252 15.5708 5.41752C15.8568 6.24352 15.9998 7.10451 15.9998 7.99951C15.9998 8.73451 15.9038 9.44252 15.7148 10.1245C15.5248 10.8075 15.2558 11.4455 14.9098 12.0395C14.5638 12.6325 14.1468 13.1725 13.6598 13.6605C13.1728 14.1475 12.6328 14.5635 12.0388 14.9105C11.4458 15.2565 10.8068 15.5245 10.1248 15.7145C9.44282 15.9055 8.73482 15.9995 7.99982 15.9995C7.26582 15.9995 6.55682 15.9055 5.87482 15.7145C5.19282 15.5245 4.55482 15.2565 3.96082 14.9105C3.36682 14.5635 2.82582 14.1475 2.33982 13.6605C1.85282 13.1725 1.43582 12.6325 1.08982 12.0395C0.742817 11.4455 0.474817 10.8085 0.284817 10.1285C0.0948169 9.44952 -0.000183105 8.73951 -0.000183105 7.99951C-0.000183105 7.27051 0.0958169 6.56252 0.288817 5.87452C0.481817 5.18752 0.755817 4.54052 1.11282 3.93352C1.46982 3.32752 1.90382 2.77452 2.41382 2.27752C2.92382 1.78052 3.49982 1.35452 4.14082 0.999511H1.99982V-0.000488281H5.99982V3.99952H4.99982V1.67952C4.39082 1.97152 3.83982 2.33652 3.34782 2.77752C2.85582 3.21752 2.43482 3.71152 2.08582 4.26152C1.73682 4.81152 1.46882 5.40352 1.28082 6.03952C1.09382 6.67452 0.999817 7.32851 0.999817 7.99951C0.999817 8.64051 1.08282 9.25852 1.24982 9.85552C1.41582 10.4525 1.65282 11.0085 1.95682 11.5275C2.26182 12.0455 2.62682 12.5185 3.05482 12.9455C3.48182 13.3725 3.95382 13.7385 4.47282 14.0425C4.98982 14.3475 5.54682 14.5825 6.14082 14.7495C6.73482 14.9165 7.35382 14.9995 7.99982 14.9995C8.64082 14.9995 9.25882 14.9165 9.85582 14.7495C10.4508 14.5825 11.0088 14.3475 11.5278 14.0425C12.0448 13.7385 12.5178 13.3725 12.9448 12.9455C13.3718 12.5185 13.7378 12.0455 14.0428 11.5275C14.3478 11.0085 14.5828 10.4535 14.7498 9.85952C14.9158 9.26552 14.9998 8.64551 14.9998 7.99951C14.9998 7.21851 14.8728 6.46552 14.6208 5.74252C14.3678 5.01852 14.0158 4.35952 13.5628 3.76552C13.1098 3.17152 12.5688 2.65752 11.9418 2.22252C11.3138 1.78852 10.6218 1.46552 9.86682 1.25752L10.1328 0.296511C10.9968 0.531511 11.7888 0.897511 12.5078 1.39452Z" fill="#CCCCCC"/>
<path fill-rule="evenodd" clip-rule="evenodd" d="M12 8.06965L6 4.5V11.6474L12 8.06965ZM10 8.06965L7 9.8585V6.28885L10 8.06965Z" fill="#CCCCCC"/>
</g>
</svg>
