<svg width="16" height="16" viewBox="0 0 16 16" fill="none" xmlns="http://www.w3.org/2000/svg">
<g clip-path="url(#clip0)">
<path d="M9.1 15.2001H0.599976V4.1001H13.3V9.0001" stroke="#CCCCCC"/>
<path d="M13.4 4.1001H0.699951V6.1001H13.4V4.1001Z" fill="#CCCCCC"/>
<path d="M9 11.7001H2.59998V0.600098H15.2V9.0001" stroke="#CCCCCC"/>
<path d="M15.3 0.5H2.59998V2.5H15.3V0.5Z" fill="#CCCCCC"/>
<path d="M4.59998 8.2002H10.9" stroke="#CCCCCC"/>
<path d="M14.1386 14.6563L14.0617 14.6331L14.0748 14.7123C14.0856 14.7771 14.0962 14.8362 14.1061 14.8916C14.138 15.0694 14.163 15.2089 14.163 15.3753C14.163 15.5381 14.2731 15.6421 14.4192 15.6912L14.4191 15.6913L14.4229 15.6923C14.5989 15.7366 14.7751 15.7921 14.953 15.8481L14.9538 15.8483C15.1303 15.9039 15.3085 15.96 15.487 16.005C15.7678 16.0987 16.0574 16.0526 16.2508 15.8091C16.4464 15.5629 16.3936 15.2703 16.255 15.0372C16.1448 14.8372 16.0454 14.6371 15.9455 14.4358L15.9453 14.4354C15.846 14.2353 15.7461 14.034 15.6352 13.8327C15.5917 13.7229 15.5741 13.6547 15.5786 13.595C15.5831 13.5368 15.6093 13.4794 15.6731 13.3935C16.0722 12.9467 16.4279 12.5435 16.7838 12.0954L16.7839 12.0955L16.7863 12.0919C16.8127 12.052 16.8373 12.0185 16.8617 11.9854C16.8789 11.9621 16.8959 11.939 16.9134 11.9138C16.9535 11.8561 16.9898 11.7957 17.0142 11.722C17.0608 11.5812 17.0642 11.4537 17.0109 11.353C16.9573 11.2517 16.8531 11.1899 16.7124 11.1655C16.6441 11.1429 16.5841 11.1306 16.5225 11.1306C16.4608 11.1306 16.4006 11.1429 16.332 11.1658C16.1092 11.2107 15.8979 11.2668 15.6933 11.3225C15.6687 11.3292 15.6443 11.3359 15.6199 11.3425C15.44 11.3917 15.2652 11.4394 15.0904 11.4786V11.4785L15.0883 11.4791C14.9207 11.5241 14.7987 11.5568 14.7032 11.5724C14.608 11.5879 14.5469 11.5849 14.4985 11.565C14.4506 11.5453 14.4075 11.5056 14.3556 11.4299C14.3034 11.3537 14.2465 11.2475 14.1683 11.1011L14.1677 11.1L14.1665 11.098C13.9897 10.7862 13.8102 10.4698 13.5853 10.1979L13.5849 10.1974C13.4463 10.0346 13.2885 9.94411 13.1284 9.95051C12.9676 9.95701 12.8219 10.0604 12.706 10.2464C12.5865 10.4075 12.5354 10.5695 12.4958 10.6947C12.4896 10.7144 12.4837 10.7333 12.4778 10.751L12.4774 10.7509L12.4762 10.757C12.4316 10.9819 12.3981 11.2066 12.3649 11.4299L12.3648 11.4305C12.3315 11.654 12.2984 11.8762 12.2544 12.0981C12.2323 12.1868 12.2121 12.2443 12.1803 12.2854C12.1504 12.3242 12.1064 12.353 12.0251 12.3736C11.7037 12.4456 11.4102 12.5464 11.1029 12.652C11.025 12.6788 10.9463 12.7058 10.866 12.7328V12.7327L10.8633 12.7338C10.8129 12.7541 10.764 12.7723 10.7162 12.7901C10.5612 12.8478 10.4183 12.901 10.278 13.006C10.0914 13.1013 9.9803 13.2469 9.9553 13.4102C9.9306 13.5722 9.9922 13.7417 10.1303 13.8837C10.1572 13.9343 10.1957 13.9715 10.2411 14.0058C10.2711 14.0285 10.307 14.0518 10.3461 14.0772C10.3666 14.0906 10.388 14.1045 10.4099 14.1193L10.4094 14.12L10.418 14.1237C10.5235 14.1692 10.633 14.2143 10.7421 14.2593C10.9581 14.3483 11.172 14.4364 11.348 14.5251L11.3586 14.5304H11.3705C11.3751 14.5304 11.3836 14.5318 11.3996 14.5355C11.4023 14.5361 11.4053 14.5368 11.4084 14.5375C11.4209 14.5405 11.4362 14.544 11.451 14.5465C11.4835 14.552 11.5363 14.5567 11.5769 14.5219C11.8441 14.3867 12.1106 14.2077 12.374 14.0308L12.3755 14.0298L12.4538 13.9772L12.3663 13.9419C12.1447 13.8526 11.9342 13.7633 11.7231 13.6738L11.7229 13.6737C11.5484 13.5997 11.3736 13.5255 11.1924 13.4513C11.205 13.4453 11.2162 13.4396 11.2263 13.4345H11.2264C11.2638 13.4156 11.274 13.4119 11.2817 13.4119H11.2891L11.2961 13.4097C11.5186 13.3425 11.7298 13.2753 11.9407 13.2082H11.9408C12.1511 13.1412 12.3611 13.0745 12.5819 13.0077C12.7006 12.9834 12.7877 12.9342 12.8511 12.864C12.9142 12.7941 12.9502 12.7071 12.9735 12.6133L12.974 12.6134L12.9748 12.6061C12.9968 12.3841 13.0299 12.1729 13.0632 11.966C13.0657 11.9504 13.0682 11.9348 13.0707 11.9192C13.101 11.7317 13.1307 11.5472 13.1514 11.3625C13.1728 11.3181 13.1842 11.2832 13.1952 11.2446C13.1979 11.2348 13.2006 11.2249 13.2035 11.2146C13.2045 11.2107 13.2056 11.2067 13.2068 11.2027C13.2505 11.2752 13.294 11.3465 13.3368 11.4167C13.5364 11.7441 13.7219 12.0482 13.8564 12.3529L13.8557 12.3532L13.8604 12.3603C13.9035 12.4255 13.9436 12.4823 14.0018 12.5116C14.0628 12.5424 14.1334 12.5386 14.2252 12.5155L14.2275 12.5148C14.3123 12.4892 14.3954 12.4636 14.4773 12.4384C14.8244 12.3315 15.1509 12.2309 15.5062 12.159C15.5551 12.1582 15.6027 12.1462 15.6439 12.1358L15.6465 12.1351C15.6507 12.1341 15.6549 12.133 15.6591 12.132C15.3714 12.5399 15.0811 12.912 14.7529 13.284L14.7528 13.2839L14.7503 13.2873C14.6821 13.3789 14.6418 13.4553 14.6351 13.5367C14.6283 13.6181 14.6559 13.6956 14.7012 13.7868H14.7011L14.7025 13.7892C14.7905 13.9444 14.8677 14.0998 14.9455 14.2566L14.9457 14.2571C15.0231 14.413 15.1011 14.5702 15.1904 14.7276L15.3178 14.9845C15.2123 14.9557 15.1128 14.9289 15.0167 14.903C14.7163 14.8221 14.4495 14.7502 14.1386 14.6563Z" fill="#CCCCCC" stroke="#CCCCCC" stroke-width="0.1"/>
</g>
<defs>
<clipPath id="clip0">
<rect width="16" height="16" fill="white"/>
</clipPath>
</defs>
</svg>
