<svg width="16" height="16" viewBox="0 0 16 16" fill="none" xmlns="http://www.w3.org/2000/svg">
<g clip-path="url(#clip0)">
<path fill-rule="evenodd" clip-rule="evenodd" d="M10.22 13.0167V13.8367H12.5667V16.3967H13.3867V13.8367H15.7333V12.91H13.3867V10.35H12.5667V13.0167H10.22ZM14 10.0312C14.1354 10.0583 14.2642 10.089 14.3867 10.1232C14.4291 10.1351 14.4708 10.1474 14.5117 10.1602C14.6706 10.2096 14.8333 10.2734 15 10.3516V6.28906L13 4.28906V0H1V14H3V16H9.05469C8.90885 15.8542 8.77734 15.6966 8.66016 15.5273C8.54297 15.3581 8.4401 15.1823 8.35156 15H4V3H10V7H14V10.0312ZM11.1333 6.0224H13.4224L11.1333 3.73333V6.0224ZM10.7776 2.06667L12.0667 3.35573V1.06667L2.06667 1.06667L2.06667 13.0667H3.06667V2.06667H10.7776Z" fill="#393939"/>
<path fill-rule="evenodd" clip-rule="evenodd" d="M8.66016 15.5273C8.54297 15.3581 8.4401 15.1823 8.35156 15H4V3H10V7H14V10.0312C14.1823 10.0677 14.3529 10.1107 14.5117 10.1602C14.6706 10.2096 14.8333 10.2734 15 10.3516V6.28906L13 4.28906V0H1V14H3V16H9.05469C8.90885 15.8542 8.77734 15.6966 8.66016 15.5273ZM11.1333 3.73333L13.4224 6.0224H11.1333V3.73333ZM3.06667 2.06667V13.0667H2.06667V1.06667H12.0667V3.35573L10.7776 2.06667H3.06667Z" fill="#0078D4"/>
<path d="M12.5667 10.35V13.0167H10.22V13.8367H12.5667V16.3967H13.3867V13.8367H15.7333V12.91H13.3867V10.35H12.5667Z" fill="#0078D4"/>
</g>
<defs>
<clipPath id="clip0">
<rect width="16" height="16" fill="white"/>
</clipPath>
</defs>
</svg>
