<svg width="13" height="16" viewBox="0 0 13 16" fill="none" xmlns="http://www.w3.org/2000/svg">
<path d="M5.33333 13.8667C5.57576 13.8667 5.82323 13.8583 6.07576 13.8417C6.20202 14.2083 6.35859 14.55 6.54545 14.8667C6.34343 14.8889 6.14141 14.9056 5.93939 14.9167C5.73737 14.9278 5.53535 14.9333 5.33333 14.9333C4.65657 14.9333 3.99495 14.8722 3.34848 14.75C3.16162 14.7167 2.9495 14.6681 2.71212 14.6042C2.47475 14.5403 2.23232 14.4597 1.98485 14.3625C1.73737 14.2653 1.49495 14.1514 1.25758 14.0208C1.0202 13.8903 0.808081 13.7389 0.621212 13.5667C0.434344 13.3944 0.284091 13.2014 0.170455 12.9875C0.056818 12.7736 0 12.5333 0 12.2667V2.66667C0 2.41667 0.0492425 2.19306 0.147728 1.99583C0.246212 1.79861 0.373737 1.61667 0.530303 1.45C0.70202 1.26111 0.907828 1.09444 1.14773 0.95C1.38763 0.805556 1.64646 0.679167 1.92424 0.570833C2.20202 0.4625 2.49242 0.372222 2.79545 0.3C3.09848 0.227777 3.39899 0.169444 3.69697 0.125C3.99495 0.0805552 4.28283 0.048611 4.56061 0.0291664C4.83838 0.00972231 5.09596 0 5.33333 0C5.69697 0 6.09975 0.0222219 6.54167 0.0666664C6.98359 0.111111 7.4255 0.1875 7.86742 0.295833C8.30934 0.404167 8.7298 0.552778 9.12879 0.741667C9.52778 0.930555 9.86364 1.16667 10.1364 1.45C10.2929 1.61111 10.4205 1.79444 10.5189 2C10.6174 2.20556 10.6667 2.42778 10.6667 2.66667V7.43333H9.69697V4.25C9.39394 4.45556 9.06187 4.62778 8.70076 4.76667C8.33965 4.90556 7.96843 5.01667 7.58712 5.1C7.20581 5.18333 6.82197 5.24306 6.43561 5.27917C6.04924 5.31528 5.68182 5.33333 5.33333 5.33333C4.98485 5.33333 4.61742 5.31528 4.23106 5.27917C3.8447 5.24306 3.4596 5.18333 3.07576 5.1C2.69192 5.01667 2.32071 4.90556 1.96212 4.76667C1.60354 4.62778 1.27273 4.45556 0.969697 4.25V12.2667C0.969697 12.3778 1.00631 12.4806 1.07955 12.575C1.15278 12.6694 1.22475 12.7472 1.29545 12.8083C1.53283 13.0139 1.82197 13.1847 2.16288 13.3208C2.50379 13.4569 2.86111 13.5653 3.23485 13.6458C3.60859 13.7264 3.9798 13.7833 4.34848 13.8167C4.71717 13.85 5.04545 13.8667 5.33333 13.8667ZM5.33333 1.06667C5.07576 1.06667 4.80682 1.07639 4.52652 1.09583C4.24621 1.11528 3.96465 1.14861 3.68182 1.19583C3.39899 1.24306 3.12121 1.30417 2.84848 1.37917C2.57576 1.45417 2.32071 1.54444 2.08333 1.65C2.00758 1.68333 1.90657 1.73472 1.7803 1.80417C1.65404 1.87361 1.5303 1.95278 1.40909 2.04167C1.28788 2.13056 1.18434 2.22778 1.09848 2.33333C1.01263 2.43889 0.969697 2.55 0.969697 2.66667C0.969697 2.71111 0.977273 2.75278 0.992424 2.79167C1.00758 2.83056 1.02778 2.86944 1.05303 2.90833C1.16414 3.08611 1.32323 3.24444 1.5303 3.38333C1.73737 3.52222 1.9697 3.64167 2.22727 3.74167C2.48485 3.84167 2.75884 3.925 3.04924 3.99167C3.33965 4.05833 3.62374 4.1125 3.90152 4.15417C4.17929 4.19583 4.44318 4.225 4.69318 4.24167C4.94318 4.25833 5.15657 4.26667 5.33333 4.26667C5.5101 4.26667 5.72348 4.25833 5.97348 4.24167C6.22348 4.225 6.48737 4.19583 6.76515 4.15417C7.04293 4.1125 7.32702 4.05833 7.61742 3.99167C7.90783 3.925 8.18182 3.84167 8.43939 3.74167C8.69697 3.64167 8.92803 3.52361 9.13258 3.3875C9.33712 3.25139 9.49747 3.09167 9.61364 2.90833C9.63889 2.86944 9.65909 2.83056 9.67424 2.79167C9.68939 2.75278 9.69697 2.71111 9.69697 2.66667C9.69697 2.55 9.65404 2.43889 9.56818 2.33333C9.48232 2.22778 9.37879 2.13056 9.25758 2.04167C9.13636 1.95278 9.01263 1.87361 8.88636 1.80417C8.7601 1.73472 8.65909 1.68333 8.58333 1.65C8.34596 1.54444 8.09091 1.45417 7.81818 1.37917C7.54545 1.30417 7.26768 1.24306 6.98485 1.19583C6.70202 1.14861 6.42045 1.11528 6.14015 1.09583C5.85985 1.07639 5.59091 1.06667 5.33333 1.06667Z" fill="#0078D4"/>
<path d="M12.48 12.5867H10.1333V15.1467H9.81334V12.5867H7.46667V12.2667H9.81334V9.60001H10.1333V12.16H12.48V12.5867Z" fill="#0078D4" stroke="#0078D4" stroke-width="0.5"/>
</svg>
