<svg width="15" height="15" viewBox="0 0 15 15" fill="none" xmlns="http://www.w3.org/2000/svg">
<path d="M11.9 3.49999H9V0.899994" stroke="#0078D4" stroke-miterlimit="10"/>
<path d="M4.89999 10.4C4.19999 10.4 3.79999 10.1 3.79999 9.50001V8.60001C3.79999 8.20001 3.69999 8.00001 3.39999 8.00001V7.50001C3.69999 7.50001 3.89999 7.30001 3.89999 6.90001V6.00001C3.89999 5.40001 4.29999 5.10001 4.99999 5.10001V5.60001C4.69999 5.60001 4.49999 5.80001 4.49999 6.20001V7.00001C4.49999 7.40001 4.29999 7.70001 3.89999 7.80001C4.29999 7.90001 4.49999 8.10001 4.49999 8.60001V9.40001C4.49999 9.60001 4.49999 9.80001 4.59999 9.90001C4.69999 10 4.79999 10 4.99999 10V10.4H4.89999Z" fill="#0078D4"/>
<path d="M10.4 8C9.99999 8 9.89999 8.2 9.89999 8.6V9.5C9.89999 10.1 9.49999 10.4 8.79999 10.4V9.9C8.99999 9.9 9.09999 9.8 9.19999 9.8C9.29999 9.7 9.29999 9.6 9.29999 9.3V8.5C9.29999 8.1 9.49999 7.8 9.89999 7.7C9.49999 7.6 9.29999 7.4 9.29999 7V6.1C9.29999 5.7 9.09999 5.5 8.79999 5.5V5C9.49999 5 9.89999 5.3 9.89999 5.9V6.8C9.89999 7.2 10.1 7.4 10.4 7.4V8Z" fill="#0078D4"/>
<path d="M10.7 8.89999V14.9" stroke="#0078D4" stroke-miterlimit="10"/>
<path d="M7.79999 11.9H13.6" stroke="#0078D4" stroke-miterlimit="10"/>
<path d="M7 13.7H2V0.899994H9L11.9 3.49999V8.39999" stroke="#0078D4" stroke-miterlimit="10"/>
</svg>
