<svg width="16" height="16" viewBox="0 0 16 16" fill="none" xmlns="http://www.w3.org/2000/svg">
<g clip-path="url(#clip0)">
<path d="M15.2 12.7H12.9V15.2H12.6V12.7H10.3V12.4H12.6V9.89999H12.9V12.4H15.2V12.7Z" fill="#0078D4" stroke="#0078D4" stroke-width="0.5" stroke-miterlimit="10"/>
<path d="M3.5 8.4C4.88071 8.4 6 7.19117 6 5.7C6 4.20883 4.88071 3 3.5 3C2.11929 3 1 4.20883 1 5.7C1 7.19117 2.11929 8.4 3.5 8.4Z" stroke="#0078D4" stroke-miterlimit="10"/>
<path d="M8.96547 14.1175C9.49213 13.0843 9.08146 11.8197 8.04819 11.293C7.01493 10.7664 5.75035 11.177 5.22369 12.2103C4.69703 13.2436 5.10771 14.5081 6.14097 15.0348C7.17424 15.5615 8.43881 15.1508 8.96547 14.1175Z" stroke="#0078D4" stroke-miterlimit="10"/>
<path d="M14.7849 2.85472C15.1611 2.11667 14.8677 1.2134 14.1297 0.837216C13.3916 0.461027 12.4884 0.75437 12.1122 1.49242C11.736 2.23046 12.0293 3.13373 12.7674 3.50992C13.5054 3.8861 14.4087 3.59276 14.7849 2.85472Z" stroke="#0078D4" stroke-width="0.75" stroke-miterlimit="10"/>
<path d="M12.8853 8.33005C13.4119 7.29678 13.0013 6.03221 11.968 5.50555C10.9347 4.97888 9.67015 5.38956 9.14349 6.42283C8.61683 7.45609 9.02751 8.72066 10.0608 9.24733C11.094 9.77399 12.3586 9.36331 12.8853 8.33005Z" fill="#0078D4"/>
<path d="M5.59998 6.2L9.29998 6.8" stroke="#0078D4" stroke-miterlimit="10"/>
<path d="M10.4 8.09999L8.09998 11.2" stroke="#0078D4" stroke-miterlimit="10"/>
<path d="M12.9 3.39999L11.1 6.79999" stroke="#0078D4" stroke-miterlimit="10"/>
</g>
<defs>
<clipPath id="clip0">
<rect width="16" height="16" fill="white"/>
</clipPath>
</defs>
</svg>
