<?xml version="1.0" encoding="utf-8"?>
<!-- Generator: Adobe Illustrator 21.1.0, SVG Export Plug-In . SVG Version: 6.00 Build 0)  -->
<svg version="1.1" id="Layer_1" xmlns="http://www.w3.org/2000/svg" xmlns:xlink="http://www.w3.org/1999/xlink" x="0px" y="0px"
	 width="50px" height="46px" viewBox="0 0 50 46" style="enable-background:new 0 0 50 46;" xml:space="preserve">
<style type="text/css">
	.st0{fill:#5CB4DB;}
	.st1{opacity:0.5;fill:#FFFFFF;enable-background:new    ;}
	.st2{fill:#B8D434;}
	.st3{fill:#29BCEE;}
	.st4{fill:#FFFFFF;}
</style>
<title>CosmosDB_cmyk_lq_darktheme</title>
<path class="st0" d="M41.4,20.7c2.1,8.9-3.3,17.8-12.2,19.9S11.4,37.3,9.2,28.4s3.3-17.8,12.2-19.9c0,0,0,0,0,0
	c8.8-2.2,17.7,3.2,19.9,12.1C41.3,20.6,41.4,20.6,41.4,20.7z"/>
<path class="st1" d="M23,31.1c0-2.4-2-4.4-4.4-4.4c0,0,0,0,0,0h-0.7c0.6-2.3-0.9-4.7-3.2-5.3c-0.3-0.1-0.7-0.1-1.1-0.1H9.1
	c-1,5.1,0.5,10.3,4,14.1h5.5C21,35.5,23,33.6,23,31.1C23,31.1,23,31.1,23,31.1z"/>
<path class="st1" d="M28.4,13c0,0.3,0,0.5,0.1,0.8h-1.9c-2.5,0-4.6,2-4.6,4.6c0,2.5,2,4.6,4.6,4.6h15.1C41.2,17.4,38,12.6,33.2,10
	h-1.8C29.7,10,28.4,11.4,28.4,13z"/>
<path class="st1" d="M41.7,26.3h-9c-2.1,0-3.7,1.7-3.7,3.7c0,0.6,0.2,1.2,0.4,1.8c-2,0.6-3,2.7-2.4,4.6c0.5,1.6,1.9,2.6,3.6,2.6h2.5
	C37.9,36.4,41.1,31.7,41.7,26.3z"/>
<path class="st2" d="M6.8,13.5c-0.3,0-0.5-0.2-0.5-0.5c0,0,0,0,0,0c0-3.2-2.6-5.8-5.8-5.8C0.2,7.3,0,7,0,6.8s0.2-0.5,0.5-0.5
	c3.2,0,5.8-2.6,5.8-5.8C6.3,0.2,6.5,0,6.8,0c0.3,0,0.5,0.2,0.5,0.5c0,3.2,2.6,5.8,5.8,5.8c0.3,0,0.5,0.2,0.5,0.5s-0.2,0.5-0.5,0.5
	c-3.2,0-5.8,2.6-5.8,5.8C7.3,13.3,7.1,13.5,6.8,13.5z"/>
<path class="st3" d="M42.4,46c-0.2,0-0.3-0.1-0.3-0.3c0-1.9-1.6-3.4-3.5-3.4c-0.2,0-0.3-0.1-0.3-0.3s0.1-0.3,0.3-0.3c0,0,0,0,0,0
	c1.9,0,3.5-1.5,3.5-3.4c0-0.2,0.1-0.3,0.3-0.3c0.2,0,0.3,0.1,0.3,0.3c0,1.9,1.6,3.4,3.5,3.4c0.2,0,0.3,0.1,0.3,0.3s-0.1,0.3-0.3,0.3
	c0,0,0,0,0,0c-1.9,0-3.5,1.5-3.5,3.4C42.8,45.9,42.6,46,42.4,46C42.5,46,42.5,46,42.4,46z"/>
<path class="st4" d="M49.4,9.7c-1.6-2.6-5.5-3.2-11.5-1.7c-1.8,0.5-3.7,1-5.4,1.7c1.1,0.6,2.2,1.2,3.2,2c1-0.3,2-0.6,2.9-0.9
	c1.6-0.4,3.2-0.6,4.8-0.7c1.9,0,3,0.5,3.4,1.1c0.6,1,0,3.5-3.4,7.5c-0.6,0.7-1.3,1.4-2,2.1c-3.8,3.6-7.9,6.8-12.4,9.5
	c-4.5,2.8-9.2,5.1-14.2,6.8c-6,2-10.1,1.9-11,0.4s0.9-5.2,5.4-9.6c-0.3-1.3-0.4-2.6-0.4-3.8c-7.1,6.4-9.4,12-7.6,15
	c1,1.6,3.1,2.5,6.1,2.5c3.7-0.2,7.2-0.9,10.6-2.3c4.4-1.7,8.6-3.8,12.6-6.3c4-2.4,7.8-5.2,11.3-8.4c1.4-1.2,2.7-2.5,3.9-3.9
	C49.7,16,51,12.2,49.4,9.7z"/>
</svg>
