<svg width="24" height="23" viewBox="0 0 24 23" fill="none" xmlns="http://www.w3.org/2000/svg">
<g clip-path="url(#clip0)">
<path d="M3.88873 7.02182C3.82623 7.02202 3.76622 6.99738 3.72189 6.95332C3.67757 6.90927 3.65256 6.84941 3.65236 6.78692C3.64755 5.30545 2.44438 4.10749 0.96291 4.1091C0.875998 4.11394 0.793535 4.07032 0.748621 3.99576C0.703707 3.9212 0.703707 3.82791 0.748621 3.75334C0.793535 3.67878 0.875998 3.63517 0.96291 3.64001C2.44455 3.64202 3.64795 2.44382 3.65236 0.962189C3.65236 0.831247 3.75851 0.725098 3.88946 0.725098C4.0204 0.725098 4.12655 0.831247 4.12655 0.962189C4.13136 2.44422 5.33542 3.64242 6.81746 3.64001C6.94719 3.64001 7.05236 3.74518 7.05236 3.87492C7.05236 4.00465 6.94719 4.10982 6.81746 4.10982C5.33542 4.10741 4.13136 5.30561 4.12655 6.78764C4.12616 6.85027 4.10087 6.91016 4.05625 6.9541C4.01162 6.99804 3.95135 7.02241 3.88873 7.02182Z" fill="white"/>
<path d="M20.472 22.1266C20.3944 22.1266 20.3313 22.0638 20.3309 21.9862C20.3273 21.1009 19.6082 20.3854 18.7229 20.3862C18.6454 20.3862 18.5826 20.3234 18.5826 20.2458C18.5826 20.1683 18.6454 20.1055 18.7229 20.1055C19.6082 20.1063 20.3273 19.3908 20.3309 18.5055C20.3309 18.4275 20.3941 18.3644 20.472 18.3644C20.5499 18.3644 20.6131 18.4275 20.6131 18.5055C20.6167 19.3908 21.3358 20.1063 22.2211 20.1055C22.2986 20.1055 22.3615 20.1683 22.3615 20.2458C22.3615 20.3234 22.2986 20.3862 22.2211 20.3862C21.3358 20.3854 20.6167 21.1009 20.6131 21.9862C20.6131 22.0236 20.5982 22.0594 20.5717 22.0857C20.5452 22.1121 20.5094 22.1268 20.472 22.1266Z" fill="white"/>
<path d="M9.08873 18.9724C11.4566 20.1539 14.2666 20.0297 16.5211 18.644C18.7755 17.2582 20.1552 14.807 20.1702 12.1608C18.5444 13.6161 16.7868 14.917 14.92 16.0466C13.0709 17.2001 11.1188 18.1795 9.08873 18.9724Z" fill="white"/>
<path d="M13.6494 13.968C15.6737 12.756 17.5526 11.3164 19.2494 9.67711C19.3884 9.53893 19.512 9.41239 19.6291 9.29093C19.2963 8.445 18.8145 7.66562 18.2065 6.98984C16.2926 4.8708 13.3626 3.9858 10.5956 4.69094C7.82854 5.39608 5.67947 7.57541 5.01308 10.352C4.44554 12.7688 5.08293 15.3108 6.72363 17.1738C6.90036 17.1222 7.07417 17.0728 7.2669 17.0102C9.50315 16.2421 11.6445 15.2214 13.6494 13.968Z" fill="white"/>
<path d="M23.6938 5.22259C22.9629 4.02113 21.1171 3.74404 18.3644 4.4175C17.5075 4.63425 16.6645 4.90261 15.84 5.22113C16.3714 5.48036 16.8714 5.79953 17.3302 6.17241C17.7986 6.01822 18.2582 5.8815 18.696 5.77313C19.4283 5.57923 20.1809 5.47255 20.9382 5.45532C21.8393 5.45532 22.3367 5.67786 22.5026 5.94913C22.7746 6.39422 22.5244 7.5695 20.9244 9.41822C20.64 9.74695 20.3193 10.08 19.9833 10.4153C18.2283 12.1113 16.2853 13.6012 14.192 14.856C12.1187 16.154 9.90294 17.2089 7.58837 18C4.80364 18.907 2.90183 18.8888 2.47637 18.1928C2.05092 17.4968 2.90183 15.7928 4.9811 13.728C4.85364 13.1405 4.79627 12.54 4.81019 11.939C1.5011 14.9295 0.429826 17.5222 1.2851 18.9208C1.7331 19.6531 2.71128 20.0691 4.14037 20.0691C5.83999 19.9977 7.51387 19.6284 9.08583 18.9782C11.118 18.185 13.0721 17.2048 14.9229 16.0502C16.7903 14.9202 18.5484 13.6188 20.1746 12.163C20.8131 11.5901 21.4171 10.9798 21.9833 10.3353C23.8356 8.18986 24.4284 6.42259 23.6938 5.22259Z" fill="white"/>
<path d="M3.88873 7.02182C3.82623 7.02202 3.76622 6.99738 3.72189 6.95332C3.67757 6.90927 3.65256 6.84941 3.65236 6.78692C3.64755 5.30545 2.44438 4.10749 0.96291 4.1091C0.875998 4.11394 0.793535 4.07032 0.748621 3.99576C0.703707 3.9212 0.703707 3.82791 0.748621 3.75334C0.793535 3.67878 0.875998 3.63517 0.96291 3.64001C2.44455 3.64202 3.64795 2.44382 3.65236 0.962189C3.65236 0.831247 3.75851 0.725098 3.88946 0.725098C4.0204 0.725098 4.12655 0.831247 4.12655 0.962189C4.13136 2.44422 5.33542 3.64242 6.81746 3.64001C6.94719 3.64001 7.05236 3.74518 7.05236 3.87492C7.05236 4.00465 6.94719 4.10982 6.81746 4.10982C5.33542 4.10741 4.13136 5.30561 4.12655 6.78764C4.12616 6.85027 4.10087 6.91016 4.05625 6.9541C4.01162 6.99804 3.95135 7.02241 3.88873 7.02182Z" fill="#333333"/>
<path d="M20.472 22.1266C20.3944 22.1266 20.3313 22.0638 20.3309 21.9862C20.3273 21.1009 19.6082 20.3854 18.7229 20.3862C18.6454 20.3862 18.5826 20.3234 18.5826 20.2458C18.5826 20.1683 18.6454 20.1055 18.7229 20.1055C19.6082 20.1063 20.3273 19.3908 20.3309 18.5055C20.3309 18.4275 20.3941 18.3644 20.472 18.3644C20.5499 18.3644 20.6131 18.4275 20.6131 18.5055C20.6167 19.3908 21.3358 20.1063 22.2211 20.1055C22.2986 20.1055 22.3615 20.1683 22.3615 20.2458C22.3615 20.3234 22.2986 20.3862 22.2211 20.3862C21.3358 20.3854 20.6167 21.1009 20.6131 21.9862C20.6131 22.0236 20.5982 22.0594 20.5717 22.0857C20.5452 22.1121 20.5094 22.1268 20.472 22.1266Z" fill="#333333"/>
<path d="M9.08873 18.9724C11.4566 20.1539 14.2666 20.0297 16.5211 18.644C18.7755 17.2582 20.1552 14.807 20.1702 12.1608C18.5444 13.6161 16.7868 14.917 14.92 16.0466C13.0709 17.2001 11.1188 18.1795 9.08873 18.9724Z" fill="#333333"/>
<path d="M13.6494 13.968C15.6737 12.756 17.5526 11.3164 19.2494 9.67711C19.3884 9.53893 19.512 9.41239 19.6291 9.29093C19.2963 8.445 18.8145 7.66562 18.2065 6.98984C16.2926 4.8708 13.3626 3.9858 10.5956 4.69094C7.82854 5.39608 5.67947 7.57541 5.01308 10.352C4.44554 12.7688 5.08293 15.3108 6.72363 17.1738C6.90036 17.1222 7.07417 17.0728 7.2669 17.0102C9.50315 16.2421 11.6445 15.2214 13.6494 13.968Z" fill="#333333"/>
<path d="M23.6938 5.22259C22.9629 4.02113 21.1171 3.74404 18.3644 4.4175C17.5075 4.63425 16.6645 4.90261 15.84 5.22113C16.3714 5.48036 16.8714 5.79953 17.3302 6.17241C17.7986 6.01822 18.2582 5.8815 18.696 5.77313C19.4283 5.57923 20.1809 5.47255 20.9382 5.45532C21.8393 5.45532 22.3367 5.67786 22.5026 5.94913C22.7746 6.39422 22.5244 7.5695 20.9244 9.41822C20.64 9.74695 20.3193 10.08 19.9833 10.4153C18.2283 12.1113 16.2853 13.6012 14.192 14.856C12.1187 16.154 9.90294 17.2089 7.58837 18C4.80364 18.907 2.90183 18.8888 2.47637 18.1928C2.05092 17.4968 2.90183 15.7928 4.9811 13.728C4.85364 13.1405 4.79627 12.54 4.81019 11.939C1.5011 14.9295 0.429826 17.5222 1.2851 18.9208C1.7331 19.6531 2.71128 20.0691 4.14037 20.0691C5.83999 19.9977 7.51387 19.6284 9.08583 18.9782C11.118 18.185 13.0721 17.2048 14.9229 16.0502C16.7903 14.9202 18.5484 13.6188 20.1746 12.163C20.8131 11.5901 21.4171 10.9798 21.9833 10.3353C23.8356 8.18986 24.4284 6.42259 23.6938 5.22259Z" fill="#333333"/>
</g>
<defs>
<clipPath id="clip0">
<rect width="24" height="23" fill="white"/>
</clipPath>
</defs>
</svg>
