<?xml version="1.0" encoding="utf-8"?>
<!-- Generator: Adobe Illustrator 21.0.2, SVG Export Plug-In . SVG Version: 6.00 Build 0)  -->
<svg version="1.1" id="Layer_1" xmlns="http://www.w3.org/2000/svg" xmlns:xlink="http://www.w3.org/1999/xlink" x="0px" y="0px"
	 width="16px" height="16px" viewBox="0 0 16 16" style="enable-background:new 0 0 16 16;" xml:space="preserve">
<style type="text/css">
	.st0{fill:#FFFFFF;}
	.st1{fill:#2BA7DF;}
</style>
<g>
	<g>
		<path class="st0" d="M0.5,5.7c-0.2,0-0.4-0.2-0.4-0.4c0-0.2,0.2-0.4,0.4-0.4c1.1,0,2-0.9,2-2c0-0.2,0.2-0.4,0.4-0.4
			s0.4,0.2,0.4,0.4C3.2,4.5,2,5.7,0.5,5.7z"/>
		<path class="st0" d="M5.2,5.7c-1.5,0-2.8-1.2-2.8-2.8c0-0.2,0.2-0.4,0.4-0.4s0.4,0.2,0.4,0.4c0,1.1,0.9,2,2,2
			c0.2,0,0.4,0.2,0.4,0.4S5.4,5.7,5.2,5.7z"/>
		<path class="st0" d="M2.8,8.1c-0.2,0-0.4-0.2-0.4-0.4c0-1.5,1.2-2.8,2.8-2.8c0.2,0,0.4,0.2,0.4,0.4c0,0.2-0.2,0.4-0.4,0.4
			c-1.1,0-2,0.9-2,2C3.2,7.9,3.1,8.1,2.8,8.1z"/>
		<path class="st0" d="M2.8,8.1c-0.2,0-0.4-0.2-0.4-0.4c0-1.1-0.9-2-2-2C0.2,5.7,0,5.5,0,5.3c0-0.2,0.2-0.4,0.4-0.4
			c1.5,0,2.8,1.2,2.8,2.7C3.2,7.9,3.1,8.1,2.8,8.1z"/>
	</g>
	<ellipse class="st0" cx="15.1" cy="13.7" rx="0.9" ry="0.9"/>
	<circle class="st0" cx="12.3" cy="3.9" r="1.3"/>
	<g>
		<path class="st0" d="M4.8,12.7c1.2-0.1,2.6-0.3,4.3-0.8s3-1.1,4-1.7c0-0.4,0-0.8-0.1-1.1C12.5,6.6,10,5,7.5,5.5S3.4,8.4,4,10.9
			C4.1,11.6,4.4,12.2,4.8,12.7z"/>
		<path class="st0" d="M9.3,12.6C8,13,6.7,13.3,5.4,13.4c1.1,0.9,2.5,1.4,4,1.1c1.8-0.4,3.1-1.7,3.5-3.4
			C11.9,11.7,10.6,12.2,9.3,12.6z"/>
	</g>
	<g>
		<path class="st0" d="M4.8,12.7c-0.3,0-0.5,0-0.8,0c-1.5,0-2.2-0.4-2.3-0.7c-0.1-0.5,0.6-1.4,2.2-2.3c0-0.2,0-0.3,0-0.5l0,0
			C4,9.1,4,9,4,8.8c-2,1.1-3.4,2.3-3,3.4c0.3,0.8,1.3,1.2,3,1.2c0.4,0,0.9,0,1.4-0.1C5.2,13.2,5,13,4.8,12.7z"/>
		<path class="st0" d="M16,7.6c-0.3-0.8-1.3-1.2-3-1.2c-0.4,0-0.9,0-1.4,0.1l0,0c0.1,0.1,0.2,0.2,0.3,0.3l0,0
			C12,6.9,12.1,7,12.2,7.2c0.3,0,0.5,0,0.8,0c1.5,0,2.2,0.4,2.3,0.7c0.1,0.5-0.6,1.4-2.2,2.3c0,0.3-0.1,0.6-0.1,0.9
			C15,10,16.3,8.7,16,7.6z"/>
	</g>
</g>
<g>
	<g>
		<path class="st1" d="M0.4,5.6C0.2,5.6,0,5.4,0,5.2C0,5,0.2,4.8,0.4,4.8c1.1,0,2-0.9,2-2c0-0.2,0.2-0.4,0.4-0.4s0.4,0.2,0.4,0.4
			C3.2,4.4,2,5.6,0.4,5.6z"/>
		<path class="st1" d="M5.2,5.6c-1.5,0-2.8-1.2-2.8-2.8c0-0.2,0.2-0.4,0.4-0.4s0.4,0.2,0.4,0.4c0,1.1,0.9,2,2,2
			c0.2,0,0.4,0.2,0.4,0.4C5.6,5.4,5.4,5.6,5.2,5.6z"/>
		<path class="st1" d="M2.8,8C2.6,8,2.4,7.8,2.4,7.6c0-1.5,1.2-2.8,2.8-2.8c0.2,0,0.4,0.2,0.4,0.4c0,0.2-0.2,0.4-0.4,0.4
			c-1.1,0-2,0.9-2,2C3.2,7.8,3,8,2.8,8z"/>
		<path class="st1" d="M2.8,8C2.6,8,2.4,7.8,2.4,7.6c0-1.1-0.9-2-2-2C0.2,5.6,0,5.4,0,5.2C0,5,0.2,4.8,0.4,4.8
			c1.5,0,2.8,1.2,2.8,2.8C3.2,7.8,3,8,2.8,8z"/>
	</g>
	<ellipse class="st1" cx="15.1" cy="13.6" rx="0.9" ry="0.9"/>
	<circle class="st1" cx="12.3" cy="3.7" r="1.3"/>
	<g>
		<path class="st1" d="M4.8,12.6c1.2-0.1,2.6-0.3,4.3-0.9c1.7-0.5,3-1.1,4-1.7c0-0.4,0-0.8-0.1-1.1c-0.5-2.5-3-4.1-5.5-3.6
			s-4.1,3-3.6,5.5C4.1,11.5,4.4,12.1,4.8,12.6z"/>
		<path class="st1" d="M9.3,12.5c-1.3,0.4-2.6,0.7-3.9,0.8c1.1,0.9,2.5,1.4,4,1.1c1.8-0.4,3.1-1.7,3.5-3.4
			C11.9,11.6,10.6,12.1,9.3,12.5z"/>
	</g>
	<g>
		<path class="st1" d="M4.8,12.6c-0.3,0-0.5,0-0.8,0c-1.6,0-2.2-0.4-2.3-0.7c-0.1-0.5,0.6-1.4,2.2-2.3c0-0.2,0-0.3,0-0.5l0,0
			c0-0.1,0-0.2,0.1-0.4c-2,1.1-3.4,2.4-3,3.5c0.2,0.8,1.3,1.2,3,1.2c0.4,0,0.9,0,1.4-0.1C5.2,13.1,5,12.9,4.8,12.6z"/>
		<path class="st1" d="M16,7.5c-0.3-0.8-1.3-1.2-3.1-1.2c-0.4,0-0.9,0-1.4,0.1l0,0c0.1,0.1,0.2,0.2,0.3,0.3l0,0
			C12,6.8,12.1,7,12.2,7.1c0.3,0,0.5,0,0.8,0c1.6,0,2.2,0.4,2.3,0.7c0.1,0.5-0.6,1.4-2.2,2.3c0,0.3-0.1,0.6-0.1,0.9
			C15,9.9,16.4,8.6,16,7.5z"/>
	</g>
</g>
</svg>
