<svg width="16" height="16" viewBox="0 0 16 16" fill="none" xmlns="http://www.w3.org/2000/svg">
<path d="M7.80001 0.5H4.60001V3.7H7.80001V0.5Z" stroke="#CCCCCC" stroke-width="0.6" stroke-miterlimit="10"/>
<path d="M15.5 0.5H12.3V3.7H15.5V0.5Z" stroke="#CCCCCC" stroke-width="0.6" stroke-miterlimit="10"/>
<path d="M15.5 4.40002H12.3V7.60002H15.5V4.40002Z" stroke="#CCCCCC" stroke-width="0.6" stroke-miterlimit="10"/>
<path d="M11.6 0.5H8.39999V3.7H11.6V0.5Z" stroke="#CCCCCC" stroke-width="0.6" stroke-miterlimit="10"/>
<path d="M15.5 8.19995H12.3V11.4H15.5V8.19995Z" stroke="#CCCCCC" stroke-width="0.6" stroke-miterlimit="10"/>
<path d="M6.69999 12.3C8.30161 12.3 9.59999 11.0016 9.59999 9.4C9.59999 7.79837 8.30161 6.5 6.69999 6.5C5.09836 6.5 3.79999 7.79837 3.79999 9.4C3.79999 11.0016 5.09836 12.3 6.69999 12.3Z" stroke="#CCCCCC" stroke-width="0.6" stroke-miterlimit="10"/>
<path d="M3.79999 12.3L4.59999 11.4" stroke="#CCCCCC" stroke-width="0.6" stroke-miterlimit="10"/>
<path d="M3.33273 11.91L0.575043 14.6677L1.42356 15.5162L4.18125 12.7586L3.33273 11.91Z" stroke="#CCCCCC" stroke-width="0.6" stroke-miterlimit="10"/>
<path d="M6.70001 5.70002C7.10001 5.70002 7.50001 5.80002 7.80001 5.90002V4.40002H4.60001V6.40002C5.20001 5.90002 5.90001 5.70002 6.70001 5.70002Z" stroke="#CCCCCC" stroke-width="0.6" stroke-miterlimit="10"/>
<path d="M8.39999 4.40002V6.20002C8.99999 6.50002 9.49999 7.00002 9.79999 7.60002H11.6V4.40002H8.39999Z" stroke="#CCCCCC" stroke-width="0.6" stroke-miterlimit="10"/>
<path d="M10.1 8.19995C10.2 8.59995 10.3 8.99995 10.3 9.39995C10.3 10.1 10.1 10.8 9.69998 11.4H11.6V8.19995H10.1Z" stroke="#CCCCCC" stroke-width="0.6" stroke-miterlimit="10"/>
</svg>
