<svg width="15" height="16" viewBox="0 0 15 16" fill="none" xmlns="http://www.w3.org/2000/svg">
<path d="M12.6776 13.5L14.4432 15.2734L13.7401 15.9766L11.9667 14.2109L10.1932 15.9844L9.49011 15.2734L11.2636 13.5L9.49011 11.7266L10.1932 11.0234L11.9667 12.7969L13.7401 11.0234L14.4432 11.7344L12.6776 13.5Z" fill="#CCCCCC"/>
<path d="M7.35156 15C7.4401 15.1823 7.54297 15.3581 7.66016 15.5273C7.77734 15.6966 7.90885 15.8542 8.05469 16H2V14H0V0H12V4.28906L14 6.28906V10.3516C13.8333 10.2734 13.6706 10.2096 13.5117 10.1602C13.3529 10.1107 13.1823 10.0677 13 10.0312V7H9V3H3V15H7.35156ZM12.4224 6.0224L10.1333 3.73333V6.0224H12.4224ZM2.06667 13.0667V2.06667H9.7776L11.0667 3.35573V1.06667H1.06667V13.0667H2.06667Z" fill="#CCCCCC"/>
</svg>
