<svg width="16" height="16" viewBox="0 0 16 16" fill="none" xmlns="http://www.w3.org/2000/svg">
<path fill-rule="evenodd" clip-rule="evenodd" d="M12.5779 14.8069H12.6819V0.999941H2.56987C2.37285 0.98071 2.17408 1.00847 1.98987 1.08094C1.8374 1.16857 1.69859 1.27806 1.57787 1.40594C1.43969 1.54771 1.32734 1.71252 1.24587 1.89294C1.14202 2.06496 1.08481 2.26107 1.07987 2.46194V4.24894H0V5.06094H1.07987V10.7459H0V11.5579H1.07987V13.4259C1.06654 13.6194 1.09484 13.8134 1.16287 13.9949C1.24434 14.1754 1.35669 14.3402 1.49487 14.4819C1.62692 14.636 1.80049 14.7488 1.99487 14.8069H11.8529H12.5779ZM11.8529 13.9949V1.81194H4.64199V13.9949H11.8529ZM3.81299 13.9949V1.81194H2.65287C2.56197 1.8007 2.47076 1.83037 2.40387 1.89294C2.22826 1.98414 2.08405 2.12591 1.98987 2.29994C1.92682 2.36423 1.89598 2.45344 1.90587 2.54294V4.24894H2.736V5.06094H1.90587V10.7459H2.736V11.5579H1.90587V13.1019C1.90587 13.1829 1.92662 13.2439 1.94737 13.3049C1.96812 13.3659 1.98887 13.4269 1.98887 13.5079C2.03024 13.5488 2.05099 13.5894 2.07168 13.6299C2.09249 13.6707 2.11324 13.7113 2.15487 13.7519C2.23787 13.8329 2.32087 13.9139 2.40387 13.9139C2.47076 13.9765 2.56197 14.0062 2.65287 13.9949H3.81299Z" fill="#0078D4"/>
</svg>
