<svg width="16" height="16" viewBox="0 0 16 16" fill="none" xmlns="http://www.w3.org/2000/svg">
<path d="M8.5 0.5C9 0.5 9.4 0.6 9.9 0.7C10.3 0.8 10.8 1 11.1 1.2C11.5 1.4 11.8 1.7 12.1 2C12.4 2.3 12.7 2.7 12.9 3C13.1 3.3 13.3 3.8 13.4 4.2C13.5 4.6 13.6 5.1 13.6 5.6C13.6 6.3 13.5 6.9 13.2 7.6C12.9 8.2 12.6 8.8 12.1 9.3L6 15.5L5.3 14.8L11.5 8.6C11.9 8.2 12.2 7.8 12.4 7.3C12.6 6.8 12.7 6.3 12.7 5.7C12.7 5.1 12.6 4.6 12.4 4.1C12.2 3.6 11.9 3.1 11.5 2.8C11.1 2.4 10.7 2.1 10.2 1.9C9.6 1.6 9.1 1.4 8.5 1.4C8 1.4 7.5 1.5 7.1 1.6C6.7 1.8 6.3 2.1 5.9 2.3C5.6 2.6 5.2 2.9 4.9 3.2C4.6 3.5 4.2 3.9 3.9 4.2H7V5.1H2.3V0.5H3.2V3.6C3.5 3.3 3.8 3 4 2.8C4.2 2.6 4.5 2.3 4.8 2C5 1.8 5.3 1.6 5.6 1.4C5.9 1.2 6.1 1 6.4 0.9C6.7 0.8 7 0.7 7.4 0.6C7.8 0.5 8.1 0.5 8.5 0.5Z" fill="#0078D4"/>
</svg>
