<svg xmlns="http://www.w3.org/2000/svg" viewBox="0 0 16 16" enable-background="new 0 0 16 16">
	 <style type="text/css">.icon-asx-blue{fill:#0081E4;}</style> 
	 <path class="icon-asx-blue" stroke="#b5a3a3" d="M8.5,0.5c0.5,0,0.9,0.1,1.4,0.2c0.4,0.1,0.9,0.3,1.2,0.5c0.4,0.2,0.7,0.5,1,0.8s0.6,0.7,0.8,1
		s0.4,0.8,0.5,1.2c0.1,0.4,0.2,0.9,0.2,1.4c0,0.7-0.1,1.3-0.4,2c-0.3,0.6-0.6,1.2-1.1,1.7L6,15.5l-0.7-0.7l6.2-6.2
		c0.4-0.4,0.7-0.8,0.9-1.3s0.3-1,0.3-1.6c0-0.6-0.1-1.1-0.3-1.6c-0.2-0.5-0.5-1-0.9-1.3c-0.4-0.4-0.8-0.7-1.3-0.9
		C9.6,1.6,9.1,1.4,8.5,1.4c-0.5,0-1,0.1-1.4,0.2C6.7,1.8,6.3,2.1,5.9,2.3c-0.3,0.3-0.7,0.6-1,0.9s-0.7,0.7-1,1h3.1v0.9H2.3V0.5h0.9
		v3.1C3.5,3.3,3.8,3,4,2.8S4.5,2.3,4.8,2C5,1.8,5.3,1.6,5.6,1.4s0.5-0.4,0.8-0.5c0.3-0.1,0.6-0.2,1-0.3S8.1,0.5,8.5,0.5L8.5,0.5z"/>
</svg>