<?xml version="1.0" encoding="utf-8"?>
<!-- Generator: Adobe Illustrator 19.1.1, SVG Export Plug-In . SVG Version: 6.00 Build 0)  -->
<svg version="1.1" id="Layer_1" xmlns="http://www.w3.org/2000/svg" xmlns:xlink="http://www.w3.org/1999/xlink" x="0px" y="0px"
	 width="16px" height="16px" viewBox="30.3 239.7 16 16" style="enable-background:new 30.3 239.7 16 16;" xml:space="preserve">
<polygon style="fill:#2BACE2;" points="44.9,241.6 43.6,240.3 43.1,239.8 43,239.8 33.4,239.8 33.4,253.5 45.5,253.5 45.5,242.2 
	45.5,242.2 "/>
<polygon style="fill:#F6F6F6;" points="43,240.3 33.9,240.3 33.9,253 44.9,253 44.9,242.2 44.2,242.2 43,242.2 "/>
<polygon style="fill:#2BACE2;" points="43.3,243.3 41.9,242 41.4,241.5 41.3,241.5 31.7,241.5 31.7,255.2 43.8,255.2 43.8,244 
	43.8,243.9 "/>
<polygon style="fill:#FFFFFF;enable-background:new    ;" points="41.3,242 32.3,242 32.3,254.7 43.3,254.7 43.3,244 42.5,244 
	41.3,244 "/>
<path style="fill:#2BACE2;" d="M41.4,249c-0.5,0-0.7,0.3-0.7,0.7v0.9c0,0.5-0.1,0.9-0.3,1.1c-0.3,0.3-0.7,0.3-1.3,0.3v-0.7
	c0.3,0,0.4-0.1,0.5-0.1c0.1-0.1,0.1-0.3,0.1-0.5v-0.9c0-0.7,0.3-1.1,0.7-1.2l0,0c-0.4-0.1-0.7-0.5-0.7-1.3v-0.9
	c0-0.5-0.3-0.7-0.7-0.7V245c0.1,0,0.3,0,0.3,0c0.4,0,0.7,0.1,0.9,0.3c0.3,0.3,0.3,0.7,0.3,1.2v0.9c0,0.5,0.3,0.7,0.7,0.7L41.4,249
	L41.4,249z M36.3,252c-0.5,0-1.1-0.1-1.3-0.3c-0.3-0.3-0.3-0.5-0.3-1.1v-0.9c-0.1-0.5-0.3-0.7-0.7-0.7v-0.7c0.4,0,0.5-0.3,0.5-0.8
	v-0.8c0-0.5,0.1-0.9,0.4-1.1c0.3-0.3,0.7-0.4,1.3-0.4v0.8c-0.4,0-0.7,0.3-0.7,0.7v0.8c0,0.7-0.3,1.1-0.7,1.2l0,0
	c0.4,0.1,0.7,0.5,0.7,1.2v0.8c0,0.3,0.1,0.5,0.1,0.5c0.1,0.3,0.3,0.3,0.5,0.3v0.7H36.3z"/>
</svg>
