<svg width="16" height="16" viewBox="0 0 16 16" fill="none" xmlns="http://www.w3.org/2000/svg">
<g clip-path="url(#clip0)">
<path d="M16 2.7001C16 3.0001 15.9 3.4001 15.8 3.7001C15.7 4.0001 15.5 4.3001 15.2 4.6001L4.9 14.9001L0 16.1001L1.2 11.2001L11.5 0.900098C11.8 0.600098 12 0.500098 12.4 0.300098C12.7 0.200098 13.1 0.100098 13.4 0.100098C13.8 0.100098 14.1 0.200098 14.4 0.300098C14.7 0.400098 15 0.600098 15.2 0.900098C15.4 1.1001 15.6 1.4001 15.8 1.7001C15.9 2.0001 16 2.3001 16 2.7001ZM1.4 14.7001L4 14.1001C3.9 13.9001 3.9 13.6001 3.7 13.4001C3.5 13.2001 3.4 13.0001 3.3 12.8001C3.1 12.6001 2.9 12.5001 2.7 12.4001C2.5 12.3001 2.3 12.2001 2 12.1001L1.4 14.7001ZM2.5 11.2001C3.1 11.4001 3.5 11.7001 3.9 12.1001C4.3 12.5001 4.6 13.0001 4.8 13.5001L13.2 5.0001L11 2.8001L2.5 11.2001ZM14 4.4001C14.1 4.3001 14.3 4.1001 14.4 4.0001C14.5 3.9001 14.6 3.8001 14.7 3.6001C14.8 3.5001 14.9 3.3001 14.9 3.2001C14.9 3.1001 15 2.9001 15 2.7001C15 2.5001 15 2.3001 14.9 2.1001C14.8 1.9001 14.7 1.7001 14.5 1.6001C14.3 1.5001 14.2 1.3001 14 1.2001C13.8 1.1001 13.6 1.1001 13.4 1.1001C13.2 1.1001 13 1.1001 12.9 1.2001C12.8 1.3001 12.6 1.3001 12.5 1.4001C12.4 1.5001 12.2 1.6001 12.1 1.7001C12 1.8001 11.8 2.0001 11.7 2.1001L14 4.4001Z" fill="#CCCCCC"/>
</g>
<defs>
<clipPath id="clip0">
<rect width="16" height="16" fill="white"/>
</clipPath>
</defs>
</svg>
