<?xml version="1.0" encoding="UTF-8"?>
<svg width="12px" height="12px" viewBox="0 0 12 12" version="1.1" xmlns="http://www.w3.org/2000/svg" xmlns:xlink="http://www.w3.org/1999/xlink">
    <!-- Generator: Sketch 46.2 (44496) - http://www.bohemiancoding.com/sketch -->
    <title>Shape</title>
    <desc>Created with Sketch.</desc>
    <defs></defs>
    <g id="Symbols" stroke="none" stroke-width="1" fill="none" fill-rule="evenodd">
        <path d="M6,0 C6.5507812,0 7.0820312,0.0712892 7.59375,0.2138672 C8.1054688,0.3564452 8.583008,0.5585936 9.0263672,0.8203124 C9.4697264,1.0820312 9.8740236,1.395508 10.239258,1.760742 C10.604492,2.1259764 10.9179688,2.5302736 11.1796876,2.9736328 C11.4414064,3.416992 11.6435548,3.8945312 11.7861328,4.40625 C11.9287108,4.9179688 12,5.4492188 12,6 C12,6.5507812 11.9287108,7.0820312 11.7861328,7.59375 C11.6435548,8.1054688 11.4414064,8.583008 11.1796876,9.0263672 C10.9179688,9.4697264 10.604492,9.8740236 10.239258,10.239258 C9.8740236,10.604492 9.4697264,10.9179688 9.0263672,11.1796876 C8.583008,11.4414064 8.1054688,11.6435548 7.59375,11.7861328 C7.0820312,11.9287108 6.5507812,12 6,12 C5.4492188,12 4.9179688,11.9287108 4.40625,11.7861328 C3.8945312,11.6435548 3.416992,11.4414064 2.9736328,11.1796876 C2.5302736,10.9179688 2.1259764,10.604492 1.760742,10.239258 C1.395508,9.8740236 1.0820312,9.4697264 0.8203124,9.0263672 C0.5585936,8.583008 0.3564452,8.1054688 0.2138672,7.59375 C0.0712892,7.0820312 0,6.5507812 0,6 C0,5.4492188 0.0712892,4.9179688 0.2138672,4.40625 C0.3564452,3.8945312 0.5585936,3.416992 0.8203124,2.9736328 C1.0820312,2.5302736 1.395508,2.1259764 1.760742,1.760742 C2.1259764,1.395508 2.5302736,1.0820312 2.9736328,0.8203124 C3.416992,0.5585936 3.8945312,0.3564452 4.40625,0.2138672 C4.9179688,0.0712892 5.4492188,0 6,0 Z M6.6621092,6 L8.6660156,3.9960936 L8.0039064,3.3339844 L6,5.3378908 L3.9960936,3.3339844 L3.3339844,3.9960936 L5.3378908,6 L3.3339844,8.0039064 L3.9960936,8.6660156 L6,6.6621092 L8.0039064,8.6660156 L8.6660156,8.0039064 L6.6621092,6 Z" id="Shape" fill="#E81123" fill-rule="nonzero"></path>
    </g>
</svg>