<svg width="16" height="16" viewBox="0 0 16 16" fill="none" xmlns="http://www.w3.org/2000/svg">
<path d="M6.30001 15.1C6.30001 15.2 6.30001 15.2 6.40001 15.2C6.40001 15.2 6.40001 15.2 6.50001 15.2H6.60001L9.00001 12.8V12.7V8.70005L14.8 1.60005C14.8 1.60005 14.8 1.50005 14.8 1.40005L14.7 1.30005H1.20001C1.10001 1.30005 1.10001 1.30005 1.10001 1.40005C1.10001 1.40005 1.10001 1.50005 1.10001 1.60005L6.30001 8.60005V15.1ZM1.50001 1.60005H14.5L8.80001 8.50005V8.60005V12.6L6.60001 14.8V8.50005V8.40005L1.50001 1.60005Z" fill="#0078D4" stroke="#CCCCCC" stroke-width="0.5" stroke-miterlimit="10"/>
</svg>
