<svg width="16" height="16" viewBox="0 0 16 16" fill="none" xmlns="http://www.w3.org/2000/svg">
<g clip-path="url(#clip0)">
<path d="M4.75 0.999903C4.98438 0.999903 5.1849 1.02334 5.35156 1.07022C5.51823 1.11709 5.66927 1.17959 5.80469 1.25772C5.9401 1.33584 6.0599 1.41657 6.16406 1.4999C6.26823 1.58324 6.3724 1.66397 6.47656 1.74209C6.58073 1.82022 6.69531 1.88011 6.82031 1.92178C6.94531 1.96344 7.08854 1.98949 7.25 1.9999H15C15.1406 1.9999 15.2708 2.02594 15.3906 2.07803C15.5104 2.13011 15.6146 2.20042 15.7031 2.28897C15.7917 2.37751 15.8646 2.48428 15.9219 2.60928C15.9792 2.73428 16.0052 2.86449 16 2.9999V6.52334L15 5.52334V2.9999H7.25C7.08854 2.9999 6.94792 3.02334 6.82812 3.07022C6.70833 3.11709 6.59375 3.17959 6.48438 3.25772C6.375 3.33584 6.26823 3.41657 6.16406 3.4999C6.0599 3.58324 5.94271 3.66397 5.8125 3.74209C5.68229 3.82022 5.53125 3.88011 5.35938 3.92178C5.1875 3.96344 4.98438 3.98949 4.75 3.9999H1V12.9999H6V13.9999H0V1.9999C0 1.85928 0.0260417 1.72907 0.078125 1.60928C0.130208 1.48949 0.200521 1.38532 0.289062 1.29678C0.377604 1.20824 0.484375 1.13532 0.609375 1.07803C0.734375 1.02074 0.864583 0.994695 1 0.999903H4.75ZM4.75 2.9999C4.875 2.9999 4.98438 2.98949 5.07812 2.96865C5.17188 2.94782 5.25781 2.91397 5.33594 2.86709C5.41406 2.82022 5.48958 2.76813 5.5625 2.71084C5.63542 2.65355 5.71875 2.58324 5.8125 2.4999C5.72396 2.42178 5.64323 2.35407 5.57031 2.29678C5.4974 2.23949 5.41927 2.1874 5.33594 2.14053C5.2526 2.09365 5.16667 2.0598 5.07812 2.03897C4.98958 2.01813 4.88021 2.00511 4.75 1.9999H1V2.9999H4.75ZM12.7109 4.9999L16 8.28897V15.9999H7V4.9999H12.7109ZM13 7.9999H14.2891L13 6.71084V7.9999ZM15 8.9999H12V5.9999H8V14.9999H15V8.9999ZM9 12.9999H13V13.9999H9V12.9999ZM11 11.9999H9V10.9999H11V11.9999ZM11 9.9999H9V8.9999H11V9.9999ZM11 7.9999H9V6.9999H11V7.9999Z" fill="#0078D4"/>
</g>
<defs>
<clipPath id="clip0">
<rect y="-9.15527e-05" width="16" height="16" fill="white"/>
</clipPath>
</defs>
</svg>
