<svg width="64" height="64" viewBox="0 0 64 64" fill="none" xmlns="http://www.w3.org/2000/svg">
<path d="M55.375 51.5625H63V55.375H55.375V63H51.5625V55.375H43.9375V51.5625H51.5625V43.9375H55.375V51.5625Z" fill="#333333"/>
<path d="M40.125 63V59.1875H9.625V51.5625H13.4375V47.75H9.625V40.2127H13.4375V36.4002H9.625V28.8362H13.4375V25.0237H9.625V17.25H13.4375V13.4375H9.625V5.8125H51.5625V40.125H55.375V2H5.8125V13.4375H2V17.25H5.8125V25.0237H2V28.8362H5.8125V36.4002H2V40.2127H5.8125V47.75H2V51.5625H5.8125V63H40.125Z" fill="#333333"/>
<path d="M21.0625 24.875H43.9375V13.4375H21.0625V24.875ZM24.875 17.25H40.125V21.0625H24.875V17.25Z" fill="#333333"/>
</svg>
