<svg width="9" height="9" viewBox="0 0 9 9" fill="none" xmlns="http://www.w3.org/2000/svg">
<path d="M4.5 9C4.08438 9 3.68594 8.94688 3.30469 8.84063C2.92344 8.73438 2.56406 8.58438 2.22656 8.39063C1.88906 8.19688 1.58594 7.9625 1.31719 7.6875C1.04844 7.4125 0.814063 7.10781 0.614063 6.77344C0.414063 6.43906 0.2625 6.08125 0.159375 5.7C0.05625 5.31875 0.003125 4.91875 0 4.5C0 4.08438 0.053125 3.68594 0.159375 3.30469C0.265625 2.92344 0.415625 2.56406 0.609375 2.22656C0.803125 1.88906 1.0375 1.58594 1.3125 1.31719C1.5875 1.04844 1.89219 0.814063 2.22656 0.614063C2.56094 0.414063 2.91875 0.2625 3.3 0.159375C3.68125 0.05625 4.08125 0.003125 4.5 0C4.91563 0 5.31406 0.053125 5.69531 0.159375C6.07656 0.265625 6.43594 0.415625 6.77344 0.609375C7.11094 0.803125 7.41406 1.0375 7.68281 1.3125C7.95156 1.5875 8.18594 1.89219 8.38594 2.22656C8.58594 2.56094 8.7375 2.91875 8.84063 3.3C8.94375 3.68125 8.99688 4.08125 9 4.5C9 4.91563 8.94688 5.31406 8.84063 5.69531C8.73438 6.07656 8.58438 6.43594 8.39063 6.77344C8.19688 7.11094 7.9625 7.41406 7.6875 7.68281C7.4125 7.95156 7.10781 8.18594 6.77344 8.38594C6.43906 8.58594 6.08125 8.7375 5.7 8.84063C5.31875 8.94375 4.91875 8.99688 4.5 9ZM4.5 0.6C4.14063 0.6 3.79531 0.646875 3.46406 0.740625C3.13281 0.834375 2.82344 0.965625 2.53594 1.13438C2.24844 1.30313 1.98438 1.50625 1.74375 1.74375C1.50313 1.98125 1.3 2.24375 1.13438 2.53125C0.96875 2.81875 0.8375 3.12969 0.740625 3.46406C0.64375 3.79844 0.596875 4.14375 0.6 4.5C0.6 4.85625 0.646875 5.2 0.740625 5.53125C0.834375 5.8625 0.965625 6.17344 1.13438 6.46406C1.30313 6.75469 1.50625 7.01875 1.74375 7.25625C1.98125 7.49375 2.24375 7.69688 2.53125 7.86563C2.81875 8.03438 3.12969 8.16563 3.46406 8.25938C3.79844 8.35313 4.14375 8.4 4.5 8.4C4.85625 8.4 5.2 8.35313 5.53125 8.25938C5.8625 8.16563 6.17344 8.03438 6.46406 7.86563C6.75469 7.69688 7.01875 7.49375 7.25625 7.25625C7.49375 7.01875 7.69688 6.75625 7.86563 6.46875C8.03438 6.18125 8.16563 5.87031 8.25938 5.53594C8.35313 5.20156 8.4 4.85625 8.4 4.5C8.4 4.14375 8.35313 3.8 8.25938 3.46875C8.16563 3.1375 8.03438 2.82656 7.86563 2.53594C7.69688 2.24531 7.49375 1.98125 7.25625 1.74375C7.01875 1.50625 6.75625 1.30313 6.46875 1.13438C6.18125 0.965625 5.87031 0.834375 5.53594 0.740625C5.20156 0.646875 4.85625 0.6 4.5 0.6ZM4.2 3.6H4.8V6.6H4.2V3.6ZM4.2 2.4H4.8V3H4.2V2.4Z" fill="black"/>
</svg>
