<svg width="12" height="12" viewBox="0 0 12 12" fill="none" xmlns="http://www.w3.org/2000/svg">
<path d="M6 12C9.31371 12 12 9.31371 12 6C12 2.68629 9.31371 0 6 0C2.68629 0 0 2.68629 0 6C0 9.31371 2.68629 12 6 12Z" fill="#0072C6"/>
<path d="M6 4.17333C6.60015 4.17333 7.08666 3.68682 7.08666 3.08667C7.08666 2.48652 6.60015 2 6 2C5.39985 2 4.91333 2.48652 4.91333 3.08667C4.91333 3.68682 5.39985 4.17333 6 4.17333Z" fill="white"/>
<path d="M5.83733 9.99999H6.16266H6.97466V5.23999H6.16266H5.83733H5.03466L5.02533 9.99999H5.83733Z" fill="white"/>
</svg>
