<svg width="12" height="12" viewBox="0 0 12 12" fill="none" xmlns="http://www.w3.org/2000/svg">
<path d="M6 12C5.44583 12 4.91458 11.9292 4.40625 11.7875C3.89792 11.6458 3.41875 11.4458 2.96875 11.1875C2.51875 10.9292 2.11458 10.6167 1.75625 10.25C1.39792 9.88333 1.08542 9.47708 0.81875 9.03125C0.552083 8.58542 0.35 8.10833 0.2125 7.6C0.075 7.09167 0.00416667 6.55833 0 6C0 5.44583 0.0708333 4.91458 0.2125 4.40625C0.354167 3.89792 0.554167 3.41875 0.8125 2.96875C1.07083 2.51875 1.38333 2.11458 1.75 1.75625C2.11667 1.39792 2.52292 1.08542 2.96875 0.81875C3.41458 0.552083 3.89167 0.35 4.4 0.2125C4.90833 0.075 5.44167 0.00416667 6 0C6.55417 0 7.08542 0.0708333 7.59375 0.2125C8.10208 0.354167 8.58125 0.554167 9.03125 0.8125C9.48125 1.07083 9.88542 1.38333 10.2438 1.75C10.6021 2.11667 10.9146 2.52292 11.1813 2.96875C11.4479 3.41458 11.65 3.89167 11.7875 4.4C11.925 4.90833 11.9958 5.44167 12 6C12 6.55417 11.9292 7.08542 11.7875 7.59375C11.6458 8.10208 11.4458 8.58125 11.1875 9.03125C10.9292 9.48125 10.6167 9.88542 10.25 10.2438C9.88333 10.6021 9.47708 10.9146 9.03125 11.1813C8.58542 11.4479 8.10833 11.65 7.6 11.7875C7.09167 11.925 6.55833 11.9958 6 12ZM6 0.8C5.52083 0.8 5.06042 0.8625 4.61875 0.9875C4.17708 1.1125 3.76458 1.2875 3.38125 1.5125C2.99792 1.7375 2.64583 2.00833 2.325 2.325C2.00417 2.64167 1.73333 2.99167 1.5125 3.375C1.29167 3.75833 1.11667 4.17292 0.9875 4.61875C0.858333 5.06458 0.795833 5.525 0.8 6C0.8 6.475 0.8625 6.93333 0.9875 7.375C1.1125 7.81667 1.2875 8.23125 1.5125 8.61875C1.7375 9.00625 2.00833 9.35833 2.325 9.675C2.64167 9.99167 2.99167 10.2625 3.375 10.4875C3.75833 10.7125 4.17292 10.8875 4.61875 11.0125C5.06458 11.1375 5.525 11.2 6 11.2C6.475 11.2 6.93333 11.1375 7.375 11.0125C7.81667 10.8875 8.23125 10.7125 8.61875 10.4875C9.00625 10.2625 9.35833 9.99167 9.675 9.675C9.99167 9.35833 10.2625 9.00833 10.4875 8.625C10.7125 8.24167 10.8875 7.82708 11.0125 7.38125C11.1375 6.93542 11.2 6.475 11.2 6C11.2 5.525 11.1375 5.06667 11.0125 4.625C10.8875 4.18333 10.7125 3.76875 10.4875 3.38125C10.2625 2.99375 9.99167 2.64167 9.675 2.325C9.35833 2.00833 9.00833 1.7375 8.625 1.5125C8.24167 1.2875 7.82708 1.1125 7.38125 0.9875C6.93542 0.8625 6.475 0.8 6 0.8ZM5.6 4.8H6.4V8.8H5.6V4.8ZM5.6 3.2H6.4V4H5.6V3.2Z" fill="black"/>
</svg>
