<svg width="16" height="16" viewBox="0 0 16 16" fill="none" xmlns="http://www.w3.org/2000/svg">
<path d="M3 0.5V8.7" stroke="#0078D4" stroke-miterlimit="10"/>
<path d="M3 12.3999V15.3999" stroke="#0078D4" stroke-miterlimit="10"/>
<path d="M2.90001 12.5001C3.8389 12.5001 4.60001 11.739 4.60001 10.8001C4.60001 9.86121 3.8389 9.1001 2.90001 9.1001C1.96113 9.1001 1.20001 9.86121 1.20001 10.8001C1.20001 11.739 1.96113 12.5001 2.90001 12.5001Z" stroke="#0078D4" stroke-miterlimit="10"/>
<path d="M12.9 0.5V8.7" stroke="#0078D4" stroke-miterlimit="10"/>
<path d="M12.9 12.3999V15.3999" stroke="#0078D4" stroke-miterlimit="10"/>
<path d="M12.9 12.5001C13.8389 12.5001 14.6 11.739 14.6 10.8001C14.6 9.86121 13.8389 9.1001 12.9 9.1001C11.9611 9.1001 11.2 9.86121 11.2 10.8001C11.2 11.739 11.9611 12.5001 12.9 12.5001Z" stroke="#0078D4" stroke-miterlimit="10"/>
<path d="M8.10001 0.5V4.3" stroke="#0078D4" stroke-miterlimit="10"/>
<path d="M8.10001 7.8999V15.3999" stroke="#0078D4" stroke-miterlimit="10"/>
<path d="M7.99999 7.7999C8.93887 7.7999 9.69999 7.03879 9.69999 6.0999C9.69999 5.16102 8.93887 4.3999 7.99999 4.3999C7.0611 4.3999 6.29999 5.16102 6.29999 6.0999C6.29999 7.03879 7.0611 7.7999 7.99999 7.7999Z" stroke="#0078D4" stroke-miterlimit="10"/>
</svg>
