<?xml version="1.0" encoding="utf-8"?>
<!-- Generator: Adobe Illustrator 20.1.0, SVG Export Plug-In . SVG Version: 6.00 Build 0)  -->
<svg version="1.1" xmlns="http://www.w3.org/2000/svg" xmlns:xlink="http://www.w3.org/1999/xlink" x="0px" y="0px" width="16px"
	 height="16px" viewBox="0 0 16 16" style="enable-background:new 0 0 16 16;" xml:space="preserve">
<g id="Create_query" style="display:none;">
	<g style="display:inline;">
		<rect x="4.6" y="0.5" style="fill:none;stroke:#393939;stroke-width:0.6;stroke-miterlimit:10;" width="3.2" height="3.2"/>
		<rect x="12.3" y="0.5" style="fill:none;stroke:#393939;stroke-width:0.6;stroke-miterlimit:10;" width="3.2" height="3.2"/>
		<rect x="12.3" y="4.4" style="fill:none;stroke:#393939;stroke-width:0.6;stroke-miterlimit:10;" width="3.2" height="3.2"/>
		<rect x="8.4" y="0.5" style="fill:none;stroke:#393939;stroke-width:0.6;stroke-miterlimit:10;" width="3.2" height="3.2"/>
		<rect x="12.3" y="8.2" style="fill:none;stroke:#393939;stroke-width:0.6;stroke-miterlimit:10;" width="3.2" height="3.2"/>
		<g>
			<circle style="fill:none;stroke:#393939;stroke-width:0.6;stroke-miterlimit:10;" cx="6.7" cy="9.4" r="2.9"/>
			<line style="fill:none;stroke:#393939;stroke-width:0.6;stroke-miterlimit:10;" x1="3.8" y1="12.3" x2="4.6" y2="11.4"/>
			
				<rect x="0.4" y="13.1" transform="matrix(0.7071 -0.7071 0.7071 0.7071 -8.9708 5.6875)" style="fill:none;stroke:#393939;stroke-width:0.6;stroke-miterlimit:10;" width="3.9" height="1.2"/>
		</g>
		<path style="fill:none;stroke:#393939;stroke-width:0.6;stroke-miterlimit:10;" d="M6.7,5.7c0.4,0,0.8,0.1,1.1,0.2V4.4H4.6v2
			C5.2,5.9,5.9,5.7,6.7,5.7z"/>
		<path style="fill:none;stroke:#393939;stroke-width:0.6;stroke-miterlimit:10;" d="M8.4,4.4v1.8C9,6.5,9.5,7,9.8,7.6h1.8V4.4H8.4z
			"/>
		<path style="fill:none;stroke:#393939;stroke-width:0.6;stroke-miterlimit:10;" d="M10.1,8.2c0.1,0.4,0.2,0.8,0.2,1.2
			c0,0.7-0.2,1.4-0.6,2h1.9V8.2H10.1z"/>
	</g>
</g>
<g id="Open_query" style="display:none;">
	<g style="display:inline;">
		<line style="fill:none;stroke:#393939;stroke-miterlimit:10;" x1="5.5" y1="1.7" x2="15.3" y2="1.7"/>
		<line style="fill:none;stroke:#393939;stroke-miterlimit:10;" x1="5.5" y1="4.1" x2="13.5" y2="4.1"/>
		<line style="fill:none;stroke:#393939;stroke-miterlimit:10;" x1="5.5" y1="6.4" x2="15.3" y2="6.4"/>
		<line style="fill:none;stroke:#393939;stroke-miterlimit:10;" x1="5.5" y1="8.8" x2="13.9" y2="8.8"/>
		<g>
			<g>
				<polyline style="fill:none;stroke:#393939;stroke-miterlimit:10;" points="14.2,11.6 14.2,11.1 13.7,11.1 				"/>
				<line style="fill:none;stroke:#393939;stroke-miterlimit:10;stroke-dasharray:4,2;" x1="13.2" y1="11.1" x2="6.4" y2="11.1"/>
				<polyline style="fill:none;stroke:#393939;stroke-miterlimit:10;" points="6.2,11.1 5.7,11.1 5.7,11.6 				"/>
				<line style="fill:none;stroke:#393939;stroke-miterlimit:10;stroke-dasharray:3,2;" x1="5.7" y1="12" x2="5.7" y2="12.7"/>
				<polyline style="fill:none;stroke:#393939;stroke-miterlimit:10;" points="5.7,13 5.7,13.4 6.2,13.4 				"/>
				<line style="fill:none;stroke:#393939;stroke-miterlimit:10;stroke-dasharray:4,2;" x1="6.7" y1="13.4" x2="13.5" y2="13.4"/>
				<polyline style="fill:none;stroke:#393939;stroke-miterlimit:10;" points="13.7,13.4 14.2,13.4 14.2,13 				"/>
				<line style="fill:none;stroke:#393939;stroke-miterlimit:10;stroke-dasharray:3,2;" x1="14.2" y1="12.7" x2="14.2" y2="11.8"/>
			</g>
		</g>
		<g>
			<polyline style="fill:none;stroke:#393939;stroke-linejoin:bevel;stroke-miterlimit:10;" points="2.7,13.9 4.3,12.3 2.7,10.6 			
				"/>
			<g>
				<line style="fill:none;stroke:#393939;stroke-miterlimit:10;" x1="4.3" y1="12.3" x2="0.3" y2="12.3"/>
			</g>
		</g>
	</g>
</g>
<g id="Add" style="display:none;">
	<text transform="matrix(1 0 0 1 0.46 15.502)" style="display:inline; font-family:'FullMDL2Assets'; font-size:15px;"></text>
</g>
<g id="Collections" style="display:none;">
	<g style="display:inline;">
		<polygon style="fill:#3176BB;" points="14.6,2.2 13.2,0.9 12.7,0.3 12.6,0.3 3,0.3 3,14.1 15.1,14.1 15.1,2.8 15.1,2.8 		"/>
		<polygon style="fill:#F5F5F5;" points="12.6,0.9 3.5,0.9 3.5,13.5 14.6,13.5 14.6,2.8 13.8,2.8 12.6,2.8 		"/>
		<polygon style="fill:#3176BB;" points="12.9,3.9 11.5,2.6 11,2 10.9,2 1.3,2 1.3,15.8 13.4,15.8 13.4,4.5 13.4,4.5 		"/>
		<polygon style="fill:#FFFFFF;enable-background:new    ;" points="10.9,2.6 1.9,2.6 1.9,15.3 12.9,15.3 12.9,4.5 12.2,4.5 
			10.9,4.5 		"/>
		<path style="fill:#3176BB;" d="M11.1,9.5c-0.5,0-0.7,0.3-0.7,0.7v0.9c0,0.5-0.1,0.9-0.3,1.1s-0.7,0.3-1.3,0.3v-0.7
			c0.3,0,0.4-0.1,0.5-0.1c0.1-0.1,0.1-0.3,0.1-0.5v-0.9c0-0.7,0.3-1.1,0.7-1.2l0,0C9.7,9.1,9.4,8.7,9.4,7.9V7.1
			c0-0.5-0.3-0.7-0.7-0.7V5.6c0.1,0,0.3,0,0.3,0c0.4,0,0.7,0.1,0.9,0.3c0.3,0.3,0.3,0.7,0.3,1.2V8c0,0.5,0.3,0.7,0.7,0.7L11.1,9.5
			L11.1,9.5z M5.9,12.6c-0.5,0-1.1-0.1-1.3-0.3c-0.3-0.3-0.3-0.5-0.3-1.1v-0.9C4.2,9.7,4,9.5,3.6,9.5V8.7c0.4,0,0.5-0.3,0.5-0.8V7.1
			c0-0.5,0.1-0.9,0.4-1.1c0.3-0.3,0.7-0.4,1.3-0.4v0.8c-0.4,0-0.7,0.3-0.7,0.7v0.8c0,0.7-0.3,1.1-0.7,1.2l0,0
			c0.4,0.1,0.7,0.5,0.7,1.2v0.8c0,0.3,0.1,0.5,0.1,0.5c0.1,0.3,0.3,0.3,0.5,0.3v0.7H5.9z"/>
	</g>
</g>
<g id="database" style="display:none;">
	<g style="display:inline;">
		<g id="canvas_20_">
			<path style="fill:#F5F5F5;fill-opacity:0;" d="M16,16H0V0h16V16z"/>
		</g>
		<g id="iconBg_26_">
			<g>
				<rect x="8" y="8" style="fill:#29AAE1;" width="1" height="3"/>
				<path style="fill:#29AAE1;" d="M7.8,1C4.7,1,2,2.2,2,3.3v9.6c0,1.2,3.3,2.3,6.4,2.3s5.6-1,5.6-2.2V3.3C14,2.2,10.9,1,7.8,1z
					 M8,1.9c2.2,0,4,0.5,4,1.1s-1.8,1.1-4,1.1S4,3.7,4,3S5.8,1.9,8,1.9z"/>
			</g>
		</g>
		<path style="fill:#FFFFFF;" d="M12.2,9.7c-0.4,0-0.6,0.2-0.6,0.8v0.9c0,0.6-0.1,0.9-0.4,1.2c-0.2,0.2-0.7,0.3-1.3,0.3v-0.8
			c0.2,0,0.4-0.1,0.5-0.2s0.2-0.3,0.2-0.5v-0.9c0-0.6,0.2-1.1,0.6-1.2l0,0c-0.4-0.2-0.6-0.6-0.6-1.3V7c0-0.5-0.2-0.7-0.6-0.7V5.5
			c0.1,0,0.2,0,0.3,0c0.4,0,0.8,0.2,1,0.4c0.2,0.2,0.4,0.6,0.4,1.2V8c0,0.5,0.2,0.8,0.6,0.8L12.2,9.7L12.2,9.7z M6,12.8
			c-0.6,0-1-0.1-1.3-0.3c-0.2-0.2-0.4-0.6-0.4-1.2v-1c0-0.5-0.2-0.8-0.6-0.8V8.8c0.4,0,0.6-0.3,0.6-0.8V7.1c0-0.6,0.1-0.9,0.4-1.2
			C5,5.7,5.4,5.6,6,5.6v0.8c-0.4,0-0.6,0.2-0.6,0.7V8c0,0.6-0.2,1.1-0.6,1.3l0,0c0.4,0.2,0.6,0.6,0.6,1.3v0.9c0,0.3,0.1,0.5,0.2,0.6
			s0.3,0.2,0.5,0.2L6,12.8L6,12.8z"/>
	</g>
</g>
<g id="refresh" style="display:none;">
	<path style="display:inline;fill:#393939;" d="M12.2,1.9c0.7,0.5,1.3,1,1.7,1.7c0.5,0.6,0.9,1.3,1.1,2.1c0.3,0.8,0.4,1.6,0.4,2.4
		c0,0.7-0.1,1.4-0.3,2c-0.2,0.6-0.4,1.2-0.8,1.8c-0.3,0.6-0.7,1.1-1.2,1.5s-1,0.8-1.5,1.2c-0.6,0.3-1.2,0.6-1.8,0.8
		c-0.6,0.2-1.3,0.3-2,0.3s-1.4-0.1-2-0.3s-1.2-0.4-1.8-0.8s-1.1-0.7-1.5-1.2s-0.8-1-1.2-1.5c-0.3-0.6-0.6-1.2-0.8-1.8
		C0.6,9.4,0.5,8.7,0.5,8c0-0.7,0.1-1.3,0.3-2s0.4-1.3,0.8-1.8s0.7-1.1,1.2-1.6s1-0.9,1.6-1.2h-2V0.5h3.8v3.8H5.2V2.1
		c-0.6,0.3-1.1,0.6-1.5,1S2.8,4,2.5,4.5S1.9,5.6,1.7,6.2S1.4,7.4,1.4,8c0,0.6,0.1,1.2,0.2,1.7c0.2,0.6,0.4,1.1,0.7,1.6
		c0.3,0.5,0.6,0.9,1,1.3s0.8,0.7,1.3,1c0.5,0.3,1,0.5,1.6,0.7c0.6,0.2,1.1,0.2,1.7,0.2c0.6,0,1.2-0.1,1.7-0.2
		c0.6-0.2,1.1-0.4,1.6-0.7c0.5-0.3,0.9-0.6,1.3-1c0.4-0.4,0.7-0.8,1-1.3c0.3-0.5,0.5-1,0.7-1.6c0.2-0.6,0.2-1.1,0.2-1.7
		c0-0.7-0.1-1.4-0.4-2.1c-0.2-0.7-0.6-1.3-1-1.9c-0.4-0.6-0.9-1-1.5-1.4c-0.6-0.4-1.2-0.7-1.9-0.9L10,0.8C10.8,1,11.6,1.4,12.2,1.9z
		"/>
</g>
<g id="Upload_doc" style="display:none;">
	<g style="display:inline;">
		<polyline style="fill:none;stroke:#393939;stroke-miterlimit:10;" points="12.8,3.6 9.7,3.6 9.7,0.8 		"/>
		<text transform="matrix(1 0 0 1 2.8193 9.9375)" style="fill:#393939; font-family:'SegoeUI-Semibold'; font-size:6.6854px;">{  }</text>
		<line style="fill:none;stroke:#393939;stroke-miterlimit:10;" x1="11.5" y1="9.3" x2="11.5" y2="15.8"/>
		<line style="fill:none;stroke:#393939;stroke-miterlimit:10;" x1="8.4" y1="12.6" x2="14.6" y2="12.6"/>
		<polyline style="fill:none;stroke:#393939;stroke-miterlimit:10;" points="7.5,14.6 2.1,14.6 2.1,0.8 9.7,0.8 12.8,3.6 12.8,8.9 
					"/>
	</g>
</g>
<g id="Create_doc" style="display:none;">
	<g style="display:inline;">
		<polygon style="fill:none;stroke:#393939;stroke-miterlimit:10;" points="11.6,3.8 11.6,14.9 0.7,14.9 0.7,0.9 8.4,0.9 		"/>
		<polyline style="fill:none;stroke:#393939;stroke-miterlimit:10;" points="11.6,3.8 8.4,3.8 8.4,0.9 		"/>
		<text transform="matrix(1 0 0 1 2.4102 10.1975)" style="fill:#393939; font-family:'SegoeUI-Semibold'; font-size:6.8033px;">{  }</text>
		<polygon style="fill:none;stroke:#393939;stroke-miterlimit:10;" points="13.5,5.6 13.5,13.6 14.4,14.7 15.3,13.6 15.3,5.6 		"/>
		<line style="fill:none;stroke:#393939;stroke-miterlimit:10;" x1="13.5" y1="7.1" x2="15.3" y2="7.1"/>
	</g>
</g>
<g id="Save" style="display:none;">
	<path style="display:inline;fill:#393939;" d="M13.9,0.8c0.1,0,0.3,0,0.4,0.1C14.4,1,14.6,1,14.6,1.1c0.1,0.1,0.2,0.2,0.2,0.3
		s0.1,0.3,0.1,0.4v13H2.7L0.9,13V1.8c0-0.1,0-0.3,0.1-0.4c0.1-0.1,0.1-0.2,0.2-0.3C1.3,1,1.4,1,1.5,0.9c0.1-0.1,0.3-0.1,0.4-0.1
		H13.9z M13.9,1.8h-1v6h-10v-6h-1v10.8l1.2,1.2h0.8v-4h7v4h3V1.8z M3.9,6.8h8v-5h-8V6.8z M9.9,10.8h-5v3h1v-2h1v2h3V10.8z"/>
</g>
<g id="discard" style="display:none;">
	<path style="display:inline;fill:#393939;" d="M8.5,0.5c0.5,0,0.9,0.1,1.4,0.2c0.4,0.1,0.9,0.3,1.2,0.5c0.4,0.2,0.7,0.5,1,0.8
		s0.6,0.7,0.8,1s0.4,0.8,0.5,1.2c0.1,0.4,0.2,0.9,0.2,1.4c0,0.7-0.1,1.3-0.4,2c-0.3,0.6-0.6,1.2-1.1,1.7L6,15.5l-0.7-0.7l6.2-6.2
		c0.4-0.4,0.7-0.8,0.9-1.3s0.3-1,0.3-1.6c0-0.6-0.1-1.1-0.3-1.6c-0.2-0.5-0.5-1-0.9-1.3c-0.4-0.4-0.8-0.7-1.3-0.9
		C9.6,1.6,9.1,1.4,8.5,1.4c-0.5,0-1,0.1-1.4,0.2C6.7,1.8,6.3,2.1,5.9,2.3c-0.3,0.3-0.7,0.6-1,0.9s-0.7,0.7-1,1h3.1v0.9H2.3V0.5h0.9
		v3.1C3.5,3.3,3.8,3,4,2.8S4.5,2.3,4.8,2C5,1.8,5.3,1.6,5.6,1.4s0.5-0.4,0.8-0.5c0.3-0.1,0.6-0.2,1-0.3S8.1,0.5,8.5,0.5L8.5,0.5z"/>
</g>
<g id="Delete" style="display:none;">
	<path style="display:inline;fill:#393939;" d="M14.3,3.5h-0.9v10.8c0,0.2,0,0.4-0.1,0.5c-0.1,0.2-0.2,0.3-0.3,0.4
		c-0.1,0.1-0.3,0.2-0.4,0.3c-0.2,0.1-0.4,0.1-0.5,0.1H4.5c-0.2,0-0.4,0-0.5-0.1c-0.2-0.1-0.3-0.2-0.4-0.3c-0.1-0.1-0.2-0.3-0.3-0.4
		c-0.1-0.2-0.1-0.4-0.1-0.5V3.5H2.1V2.6h3.8V1.6c0-0.1,0-0.3,0.1-0.4C6,1.1,6.1,1,6.2,1c0.1-0.1,0.2-0.2,0.3-0.2
		c0.1,0,0.2-0.1,0.4-0.1h2.8c0.1,0,0.3,0,0.4,0.1c0.1,0,0.2,0.1,0.3,0.2c0.1,0.1,0.2,0.2,0.2,0.3c0,0.1,0.1,0.2,0.1,0.4v0.9h3.8V3.5
		z M12.5,3.5H4v10.8c0,0.1,0,0.2,0.1,0.3c0.1,0.1,0.2,0.1,0.3,0.1H12c0.1,0,0.2,0,0.3-0.1c0.1-0.1,0.1-0.2,0.1-0.3V3.5z M6.8,12.9
		H5.9V5.4h0.9V12.9z M6.8,2.6h2.8V1.6H6.8V2.6z M8.7,12.9H7.8V5.4h0.9V12.9z M10.6,12.9H9.6V5.4h0.9V12.9z"/>
</g>
<g id="filter" style="display:none;">
	<g style="display:inline;">
		<path style="fill:#393939;stroke:#393939;stroke-width:0.5;stroke-miterlimit:10;" d="M6.3,15.1c0,0.1,0,0.1,0.1,0.1
			c0,0,0,0,0.1,0c0,0,0.1,0,0.1,0L9,12.8c0,0,0-0.1,0-0.1v-4l5.8-7.1c0,0,0-0.1,0-0.2c0,0-0.1-0.1-0.1-0.1H1.2c-0.1,0-0.1,0-0.1,0.1
			c0,0,0,0.1,0,0.2l5.2,7V15.1z M1.5,1.6h13L8.8,8.5c0,0,0,0.1,0,0.1v4l-2.2,2.2V8.5c0,0,0-0.1,0-0.1L1.5,1.6z"/>
	</g>
</g>
<g id="create_database">
	<text transform="matrix(1 0 0 1 0.4289 15.502)" style="fill:#29A8E0; font-family:'FullMDL2Assets'; font-size:15px;"></text>
</g>
<g id="Layer_14" style="display:none;">
	<polygon style="display:inline;fill:#211F1F;" points="5.7,12.9 5.7,2.9 10.5,7.9 	"/>
</g>
</svg>
