<svg width="24" height="15" viewBox="0 0 24 15" fill="none" xmlns="http://www.w3.org/2000/svg">
<path d="M13.1 5.0999H16.7L9.70002 12.0999H8.10002L10.2 7.8999H7.80002L11.3 0.899902H15.2L13.1 5.0999Z" fill="#0078D4"/>
<path d="M12.7 0.899902C13.4 0.899902 14.1 0.999902 14.7 1.2999C15.3 1.5999 15.9 1.8999 16.4 2.2999C16.9 2.6999 17.3 3.2999 17.6 3.8999C17.9 4.4999 18.1 5.1999 18.2 5.8999L18.4 7.2999H19.8C20.3 7.2999 20.7 7.3999 21.1 7.4999C21.5 7.6999 21.8 7.8999 22.1 8.1999C22.4 8.4999 22.6 8.7999 22.8 9.1999C23 9.5999 23 9.9999 23 10.4999C23 10.9999 22.9 11.3999 22.8 11.6999C22.6 12.0999 22.4 12.3999 22.1 12.6999C21.8 12.9999 21.5 13.1999 21.1 13.3999C20.7 13.5999 20.3 13.5999 19.9 13.5999H5.50001C4.80001 13.5999 4.20001 13.4999 3.60001 13.1999C3.00001 12.8999 2.50001 12.5999 2.10001 12.1999C1.70001 11.7999 1.30001 11.2999 1.10001 10.6999C0.800012 10.0999 0.700012 9.4999 0.700012 8.7999C0.700012 8.0999 0.800012 7.5999 1.10001 6.9999C1.40001 6.3999 1.70001 5.8999 2.10001 5.4999C2.50001 5.0999 3.00001 4.6999 3.60001 4.4999C4.20001 4.1999 4.80001 4.0999 5.50001 4.0999C5.80001 4.0999 6.10001 4.0999 6.40001 4.1999L7.50001 4.3999L8.00001 3.4999C8.30001 3.0999 8.60001 2.6999 8.90001 2.3999C9.30001 2.0999 9.60001 1.7999 10 1.5999C10.4 1.3999 10.8 1.1999 11.3 1.0999C11.8 0.999902 12.2 0.899902 12.7 0.899902Z" stroke="#0078D4" stroke-miterlimit="10"/>
</svg>
