<svg width="16" height="16" viewBox="0 0 16 16" fill="none" xmlns="http://www.w3.org/2000/svg">
<path d="M10.4995 1.27832C11.3101 1.49805 12.0522 1.84229 12.7261 2.31104C13.3999 2.7749 13.9785 3.32666 14.4619 3.96631C14.9502 4.60107 15.3286 5.30664 15.5972 6.08301C15.8657 6.85449 16 7.66016 16 8.5C16 9.18848 15.9097 9.85254 15.729 10.4922C15.5532 11.1318 15.3018 11.73 14.9746 12.2866C14.6523 12.8433 14.2617 13.3511 13.8027 13.8101C13.3486 14.2642 12.8433 14.6548 12.2866 14.9819C11.73 15.3042 11.1318 15.5557 10.4922 15.7363C9.85254 15.9121 9.18848 16 8.5 16C7.81152 16 7.14746 15.9121 6.50781 15.7363C5.86816 15.5557 5.27002 15.3042 4.71338 14.9819C4.15674 14.6548 3.64893 14.2642 3.18994 13.8101C2.73584 13.3511 2.34521 12.8433 2.01807 12.2866C1.6958 11.73 1.44434 11.1343 1.26367 10.4995C1.08789 9.85986 1 9.19336 1 8.5C1 7.81641 1.09033 7.15234 1.271 6.50781C1.45166 5.86328 1.70801 5.25781 2.04004 4.69141C2.37695 4.12012 2.78467 3.60254 3.26318 3.13867C3.7417 2.66992 4.28125 2.26953 4.88184 1.9375H2.875V1H6.625V4.75H5.6875V2.57471C5.11621 2.84814 4.59863 3.19238 4.13477 3.60742C3.67578 4.01758 3.28271 4.48145 2.95557 4.99902C2.62842 5.51172 2.37695 6.06592 2.20117 6.66162C2.02539 7.25732 1.9375 7.87012 1.9375 8.5C1.9375 9.10059 2.01562 9.68164 2.17188 10.2432C2.32812 10.7998 2.54785 11.3223 2.83105 11.8105C3.11914 12.2939 3.46338 12.7358 3.86377 13.1362C4.26416 13.5366 4.70605 13.8809 5.18945 14.1689C5.67773 14.4521 6.2002 14.6719 6.75684 14.8281C7.31348 14.9844 7.89453 15.0625 8.5 15.0625C9.10059 15.0625 9.6792 14.9844 10.2358 14.8281C10.7974 14.6719 11.3198 14.4521 11.8032 14.1689C12.2915 13.8809 12.7358 13.5366 13.1362 13.1362C13.5366 12.7358 13.8784 12.2939 14.1616 11.8105C14.4497 11.3223 14.6719 10.7998 14.8281 10.2432C14.9844 9.68652 15.0625 9.10547 15.0625 8.5C15.0625 7.76758 14.9429 7.06201 14.7036 6.3833C14.4692 5.70459 14.1396 5.08691 13.7148 4.53027C13.29 3.97363 12.7822 3.49268 12.1914 3.0874C11.6055 2.67725 10.9585 2.37451 10.2505 2.1792L10.4995 1.27832Z" fill="#0078D4"/>
</svg>
