<svg width="16" height="16" viewBox="0 0 16 16" fill="none" xmlns="http://www.w3.org/2000/svg">
<g clip-path="url(#clip0)">
<path d="M8.59998 -9.76548e-05C9.09998 -9.76548e-05 9.59998 -9.76473e-05 9.99998 0.199902C10.5 0.299902 10.9 0.499902 11.3 0.799902C11.7 0.999902 12.1 1.2999 12.4 1.6999C12.7 1.9999 13 2.3999 13.3 2.7999C13.6 3.1999 13.7 3.5999 13.9 4.0999C14 4.5999 14.1 4.9999 14.1 5.4999C14.1 6.1999 14 6.8999 13.7 7.5999C13.4 8.2999 13 8.7999 12.5 9.2999L5.99998 15.7999L5.29998 15.0999L11.8 8.5999C12.2 8.1999 12.5 7.6999 12.8 7.1999C13.1 6.6999 13.1 6.0999 13.1 5.4999C13.1 4.8999 13 4.2999 12.7 3.7999C12.5 3.2999 12.1 2.7999 11.7 2.3999C11.3 1.9999 10.8 1.6999 10.3 1.3999C9.79998 1.0999 9.19998 0.999902 8.59998 0.999902C7.99998 0.999902 7.49998 1.0999 7.09998 1.1999C6.69998 1.3999 6.29998 1.5999 5.89998 1.8999C5.49998 2.1999 5.19998 2.4999 4.89998 2.8999C4.49998 3.1999 4.19998 3.5999 3.79998 3.8999H7.09998V4.8999H2.09998V-0.100098H3.09998V3.1999C3.39998 2.8999 3.69998 2.5999 3.89998 2.3999C4.19998 2.0999 4.39998 1.8999 4.69998 1.5999C4.99998 1.3999 5.19998 1.1999 5.49998 0.999902C5.79998 0.799902 6.09998 0.599902 6.39998 0.499902C6.69998 0.399902 6.99998 0.199902 7.39998 0.199902C7.79998 -9.76473e-05 8.19998 -9.76548e-05 8.59998 -9.76548e-05Z" fill="#CCCCCC"/>
</g>
<defs>
<clipPath id="clip0">
<rect width="16" height="16" fill="white"/>
</clipPath>
</defs>
</svg>
