<svg width="15" height="15" viewBox="0 0 15 15" fill="none" xmlns="http://www.w3.org/2000/svg">
<g clip-path="url(#clip0)">
<path d="M13 7.3V7.4V7.5V7.6V7.7L14.9 9L13.7 11.8L11.5 11.3C11.4 11.4 11.3 11.6 11.1 11.7L11.6 13.9L8.90002 15L7.70002 13.1H7.60002H7.50002H7.40002H7.30002L6.00002 15L3.20002 13.8L3.70002 11.6C3.60002 11.5 3.40002 11.4 3.30002 11.2L1.10002 11.7L-0.0999756 9L1.80002 7.8V7.7V7.6V7.5V7.4L-0.0999756 6.2L1.10002 3.4L3.30002 3.9C3.40002 3.8 3.50002 3.6 3.70002 3.5L3.20002 1.2L6.00002 0L7.20002 1.9H7.30002H7.40002H7.50002H7.60002L8.90002 0L11.7 1.2L11.2 3.4C11.3 3.5 11.5 3.6 11.6 3.8L13.8 3.3L15 6.1L13 7.3ZM12.2 8.2C12.2 8.1 12.2 8 12.2 7.9C12.2 7.8 12.2 7.7 12.2 7.6C12.2 7.5 12.2 7.4 12.2 7.3C12.2 7.2 12.2 7.1 12.2 7L13.9 5.9L13.3 4.4L11.3 4.9C11.1 4.7 11 4.5 10.8 4.4C10.6 4.2 10.5 4.1 10.3 3.9L10.8 1.9L9.20002 1.1L8.10003 2.8C8.00002 2.8 7.90002 2.8 7.80002 2.8C7.70002 2.8 7.60002 2.8 7.50002 2.8C7.40002 2.8 7.30002 2.8 7.20002 2.8C7.10002 2.8 7.00002 2.8 6.90002 2.8L5.70002 1.1L4.10002 1.7L4.60002 3.7C4.40002 3.8 4.20002 4 4.10002 4.2C3.90002 4.3 3.80002 4.5 3.60002 4.7L1.60002 4.2L1.00002 5.7L2.70002 6.8C2.70002 6.9 2.70002 7 2.70002 7.1C2.70002 7.2 2.70002 7.3 2.70002 7.4C2.70002 7.5 2.70002 7.6 2.70002 7.7C2.70002 7.8 2.70002 7.9 2.70002 8L1.00002 9.3L1.60002 10.8L3.60002 10.3C3.80002 10.5 3.90002 10.7 4.10002 10.8C4.30002 11 4.40002 11.1 4.60002 11.3L4.10002 13.3L5.70002 14L6.80002 12.3C6.90002 12.3 7.00002 12.3 7.10002 12.3C7.20002 12.3 7.30002 12.3 7.40002 12.3C7.50002 12.3 7.60002 12.3 7.70002 12.3C7.80002 12.3 7.90002 12.3 8.00002 12.3L9.20002 14L10.7 13.4L10.2 11.4C10.4 11.2 10.6 11.1 10.7 10.9C10.9 10.7 11 10.6 11.2 10.4L13.2 10.9L13.8 9.4L12.2 8.2ZM7.40002 4.8C7.80002 4.8 8.10003 4.9 8.50002 5C8.80002 5.1 9.10002 5.3 9.40002 5.6C9.70002 5.9 9.80002 6.1 10 6.4C10.1 6.7 10.2 7.1 10.2 7.5C10.2 7.9 10.1 8.3 10 8.6C9.80002 8.9 9.60002 9.2 9.40002 9.5C9.20002 9.8 8.90002 9.9 8.50002 10.1C8.20002 10.2 7.80002 10.3 7.40002 10.3C7.00002 10.3 6.70002 10.2 6.30002 10.1C6.00002 9.9 5.70002 9.7 5.50002 9.5C5.30002 9.3 5.00002 8.9 4.90002 8.6C4.70002 8.3 4.70002 7.9 4.70002 7.5C4.70002 7.1 4.80002 6.8 4.90002 6.4C5.00002 6.1 5.20002 5.8 5.50002 5.6C5.80002 5.4 6.00002 5.1 6.40002 5C6.70002 4.8 7.10002 4.8 7.40002 4.8ZM7.40002 9.5C7.70002 9.5 7.90002 9.4 8.20002 9.3C8.40002 9.2 8.60003 9.1 8.80002 8.9C9.00002 8.7 9.10002 8.5 9.20002 8.3C9.30002 8 9.40002 7.8 9.40002 7.5C9.40002 7.2 9.30002 7 9.20002 6.8C9.10002 6.6 9.00002 6.3 8.80002 6.1C8.60003 6 8.40002 5.8 8.20002 5.7C8.00002 5.6 7.70002 5.6 7.40002 5.6C7.10002 5.6 6.90002 5.7 6.60002 5.8C6.40002 5.8 6.20002 6 6.10002 6.1C6.00002 6.2 5.70002 6.5 5.60002 6.8C5.50002 7 5.50002 7.3 5.50002 7.5C5.50002 7.7 5.50002 8 5.60002 8.3C5.70002 8.5 5.80002 8.7 6.00002 8.9C6.20002 9.1 6.40002 9.2 6.60002 9.3C6.80002 9.4 7.20002 9.5 7.40002 9.5Z" fill="#0078D4"/>
</g>
<defs>
<clipPath id="clip0">
<rect width="15" height="15" fill="white"/>
</clipPath>
</defs>
</svg>
