<svg width="16" height="16" viewBox="0 0 16 16" fill="none" xmlns="http://www.w3.org/2000/svg">
<path d="M14.5843 10.6634C14.7349 10.0816 14.8148 9.48691 14.8148 8.88889C14.8148 5.86838 12.8786 3.17853 10.0556 2.18764C9.96043 0.967231 8.94813 0 7.7037 0C6.45931 0 5.44705 0.967158 5.35182 2.18757C2.52865 3.17842 0.592593 5.86827 0.592593 8.88889C0.592593 9.48683 0.672381 10.0815 0.822989 10.6635C0.323098 11.0984 0 11.7314 0 12.4444C0 13.7514 1.06337 14.8148 2.37037 14.8148C2.75112 14.8148 3.10608 14.7162 3.4252 14.556C4.65672 15.4867 6.15766 16 7.7037 16C9.24975 16 10.7507 15.4867 11.9822 14.556C12.3013 14.7162 12.6563 14.8148 13.037 14.8148C14.344 14.8148 15.4074 13.7514 15.4074 12.4444C15.4074 11.7313 15.0843 11.0984 14.5843 10.6634ZM7.7037 1.18519C8.35735 1.18519 8.88889 1.71672 8.88889 2.37037C8.88889 3.02402 8.35735 3.55556 7.7037 3.55556C7.05006 3.55556 6.51852 3.02402 6.51852 2.37037C6.51852 1.71672 7.05006 1.18519 7.7037 1.18519ZM1.18519 12.4444C1.18519 11.7908 1.71672 11.2593 2.37037 11.2593C3.02402 11.2593 3.55556 11.7908 3.55556 12.4444C3.55556 13.0981 3.02402 13.6296 2.37037 13.6296C1.71672 13.6296 1.18519 13.0981 1.18519 12.4444ZM4.3406 13.7592C4.5927 13.3826 4.74074 12.9306 4.74074 12.4444C4.74074 11.1374 3.67737 10.0741 2.37037 10.0741C2.21354 10.0741 2.06076 10.0912 1.91236 10.1204C1.82552 9.7143 1.77778 9.30252 1.77778 8.88889C1.77778 6.43699 3.30892 4.24606 5.56301 3.37146C5.94184 4.17763 6.75564 4.74074 7.7037 4.74074C8.65173 4.74074 9.46553 4.17766 9.84437 3.37156C12.0983 4.24624 13.6296 6.4371 13.6296 8.88889C13.6296 9.30266 13.5819 9.71448 13.495 10.1204C13.3466 10.0912 13.1939 10.0741 13.037 10.0741C11.73 10.0741 10.6667 11.1374 10.6667 12.4444C10.6667 12.9307 10.8147 13.3826 11.0668 13.7592C10.0803 14.4417 8.90788 14.8148 7.7037 14.8148C6.49953 14.8148 5.32711 14.4417 4.3406 13.7592ZM13.037 13.6296C12.3834 13.6296 11.8519 13.0981 11.8519 12.4444C11.8519 11.7908 12.3834 11.2593 13.037 11.2593C13.6907 11.2593 14.2222 11.7908 14.2222 12.4444C14.2222 13.0981 13.6907 13.6296 13.037 13.6296Z" fill="#CCCCCC"/>
</svg>
