<svg width="16" height="16" viewBox="0 0 16 16" fill="none" xmlns="http://www.w3.org/2000/svg">
<path d="M8 0L1 4.041V11.959L8 16L15 11.959V4.041L8 0ZM2 4.619L8 1.154L10.848 2.8L6.44 5.345C6.20113 5.14765 5.90701 5.02912 5.59805 5.00569C5.2891 4.98226 4.98046 5.05507 4.71456 5.21414C4.44866 5.3732 4.23855 5.61071 4.11309 5.89402C3.98763 6.17732 3.95298 6.49253 4.0139 6.79633C4.07482 7.10012 4.22833 7.3776 4.45332 7.59063C4.67832 7.80366 4.96376 7.94178 5.27043 7.98602C5.5771 8.03026 5.88995 7.97845 6.16598 7.83771C6.44202 7.69696 6.66769 7.47419 6.812 7.2C7.29924 7.26078 7.76974 7.41694 8.19663 7.65955C8.62352 7.90216 8.99845 8.22649 9.3 8.614C9.10742 8.86944 9.00223 9.18011 9 9.5C9.00065 9.59168 9.01002 9.6831 9.028 9.773L4.122 12.606L2 11.381V4.619ZM14 11.381L8 14.846L5.121 13.183L9.531 10.636C9.71461 10.7943 9.93386 10.9058 10.17 10.9608C10.4061 11.0158 10.652 11.0128 10.8867 10.952C11.1214 10.8912 11.3378 10.7744 11.5175 10.6117C11.6972 10.4489 11.8347 10.2451 11.9184 10.0175C12.002 9.78996 12.0293 9.54553 11.9978 9.30514C11.9663 9.06476 11.877 8.8356 11.7376 8.63727C11.5982 8.43894 11.4127 8.27737 11.1972 8.16638C10.9817 8.05539 10.7424 7.9983 10.5 8C10.3726 8.0017 10.2459 8.01951 10.123 8.053C9.74503 7.55229 9.27111 7.13188 8.7289 6.81631C8.18669 6.50074 7.58706 6.29632 6.965 6.215V6.197L11.849 3.376L14 4.619V11.381Z" fill="#0078D4"/>
</svg>
