<svg width="15" height="15" viewBox="0 0 15 15" fill="none" xmlns="http://www.w3.org/2000/svg">
<path fill-rule="evenodd" clip-rule="evenodd" d="M1.5 0.399994V14.2H7V13.2H2.5V1.39999H8.5V3.99999H11.4V8.39999H12.4V3.27674L9.19132 0.399994H1.5ZM10.5933 2.99999L9.5 2.0198V2.99999H10.5933Z" fill="#CCCCCC"/>
<path d="M3.80002 9.5C3.80002 10.1 4.20002 10.4 4.90002 10.4H5.00002V10C4.80002 10 4.70002 10 4.60002 9.9C4.50002 9.8 4.50002 9.6 4.50002 9.4V8.6C4.50002 8.1 4.30002 7.9 3.90002 7.8C4.30002 7.7 4.50002 7.4 4.50002 7V6.2C4.50002 5.8 4.70002 5.6 5.00002 5.6V5.1C4.30002 5.1 3.90002 5.4 3.90002 6V6.9C3.90002 7.3 3.70002 7.5 3.40002 7.5V8C3.70002 8 3.80002 8.2 3.80002 8.6V9.5Z" fill="#CCCCCC"/>
<path d="M10.4 8C10 8 9.90002 8.2 9.90002 8.6V9.5C9.90002 10.1 9.50002 10.4 8.80002 10.4V9.9C8.91718 9.9 9.00002 9.86569 9.06865 9.83726C9.11718 9.81716 9.1586 9.8 9.20002 9.8C9.30002 9.7 9.30002 9.6 9.30002 9.3V8.5C9.30002 8.1 9.50002 7.8 9.90002 7.7C9.50002 7.6 9.30002 7.4 9.30002 7V6.1C9.30002 5.7 9.10002 5.5 8.80002 5.5V5C9.50002 5 9.90002 5.3 9.90002 5.9V6.8C9.90002 7.2 10.1 7.4 10.4 7.4V8Z" fill="#CCCCCC"/>
<path d="M10.2 8.89999V11.4H7.79999V12.4H10.2V14.9H11.2V12.4H13.6V11.4H11.2V8.89999H10.2Z" fill="#CCCCCC"/>
</svg>
