<svg width="18" height="16" viewBox="0 0 18 16" fill="none" xmlns="http://www.w3.org/2000/svg">
<path d="M17.7 12.8H15.5V15.2H15.2V12.8H13V12.5H15.2V10H15.5V12.4H17.7V12.8Z" fill="#393939" stroke="#0078D4" stroke-width="0.5"/>
<path d="M12.4184 8V6.27692C12.2979 6.27692 12.1773 6.15385 12.0567 6.15385C11.9362 6.03077 11.8156 6.03077 11.695 5.90769L10.2482 6.64615L9.40425 5.29231L10.8511 4.43077C10.8511 4.30769 10.8511 4.18462 10.8511 3.93846C10.8511 3.81538 10.8511 3.69231 10.8511 3.44615L9.40425 2.58462L10.2482 1.23077L11.695 2.09231C11.8156 1.96923 11.9362 1.96923 12.0567 1.84615C12.1773 1.72308 12.2979 1.72308 12.4184 1.72308V0H13.9858V1.72308C14.227 1.84615 14.4681 1.96923 14.7092 2.09231L16.156 1.23077L17 2.58462L15.5532 3.44615C15.5532 3.56923 15.5532 3.69231 15.5532 3.93846C15.5532 4.06154 15.5532 4.18462 15.5532 4.43077L17 5.29231L16.156 6.64615L14.7092 5.78462C14.4681 6.03077 14.227 6.15385 13.9858 6.15385V7.87692H12.4184V8ZM14.1064 3.07692C13.8652 2.83077 13.6241 2.70769 13.2624 2.70769C12.9007 2.70769 12.6596 2.83077 12.4184 3.07692C12.1773 3.32308 12.0567 3.56923 12.0567 3.93846C12.0567 4.30769 12.1773 4.55385 12.4184 4.8C12.6596 5.04615 12.9007 5.16923 13.2624 5.16923C13.6241 5.16923 13.8652 5.04615 14.1064 4.8C14.3475 4.55385 14.4681 4.30769 14.4681 3.93846C14.4681 3.56923 14.3475 3.32308 14.1064 3.07692ZM0.602837 7.50769L2.17021 8.12308C2.29078 7.87692 2.41135 7.75385 2.65248 7.50769C2.77305 7.38462 3.01418 7.13846 3.25532 7.01538L2.53191 5.53846L3.97872 4.92308L4.58156 6.4C5.06383 6.4 5.66667 6.4 6.14894 6.4L6.75177 4.8L8.19858 5.41538L7.59574 7.01538C7.95745 7.26154 8.31915 7.63077 8.68085 8.12308L10.2482 7.50769L10.8511 8.98462L9.28369 9.6C9.28369 10.0923 9.28369 10.7077 9.28369 11.2L10.8511 11.8154L10.2482 13.2923L8.68085 12.6769C8.43972 13.0462 8.07801 13.4154 7.59574 13.7846L8.19858 15.3846L6.75177 16L6.14894 14.4C5.9078 14.4 5.66667 14.5231 5.42553 14.5231C5.1844 14.5231 4.94326 14.5231 4.70213 14.4L4.09929 16L2.65248 15.3846L3.25532 13.7846C3.01418 13.6615 2.89362 13.5385 2.65248 13.2923C2.53191 13.1692 2.29078 12.9231 2.17021 12.6769L0.602837 13.2923L0 11.8154L1.56738 11.2C1.44681 10.7077 1.44681 10.0923 1.56738 9.6L0 8.98462L0.602837 7.50769ZM6.2695 12.5538C6.63121 12.5538 6.87234 12.3077 7.11348 12.0615C7.35461 11.8154 7.47518 11.5692 7.59574 11.3231C7.83688 10.7077 7.83688 10.0923 7.59574 9.47692C7.47518 9.23077 7.23404 8.86154 7.11348 8.73846C6.87234 8.49231 6.63121 8.24615 6.2695 8.12308C6.02837 8 5.66667 8 5.42553 8C5.06383 8 4.82269 8 4.46099 8.12308C4.21986 8.24615 3.97872 8.49231 3.73759 8.73846C3.49645 8.98462 3.37589 9.23077 3.25532 9.47692C3.13475 9.72308 3.01418 10.0923 3.01418 10.4615C3.01418 10.8308 3.13475 11.0769 3.25532 11.3231C3.37589 11.5692 3.49645 11.8154 3.73759 12.0615C3.85816 12.3077 4.21986 12.4308 4.46099 12.5538C5.06383 12.9231 5.66667 12.9231 6.2695 12.5538Z" fill="#0078D4"/>
</svg>
