<svg width="17" height="16" viewBox="0 0 17 16" fill="none" xmlns="http://www.w3.org/2000/svg">
<g clip-path="url(#clip0)">
<path d="M16.3 13.5H14.1V15.9H13.8V13.5H11.6V13.2H13.8V10.7H14.1V13.1H16.3V13.5Z" fill="#0078D4" stroke="#0078D4" stroke-width="0.5"/>
<path d="M3.2 4.09999H4.5C4.7 3.09999 4.9 2.29999 5.2 1.89999C5.5 1.49999 5.8 0.999988 6.2 0.699988C6.6 0.399988 7 0.299988 7.4 0.299988C7.6 0.299988 7.8 0.299988 7.9 0.399988C8 0.499988 8 0.599988 8 0.799988C8 0.899988 8 0.999988 7.9 1.09999C7.8 1.09999 7.7 1.19999 7.6 1.19999C7.5 1.19999 7.2 1.19999 6.9 1.09999C6.8 0.999988 6.6 0.999988 6.5 0.999988C6.3 0.999988 6.1 1.19999 5.9 1.49999C5.7 1.79999 5.6 2.29999 5.5 2.79999L5.2 4.09999H6.6L6.5 4.49999H5.1L4.3 8.29999C4 9.49999 3.6 10.4 3 11C2.4 11.6 1.8 11.9 1.2 11.9C1 11.9 0.8 11.9 0.7 11.8C0.6 11.7 0.5 11.6 0.5 11.4C0.5 11.3 0.5 11.2 0.6 11.1C0.7 11 0.9 11 1 11C1.1 11 1.2 11 1.3 11C1.5 11 1.8 11.1 2 11.1C2.3 11.1 2.6 11 2.8 10.8C3 10.6 3.1 10.2 3.3 9.39999L4.4 4.49999H3.1L3.2 4.09999Z" fill="#0078D4"/>
<path d="M6.9 4.89999L6.7 4.69999C7.1 4.29999 7.4 4.09999 7.7 3.89999C7.9 3.79999 8 3.69999 8.1 3.69999C8.2 3.69999 8.3 3.79999 8.4 3.89999C8.5 4.09999 8.6 4.59999 8.7 5.29999C9.2 4.59999 9.6 4.09999 10 3.79999C10.3 3.49999 10.6 3.39999 10.8 3.39999C10.9 3.39999 11 3.39999 11.1 3.49999C11.2 3.59999 11.2 3.69999 11.2 3.79999C11.2 3.89999 11.2 3.99999 11.1 4.09999C11 4.19999 10.8 4.19999 10.4 4.29999C10.2 4.29999 10 4.39999 9.8 4.59999C9.5 4.79999 9.2 5.29999 8.9 5.79999L9.2 7.59999C9.4 8.39999 9.5 8.99999 9.7 9.39999C9.8 9.79999 10 10.1 10.3 10.3C10.4 10.4 10.6 10.5 10.7 10.5C10.9 10.5 11.1 10.3 11.2 9.99999C11.3 9.79999 11.4 9.69999 11.5 9.69999C11.6 9.69999 11.6 9.69999 11.7 9.79999C11.7 9.79999 11.8 9.89999 11.8 9.99999C11.8 10.2 11.7 10.4 11.5 10.5C11.3 10.7 11 10.8 10.7 10.8C10.4 10.8 10 10.7 9.7 10.4C9.4 10.2 9.2 9.79999 9 9.29999C8.7 8.69999 8.5 7.89999 8.3 6.69999C8.3 6.79999 8.2 6.99999 8 7.29999C7.6 7.99999 7.2 8.39999 7 8.59999C6.8 8.79999 6.5 8.89999 6.3 8.89999C6.1 8.89999 6 8.89999 5.9 8.79999C5.8 8.69999 5.7 8.59999 5.7 8.39999C5.7 8.29999 5.7 8.19999 5.8 8.09999C5.9 8.09999 6 7.99999 6.1 7.99999C6.2 7.99999 6.3 8.09999 6.4 8.19999C6.5 8.29999 6.6 8.39999 6.6 8.39999C6.6 8.39999 6.7 8.39999 6.8 8.29999C6.8 8.29999 7 8.19999 7.1 7.99999C7.3 7.69999 7.5 7.49999 7.6 7.29999L8.3 6.19999L8 5.09999C8 4.79999 7.9 4.59999 7.9 4.49999C7.8 4.39999 7.7 4.39999 7.7 4.39999C7.6 4.39999 7.6 4.39999 7.5 4.49999C7.2 4.59999 7.1 4.79999 6.9 4.89999Z" fill="#0078D4"/>
</g>
<defs>
<clipPath id="clip0">
<rect width="17" height="16" fill="white"/>
</clipPath>
</defs>
</svg>
