<svg width="16" height="16" viewBox="0 0 16 16" fill="none" xmlns="http://www.w3.org/2000/svg">
<path d="M12.8 4H5.29999V6.7H12.8V4Z" stroke="#0078D4" stroke-miterlimit="10"/>
<path d="M12.8 9.10001H5.29999V11.8H12.8V9.10001Z" stroke="#0078D4" stroke-miterlimit="10"/>
<path d="M3.6 12.9C2.4 12.9 1.9 12.3 1.9 11.1V9.49999C1.9 8.69999 1.6 8.29999 1 8.29999V7.59999C1.6 7.59999 1.9 7.19999 1.9 6.39999V4.69999C1.9 3.49999 2.5 2.89999 3.6 2.89999V3.59999C3 3.69999 2.7 4.09999 2.7 4.79999V6.49999C2.7 7.29999 2.4 7.79999 1.8 7.99999C2.4 8.19999 2.7 8.69999 2.7 9.49999V11C2.7 11.4 2.8 11.7 2.9 11.9C3 12.1 3.3 12.2 3.6 12.2V12.9Z" fill="#0078D4"/>
</svg>
