<svg id="Layer_1" data-name="Layer 1" xmlns="http://www.w3.org/2000/svg" viewBox="0 0 32 29.424">
<title>CosmosDB_rgb_mono_lighttheme</title>
<path d="M4.8,8.968a.324.324,0,0,1-.325-.323A3.694,3.694,0,0,0,.78,4.963a.323.323,0,1,1,0-.645A3.693,3.693,0,0,0,4.477.636a.325.325,0,0,1,.649,0,3.694,3.694,0,0,0,3.7,3.682.323.323,0,1,1,0,.646,3.694,3.694,0,0,0-3.7,3.682A.324.324,0,0,1,4.8,8.968Z" transform="translate(-0.455 -0.313)" fill="#b5a3a3"/>
<path d="M27.6,29.737a.194.194,0,0,1-.194-.193,2.209,2.209,0,0,0-2.211-2.2.193.193,0,1,1,0-.386,2.209,2.209,0,0,0,2.211-2.2.194.194,0,0,1,.388,0,2.209,2.209,0,0,0,2.211,2.2.193.193,0,1,1,0,.386,2.209,2.209,0,0,0-2.211,2.2A.193.193,0,0,1,27.6,29.737Z" transform="translate(-0.455 -0.313)" fill="#b5a3a3"/>
<path d="M11.952,25.4a10.534,10.534,0,0,0,15.237-9.366,48.365,48.365,0,0,1-7.219,5.343A48.458,48.458,0,0,1,11.952,25.4Z" transform="translate(-0.455 -0.313)" fill="#b5a3a3"/>
<path d="M18.223,18.519a42.517,42.517,0,0,0,7.7-5.9c.191-.19.361-.364.522-.531a10.45,10.45,0,0,0-1.956-3.164A10.581,10.581,0,0,0,6.348,13.547,10.545,10.545,0,0,0,8.7,22.928c.243-.071.482-.139.747-.225A42.76,42.76,0,0,0,18.223,18.519Z" transform="translate(-0.455 -0.313)" fill="#b5a3a3"/>
<path d="M32.035,6.494c-1.009-1.651-3.544-2.033-7.329-1.106a30.145,30.145,0,0,0-3.471,1.105A10.659,10.659,0,0,1,23.284,7.8c.644-.212,1.276-.4,1.878-.549a13.219,13.219,0,0,1,3.083-.437c1.239,0,1.923.306,2.151.679.374.612.03,2.228-2.17,4.77-.391.452-.832.91-1.294,1.371A44.055,44.055,0,0,1,18.97,19.74a43.82,43.82,0,0,1-9.08,4.323c-3.829,1.247-6.444,1.222-7.029.265s.585-3.3,3.444-6.139a10.46,10.46,0,0,1-.235-2.46c-4.55,4.112-6.023,7.677-4.847,9.6C1.838,26.336,3.184,26.9,5.149,26.9a19.988,19.988,0,0,0,6.8-1.5,48.444,48.444,0,0,0,8.026-4.026,48.366,48.366,0,0,0,7.221-5.345,29.818,29.818,0,0,0,2.487-2.513C32.229,10.574,33.044,8.144,32.035,6.494Z" transform="translate(-0.455 -0.313)" fill="#b5a3a3"/></svg>