<svg width="16" height="16" viewBox="0 0 16 16" fill="none" xmlns="http://www.w3.org/2000/svg">
<path fill-rule="evenodd" clip-rule="evenodd" d="M6.7 1H0V15H8V14H1V4H6.7L7.7 3H15V8H16V2H7.7L6.7 1ZM1 2H6.3L6.8 2.5L6.3 3H1V2Z" fill="#0078D4"/>
<path fill-rule="evenodd" clip-rule="evenodd" d="M15 11C15 12.1046 14.1046 13 13 13C11.8954 13 11 12.1046 11 11C11 9.89543 11.8954 9 13 9C14.1046 9 15 9.89543 15 11ZM16 11C16 12.6569 14.6569 14 13 14C12.4932 14 12.0157 13.8743 11.5971 13.6524L9.857 15.7261L9.09096 15.0834L10.8031 13.0429C10.3048 12.5073 10 11.7893 10 11C10 9.34315 11.3431 8 13 8C14.6569 8 16 9.34315 16 11Z" fill="#0078D4"/>
</svg>
