<svg width="482" height="182" viewBox="0 0 482 182" fill="none" xmlns="http://www.w3.org/2000/svg">
<g clip-path="url(#clip0_1366_194788)">
<path d="M481 1H1V182H481V1Z" fill="white"/>
<path d="M481 1H0.999939V23H481V1Z" fill="#0078D4"/>
<path d="M51.9999 74H7.99994V82H51.9999V74Z" fill="#F4F4F4"/>
<path d="M70.9999 118H7.99994V126H70.9999V118Z" fill="#F4F4F4"/>
<path d="M70.9999 49H7.99994V57H70.9999V49Z" fill="#F4F4F4"/>
<path d="M348 52H227V60H348V52Z" fill="#F4F4F4"/>
<path d="M210 131H89.9999V139H210V131Z" fill="#F4F4F4"/>
<path d="M340 131H220V139H340V131Z" fill="#F4F4F4"/>
<path d="M470 131H350V139H470V131Z" fill="#F4F4F4"/>
<path d="M169 146H89.9999V154H169V146Z" fill="#F4F4F4"/>
<path d="M299 146H220V154H299V146Z" fill="#F4F4F4"/>
<path d="M429 146H350V154H429V146Z" fill="#F4F4F4"/>
<path d="M169 161H89.9999V169H169V161Z" fill="#F4F4F4"/>
<path d="M299 161H220V169H299V161Z" fill="#F4F4F4"/>
<path d="M429 161H350V169H429V161Z" fill="#F4F4F4"/>
<path d="M55.9999 131H7.99994V139H55.9999V131Z" fill="#F4F4F4"/>
<path d="M70.9999 62H7.99994V70H70.9999V62Z" fill="#F4F4F4"/>
<path d="M38.4879 28H7.99994V36H38.4879V28Z" fill="#F4F4F4"/>
<path d="M89.5878 28H47.8378V36H89.5878V28Z" fill="#F4F4F4"/>
<path d="M1.99994 42H70.4221H481" stroke="#ECECEC" stroke-width="0.5" stroke-miterlimit="10"/>
<path d="M1.99994 111H12.9989H78.9999" stroke="#ECECEC" stroke-width="0.5" stroke-miterlimit="10"/>
<path d="M78.9999 182L78.9999 44" stroke="#ECECEC" stroke-width="0.5" stroke-miterlimit="10"/>
<path d="M210 73H90V113H210V73Z" fill="white" stroke="#E1E1E1" stroke-width="0.5"/>
<path d="M204 93H123V97H204V93Z" fill="#ECECEC"/>
<path d="M204 81H123V89H204V81Z" fill="#ECECEC"/>
<path d="M204 101H123V105H204V101Z" fill="#ECECEC"/>
<path d="M106 105C112.627 105 118 99.6274 118 93C118 86.3726 112.627 81 106 81C99.3726 81 94 86.3726 94 93C94 99.6274 99.3726 105 106 105Z" fill="#ECECEC"/>
<path d="M340 73H220V113H340V73Z" fill="white" stroke="#E1E1E1" stroke-width="0.5"/>
<path d="M334 93H253V97H334V93Z" fill="#ECECEC"/>
<path d="M334 81H253V89H334V81Z" fill="#ECECEC"/>
<path d="M334 101H253V105H334V101Z" fill="#ECECEC"/>
<path d="M236 105C242.627 105 248 99.6274 248 93C248 86.3726 242.627 81 236 81C229.373 81 224 86.3726 224 93C224 99.6274 229.373 105 236 105Z" fill="#ECECEC"/>
<path d="M470 73H350V113H470V73Z" fill="#FEFFFF" stroke="#E1E1E1" stroke-width="0.5"/>
<path d="M464 93H383V97H464V93Z" fill="#ECECEC"/>
<path d="M464 101H383V105H464V101Z" fill="#ECECEC"/>
<g clip-path="url(#clip1_1366_194788)">
<path d="M377.294 83.8379L376.046 82.5896L378.535 80.1006C378.596 80.0394 378.68 80.005 378.766 80.005C378.853 80.005 378.936 80.0394 378.997 80.1006L379.784 80.8879C379.846 80.9491 379.88 81.0322 379.88 81.1189C379.88 81.2055 379.846 81.2886 379.784 81.3499L377.295 83.8389L377.294 83.8379Z" fill="#32BEDD"/>
<path d="M358.672 100.188L359.924 101.44L357.467 103.897C357.406 103.957 357.324 103.991 357.238 103.991C357.152 103.991 357.07 103.957 357.009 103.897L356.219 103.106C356.188 103.077 356.163 103.041 356.146 103.001C356.129 102.962 356.12 102.919 356.12 102.876C356.12 102.833 356.128 102.791 356.144 102.751C356.16 102.711 356.185 102.675 356.215 102.644L358.672 100.188Z" fill="#0078D4"/>
<path d="M359.056 95.0176C358.268 95.8053 357.826 96.8737 357.826 97.9876C357.826 99.1016 358.268 100.17 359.056 100.958C359.844 101.745 360.912 102.188 362.026 102.188C363.14 102.188 364.208 101.745 364.996 100.958L366.921 99.031L360.983 93.0923L359.056 95.0176Z" fill="url(#paint0_linear_1366_194788)"/>
<path d="M366.452 90.8951L366.569 91.012C366.688 91.1306 366.754 91.2913 366.754 91.4589C366.754 91.6266 366.688 91.7873 366.569 91.9058L364.16 94.3147L363.151 93.305L365.561 90.8951C365.679 90.7766 365.84 90.71 366.007 90.71C366.175 90.71 366.336 90.7766 366.454 90.8951H366.452Z" fill="#C3F1FF"/>
<path d="M368.95 93.3922L369.067 93.5091C369.185 93.6276 369.252 93.7884 369.252 93.956C369.252 94.1236 369.185 94.2844 369.067 94.4029L366.655 96.8146L365.645 95.8049L368.058 93.3922C368.176 93.2737 368.337 93.2071 368.505 93.2071C368.672 93.2071 368.833 93.2737 368.952 93.3922L368.95 93.3922Z" fill="#C3F1FF"/>
<path d="M368.562 98.0371L361.923 91.3987C361.8 91.2753 361.6 91.2753 361.477 91.3987L360.605 92.2699C360.482 92.3933 360.482 92.5934 360.605 92.7168L367.244 99.3551C367.367 99.4785 367.567 99.4785 367.691 99.3551L368.562 98.4839C368.685 98.3605 368.685 98.1605 368.562 98.0371Z" fill="#5EA0EF"/>
<path d="M376.944 88.9827C377.732 88.195 378.174 87.1267 378.174 86.0127C378.174 84.8987 377.732 83.8304 376.944 83.0427C376.156 82.255 375.088 81.8125 373.974 81.8125C372.86 81.8125 371.792 82.255 371.004 83.0427L369.079 84.9694L375.017 90.908L376.944 88.9827Z" fill="#ECF4FD"/>
<path d="M369.55 93.1024L369.433 92.9855C369.314 92.867 369.248 92.7062 369.248 92.5386C369.248 92.371 369.314 92.2103 369.433 92.0917L371.844 89.68L372.855 90.6907L370.441 93.1053C370.322 93.2225 370.161 93.2881 369.995 93.2875C369.828 93.287 369.668 93.2205 369.55 93.1024V93.1024Z" fill="#ECF4FD"/>
<path d="M367.05 90.6083L366.934 90.4914C366.815 90.3729 366.748 90.2121 366.748 90.0445C366.748 89.8769 366.815 89.7161 366.934 89.5976L369.344 87.1868L370.355 88.1975L367.945 90.6073C367.827 90.7259 367.666 90.7924 367.498 90.7924C367.331 90.7924 367.17 90.7259 367.051 90.6073L367.05 90.6083Z" fill="#ECF4FD"/>
<path d="M367.438 85.9629L374.077 92.6013C374.2 92.7247 374.4 92.7247 374.524 92.6013L375.395 91.7301C375.518 91.6067 375.518 91.4066 375.395 91.2832L368.756 84.6449C368.633 84.5215 368.433 84.5215 368.309 84.6449L367.438 85.5161C367.315 85.6395 367.315 85.8395 367.438 85.9629Z" fill="#ECF4FD"/>
</g>
<path d="M387.023 86.7949C386.654 86.9863 386.195 87.082 385.646 87.082C384.935 87.082 384.365 86.8576 383.937 86.4087C383.508 85.9598 383.294 85.3708 383.294 84.6416C383.294 83.8577 383.534 83.2243 384.015 82.7412C384.498 82.2581 385.108 82.0166 385.844 82.0166C386.318 82.0166 386.711 82.0838 387.023 82.2183V83.0249C386.693 82.8289 386.328 82.731 385.929 82.731C385.398 82.731 384.968 82.9007 384.637 83.2402C384.309 83.5798 384.145 84.0332 384.145 84.6006C384.145 85.1406 384.299 85.5713 384.606 85.8926C384.914 86.2116 385.319 86.3711 385.82 86.3711C386.282 86.3711 386.683 86.2617 387.023 86.043V86.7949ZM389.416 87.082C388.875 87.082 388.444 86.9191 388.12 86.5933C387.799 86.2651 387.638 85.8311 387.638 85.291C387.638 84.7031 387.806 84.244 388.141 83.9136C388.478 83.5832 388.931 83.418 389.501 83.418C390.048 83.418 390.474 83.5786 390.779 83.8999C391.085 84.2212 391.237 84.6667 391.237 85.2363C391.237 85.7946 391.072 86.2424 390.742 86.5796C390.414 86.9146 389.972 87.082 389.416 87.082ZM389.453 84.0503C389.143 84.0503 388.898 84.1585 388.718 84.375C388.538 84.5915 388.448 84.89 388.448 85.2705C388.448 85.6374 388.539 85.9268 388.722 86.1387C388.904 86.3483 389.148 86.4531 389.453 86.4531C389.765 86.4531 390.005 86.3494 390.171 86.1421C390.34 85.9347 390.424 85.6396 390.424 85.2568C390.424 84.8717 390.34 84.5744 390.171 84.3647C390.005 84.1551 389.765 84.0503 389.453 84.0503ZM395.165 87H394.372V85.0278C394.372 84.3739 394.14 84.0469 393.678 84.0469C393.436 84.0469 393.237 84.138 393.08 84.3203C392.922 84.5003 392.844 84.7282 392.844 85.0039V87H392.047V83.5H392.844V84.0811H392.857C393.119 83.639 393.498 83.418 393.992 83.418C394.373 83.418 394.663 83.5422 394.864 83.7905C395.064 84.0366 395.165 84.3932 395.165 84.8604V87ZM399.252 87H398.459V85.0278C398.459 84.3739 398.228 84.0469 397.766 84.0469C397.524 84.0469 397.325 84.138 397.167 84.3203C397.01 84.5003 396.932 84.7282 396.932 85.0039V87H396.135V83.5H396.932V84.0811H396.945C397.207 83.639 397.586 83.418 398.08 83.418C398.461 83.418 398.751 83.5422 398.952 83.7905C399.152 84.0366 399.252 84.3932 399.252 84.8604V87ZM403.187 85.4653H400.801C400.81 85.7889 400.909 86.0384 401.098 86.2139C401.29 86.3893 401.552 86.4771 401.884 86.4771C402.258 86.4771 402.601 86.3654 402.913 86.1421V86.7812C402.594 86.9818 402.173 87.082 401.648 87.082C401.133 87.082 400.729 86.9237 400.435 86.6069C400.143 86.2879 399.998 85.8402 399.998 85.2637C399.998 84.7191 400.158 84.2759 400.479 83.9341C400.803 83.59 401.204 83.418 401.683 83.418C402.161 83.418 402.531 83.5718 402.793 83.8794C403.056 84.187 403.187 84.6143 403.187 85.1611V85.4653ZM402.421 84.9048C402.419 84.62 402.351 84.3989 402.219 84.2417C402.087 84.0822 401.905 84.0024 401.672 84.0024C401.444 84.0024 401.251 84.0856 401.091 84.252C400.934 84.4183 400.837 84.6359 400.801 84.9048H402.421ZM406.447 86.8394C406.167 87.0011 405.835 87.082 405.453 87.082C404.933 87.082 404.514 86.9202 404.195 86.5967C403.876 86.2708 403.716 85.8493 403.716 85.332C403.716 84.7555 403.887 84.293 404.229 83.9443C404.573 83.5934 405.032 83.418 405.606 83.418C405.925 83.418 406.207 83.4738 406.451 83.5854V84.3237C406.207 84.1414 405.947 84.0503 405.671 84.0503C405.336 84.0503 405.062 84.1642 404.848 84.3921C404.633 84.6177 404.526 84.9139 404.526 85.2808C404.526 85.6431 404.627 85.929 404.827 86.1387C405.03 86.3483 405.301 86.4531 405.641 86.4531C405.925 86.4531 406.194 86.3517 406.447 86.1489V86.8394ZM409.083 86.9624C408.928 87.0399 408.724 87.0786 408.471 87.0786C407.792 87.0786 407.452 86.7528 407.452 86.1011V84.1221H406.868V83.5H407.452V82.6899L408.245 82.4644V83.5H409.083V84.1221H408.245V85.8721C408.245 86.0794 408.283 86.2275 408.358 86.3164C408.433 86.4053 408.558 86.4497 408.734 86.4497C408.868 86.4497 408.985 86.411 409.083 86.3335V86.9624Z" fill="black"/>
<path d="M14.293 16H13.2734L12.7695 14.5742H10.5664L10.082 16H9.06641L11.1641 10.3984H12.2109L14.293 16ZM12.5234 13.8164L11.7461 11.582C11.7227 11.5091 11.6979 11.3919 11.6719 11.2305H11.6562C11.6328 11.3789 11.6068 11.4961 11.5781 11.582L10.8086 13.8164H12.5234ZM17.918 12.3789L15.7578 15.293H17.9102V16H14.4883V15.6602L16.6953 12.707H14.6992V12H17.918V12.3789ZM22.1719 16H21.2656V15.3672H21.25C20.987 15.8516 20.5781 16.0938 20.0234 16.0938C19.0781 16.0938 18.6055 15.526 18.6055 14.3906V12H19.5117V14.2969C19.5117 15.0156 19.7891 15.375 20.3438 15.375C20.612 15.375 20.832 15.276 21.0039 15.0781C21.1784 14.8802 21.2656 14.6211 21.2656 14.3008V12H22.1719V16ZM25.6758 12.8633C25.5664 12.7773 25.4089 12.7344 25.2031 12.7344C24.9349 12.7344 24.7109 12.8555 24.5312 13.0977C24.3516 13.3398 24.2617 13.6693 24.2617 14.0859V16H23.3555V12H24.2617V12.8242H24.2773C24.3659 12.543 24.5013 12.3242 24.6836 12.168C24.8685 12.0091 25.0742 11.9297 25.3008 11.9297C25.4648 11.9297 25.5898 11.9544 25.6758 12.0039V12.8633ZM29.6328 14.2461H26.9062C26.9167 14.6159 27.0299 14.901 27.2461 15.1016C27.4648 15.3021 27.7643 15.4023 28.1445 15.4023C28.5716 15.4023 28.9635 15.2747 29.3203 15.0195V15.75C28.9557 15.9792 28.474 16.0938 27.875 16.0938C27.2865 16.0938 26.8242 15.9128 26.4883 15.5508C26.1549 15.1862 25.9883 14.6745 25.9883 14.0156C25.9883 13.3932 26.1719 12.8867 26.5391 12.4961C26.9089 12.1029 27.3672 11.9062 27.9141 11.9062C28.4609 11.9062 28.8841 12.082 29.1836 12.4336C29.4831 12.7852 29.6328 13.2734 29.6328 13.8984V14.2461ZM28.7578 13.6055C28.7552 13.2799 28.6784 13.0273 28.5273 12.8477C28.3763 12.6654 28.168 12.5742 27.9023 12.5742C27.6419 12.5742 27.4206 12.6693 27.2383 12.8594C27.0586 13.0495 26.9479 13.2982 26.9062 13.6055H28.7578ZM36.707 15.7656C36.2852 15.9844 35.7604 16.0938 35.1328 16.0938C34.3203 16.0938 33.6693 15.8372 33.1797 15.3242C32.6901 14.8112 32.4453 14.138 32.4453 13.3047C32.4453 12.4089 32.7201 11.6849 33.2695 11.1328C33.8216 10.5807 34.5182 10.3047 35.3594 10.3047C35.901 10.3047 36.3503 10.3815 36.707 10.5352V11.457C36.3294 11.2331 35.9128 11.1211 35.457 11.1211C34.8503 11.1211 34.3581 11.3151 33.9805 11.7031C33.6055 12.0911 33.418 12.6094 33.418 13.2578C33.418 13.875 33.5938 14.3672 33.9453 14.7344C34.2969 15.099 34.7591 15.2812 35.332 15.2812C35.8607 15.2812 36.319 15.1562 36.707 14.9062V15.7656ZM39.4414 16.0938C38.8242 16.0938 38.3307 15.9076 37.9609 15.5352C37.5938 15.1602 37.4102 14.6641 37.4102 14.0469C37.4102 13.375 37.6016 12.8503 37.9844 12.4727C38.3698 12.0951 38.888 11.9062 39.5391 11.9062C40.1641 11.9062 40.651 12.0898 41 12.457C41.349 12.8242 41.5234 13.3333 41.5234 13.9844C41.5234 14.6224 41.3346 15.1341 40.957 15.5195C40.582 15.9023 40.0768 16.0938 39.4414 16.0938ZM39.4844 12.6289C39.1302 12.6289 38.8503 12.7526 38.6445 13C38.4388 13.2474 38.3359 13.5885 38.3359 14.0234C38.3359 14.4427 38.4401 14.7734 38.6484 15.0156C38.8568 15.2552 39.1354 15.375 39.4844 15.375C39.8411 15.375 40.1146 15.2565 40.3047 15.0195C40.4974 14.7826 40.5938 14.4453 40.5938 14.0078C40.5938 13.5677 40.4974 13.2279 40.3047 12.9883C40.1146 12.7487 39.8411 12.6289 39.4844 12.6289ZM42.1992 15.875V15.0352C42.5378 15.293 42.9115 15.4219 43.3203 15.4219C43.8672 15.4219 44.1406 15.2604 44.1406 14.9375C44.1406 14.8464 44.1172 14.7695 44.0703 14.707C44.0234 14.6419 43.9596 14.5846 43.8789 14.5352C43.8008 14.4857 43.707 14.4414 43.5977 14.4023C43.4909 14.3633 43.3711 14.319 43.2383 14.2695C43.0742 14.2044 42.9258 14.1354 42.793 14.0625C42.6628 13.9896 42.5534 13.9076 42.4648 13.8164C42.3789 13.7227 42.3138 13.6172 42.2695 13.5C42.2253 13.3828 42.2031 13.2461 42.2031 13.0898C42.2031 12.8971 42.2487 12.7279 42.3398 12.582C42.431 12.4336 42.5534 12.3099 42.707 12.2109C42.8607 12.1094 43.0352 12.0339 43.2305 11.9844C43.4258 11.9323 43.6276 11.9062 43.8359 11.9062C44.2057 11.9062 44.5365 11.9622 44.8281 12.0742V12.8672C44.5469 12.6745 44.224 12.5781 43.8594 12.5781C43.7448 12.5781 43.6406 12.5898 43.5469 12.6133C43.4557 12.6367 43.3776 12.6693 43.3125 12.7109C43.2474 12.7526 43.1966 12.8034 43.1602 12.8633C43.1237 12.9206 43.1055 12.9844 43.1055 13.0547C43.1055 13.1406 43.1237 13.2135 43.1602 13.2734C43.1966 13.3333 43.25 13.3867 43.3203 13.4336C43.3932 13.4779 43.4792 13.5195 43.5781 13.5586C43.6797 13.5951 43.7956 13.6354 43.9258 13.6797C44.0977 13.75 44.2513 13.8216 44.3867 13.8945C44.5247 13.9674 44.6419 14.0508 44.7383 14.1445C44.8346 14.2357 44.9089 14.3424 44.9609 14.4648C45.013 14.5846 45.0391 14.7279 45.0391 14.8945C45.0391 15.0977 44.9922 15.2747 44.8984 15.4258C44.8047 15.5768 44.6797 15.7018 44.5234 15.8008C44.3672 15.8997 44.1862 15.9727 43.9805 16.0195C43.7773 16.069 43.5625 16.0938 43.3359 16.0938C42.8984 16.0938 42.5195 16.0208 42.1992 15.875ZM51.8828 16H50.9766V13.8203C50.9766 13.401 50.9167 13.0977 50.7969 12.9102C50.6797 12.7227 50.4805 12.6289 50.1992 12.6289C49.9622 12.6289 49.7604 12.7474 49.5938 12.9844C49.4297 13.2214 49.3477 13.5052 49.3477 13.8359V16H48.4375V13.7461C48.4375 13.0013 48.1745 12.6289 47.6484 12.6289C47.4036 12.6289 47.2018 12.7409 47.043 12.9648C46.8867 13.1888 46.8086 13.4792 46.8086 13.8359V16H45.9023V12H46.8086V12.6328H46.8242C47.1133 12.1484 47.5339 11.9062 48.0859 11.9062C48.362 11.9062 48.6029 11.9831 48.8086 12.1367C49.0169 12.2878 49.1589 12.487 49.2344 12.7344C49.5312 12.1823 49.974 11.9062 50.5625 11.9062C51.4427 11.9062 51.8828 12.4492 51.8828 13.5352V16ZM54.7617 16.0938C54.1445 16.0938 53.651 15.9076 53.2812 15.5352C52.9141 15.1602 52.7305 14.6641 52.7305 14.0469C52.7305 13.375 52.9219 12.8503 53.3047 12.4727C53.6901 12.0951 54.2083 11.9062 54.8594 11.9062C55.4844 11.9062 55.9714 12.0898 56.3203 12.457C56.6693 12.8242 56.8438 13.3333 56.8438 13.9844C56.8438 14.6224 56.6549 15.1341 56.2773 15.5195C55.9023 15.9023 55.3971 16.0938 54.7617 16.0938ZM54.8047 12.6289C54.4505 12.6289 54.1706 12.7526 53.9648 13C53.7591 13.2474 53.6562 13.5885 53.6562 14.0234C53.6562 14.4427 53.7604 14.7734 53.9688 15.0156C54.1771 15.2552 54.4557 15.375 54.8047 15.375C55.1615 15.375 55.4349 15.2565 55.625 15.0195C55.8177 14.7826 55.9141 14.4453 55.9141 14.0078C55.9141 13.5677 55.8177 13.2279 55.625 12.9883C55.4349 12.7487 55.1615 12.6289 54.8047 12.6289ZM57.5195 15.875V15.0352C57.8581 15.293 58.2318 15.4219 58.6406 15.4219C59.1875 15.4219 59.4609 15.2604 59.4609 14.9375C59.4609 14.8464 59.4375 14.7695 59.3906 14.707C59.3438 14.6419 59.2799 14.5846 59.1992 14.5352C59.1211 14.4857 59.0273 14.4414 58.918 14.4023C58.8112 14.3633 58.6914 14.319 58.5586 14.2695C58.3945 14.2044 58.2461 14.1354 58.1133 14.0625C57.9831 13.9896 57.8737 13.9076 57.7852 13.8164C57.6992 13.7227 57.6341 13.6172 57.5898 13.5C57.5456 13.3828 57.5234 13.2461 57.5234 13.0898C57.5234 12.8971 57.569 12.7279 57.6602 12.582C57.7513 12.4336 57.8737 12.3099 58.0273 12.2109C58.181 12.1094 58.3555 12.0339 58.5508 11.9844C58.7461 11.9323 58.9479 11.9062 59.1562 11.9062C59.526 11.9062 59.8568 11.9622 60.1484 12.0742V12.8672C59.8672 12.6745 59.5443 12.5781 59.1797 12.5781C59.0651 12.5781 58.9609 12.5898 58.8672 12.6133C58.776 12.6367 58.6979 12.6693 58.6328 12.7109C58.5677 12.7526 58.5169 12.8034 58.4805 12.8633C58.444 12.9206 58.4258 12.9844 58.4258 13.0547C58.4258 13.1406 58.444 13.2135 58.4805 13.2734C58.5169 13.3333 58.5703 13.3867 58.6406 13.4336C58.7135 13.4779 58.7995 13.5195 58.8984 13.5586C59 13.5951 59.1159 13.6354 59.2461 13.6797C59.418 13.75 59.5716 13.8216 59.707 13.8945C59.8451 13.9674 59.9622 14.0508 60.0586 14.1445C60.1549 14.2357 60.2292 14.3424 60.2812 14.4648C60.3333 14.5846 60.3594 14.7279 60.3594 14.8945C60.3594 15.0977 60.3125 15.2747 60.2188 15.4258C60.125 15.5768 60 15.7018 59.8438 15.8008C59.6875 15.8997 59.5065 15.9727 59.3008 16.0195C59.0977 16.069 58.8828 16.0938 58.6562 16.0938C58.2188 16.0938 57.8398 16.0208 57.5195 15.875ZM63.5273 16V10.3984H65.1445C67.2096 10.3984 68.2422 11.3086 68.2422 13.1289C68.2422 13.9935 67.9557 14.6888 67.3828 15.2148C66.8099 15.7383 66.0417 16 65.0781 16H63.5273ZM64.4531 11.1875V15.2148H65.1953C65.849 15.2148 66.3568 15.0352 66.7188 14.6758C67.0833 14.3164 67.2656 13.8086 67.2656 13.1523C67.2656 11.8424 66.5872 11.1875 65.2305 11.1875H64.4531ZM69.2695 16V10.3984H71.0469C71.5885 10.3984 72.0169 10.5169 72.332 10.7539C72.6497 10.9909 72.8086 11.2995 72.8086 11.6797C72.8086 11.9974 72.7188 12.2734 72.5391 12.5078C72.3594 12.7422 72.1107 12.9089 71.793 13.0078V13.0234C72.1784 13.0677 72.4857 13.2109 72.7148 13.4531C72.9466 13.6927 73.0625 14.0052 73.0625 14.3906C73.0625 14.8698 72.8737 15.2578 72.4961 15.5547C72.1185 15.8516 71.6419 16 71.0664 16H69.2695ZM70.1953 11.1445V12.7383H70.7969C71.1198 12.7383 71.3724 12.6628 71.5547 12.5117C71.7396 12.3581 71.832 12.1419 71.832 11.8633C71.832 11.3841 71.5117 11.1445 70.8711 11.1445H70.1953ZM70.1953 13.4844V15.2578H70.9883C71.3346 15.2578 71.6016 15.1784 71.7891 15.0195C71.9792 14.8581 72.0742 14.6367 72.0742 14.3555C72.0742 13.7747 71.6719 13.4844 70.8672 13.4844H70.1953Z" fill="white"/>
</g>
<rect x="0.5" y="0.5" width="481" height="181" stroke="#D6D6D6"/>
<defs>
<linearGradient id="paint0_linear_1366_194788" x1="362.373" y1="93.0911" x2="362.373" y2="102.187" gradientUnits="userSpaceOnUse">
<stop stop-color="#5EA0EF"/>
<stop offset="0.997" stop-color="#0078D4"/>
</linearGradient>
<clipPath id="clip0_1366_194788">
<rect x="1" y="1" width="480" height="180" fill="white"/>
</clipPath>
<clipPath id="clip1_1366_194788">
<rect width="24" height="24" fill="white" transform="translate(356 80)"/>
</clipPath>
</defs>
</svg>
