<svg width="482" height="182" viewBox="0 0 482 182" fill="none" xmlns="http://www.w3.org/2000/svg">
<g clip-path="url(#clip0_1366_194686)">
<path d="M481 1H1V182H481V1Z" fill="white"/>
<path d="M481 1H0.999939V23H481V1Z" fill="#0078D4"/>
<path d="M51.9999 74H7.99994V82H51.9999V74Z" fill="#F4F4F4"/>
<path d="M70.9999 118H7.99994V126H70.9999V118Z" fill="#F4F4F4"/>
<path d="M70.9999 49H7.99994V57H70.9999V49Z" fill="#F4F4F4"/>
<path d="M348 52H227V60H348V52Z" fill="#F4F4F4"/>
<path d="M210 131H89.9999V139H210V131Z" fill="#F4F4F4"/>
<path d="M340 131H220V139H340V131Z" fill="#F4F4F4"/>
<path d="M470 131H350V139H470V131Z" fill="#F4F4F4"/>
<path d="M169 146H89.9999V154H169V146Z" fill="#F4F4F4"/>
<path d="M299 146H220V154H299V146Z" fill="#F4F4F4"/>
<path d="M429 146H350V154H429V146Z" fill="#F4F4F4"/>
<path d="M169 161H89.9999V169H169V161Z" fill="#F4F4F4"/>
<path d="M299 161H220V169H299V161Z" fill="#F4F4F4"/>
<path d="M429 161H350V169H429V161Z" fill="#F4F4F4"/>
<path d="M55.9999 131H7.99994V139H55.9999V131Z" fill="#F4F4F4"/>
<path d="M70.9999 62H7.99994V70H70.9999V62Z" fill="#F4F4F4"/>
<path d="M38.4879 28H7.99994V36H38.4879V28Z" fill="#F4F4F4"/>
<path d="M89.5878 28H47.8378V36H89.5878V28Z" fill="#F4F4F4"/>
<path d="M1.99994 42H70.4221H481" stroke="#ECECEC" stroke-width="0.5" stroke-miterlimit="10"/>
<path d="M1.99994 111H12.9989H78.9999" stroke="#ECECEC" stroke-width="0.5" stroke-miterlimit="10"/>
<path d="M78.9999 182L78.9999 44" stroke="#ECECEC" stroke-width="0.5" stroke-miterlimit="10"/>
<path d="M210 73H90V113H210V73Z" fill="#FEFFFF" stroke="#E1E1E1" stroke-width="0.5"/>
<path d="M204 93H123V97H204V93Z" fill="#ECECEC"/>
<path d="M204 101H123V105H204V101Z" fill="#ECECEC"/>
<path d="M106.43 94.3475H98.4519C98.3467 94.3564 98.2411 94.3336 98.157 94.284C98.0728 94.2344 98.0166 94.1616 98 94.0808C98.0005 94.0411 98.0142 94.0021 98.0397 93.9675L107.612 81.162C107.657 81.1103 107.719 81.0685 107.791 81.0405C107.863 81.0125 107.943 80.9992 108.024 81.002H117.458C117.564 80.9928 117.67 81.0154 117.754 81.0651C117.838 81.1148 117.894 81.1877 117.91 81.2687C117.91 81.3273 117.882 81.3839 117.831 81.4273L106.596 91.4464H117.548C117.653 91.4375 117.759 91.4602 117.843 91.5099C117.927 91.5595 117.983 91.6323 118 91.713C117.999 91.7481 117.988 91.7825 117.968 91.814C117.948 91.8455 117.919 91.8733 117.884 91.8957L99.6782 104.717C99.5057 104.785 98.2984 105.466 98.8882 104.432L106.43 94.3475Z" fill="url(#paint0_radial_1366_194686)"/>
<path d="M126.319 87H123.605V82.0986H124.418V86.313H126.319V87ZM129.627 87H128.858V86.4531H128.845C128.603 86.8724 128.249 87.082 127.782 87.082C127.438 87.082 127.168 86.9886 126.972 86.8018C126.778 86.6149 126.681 86.3677 126.681 86.0601C126.681 85.3993 127.062 85.0142 127.823 84.9048L128.862 84.7578C128.862 84.2588 128.625 84.0093 128.151 84.0093C127.734 84.0093 127.358 84.1528 127.023 84.4399V83.7461C127.392 83.5273 127.818 83.418 128.301 83.418C129.185 83.418 129.627 83.8532 129.627 84.7236V87ZM128.862 85.2808L128.127 85.3833C127.899 85.4129 127.727 85.4688 127.611 85.5508C127.497 85.6305 127.44 85.7718 127.44 85.9746C127.44 86.1227 127.492 86.2446 127.597 86.3403C127.704 86.4338 127.847 86.4805 128.024 86.4805C128.266 86.4805 128.465 86.3962 128.623 86.2275C128.782 86.0566 128.862 85.8424 128.862 85.585V85.2808ZM133.65 87H132.857V86.4463H132.844C132.614 86.8701 132.256 87.082 131.771 87.082C130.943 87.082 130.53 86.5853 130.53 85.5918V83.5H131.323V85.5098C131.323 86.1387 131.565 86.4531 132.051 86.4531C132.285 86.4531 132.478 86.3665 132.628 86.1934C132.781 86.0202 132.857 85.7935 132.857 85.5132V83.5H133.65V87ZM137.803 87H137.01V85.0278C137.01 84.3739 136.779 84.0469 136.316 84.0469C136.075 84.0469 135.875 84.138 135.718 84.3203C135.561 84.5003 135.482 84.7282 135.482 85.0039V87H134.686V83.5H135.482V84.0811H135.496C135.758 83.639 136.136 83.418 136.631 83.418C137.011 83.418 137.302 83.5422 137.502 83.7905C137.703 84.0366 137.803 84.3932 137.803 84.8604V87ZM141.279 86.8394C140.999 87.0011 140.667 87.082 140.285 87.082C139.765 87.082 139.346 86.9202 139.027 86.5967C138.708 86.2708 138.548 85.8493 138.548 85.332C138.548 84.7555 138.719 84.293 139.061 83.9443C139.405 83.5934 139.864 83.418 140.438 83.418C140.757 83.418 141.039 83.4738 141.283 83.5854V84.3237C141.039 84.1414 140.779 84.0503 140.503 84.0503C140.168 84.0503 139.894 84.1642 139.68 84.3921C139.465 84.6177 139.358 84.9139 139.358 85.2808C139.358 85.6431 139.459 85.929 139.659 86.1387C139.862 86.3483 140.133 86.4531 140.473 86.4531C140.757 86.4531 141.026 86.3517 141.279 86.1489V86.8394ZM145.179 87H144.386V85.0859C144.386 84.3932 144.155 84.0469 143.692 84.0469C143.46 84.0469 143.264 84.1471 143.104 84.3477C142.945 84.5482 142.865 84.8045 142.865 85.1167V87H142.069V81.8184H142.865V84.0811H142.879C143.143 83.639 143.521 83.418 144.014 83.418C144.791 83.418 145.179 83.8931 145.179 84.8433V87ZM151.253 88.6099H150.46V86.3984H150.446C150.207 86.8542 149.816 87.082 149.274 87.082C148.843 87.082 148.497 86.9259 148.235 86.6138C147.975 86.2993 147.845 85.8721 147.845 85.332C147.845 84.751 147.988 84.2873 148.272 83.9409C148.56 83.5923 148.945 83.418 149.428 83.418C149.897 83.418 150.237 83.6071 150.446 83.9854H150.46V83.5H151.253V88.6099ZM150.47 85.4072V84.9561C150.47 84.7031 150.388 84.4889 150.224 84.3135C150.062 84.138 149.856 84.0503 149.605 84.0503C149.312 84.0503 149.079 84.1608 148.908 84.3818C148.74 84.6006 148.655 84.9105 148.655 85.3115C148.655 85.667 148.737 85.9461 148.901 86.1489C149.065 86.3517 149.277 86.4531 149.537 86.4531C149.822 86.4531 150.049 86.354 150.217 86.1558C150.386 85.9575 150.47 85.708 150.47 85.4072ZM155.341 87H154.548V86.4463H154.534C154.304 86.8701 153.946 87.082 153.461 87.082C152.634 87.082 152.22 86.5853 152.22 85.5918V83.5H153.013V85.5098C153.013 86.1387 153.256 86.4531 153.741 86.4531C153.976 86.4531 154.168 86.3665 154.319 86.1934C154.472 86.0202 154.548 85.7935 154.548 85.5132V83.5H155.341V87ZM156.776 82.7651C156.646 82.7651 156.535 82.723 156.441 82.6387C156.35 82.5544 156.305 82.4473 156.305 82.3174C156.305 82.1875 156.35 82.0793 156.441 81.9927C156.535 81.9061 156.646 81.8628 156.776 81.8628C156.911 81.8628 157.025 81.9061 157.118 81.9927C157.212 82.0793 157.258 82.1875 157.258 82.3174C157.258 82.4404 157.212 82.5464 157.118 82.6353C157.025 82.7218 156.911 82.7651 156.776 82.7651ZM157.169 87H156.376V83.5H157.169V87ZM160.714 86.8394C160.434 87.0011 160.102 87.082 159.719 87.082C159.2 87.082 158.78 86.9202 158.461 86.5967C158.142 86.2708 157.983 85.8493 157.983 85.332C157.983 84.7555 158.154 84.293 158.496 83.9443C158.84 83.5934 159.299 83.418 159.873 83.418C160.192 83.418 160.473 83.4738 160.717 83.5854V84.3237C160.473 84.1414 160.214 84.0503 159.938 84.0503C159.603 84.0503 159.328 84.1642 159.114 84.3921C158.9 84.6177 158.793 84.9139 158.793 85.2808C158.793 85.6431 158.893 85.929 159.094 86.1387C159.297 86.3483 159.568 86.4531 159.907 86.4531C160.192 86.4531 160.461 86.3517 160.714 86.1489V86.8394ZM164.679 87H163.674L162.313 85.3184H162.3V87H161.503V81.8184H162.3V85.103H162.313L163.599 83.5H164.552L163.106 85.1885L164.679 87ZM166.89 86.8906V86.1558C167.186 86.3813 167.513 86.4941 167.871 86.4941C168.35 86.4941 168.589 86.3529 168.589 86.0703C168.589 85.9906 168.568 85.9233 168.527 85.8687C168.486 85.8117 168.431 85.7616 168.36 85.7183C168.292 85.675 168.209 85.6362 168.114 85.6021C168.02 85.5679 167.916 85.5291 167.799 85.4858C167.656 85.4289 167.526 85.3685 167.41 85.3047C167.296 85.2409 167.2 85.1691 167.123 85.0894C167.047 85.0073 166.99 84.915 166.952 84.8125C166.913 84.71 166.894 84.5903 166.894 84.4536C166.894 84.285 166.933 84.1369 167.013 84.0093C167.093 83.8794 167.2 83.7712 167.334 83.6846C167.469 83.5957 167.622 83.5296 167.792 83.4863C167.963 83.4408 168.14 83.418 168.322 83.418C168.646 83.418 168.935 83.467 169.19 83.5649V84.2588C168.944 84.0902 168.662 84.0059 168.343 84.0059C168.243 84.0059 168.151 84.0161 168.069 84.0366C167.99 84.0571 167.921 84.0856 167.864 84.1221C167.807 84.1585 167.763 84.203 167.731 84.2554C167.699 84.3055 167.683 84.3613 167.683 84.4229C167.683 84.498 167.699 84.5618 167.731 84.6143C167.763 84.6667 167.81 84.7134 167.871 84.7544C167.935 84.7931 168.01 84.8296 168.097 84.8638C168.186 84.8957 168.287 84.931 168.401 84.9697C168.551 85.0312 168.686 85.0939 168.804 85.1577C168.925 85.2215 169.028 85.2944 169.112 85.3765C169.196 85.4562 169.261 85.5496 169.307 85.6567C169.352 85.7616 169.375 85.8869 169.375 86.0327C169.375 86.2104 169.334 86.3654 169.252 86.4976C169.17 86.6297 169.061 86.7391 168.924 86.8257C168.787 86.9123 168.629 86.9761 168.449 87.0171C168.271 87.0604 168.083 87.082 167.885 87.082C167.502 87.082 167.17 87.0182 166.89 86.8906ZM171.976 86.9624C171.821 87.0399 171.617 87.0786 171.364 87.0786C170.685 87.0786 170.346 86.7528 170.346 86.1011V84.1221H169.761V83.5H170.346V82.6899L171.139 82.4644V83.5H171.976V84.1221H171.139V85.8721C171.139 86.0794 171.176 86.2275 171.251 86.3164C171.327 86.4053 171.452 86.4497 171.627 86.4497C171.762 86.4497 171.878 86.411 171.976 86.3335V86.9624ZM175.346 87H174.577V86.4531H174.563C174.322 86.8724 173.968 87.082 173.5 87.082C173.156 87.082 172.886 86.9886 172.69 86.8018C172.497 86.6149 172.4 86.3677 172.4 86.0601C172.4 85.3993 172.78 85.0142 173.542 84.9048L174.581 84.7578C174.581 84.2588 174.344 84.0093 173.87 84.0093C173.453 84.0093 173.077 84.1528 172.742 84.4399V83.7461C173.111 83.5273 173.537 83.418 174.02 83.418C174.904 83.418 175.346 83.8532 175.346 84.7236V87ZM174.581 85.2808L173.846 85.3833C173.618 85.4129 173.446 85.4688 173.33 85.5508C173.216 85.6305 173.159 85.7718 173.159 85.9746C173.159 86.1227 173.211 86.2446 173.316 86.3403C173.423 86.4338 173.565 86.4805 173.743 86.4805C173.985 86.4805 174.184 86.3962 174.341 86.2275C174.501 86.0566 174.581 85.8424 174.581 85.585V85.2808ZM178.347 84.2554C178.251 84.1802 178.114 84.1426 177.934 84.1426C177.699 84.1426 177.503 84.2485 177.346 84.4604C177.188 84.6724 177.11 84.9606 177.11 85.3252V87H176.317V83.5H177.11V84.2212H177.124C177.201 83.9751 177.319 83.7837 177.479 83.647C177.641 83.508 177.821 83.4385 178.019 83.4385C178.163 83.4385 178.272 83.4601 178.347 83.5034V84.2554ZM180.958 86.9624C180.804 87.0399 180.6 87.0786 180.347 87.0786C179.668 87.0786 179.328 86.7528 179.328 86.1011V84.1221H178.744V83.5H179.328V82.6899L180.121 82.4644V83.5H180.958V84.1221H180.121V85.8721C180.121 86.0794 180.159 86.2275 180.234 86.3164C180.309 86.4053 180.434 86.4497 180.61 86.4497C180.744 86.4497 180.861 86.411 180.958 86.3335V86.9624Z" fill="black"/>
<path d="M340 73H220V113H340V73Z" fill="white" stroke="#E1E1E1" stroke-width="0.5"/>
<path d="M334 93H253V97H334V93Z" fill="#ECECEC"/>
<path d="M334 81H253V89H334V81Z" fill="#ECECEC"/>
<path d="M334 101H253V105H334V101Z" fill="#ECECEC"/>
<path d="M236 105C242.627 105 248 99.6274 248 93C248 86.3726 242.627 81 236 81C229.373 81 224 86.3726 224 93C224 99.6274 229.373 105 236 105Z" fill="#ECECEC"/>
<path d="M470 73H350V113H470V73Z" fill="white" stroke="#E1E1E1" stroke-width="0.5"/>
<path d="M464 93H383V97H464V93Z" fill="#ECECEC"/>
<path d="M464 81H383V89H464V81Z" fill="#ECECEC"/>
<path d="M464 101H383V105H464V101Z" fill="#ECECEC"/>
<path d="M366 105C372.627 105 378 99.6274 378 93C378 86.3726 372.627 81 366 81C359.373 81 354 86.3726 354 93C354 99.6274 359.373 105 366 105Z" fill="#ECECEC"/>
<path d="M14.293 16H13.2734L12.7695 14.5742H10.5664L10.082 16H9.06641L11.1641 10.3984H12.2109L14.293 16ZM12.5234 13.8164L11.7461 11.582C11.7227 11.5091 11.6979 11.3919 11.6719 11.2305H11.6562C11.6328 11.3789 11.6068 11.4961 11.5781 11.582L10.8086 13.8164H12.5234ZM17.918 12.3789L15.7578 15.293H17.9102V16H14.4883V15.6602L16.6953 12.707H14.6992V12H17.918V12.3789ZM22.1719 16H21.2656V15.3672H21.25C20.987 15.8516 20.5781 16.0938 20.0234 16.0938C19.0781 16.0938 18.6055 15.526 18.6055 14.3906V12H19.5117V14.2969C19.5117 15.0156 19.7891 15.375 20.3438 15.375C20.612 15.375 20.832 15.276 21.0039 15.0781C21.1784 14.8802 21.2656 14.6211 21.2656 14.3008V12H22.1719V16ZM25.6758 12.8633C25.5664 12.7773 25.4089 12.7344 25.2031 12.7344C24.9349 12.7344 24.7109 12.8555 24.5312 13.0977C24.3516 13.3398 24.2617 13.6693 24.2617 14.0859V16H23.3555V12H24.2617V12.8242H24.2773C24.3659 12.543 24.5013 12.3242 24.6836 12.168C24.8685 12.0091 25.0742 11.9297 25.3008 11.9297C25.4648 11.9297 25.5898 11.9544 25.6758 12.0039V12.8633ZM29.6328 14.2461H26.9062C26.9167 14.6159 27.0299 14.901 27.2461 15.1016C27.4648 15.3021 27.7643 15.4023 28.1445 15.4023C28.5716 15.4023 28.9635 15.2747 29.3203 15.0195V15.75C28.9557 15.9792 28.474 16.0938 27.875 16.0938C27.2865 16.0938 26.8242 15.9128 26.4883 15.5508C26.1549 15.1862 25.9883 14.6745 25.9883 14.0156C25.9883 13.3932 26.1719 12.8867 26.5391 12.4961C26.9089 12.1029 27.3672 11.9062 27.9141 11.9062C28.4609 11.9062 28.8841 12.082 29.1836 12.4336C29.4831 12.7852 29.6328 13.2734 29.6328 13.8984V14.2461ZM28.7578 13.6055C28.7552 13.2799 28.6784 13.0273 28.5273 12.8477C28.3763 12.6654 28.168 12.5742 27.9023 12.5742C27.6419 12.5742 27.4206 12.6693 27.2383 12.8594C27.0586 13.0495 26.9479 13.2982 26.9062 13.6055H28.7578ZM36.707 15.7656C36.2852 15.9844 35.7604 16.0938 35.1328 16.0938C34.3203 16.0938 33.6693 15.8372 33.1797 15.3242C32.6901 14.8112 32.4453 14.138 32.4453 13.3047C32.4453 12.4089 32.7201 11.6849 33.2695 11.1328C33.8216 10.5807 34.5182 10.3047 35.3594 10.3047C35.901 10.3047 36.3503 10.3815 36.707 10.5352V11.457C36.3294 11.2331 35.9128 11.1211 35.457 11.1211C34.8503 11.1211 34.3581 11.3151 33.9805 11.7031C33.6055 12.0911 33.418 12.6094 33.418 13.2578C33.418 13.875 33.5938 14.3672 33.9453 14.7344C34.2969 15.099 34.7591 15.2812 35.332 15.2812C35.8607 15.2812 36.319 15.1562 36.707 14.9062V15.7656ZM39.4414 16.0938C38.8242 16.0938 38.3307 15.9076 37.9609 15.5352C37.5938 15.1602 37.4102 14.6641 37.4102 14.0469C37.4102 13.375 37.6016 12.8503 37.9844 12.4727C38.3698 12.0951 38.888 11.9062 39.5391 11.9062C40.1641 11.9062 40.651 12.0898 41 12.457C41.349 12.8242 41.5234 13.3333 41.5234 13.9844C41.5234 14.6224 41.3346 15.1341 40.957 15.5195C40.582 15.9023 40.0768 16.0938 39.4414 16.0938ZM39.4844 12.6289C39.1302 12.6289 38.8503 12.7526 38.6445 13C38.4388 13.2474 38.3359 13.5885 38.3359 14.0234C38.3359 14.4427 38.4401 14.7734 38.6484 15.0156C38.8568 15.2552 39.1354 15.375 39.4844 15.375C39.8411 15.375 40.1146 15.2565 40.3047 15.0195C40.4974 14.7826 40.5938 14.4453 40.5938 14.0078C40.5938 13.5677 40.4974 13.2279 40.3047 12.9883C40.1146 12.7487 39.8411 12.6289 39.4844 12.6289ZM42.1992 15.875V15.0352C42.5378 15.293 42.9115 15.4219 43.3203 15.4219C43.8672 15.4219 44.1406 15.2604 44.1406 14.9375C44.1406 14.8464 44.1172 14.7695 44.0703 14.707C44.0234 14.6419 43.9596 14.5846 43.8789 14.5352C43.8008 14.4857 43.707 14.4414 43.5977 14.4023C43.4909 14.3633 43.3711 14.319 43.2383 14.2695C43.0742 14.2044 42.9258 14.1354 42.793 14.0625C42.6628 13.9896 42.5534 13.9076 42.4648 13.8164C42.3789 13.7227 42.3138 13.6172 42.2695 13.5C42.2253 13.3828 42.2031 13.2461 42.2031 13.0898C42.2031 12.8971 42.2487 12.7279 42.3398 12.582C42.431 12.4336 42.5534 12.3099 42.707 12.2109C42.8607 12.1094 43.0352 12.0339 43.2305 11.9844C43.4258 11.9323 43.6276 11.9062 43.8359 11.9062C44.2057 11.9062 44.5365 11.9622 44.8281 12.0742V12.8672C44.5469 12.6745 44.224 12.5781 43.8594 12.5781C43.7448 12.5781 43.6406 12.5898 43.5469 12.6133C43.4557 12.6367 43.3776 12.6693 43.3125 12.7109C43.2474 12.7526 43.1966 12.8034 43.1602 12.8633C43.1237 12.9206 43.1055 12.9844 43.1055 13.0547C43.1055 13.1406 43.1237 13.2135 43.1602 13.2734C43.1966 13.3333 43.25 13.3867 43.3203 13.4336C43.3932 13.4779 43.4792 13.5195 43.5781 13.5586C43.6797 13.5951 43.7956 13.6354 43.9258 13.6797C44.0977 13.75 44.2513 13.8216 44.3867 13.8945C44.5247 13.9674 44.6419 14.0508 44.7383 14.1445C44.8346 14.2357 44.9089 14.3424 44.9609 14.4648C45.013 14.5846 45.0391 14.7279 45.0391 14.8945C45.0391 15.0977 44.9922 15.2747 44.8984 15.4258C44.8047 15.5768 44.6797 15.7018 44.5234 15.8008C44.3672 15.8997 44.1862 15.9727 43.9805 16.0195C43.7773 16.069 43.5625 16.0938 43.3359 16.0938C42.8984 16.0938 42.5195 16.0208 42.1992 15.875ZM51.8828 16H50.9766V13.8203C50.9766 13.401 50.9167 13.0977 50.7969 12.9102C50.6797 12.7227 50.4805 12.6289 50.1992 12.6289C49.9622 12.6289 49.7604 12.7474 49.5938 12.9844C49.4297 13.2214 49.3477 13.5052 49.3477 13.8359V16H48.4375V13.7461C48.4375 13.0013 48.1745 12.6289 47.6484 12.6289C47.4036 12.6289 47.2018 12.7409 47.043 12.9648C46.8867 13.1888 46.8086 13.4792 46.8086 13.8359V16H45.9023V12H46.8086V12.6328H46.8242C47.1133 12.1484 47.5339 11.9062 48.0859 11.9062C48.362 11.9062 48.6029 11.9831 48.8086 12.1367C49.0169 12.2878 49.1589 12.487 49.2344 12.7344C49.5312 12.1823 49.974 11.9062 50.5625 11.9062C51.4427 11.9062 51.8828 12.4492 51.8828 13.5352V16ZM54.7617 16.0938C54.1445 16.0938 53.651 15.9076 53.2812 15.5352C52.9141 15.1602 52.7305 14.6641 52.7305 14.0469C52.7305 13.375 52.9219 12.8503 53.3047 12.4727C53.6901 12.0951 54.2083 11.9062 54.8594 11.9062C55.4844 11.9062 55.9714 12.0898 56.3203 12.457C56.6693 12.8242 56.8438 13.3333 56.8438 13.9844C56.8438 14.6224 56.6549 15.1341 56.2773 15.5195C55.9023 15.9023 55.3971 16.0938 54.7617 16.0938ZM54.8047 12.6289C54.4505 12.6289 54.1706 12.7526 53.9648 13C53.7591 13.2474 53.6562 13.5885 53.6562 14.0234C53.6562 14.4427 53.7604 14.7734 53.9688 15.0156C54.1771 15.2552 54.4557 15.375 54.8047 15.375C55.1615 15.375 55.4349 15.2565 55.625 15.0195C55.8177 14.7826 55.9141 14.4453 55.9141 14.0078C55.9141 13.5677 55.8177 13.2279 55.625 12.9883C55.4349 12.7487 55.1615 12.6289 54.8047 12.6289ZM57.5195 15.875V15.0352C57.8581 15.293 58.2318 15.4219 58.6406 15.4219C59.1875 15.4219 59.4609 15.2604 59.4609 14.9375C59.4609 14.8464 59.4375 14.7695 59.3906 14.707C59.3438 14.6419 59.2799 14.5846 59.1992 14.5352C59.1211 14.4857 59.0273 14.4414 58.918 14.4023C58.8112 14.3633 58.6914 14.319 58.5586 14.2695C58.3945 14.2044 58.2461 14.1354 58.1133 14.0625C57.9831 13.9896 57.8737 13.9076 57.7852 13.8164C57.6992 13.7227 57.6341 13.6172 57.5898 13.5C57.5456 13.3828 57.5234 13.2461 57.5234 13.0898C57.5234 12.8971 57.569 12.7279 57.6602 12.582C57.7513 12.4336 57.8737 12.3099 58.0273 12.2109C58.181 12.1094 58.3555 12.0339 58.5508 11.9844C58.7461 11.9323 58.9479 11.9062 59.1562 11.9062C59.526 11.9062 59.8568 11.9622 60.1484 12.0742V12.8672C59.8672 12.6745 59.5443 12.5781 59.1797 12.5781C59.0651 12.5781 58.9609 12.5898 58.8672 12.6133C58.776 12.6367 58.6979 12.6693 58.6328 12.7109C58.5677 12.7526 58.5169 12.8034 58.4805 12.8633C58.444 12.9206 58.4258 12.9844 58.4258 13.0547C58.4258 13.1406 58.444 13.2135 58.4805 13.2734C58.5169 13.3333 58.5703 13.3867 58.6406 13.4336C58.7135 13.4779 58.7995 13.5195 58.8984 13.5586C59 13.5951 59.1159 13.6354 59.2461 13.6797C59.418 13.75 59.5716 13.8216 59.707 13.8945C59.8451 13.9674 59.9622 14.0508 60.0586 14.1445C60.1549 14.2357 60.2292 14.3424 60.2812 14.4648C60.3333 14.5846 60.3594 14.7279 60.3594 14.8945C60.3594 15.0977 60.3125 15.2747 60.2188 15.4258C60.125 15.5768 60 15.7018 59.8438 15.8008C59.6875 15.8997 59.5065 15.9727 59.3008 16.0195C59.0977 16.069 58.8828 16.0938 58.6562 16.0938C58.2188 16.0938 57.8398 16.0208 57.5195 15.875ZM63.5273 16V10.3984H65.1445C67.2096 10.3984 68.2422 11.3086 68.2422 13.1289C68.2422 13.9935 67.9557 14.6888 67.3828 15.2148C66.8099 15.7383 66.0417 16 65.0781 16H63.5273ZM64.4531 11.1875V15.2148H65.1953C65.849 15.2148 66.3568 15.0352 66.7188 14.6758C67.0833 14.3164 67.2656 13.8086 67.2656 13.1523C67.2656 11.8424 66.5872 11.1875 65.2305 11.1875H64.4531ZM69.2695 16V10.3984H71.0469C71.5885 10.3984 72.0169 10.5169 72.332 10.7539C72.6497 10.9909 72.8086 11.2995 72.8086 11.6797C72.8086 11.9974 72.7188 12.2734 72.5391 12.5078C72.3594 12.7422 72.1107 12.9089 71.793 13.0078V13.0234C72.1784 13.0677 72.4857 13.2109 72.7148 13.4531C72.9466 13.6927 73.0625 14.0052 73.0625 14.3906C73.0625 14.8698 72.8737 15.2578 72.4961 15.5547C72.1185 15.8516 71.6419 16 71.0664 16H69.2695ZM70.1953 11.1445V12.7383H70.7969C71.1198 12.7383 71.3724 12.6628 71.5547 12.5117C71.7396 12.3581 71.832 12.1419 71.832 11.8633C71.832 11.3841 71.5117 11.1445 70.8711 11.1445H70.1953ZM70.1953 13.4844V15.2578H70.9883C71.3346 15.2578 71.6016 15.1784 71.7891 15.0195C71.9792 14.8581 72.0742 14.6367 72.0742 14.3555C72.0742 13.7747 71.6719 13.4844 70.8672 13.4844H70.1953Z" fill="white"/>
</g>
<rect x="0.5" y="0.5" width="481" height="181" stroke="#D6D6D6"/>
<defs>
<radialGradient id="paint0_radial_1366_194686" cx="0" cy="0" r="1" gradientUnits="userSpaceOnUse" gradientTransform="translate(108.003 93.0507) scale(15.7628 9.49028)">
<stop offset="0.196" stop-color="#FFD70F"/>
<stop offset="0.438" stop-color="#FFCB12"/>
<stop offset="0.873" stop-color="#FEAC19"/>
<stop offset="1" stop-color="#FEA11B"/>
</radialGradient>
<clipPath id="clip0_1366_194686">
<rect x="1" y="1" width="480" height="180" fill="white"/>
</clipPath>
</defs>
</svg>
