<svg width="14" height="13" viewBox="0 0 14 13" fill="none" xmlns="http://www.w3.org/2000/svg">
<g clip-path="url(#clip0)">
<path d="M5.26999 3.37L8.52999 0L13.82 5.41L7.64999 11.74H11.35V12.89H2.66999L0.489995 10.67C0.334052 10.509 0.211678 10.3187 0.129995 10.11C-0.0391811 9.68626 -0.0391811 9.21374 0.129995 8.79C0.211678 8.58131 0.334052 8.39095 0.489995 8.23L5.27999 3.35L5.26999 3.37ZM6.04999 11.74L6.61999 11.16L2.91999 7.37L1.28999 9.03C1.23648 9.083 1.194 9.14608 1.16501 9.21559C1.13601 9.28511 1.12109 9.35968 1.12109 9.435C1.12109 9.51032 1.13601 9.58489 1.16501 9.65441C1.194 9.72392 1.23648 9.787 1.28999 9.84L3.13999 11.74H6.04999ZM8.52999 1.62L3.69999 6.56L7.40999 10.35L12.24 5.41L8.52999 1.62Z" fill="#0078D4"/>
</g>
<defs>
<clipPath id="clip0">
<rect width="13.83" height="12.89" fill="white"/>
</clipPath>
</defs>
</svg>
