<svg width="20" height="22" viewBox="0 0 20 22" fill="none" xmlns="http://www.w3.org/2000/svg">
<path d="M7.4852 1.13266C6.25055 1.69386 5.20039 2.5918 5.20039 3.8002V7.41652C5.39862 7.40568 5.59878 7.4002 5.80039 7.4002C6.00246 7.4002 6.20261 7.40569 6.40039 7.41649V5.83795C6.72565 6.08075 7.09627 6.29095 7.4852 6.46774C8.77401 7.05356 10.5123 7.4002 12.4004 7.4002C14.2885 7.4002 16.0268 7.05356 17.3156 6.46774C17.7045 6.29095 18.0752 6.08075 18.4004 5.83795V15.8002C18.4004 16.2486 17.9731 16.8507 16.819 17.3753C15.7191 17.8752 14.1574 18.2002 12.4005 18.2002L12.4004 18.7995C12.4004 19.0077 12.379 19.208 12.3392 19.4001L12.4004 19.4002C14.2885 19.4002 16.0268 19.0535 17.3156 18.4677C18.5503 17.9066 19.6004 17.0086 19.6004 15.8002V3.8002C19.6004 2.5918 18.5503 1.69386 17.3156 1.13266C16.0268 0.546827 14.2885 0.200195 12.4004 0.200195C10.5123 0.200195 8.77401 0.546827 7.4852 1.13266ZM7.98176 5.37529C6.82769 4.85071 6.40039 4.24866 6.40039 3.8002C6.40039 3.35173 6.82769 2.74968 7.98176 2.2251C9.08168 1.72513 10.6434 1.4002 12.4004 1.4002C14.1574 1.4002 15.7191 1.72513 16.819 2.2251C17.9731 2.74968 18.4004 3.35173 18.4004 3.8002C18.4004 4.24866 17.9731 4.85071 16.819 5.37529C15.7191 5.87526 14.1574 6.2002 12.4004 6.2002C10.6434 6.2002 9.08168 5.87526 7.98176 5.37529ZM6.40039 8.61851C6.76422 8.64085 7.11714 8.68327 7.4555 8.74374C7.93669 8.82972 8.38843 8.95219 8.80015 9.10529C10.2475 9.64345 11.2004 10.56 11.2004 11.6002C11.2004 13.257 8.78273 14.6002 5.80039 14.6002C2.81805 14.6002 0.400391 13.257 0.400391 11.6002C0.400391 10.056 2.50043 8.78432 5.20039 8.61851C5.39739 8.60641 5.59759 8.6002 5.80039 8.6002C6.00319 8.6002 6.20339 8.60641 6.40039 8.61851ZM11.1112 19.3454C10.6494 20.7416 8.44723 21.7995 5.80039 21.7995C2.81805 21.7995 0.400391 20.4564 0.400391 18.7995V14.0648C0.706223 14.3399 1.04834 14.5755 1.39925 14.7705C2.58615 15.4299 4.14455 15.8002 5.80039 15.8002C7.45623 15.8002 9.01463 15.4299 10.2015 14.7705C10.553 14.5752 10.8957 14.3391 11.202 14.0633C11.2015 15.2351 11.2008 16.9706 11.2005 18.1486V18.1508C11.2004 18.3942 11.2004 18.6137 11.2004 18.7995C11.2004 18.986 11.1698 19.1684 11.1112 19.3454Z" fill="#0078D4"/>
</svg>
