<svg width="40" height="40" viewBox="0 0 40 40" fill="none" xmlns="http://www.w3.org/2000/svg">
<g clip-path="url(#clip0_480_185430)">
<path d="M35.4911 6.39638L33.4106 4.31591L37.559 0.167553C37.6611 0.0654497 37.7996 0.00808785 37.944 0.00808785C38.0884 0.00808801 38.2269 0.0654482 38.329 0.167551L39.641 1.47963C39.7431 1.58173 39.8005 1.72021 39.8005 1.86461C39.8005 2.009 39.7431 2.14749 39.641 2.24959L35.4927 6.39795L35.4911 6.39638Z" fill="#32BEDD"/>
<path d="M4.45313 33.6455L6.53988 35.7323L2.44494 39.8272C2.34367 39.9285 2.20632 39.9853 2.06311 39.9853C1.91989 39.9853 1.78254 39.9285 1.68127 39.8272L0.364478 38.5104C0.312974 38.4606 0.271905 38.401 0.243665 38.3351C0.215426 38.2692 0.20058 38.1984 0.199995 38.1267C0.19941 38.0551 0.213098 37.984 0.240258 37.9177C0.267419 37.8514 0.307509 37.7911 0.358193 37.7404L4.45313 33.6455Z" fill="#0078D4"/>
<path d="M5.09381 25.0287C3.78099 26.3415 3.04346 28.1221 3.04346 29.9787C3.04346 31.8353 3.78099 33.6159 5.09381 34.9287C6.40664 36.2415 8.1872 36.9791 10.0438 36.9791C11.9004 36.9791 13.681 36.2415 14.9938 34.9287L18.2027 31.7176L8.30492 21.8198L5.09381 25.0287Z" fill="url(#paint0_linear_480_185430)"/>
<path d="M17.4209 18.1581L17.6157 18.353C17.8133 18.5505 17.9242 18.8185 17.9242 19.0978C17.9242 19.3772 17.8133 19.6451 17.6157 19.8426L13.6009 23.8574L11.918 22.1745L15.9344 18.1581C16.1319 17.9606 16.3998 17.8496 16.6792 17.8496C16.9586 17.8496 17.2265 17.9606 17.424 18.1581L17.4209 18.1581Z" fill="#C3F1FF"/>
<path d="M21.5835 22.32L21.7783 22.5149C21.9759 22.7124 22.0868 22.9803 22.0868 23.2597C22.0868 23.539 21.9759 23.807 21.7783 24.0045L17.7588 28.024L16.0759 26.3411L20.097 22.32C20.2945 22.1225 20.5624 22.0115 20.8418 22.0115C21.1212 22.0115 21.3891 22.1225 21.5866 22.32L21.5835 22.32Z" fill="#C3F1FF"/>
<path d="M20.9363 30.0618L9.87241 18.9979C9.66673 18.7922 9.33327 18.7922 9.12759 18.9979L7.67566 20.4498C7.46999 20.6555 7.46999 20.989 7.67566 21.1946L18.7395 32.2585C18.9452 32.4642 19.2787 32.4642 19.4843 32.2585L20.9363 30.8066C21.1419 30.6009 21.1419 30.2674 20.9363 30.0618Z" fill="#5EA0EF"/>
<path d="M34.9067 14.9711C36.2196 13.6583 36.9571 11.8777 36.9571 10.0211C36.9571 8.1645 36.2196 6.38393 34.9067 5.07111C33.5939 3.75829 31.8134 3.02075 29.9567 3.02075C28.1001 3.02075 26.3196 3.75829 25.0067 5.07111L21.7979 8.28222L31.6956 18.18L34.9067 14.9711Z" fill="#ECF4FD"/>
<path d="M22.5828 21.8375L22.388 21.6426C22.1904 21.4451 22.0795 21.1772 22.0795 20.8978C22.0795 20.6184 22.1904 20.3505 22.388 20.153L26.4075 16.1335L28.092 17.8179L24.0677 21.8422C23.8698 22.0376 23.6025 22.1469 23.3243 22.146C23.0461 22.1451 22.7795 22.0342 22.5828 21.8375Z" fill="#ECF4FD"/>
<path d="M18.4178 17.6802L18.2229 17.4854C18.0254 17.2878 17.9144 17.0199 17.9144 16.7406C17.9144 16.4612 18.0254 16.1933 18.2229 15.9957L22.2409 11.9778L23.9254 13.6623L19.909 17.6787C19.7115 17.8762 19.4435 17.9872 19.1642 17.9872C18.8848 17.9872 18.6169 17.8762 18.4194 17.6787L18.4178 17.6802Z" fill="#ECF4FD"/>
<path d="M19.0642 9.93799L30.1281 21.0019C30.3338 21.2075 30.6672 21.2075 30.8729 21.0019L32.3248 19.5499C32.5305 19.3443 32.5305 19.0108 32.3248 18.8051L21.261 7.74125C21.0553 7.53557 20.7218 7.53557 20.5161 7.74125L19.0642 9.19317C18.8585 9.39885 18.8585 9.73232 19.0642 9.93799Z" fill="#ECF4FD"/>
</g>
<defs>
<linearGradient id="paint0_linear_480_185430" x1="10.6227" y1="21.8179" x2="10.6227" y2="36.9783" gradientUnits="userSpaceOnUse">
<stop stop-color="#5EA0EF"/>
<stop offset="0.997" stop-color="#0078D4"/>
</linearGradient>
<clipPath id="clip0_480_185430">
<rect width="40" height="40" fill="white"/>
</clipPath>
</defs>
</svg>
