<svg width="14" height="24" viewBox="0 0 14 24" fill="none" xmlns="http://www.w3.org/2000/svg">
<g clip-path="url(#clip0)">
<path d="M6.75 16.5C7.47656 16.5 8.1582 16.3729 8.79492 16.1187C9.43164 15.8644 9.98633 15.5207 10.459 15.0874C10.9316 14.6541 11.3066 14.1457 11.584 13.562C11.8613 12.9784 12 12.3535 12 11.6875V4.125H13.5V2.75H10.5V0H9V2.75H4.5V0H3V2.75H0V4.125H1.5V11.6875C1.5 12.3535 1.63867 12.9784 1.91602 13.562C2.19336 14.1457 2.56836 14.6541 3.04102 15.0874C3.51367 15.5207 4.06836 15.8644 4.70508 16.1187C5.3418 16.3729 6.02344 16.5 6.75 16.5ZM10.5 4.125V11.6875C10.5 12.1602 10.4004 12.6042 10.2012 13.0195C10.002 13.4349 9.73242 13.7983 9.39258 14.1099C9.05273 14.4214 8.65625 14.6685 8.20312 14.8511C7.75 15.0337 7.26562 15.125 6.75 15.125C6.23438 15.125 5.75 15.0337 5.29688 14.8511C4.84375 14.6685 4.44727 14.4214 4.10742 14.1099C3.76758 13.7983 3.49805 13.4349 3.29883 13.0195C3.09961 12.6042 3 12.1602 3 11.6875V4.125H10.5Z" fill="#0078D4"/>
<path d="M6.84097 16.5C6.81064 19 6.78032 21.5 6.75 24" stroke="#0078D4" stroke-width="1.5"/>
</g>
<defs>
<clipPath id="clip0">
<rect width="14" height="24" fill="white"/>
</clipPath>
</defs>
</svg>
