<svg width="36" height="36" viewBox="0 0 36 36" fill="none" xmlns="http://www.w3.org/2000/svg">
<path fill-rule="evenodd" clip-rule="evenodd" d="M24 34.635C24 34.8143 23.9647 34.9918 23.8961 35.1574C23.8275 35.323 23.727 35.4734 23.6002 35.6002C23.4734 35.727 23.323 35.8275 23.1574 35.8961C22.9918 35.9647 22.8143 36 22.635 36H1.365C1.18575 36 1.00825 35.9647 0.842637 35.8961C0.677028 35.8275 0.526551 35.727 0.399799 35.6002C0.273047 35.4734 0.172502 35.323 0.103904 35.1574C0.0353068 34.9918 0 34.8143 0 34.635L0 13.365C0 13.003 0.143812 12.6558 0.399799 12.3998C0.655786 12.1438 1.00298 12 1.365 12H22.635C22.997 12 23.3442 12.1438 23.6002 12.3998C23.8562 12.6558 24 13.003 24 13.365V34.635Z" fill="#005BA1"/>
<path fill-rule="evenodd" clip-rule="evenodd" d="M30 28.635C30 28.997 29.8562 29.3442 29.6002 29.6002C29.3442 29.8562 28.997 30 28.635 30H7.365C7.00298 30 6.65579 29.8562 6.3998 29.6002C6.14381 29.3442 6 28.997 6 28.635V7.365C6 7.00298 6.14381 6.65579 6.3998 6.3998C6.65579 6.14381 7.00298 6 7.365 6H28.635C28.997 6 29.3442 6.14381 29.6002 6.3998C29.8562 6.65579 30 7.00298 30 7.365V28.635Z" fill="#5EA0EF"/>
<path d="M22.635 12H6V28.635C6 28.997 6.14381 29.3442 6.3998 29.6002C6.65579 29.8562 7.00298 30 7.365 30H24V13.365C24 13.003 23.8562 12.6558 23.6002 12.3998C23.3442 12.1438 22.997 12 22.635 12Z" fill="#0078D4"/>
<path fill-rule="evenodd" clip-rule="evenodd" d="M36 22.635C36 22.8143 35.9647 22.9918 35.8961 23.1574C35.8275 23.323 35.727 23.4734 35.6002 23.6002C35.4734 23.727 35.323 23.8275 35.1574 23.8961C34.9918 23.9647 34.8143 24 34.635 24H13.365C13.003 24 12.6558 23.8562 12.3998 23.6002C12.1438 23.3442 12 22.997 12 22.635V1.365C12 1.00298 12.1438 0.655786 12.3998 0.399799C12.6558 0.143812 13.003 0 13.365 0L34.635 0C34.8143 0 34.9918 0.0353068 35.1574 0.103904C35.323 0.172502 35.4734 0.273047 35.6002 0.399799C35.727 0.526551 35.8275 0.677028 35.8961 0.842637C35.9647 1.00825 36 1.18575 36 1.365V22.635Z" fill="#E6E7E8"/>
<path d="M22.635 12H12V22.635C12 22.997 12.1438 23.3442 12.3998 23.6002C12.6558 23.8562 13.003 24 13.365 24H24V13.365C24 13.003 23.8562 12.6558 23.6002 12.3998C23.3442 12.1438 22.997 12 22.635 12Z" fill="#BCBEC0"/>
<path d="M28.635 6H12V12H22.635C22.997 12 23.3442 12.1438 23.6002 12.3998C23.8562 12.6558 24 13.003 24 13.365V24H30V7.365C30 7.00298 29.8562 6.65579 29.6002 6.3998C29.3442 6.14381 28.997 6 28.635 6Z" fill="#D1D3D4"/>
</svg>
