<svg width="65" height="64" viewBox="0 0 65 64" fill="none" xmlns="http://www.w3.org/2000/svg">
<path d="M8.70319 18.7249C8.53654 18.7254 8.37651 18.6597 8.2583 18.5422C8.1401 18.4247 8.0734 18.2651 8.07289 18.0984C8.06006 14.1479 4.8516 10.9533 0.901012 10.9576C0.669248 10.9705 0.449344 10.8542 0.329574 10.6554C0.209803 10.4565 0.209803 10.2078 0.329574 10.0089C0.449344 9.81008 0.669248 9.69377 0.901012 9.70668C4.85204 9.71205 8.06113 6.51685 8.07289 2.56584C8.07289 2.21666 8.35596 1.93359 8.70513 1.93359C9.05431 1.93359 9.33738 2.21666 9.33738 2.56584C9.35021 6.51792 12.561 9.71312 16.5131 9.70668C16.8591 9.70668 17.1396 9.98714 17.1396 10.3331C17.1396 10.6791 16.8591 10.9595 16.5131 10.9595C12.561 10.9531 9.35021 14.1483 9.33738 18.1004C9.33635 18.2674 9.2689 18.4271 9.14991 18.5443C9.03092 18.6614 8.87018 18.7264 8.70319 18.7249Z" fill="white"/>
<path d="M52.9253 59.0042C52.7182 59.0042 52.5501 58.8369 52.549 58.6299C52.5394 56.2691 50.6218 54.361 48.261 54.3632C48.0543 54.3632 47.8867 54.1956 47.8867 53.9889C47.8867 53.7822 48.0543 53.6146 48.261 53.6146C50.6218 53.6167 52.5394 51.7087 52.549 49.3479C52.549 49.1401 52.7175 48.9717 52.9253 48.9717C53.1331 48.9717 53.3015 49.1401 53.3015 49.3479C53.3111 51.7087 55.2287 53.6167 57.5895 53.6146C57.7962 53.6146 57.9638 53.7822 57.9638 53.9889C57.9638 54.1956 57.7962 54.3632 57.5895 54.3632C55.2287 54.361 53.3111 56.2691 53.3015 58.6299C53.3015 58.7295 53.2618 58.825 53.1912 58.8952C53.1206 58.9655 53.0249 59.0047 52.9253 59.0042Z" fill="white"/>
<path d="M22.5698 50.593C28.8842 53.7436 36.3776 53.4125 42.3894 49.7171C48.4013 46.0217 52.0803 39.4853 52.1204 32.4286C47.785 36.3094 43.098 39.7784 38.1199 42.7908C33.1889 45.8667 27.9833 48.4786 22.5698 50.593H22.5698Z" fill="white"/>
<path d="M34.7319 37.2481C40.1299 34.0161 45.1403 30.177 49.6652 25.8056C50.0356 25.4372 50.3653 25.0997 50.6776 24.7758C49.7902 22.52 48.5054 20.4417 46.8841 18.6396C41.7802 12.9888 33.9669 10.6288 26.5882 12.5092C19.2094 14.3896 13.4786 20.2011 11.7016 27.6054C10.1881 34.0501 11.8878 40.8288 16.263 45.7969C16.7343 45.6592 17.1978 45.5273 17.7117 45.3605C23.6751 43.3122 29.3853 40.5905 34.7319 37.2481Z" fill="white"/>
<path d="M61.5169 13.9268C59.5678 10.7229 54.6456 9.98397 47.305 11.7799C45.02 12.3578 42.772 13.0735 40.5734 13.9229C41.9904 14.6142 43.3237 15.4653 44.5472 16.4596C45.7962 16.0485 47.0219 15.6839 48.1894 15.3949C50.1421 14.8778 52.1491 14.5933 54.1685 14.5474C56.5715 14.5474 57.898 15.1408 58.3402 15.8642C59.0655 17.0511 58.3984 20.1852 54.1317 25.1151C53.3734 25.9917 52.5181 26.88 51.6221 27.774C46.9421 32.2966 41.7607 36.2697 36.1787 39.616C30.65 43.0772 24.7412 45.8904 18.569 48C11.1431 50.4184 6.07158 50.3699 4.93703 48.5139C3.80249 46.6579 6.07158 42.1139 11.6163 36.608C11.2764 35.0413 11.1234 33.4398 11.1605 31.8371C2.3363 39.8119 -0.520422 46.7258 1.7603 50.4552C2.95497 52.4082 5.56346 53.5175 9.37436 53.5175C13.9067 53.327 18.3704 52.3423 22.5622 50.6085C27.9813 48.4933 33.1922 45.8794 38.1278 42.8005C43.1074 39.7871 47.7958 36.3168 52.1322 32.4344C53.8349 30.9067 55.4455 29.2792 56.9555 27.5607C61.8951 21.8395 63.4757 17.1268 61.5169 13.9268Z" fill="white"/>
<path d="M8.70319 18.7249C8.53654 18.7254 8.37651 18.6597 8.2583 18.5422C8.1401 18.4247 8.0734 18.2651 8.07289 18.0984C8.06006 14.1479 4.8516 10.9533 0.901012 10.9576C0.669248 10.9705 0.449344 10.8542 0.329574 10.6554C0.209803 10.4565 0.209803 10.2078 0.329574 10.0089C0.449344 9.81008 0.669248 9.69377 0.901012 9.70668C4.85204 9.71205 8.06113 6.51685 8.07289 2.56584C8.07289 2.21666 8.35596 1.93359 8.70513 1.93359C9.05431 1.93359 9.33738 2.21666 9.33738 2.56584C9.35021 6.51792 12.561 9.71312 16.5131 9.70668C16.8591 9.70668 17.1396 9.98714 17.1396 10.3331C17.1396 10.6791 16.8591 10.9595 16.5131 10.9595C12.561 10.9531 9.35021 14.1483 9.33738 18.1004C9.33635 18.2674 9.2689 18.4271 9.14991 18.5443C9.03092 18.6614 8.87018 18.7264 8.70319 18.7249Z" fill="#393939"/>
<path d="M52.9253 59.0042C52.7182 59.0042 52.5501 58.8369 52.549 58.6299C52.5394 56.2691 50.6218 54.361 48.261 54.3632C48.0543 54.3632 47.8867 54.1956 47.8867 53.9889C47.8867 53.7822 48.0543 53.6146 48.261 53.6146C50.6218 53.6167 52.5394 51.7087 52.549 49.3479C52.549 49.1401 52.7175 48.9717 52.9253 48.9717C53.1331 48.9717 53.3015 49.1401 53.3015 49.3479C53.3111 51.7087 55.2287 53.6167 57.5895 53.6146C57.7962 53.6146 57.9638 53.7822 57.9638 53.9889C57.9638 54.1956 57.7962 54.3632 57.5895 54.3632C55.2287 54.361 53.3111 56.2691 53.3015 58.6299C53.3015 58.7295 53.2618 58.825 53.1912 58.8952C53.1206 58.9655 53.0249 59.0047 52.9253 59.0042Z" fill="#393939"/>
<path opacity="0.93" d="M22.5698 50.593C28.8842 53.7436 36.3776 53.4125 42.3894 49.7171C48.4013 46.0217 52.0803 39.4853 52.1204 32.4286C47.785 36.3094 43.098 39.7784 38.1199 42.7908C33.1889 45.8667 27.9833 48.4786 22.5698 50.593H22.5698Z" fill="#393939"/>
<path opacity="0.93" d="M34.7319 37.2481C40.1299 34.0161 45.1403 30.177 49.6652 25.8056C50.0356 25.4372 50.3653 25.0997 50.6776 24.7758C49.7902 22.52 48.5054 20.4417 46.8841 18.6396C41.7802 12.9888 33.9669 10.6288 26.5882 12.5092C19.2094 14.3896 13.4786 20.2011 11.7016 27.6054C10.1881 34.0501 11.8878 40.8288 16.263 45.7969C16.7343 45.6592 17.1978 45.5273 17.7117 45.3605C23.6751 43.3122 29.3853 40.5905 34.7319 37.2481Z" fill="#393939"/>
<path d="M61.5169 13.9268C59.5678 10.7229 54.6456 9.98397 47.305 11.7799C45.02 12.3578 42.772 13.0735 40.5734 13.9229C41.9904 14.6142 43.3237 15.4653 44.5472 16.4596C45.7962 16.0485 47.0219 15.6839 48.1894 15.3949C50.1421 14.8778 52.1491 14.5933 54.1685 14.5474C56.5715 14.5474 57.898 15.1408 58.3402 15.8642C59.0655 17.0511 58.3984 20.1852 54.1317 25.1151C53.3734 25.9917 52.5181 26.88 51.6221 27.774C46.9421 32.2966 41.7607 36.2697 36.1787 39.616C30.65 43.0772 24.7412 45.8904 18.569 48C11.1431 50.4184 6.07158 50.3699 4.93703 48.5139C3.80249 46.6579 6.07158 42.1139 11.6163 36.608C11.2764 35.0413 11.1234 33.4398 11.1605 31.8371C2.3363 39.8119 -0.520422 46.7258 1.7603 50.4552C2.95497 52.4082 5.56346 53.5175 9.37436 53.5175C13.9067 53.327 18.3704 52.3423 22.5622 50.6085C27.9813 48.4933 33.1922 45.8794 38.1278 42.8005C43.1074 39.7871 47.7958 36.3168 52.1322 32.4344C53.8349 30.9067 55.4455 29.2792 56.9555 27.5607C61.8951 21.8395 63.4757 17.1268 61.5169 13.9268Z" fill="#393939"/>
</svg>
