<svg width="24" height="24" viewBox="0 0 24 24" fill="none" xmlns="http://www.w3.org/2000/svg">
<path d="M13.3328 13.6532C13.3454 13.8483 13.3149 14.0438 13.2435 14.2259C13.172 14.4079 13.0614 14.572 12.9195 14.7065C12.5895 14.9979 12.1721 15.1714 11.7328 15.1998V15.9998H11.1462V15.1732C10.6342 15.1699 10.1307 15.0418 9.67951 14.7998V13.7198C9.88302 13.865 10.108 13.9775 10.3462 14.0532C10.6041 14.1483 10.8728 14.211 11.1462 14.2398V12.8532C10.6948 12.7095 10.2805 12.4683 9.93285 12.1465C9.68588 11.8542 9.55715 11.4801 9.57195 11.0977C9.58675 10.7153 9.74402 10.3522 10.0128 10.0798C10.3224 9.7875 10.7219 9.60886 11.1462 9.57318V8.83984H11.7195V9.55984C12.1428 9.55959 12.5612 9.65055 12.9462 9.82651V10.8932C12.5717 10.6689 12.1533 10.528 11.7195 10.4798V11.9998C12.1784 12.1422 12.5982 12.3886 12.9462 12.7198C13.1925 12.9682 13.3314 13.3034 13.3328 13.6532ZM11.1462 11.7465V10.5065C11.0094 10.52 10.8832 10.5858 10.7938 10.6902C10.7043 10.7945 10.6586 10.9293 10.6662 11.0665C10.6662 11.3465 10.8395 11.5732 11.1995 11.7465H11.1462ZM12.2795 13.7065C12.2795 13.4532 12.0928 13.2532 11.7195 13.0798V14.2798C12.0928 14.2132 12.2795 14.0265 12.2795 13.7065Z" fill="#258277"/>
<path d="M22.0531 12.6532H17.2531C17.2522 13.4842 17.076 14.3056 16.7359 15.0638C16.3959 15.822 15.8997 16.4999 15.2798 17.0532L18.4665 20.6399C19.597 19.6367 20.5014 18.4046 21.1197 17.0254C21.738 15.6462 22.0562 14.1514 22.0531 12.6399" fill="#FFCA00"/>
<path d="M11.3595 18.573C9.79299 18.573 8.29061 17.9507 7.18289 16.843C6.07518 15.7353 5.45287 14.2329 5.45287 12.6663C5.45287 11.0998 6.07518 9.5974 7.18289 8.48968C8.29061 7.38197 9.79299 6.75966 11.3595 6.75966V1.98633C8.53056 1.98633 5.81745 3.11013 3.81707 5.11052C1.81668 7.11091 0.692871 9.82402 0.692871 12.653C0.692871 15.482 1.81668 18.1951 3.81707 20.1955C5.81745 22.1959 8.53056 23.3197 11.3595 23.3197C13.9799 23.3355 16.5143 22.3863 18.4795 20.653L15.2795 17.0663C14.2049 18.0372 12.8078 18.5742 11.3595 18.573Z" fill="url(#paint0_radial_669_8617)"/>
<path d="M10.8662 0.6399V6.18657C11.7766 6.17211 12.6805 6.34098 13.5243 6.68313C14.368 7.02527 15.1343 7.53369 15.7775 8.17812C16.4207 8.82254 16.9276 9.5898 17.2681 10.4342C17.6086 11.2786 17.7758 12.1829 17.7595 13.0932H23.3329C23.3329 11.4567 23.0103 9.83624 22.3836 8.32447C21.757 6.81269 20.8385 5.43925 19.6807 4.28268C18.5229 3.12611 17.1484 2.20908 15.636 1.58402C14.1235 0.95897 12.5027 0.638148 10.8662 0.6399Z" fill="#CCCCCC"/>
<path d="M17.7862 13.0934C17.804 11.2839 17.104 9.54104 15.8395 8.24653C14.575 6.95203 12.849 6.21137 11.0395 6.18677H10.8662L11.3062 7.01343C12.7784 7.09978 14.1672 7.72528 15.2075 8.77052C16.2479 9.81576 16.8668 11.2075 16.9462 12.6801L17.7862 13.0934Z" fill="#999999"/>
<defs>
<radialGradient id="paint0_radial_669_8617" cx="0" cy="0" r="1" gradientUnits="userSpaceOnUse" gradientTransform="translate(9.57287 12.6663) scale(9.84)">
<stop stop-color="#76BC2D"/>
<stop offset="0.41" stop-color="#74B92C"/>
<stop offset="0.66" stop-color="#6FB12A"/>
<stop offset="0.88" stop-color="#66A227"/>
<stop offset="1" stop-color="#5E9624"/>
</radialGradient>
</defs>
</svg>
