<svg width="16" height="16" viewBox="0 0 16 16" fill="none" xmlns="http://www.w3.org/2000/svg">
<path d="M11.6 3.80002V14.9H0.700012V0.900024H8.40001L11.6 3.80002Z" stroke="#CCCCCC" stroke-miterlimit="10"/>
<path d="M11.6 3.80002H8.40002V0.900024" stroke="#CCCCCC" stroke-miterlimit="10"/>
<path d="M4.42995 11.4771C3.64154 11.4683 3.24734 11.1316 3.24734 10.4672V9.48728C3.24734 9.04879 3.0746 8.81847 2.72912 8.79632V8.31132C3.0746 8.28917 3.24734 8.05442 3.24734 7.60707V6.65368C3.24734 5.98044 3.64154 5.63938 4.42995 5.63053V6.14542C4.07782 6.15428 3.90176 6.36578 3.90176 6.77991V7.71669C3.90176 8.16405 3.68141 8.43977 3.2407 8.54385V8.55382C3.68141 8.65126 3.90176 8.92477 3.90176 9.37433V10.3012C3.90176 10.5381 3.94052 10.7064 4.01803 10.8061C4.09775 10.908 4.23506 10.9611 4.42995 10.9655V11.4771ZM10.3529 8.79632C10.0097 8.81847 9.83804 9.04879 9.83804 9.48728V10.4672C9.83804 11.1316 9.44605 11.4683 8.66208 11.4771V10.9655C8.85475 10.9611 8.99095 10.908 9.07067 10.8061C9.15262 10.7042 9.19359 10.5359 9.19359 10.3012V9.37433C9.19359 8.92477 9.41173 8.65126 9.848 8.55382V8.54385C9.41173 8.43977 9.19359 8.16405 9.19359 7.71669V6.77991C9.19359 6.36578 9.01642 6.15428 8.66208 6.14542V5.63053C9.44605 5.63938 9.83804 5.98044 9.83804 6.65368V7.60707C9.83804 8.05442 10.0097 8.28917 10.3529 8.31132V8.79632Z" fill="#CCCCCC"/>
<path d="M13.5 5.59998V13.6L14.4 14.7L15.3 13.6V5.59998H13.5Z" stroke="#CCCCCC" stroke-miterlimit="10"/>
<path d="M13.5 7.09998H15.3" stroke="#CCCCCC" stroke-miterlimit="10"/>
</svg>
