<svg width="17" height="16" viewBox="0 0 17 16" fill="none" xmlns="http://www.w3.org/2000/svg">
<path d="M3.2 4.10005H4.5C4.7 3.10005 4.9 2.30005 5.2 1.90005C5.5 1.50005 5.8 1.00005 6.2 0.700049C6.6 0.400049 7 0.300049 7.4 0.300049C7.6 0.300049 7.8 0.300049 7.9 0.400049C8 0.500049 8 0.600049 8 0.800049C8 0.900049 8 1.00005 7.9 1.10005C7.8 1.10005 7.7 1.20005 7.6 1.20005C7.5 1.20005 7.2 1.20005 6.9 1.10005C6.8 1.00005 6.6 1.00005 6.5 1.00005C6.3 1.00005 6.1 1.20005 5.9 1.50005C5.7 1.80005 5.6 2.30005 5.5 2.80005L5.2 4.10005H6.6L6.5 4.50005H5.1L4.3 8.30005C4 9.50005 3.6 10.4 3 11C2.4 11.6 1.8 11.9 1.2 11.9C1 11.9 0.8 11.9 0.7 11.8C0.6 11.7 0.5 11.6 0.5 11.4C0.5 11.3 0.5 11.2 0.6 11.1C0.7 11 0.9 11 1 11C1.1 11 1.2 11 1.3 11C1.5 11 1.8 11.1 2 11.1C2.3 11.1 2.6 11 2.8 10.8C3 10.6 3.1 10.2 3.3 9.40005L4.4 4.50005H3.1L3.2 4.10005Z" fill="#0078D4"/>
<path d="M6.90001 4.90002L6.70001 4.70002C7.10001 4.30002 7.40001 4.10002 7.70001 3.90002C7.90001 3.80002 8.00001 3.70002 8.10001 3.70002C8.20001 3.70002 8.30001 3.80002 8.40001 3.90002C8.50001 4.10002 8.60001 4.60002 8.70001 5.30002C9.20001 4.60002 9.60001 4.10002 10 3.80002C10.3 3.50002 10.6 3.40002 10.8 3.40002C10.9 3.40002 11 3.40002 11.1 3.50002C11.2 3.60002 11.2 3.70002 11.2 3.80002C11.2 3.90002 11.2 4.00002 11.1 4.10002C11 4.20002 10.8 4.20002 10.4 4.30002C10.2 4.30002 10 4.40002 9.80001 4.60002C9.50001 4.80002 9.20001 5.30002 8.90001 5.80002L9.20001 7.60002C9.40001 8.40002 9.50001 9.00002 9.70001 9.40002C9.80001 9.80002 10 10.1 10.3 10.3C10.4 10.4 10.6 10.5 10.7 10.5C10.9 10.5 11.1 10.3 11.2 10C11.3 9.80002 11.4 9.70002 11.5 9.70002C11.6 9.70002 11.6 9.70002 11.7 9.80002C11.7 9.80002 11.8 9.90002 11.8 10C11.8 10.2 11.7 10.4 11.5 10.5C11.3 10.7 11 10.8 10.7 10.8C10.4 10.8 10 10.7 9.70001 10.4C9.40001 10.2 9.20001 9.80002 9.00001 9.30002C8.70001 8.70002 8.50001 7.90002 8.30001 6.70002C8.30001 6.80002 8.20001 7.00002 8.00001 7.30002C7.60001 8.00002 7.20001 8.40002 7.00001 8.60002C6.80001 8.80002 6.50001 8.90002 6.30001 8.90002C6.10001 8.90002 6.00001 8.90002 5.90001 8.80002C5.80001 8.70002 5.70001 8.60002 5.70001 8.40002C5.70001 8.30002 5.70001 8.20002 5.80001 8.10002C5.90001 8.10002 6.00001 8.00002 6.10001 8.00002C6.20001 8.00002 6.30001 8.10002 6.40001 8.20002C6.50001 8.30002 6.60001 8.40002 6.60001 8.40002C6.60001 8.40002 6.70001 8.40002 6.80001 8.30002C6.80001 8.30002 7.00001 8.20002 7.10001 8.00002C7.30001 7.70002 7.50001 7.50002 7.60001 7.30002L8.30001 6.20002L8.00001 5.10002C8.00001 4.80002 7.90001 4.60002 7.90001 4.50002C7.80001 4.40002 7.70001 4.40002 7.70001 4.40002C7.60001 4.40002 7.60001 4.40002 7.50001 4.50002C7.20001 4.60002 7.10001 4.80002 6.90001 4.90002Z" fill="#0078D4"/>
<path d="M14.7 13.5L16.4 15.3L15.7 16L14 14.2L12.2 16L11.5 15.3L13.3 13.5L11.5 11.7L12.2 11L14 12.8L15.7 11L16.4 11.7L14.7 13.5Z" fill="#0078D4"/>
</svg>
