<svg xmlns="http://www.w3.org/2000/svg" viewBox="0 0 16 16" enable-background="new 0 0 16 16">
    <style type="text/css">.icon-asx-blue{fill:#0081E4;}</style> 
	<path  class="icon-asx-blue" d="M14.3,3.5h-0.9v10.8c0,0.2,0,0.4-0.1,0.5c-0.1,0.2-0.2,0.3-0.3,0.4c-0.1,0.1-0.3,0.2-0.4,0.3
		c-0.2,0.1-0.4,0.1-0.5,0.1H4.5c-0.2,0-0.4,0-0.5-0.1c-0.2-0.1-0.3-0.2-0.4-0.3c-0.1-0.1-0.2-0.3-0.3-0.4c-0.1-0.2-0.1-0.4-0.1-0.5
		V3.5H2.1V2.6h3.8V1.6c0-0.1,0-0.3,0.1-0.4C6,1.1,6.1,1,6.2,1c0.1-0.1,0.2-0.2,0.3-0.2c0.1,0,0.2-0.1,0.4-0.1h2.8
		c0.1,0,0.3,0,0.4,0.1c0.1,0,0.2,0.1,0.3,0.2c0.1,0.1,0.2,0.2,0.2,0.3c0,0.1,0.1,0.2,0.1,0.4v0.9h3.8V3.5z M12.5,3.5H4v10.8
		c0,0.1,0,0.2,0.1,0.3c0.1,0.1,0.2,0.1,0.3,0.1H12c0.1,0,0.2,0,0.3-0.1c0.1-0.1,0.1-0.2,0.1-0.3V3.5z M6.8,12.9H5.9V5.4h0.9V12.9z
		 M6.8,2.6h2.8V1.6H6.8V2.6z M8.7,12.9H7.8V5.4h0.9V12.9z M10.6,12.9H9.6V5.4h0.9V12.9z"/>
</svg>
