<svg width="16" height="16" viewBox="0 0 16 16" fill="none" xmlns="http://www.w3.org/2000/svg">
<path d="M14.3 3.49995H13.4V14.3C13.4 14.5 13.4 14.7 13.3 14.8C13.2 15 13.1 15.1 13 15.2C12.9 15.3 12.7 15.4 12.6 15.5C12.4 15.6 12.2 15.6 12.1 15.6H4.50001C4.30001 15.6 4.10001 15.6 4.00001 15.5C3.80001 15.4 3.70001 15.3 3.60001 15.2C3.50001 15.1 3.40001 14.9 3.30001 14.8C3.20001 14.6 3.20001 14.4 3.20001 14.3V3.49995H2.10001V2.59995H5.90001V1.59995C5.90001 1.49995 5.90001 1.29995 6.00001 1.19995C6.00001 1.09995 6.10001 0.999951 6.20001 0.999951C6.30001 0.899951 6.40001 0.799951 6.50001 0.799951C6.60001 0.799951 6.70001 0.699951 6.90001 0.699951H9.70001C9.80001 0.699951 10 0.699951 10.1 0.799951C10.2 0.799951 10.3 0.899951 10.4 0.999951C10.5 1.09995 10.6 1.19995 10.6 1.29995C10.6 1.39995 10.7 1.49995 10.7 1.69995V2.59995H14.5V3.49995H14.3ZM12.5 3.49995H4.00001V14.3C4.00001 14.4 4.00001 14.5 4.10001 14.6C4.20001 14.7 4.30001 14.7 4.40001 14.7H12C12.1 14.7 12.2 14.7 12.3 14.6C12.4 14.5 12.4 14.4 12.4 14.3V3.49995H12.5ZM6.80001 12.9H5.90001V5.39995H6.80001V12.9V12.9ZM6.80001 2.59995H9.60001V1.59995H6.80001V2.59995ZM8.70001 12.9H7.80001V5.39995H8.70001V12.9ZM10.6 12.9H9.60001V5.39995H10.5V12.9H10.6Z" fill="#CCCCCC"/>
</svg>
