<?xml version="1.0" encoding="utf-8" ?>
<svg id="Layer_1" data-name="Layer 1" xmlns="http://www.w3.org/2000/svg" viewBox="0 0 16 16">
    <polygon style="fill:#2bace2;" points="6.44 1.82 6.44 0.1 6.41 0.1 15.91 0.1 15.91 10.86 14.19 10.86 14.19 10.42 15.48 10.42 15.48 0.42 6.86 0.42 6.86 0.34 6.86 1.82 6.44 1.82" />
    <path style="fill:#7a7a7a;" d="M1.17,15.8a1.22,1.22,0,0,1-.86-.32,1.31,1.31,0,0,1,0-1.72L3.11,11a3.89,3.89,0,0,1-.32-2.9,4,4,0,0,1,4-3.12,3,3,0,0,1,1,.11,3.58,3.58,0,0,1,2.47,1.83A4,4,0,0,1,10.64,10a4,4,0,0,1-4,3.12,3,3,0,0,1-1-.11,3.82,3.82,0,0,1-1-.43l-2.8,2.8a1.09,1.09,0,0,1-.75.43M6.66,6.55A2.52,2.52,0,0,0,4.18,8.49a2.78,2.78,0,0,0,.32,2l.65.65,1,.32h.54A2.52,2.52,0,0,0,9.13,9.56a2.64,2.64,0,0,0-1.83-3H6.66" />
    <path style="fill:#00aeef;" d="M8.92,9A2.15,2.15,0,1,1,6.77,6.88,2.16,2.16,0,0,1,8.92,9" />
    <path style="fill:#2bace2;" d="M6.66,4.51a3,3,0,0,1,1,.11,1.31,1.31,0,0,1,1-.32v.65H8.49a4.77,4.77,0,0,1,2.8,4.3h.11a1.11,1.11,0,0,0,.11-.43V8c0-.54.22-.86.54-1-.32-.11-.54-.32-.54-1V5.37A.51.51,0,0,0,11,4.83V4.19h.22a1.55,1.55,0,0,1,.75.22c.22.22.22.54.22,1v.75a.51.51,0,0,0,.54.54v.65a.51.51,0,0,0-.54.54v.65c0,.43,0,.65-.22.86a.91.91,0,0,1-.75.22,5.15,5.15,0,0,1-.75,2.15h3.76V1.82H5.47v2.8A4.41,4.41,0,0,1,6.66,4.51Z" />
</svg>
