<?xml version="1.0" encoding="UTF-8"?>
<svg width="113px" height="128px" viewBox="0 0 113 128" version="1.1" xmlns="http://www.w3.org/2000/svg" xmlns:xlink="http://www.w3.org/1999/xlink">
    <!-- Generator: Sketch 50 (54983) - http://www.bohemiancoding.com/sketch -->
    <title>eff6</title>
    <desc>Created with Sketch.</desc>
    <defs></defs>
    <g id="--Symbols" stroke="none" stroke-width="1" fill="none" fill-rule="evenodd">
        <g id="Controls/Ghostimages/No-documents" transform="translate(-68.000000, -11.000000)" fill="#DCDCDC" fill-rule="nonzero">
            <g id="eff6" transform="translate(68.000000, 11.000000)">
                <path d="M112.733333,50.3124992 L112.733333,128 L16.7333333,128 L16.7333333,112 L0.733333333,112 L0.733333333,0 L96.7333333,0 L96.7333333,34.3124992 L112.733333,50.3124992 Z M80.7333333,29.6875008 L80.7333333,48 L99.0458325,48 L80.7333333,29.6875008 Z M16.7333333,104 L16.7333333,16 L78.4208341,16 L88.7333333,26.3124992 L88.7333333,8 L8.73333333,8 L8.73333333,104 L16.7333333,104 Z M104.733333,56 L72.7333333,56 L72.7333333,24 L24.7333333,24 L24.7333333,120 L104.733333,120 L104.733333,56 Z" id="Shape"></path>
            </g>
        </g>
    </g>
</svg>