<svg width="16" height="16" viewBox="0 0 16 16" fill="none" xmlns="http://www.w3.org/2000/svg">
<path d="M10.9 8.30005H14.8V12.7H0.600006V8.30005H7.80001" stroke="#CCCCCC" stroke-miterlimit="10"/>
<path d="M4.89999 8.6001V12.3001" stroke="#CCCCCC" stroke-miterlimit="10"/>
<path d="M15.3 3.3C15.2 3.1 15.1 3 15 2.9C14.9 2.8 14.7 2.7 14.5 2.6C14.3 2.5 14.1 2.5 13.9 2.5C13.7 2.5 13.5 2.5 13.3 2.6C13.1 2.7 13 2.8 12.8 2.9L7.5 8.2L6.8 11L9.6 10.3L15 5C15.1 4.9 15.2 4.7 15.3 4.5C15.4 4.3 15.4 4.1 15.4 3.9C15.4 3.7 15.4 3.5 15.3 3.3ZM14.3 4.3L9.1 9.5L8.1 9.8L8.4 8.8L13.6 3.6C13.6 3.6 13.7 3.5 13.8 3.5C13.9 3.5 13.9 3.5 14 3.5C14.2 3.5 14.3 3.5 14.4 3.6C14.5 3.7 14.6 3.8 14.6 4C14.5 4.1 14.4 4.2 14.3 4.3Z" fill="#CCCCCC"/>
</svg>
