<svg width="12" height="12" viewBox="0 0 12 12" fill="none" xmlns="http://www.w3.org/2000/svg">
<path d="M6 0C6.55078 0 7.08203 0.0712892 7.59375 0.213867C8.10547 0.356445 8.58301 0.558594 9.02637 0.820312C9.46973 1.08203 9.87402 1.39551 10.2393 1.76074C10.6045 2.12598 10.918 2.53027 11.1797 2.97363C11.4414 3.41699 11.6436 3.89453 11.7861 4.40625C11.9287 4.91797 12 5.44922 12 6C12 6.55078 11.9287 7.08203 11.7861 7.59375C11.6436 8.10547 11.4414 8.58301 11.1797 9.02637C10.918 9.46973 10.6045 9.87402 10.2393 10.2393C9.87402 10.6045 9.46973 10.918 9.02637 11.1797C8.58301 11.4414 8.10547 11.6436 7.59375 11.7861C7.08203 11.9287 6.55078 12 6 12C5.44922 12 4.91797 11.9287 4.40625 11.7861C3.89453 11.6436 3.41699 11.4414 2.97363 11.1797C2.53027 10.918 2.12598 10.6045 1.76074 10.2393C1.39551 9.87402 1.08203 9.46973 0.820312 9.02637C0.558594 8.58301 0.356445 8.10547 0.213867 7.59375C0.0712892 7.08203 0 6.55078 0 6C0 5.44922 0.0712892 4.91797 0.213867 4.40625C0.356445 3.89453 0.558594 3.41699 0.820312 2.97363C1.08203 2.53027 1.39551 2.12598 1.76074 1.76074C2.12598 1.39551 2.53027 1.08203 2.97363 0.820312C3.41699 0.558594 3.89453 0.356445 4.40625 0.213867C4.91797 0.0712892 5.44922 0 6 0ZM6.66211 6L8.66602 3.99609L8.00391 3.33398L6 5.33789L3.99609 3.33398L3.33398 3.99609L5.33789 6L3.33398 8.00391L3.99609 8.66602L6 6.66211L8.00391 8.66602L8.66602 8.00391L6.66211 6Z" fill="#CCCCCC"/>
</svg>
