<?xml version="1.0" encoding="utf-8"?>
<!-- Generator: Adobe Illustrator 19.1.1, SVG Export Plug-In . SVG Version: 6.00 Build 0)  -->
<svg version="1.1" id="Layer_1" xmlns="http://www.w3.org/2000/svg" xmlns:xlink="http://www.w3.org/1999/xlink" x="0px" y="0px"
	 width="16px" height="16px" viewBox="0 0 16 16" style="enable-background:new 0 0 16 16;" xml:space="preserve">
<path style="fill:#FFFFFF;" d="M1.4,15c-0.3,0-0.6-0.1-0.8-0.3c-0.2-0.2-0.3-0.5-0.3-0.8c0-0.3,0.1-0.6,0.3-0.8l2.6-2.6
	C2.8,9.7,2.6,8.7,2.9,7.8c0.4-1.7,1.9-2.9,3.7-2.9c0.3,0,0.6,0,0.9,0.1c1,0.2,1.8,0.8,2.3,1.7s0.7,1.9,0.4,2.9
	c-0.4,1.7-1.9,2.9-3.7,2.9c-0.3,0-0.6,0-0.9-0.1C5.3,12.3,5,12.2,4.7,12l-2.6,2.6C1.9,14.8,1.7,15,1.4,15 M6.5,6.4
	c-1.1,0-2,0.7-2.3,1.8c-0.2,0.6,0,1.3,0.3,1.9c0.2,0.2,0.4,0.4,0.6,0.6C5.4,10.8,5.7,10.9,6,11C6.1,11,6.3,11,6.5,11
	c1.1,0,2-0.7,2.3-1.8C8.9,8.7,8.8,8,8.5,7.5C8.2,7,7.7,6.6,7.1,6.4C6.9,6.4,6.7,6.4,6.5,6.4"/>
<path style="fill:#FFFFFF;" d="M8.6,8.7c0,1.1-0.9,2-2,2c-1.1,0-2-0.9-2-2s0.9-2,2-2C7.7,6.7,8.6,7.6,8.6,8.7"/>
<polygon style="fill:#FFFFFF;" points="14.7,1.7 13.8,0.8 13.4,0.4 13.3,0.4 6.3,0.4 6.3,2 6.7,2 6.7,0.8 13.3,0.8 13.3,2.2 
	14.2,2.2 14.7,2.2 14.7,10 13.5,10 13.5,10.4 15.1,10.4 15.1,2.2 15.1,2.1 "/>
<path style="fill:#FFFFFF;" d="M6.5,4.5c0.3,0,0.6,0,0.9,0.1c0,0,0,0,0,0c0.2-0.2,0.5-0.3,0.9-0.3v0.6c0,0-0.1,0-0.1,0
	c1.5,0.7,2.6,2.2,2.6,4c0,0,0.1,0,0.1,0c0,0,0.1-0.2,0.1-0.4V7.7c0-0.5,0.2-0.8,0.5-0.9C11.2,6.7,11,6.5,11,5.9V5.3
	c0-0.3-0.2-0.5-0.5-0.5V4.2c0,0,0.2,0,0.2,0c0.3,0,0.5,0.1,0.7,0.2c0.2,0.2,0.2,0.5,0.2,0.9V6c0,0.3,0.2,0.5,0.5,0.5v0.6h0
	c-0.3,0-0.5,0.2-0.5,0.5v0.6c0,0.4,0,0.6-0.2,0.8c-0.2,0.2-0.4,0.2-0.7,0.2c-0.1,0.7-0.3,1.4-0.7,2h3.5v-0.1V3.4H13h-0.9V2H5.4v2.6
	C5.8,4.5,6.1,4.5,6.5,4.5z"/>
<polygon style="fill:#FFFFFF;" points="6.7,2 6.7,0.8 13.3,0.8 13.3,2.2 14.7,2.2 14.7,10 13.5,10 13.5,3.4 12.1,3.4 12.1,2 "/>
</svg>