<svg width="24" height="24" viewBox="0 0 24 24" fill="none" xmlns="http://www.w3.org/2000/svg">
<path d="M7.80002 19.5C9.67779 19.5 11.2 17.9777 11.2 16.1C11.2 14.2222 9.67779 12.7 7.80002 12.7C5.92226 12.7 4.40002 14.2222 4.40002 16.1C4.40002 17.9777 5.92226 19.5 7.80002 19.5Z" stroke="#0078D4" stroke-miterlimit="10"/>
<path d="M4.5 19.5L5.5 18.5" stroke="#0078D4" stroke-miterlimit="10"/>
<path d="M3.94477 19.0243L0.762817 22.2063L1.75276 23.1962L4.93471 20.0143L3.94477 19.0243Z" stroke="#0078D4" stroke-miterlimit="10"/>
<path d="M12 18.9001H21.2V5.80015V5.70015L20.6 5.10015L19 3.50015L18.4 2.90015H18.3H7V11.2001C9 11.0001 10.9 12.0001 11.9 13.7001C12.9 15.2001 12.9 17.2001 12 18.9001Z" stroke="#0078D4" stroke-miterlimit="10"/>
<path d="M10.7 12.2V12.5C11.1 12.7 11.4 13 11.7 13.4C11.7 13.4 11.7 13.4 11.7 13.3V12.4C11.7 11.6 11.4 11.2 10.9 11C11.4 10.8 11.7 10.4 11.7 9.60005V8.60005C11.7 8.10005 12 7.80005 12.5 7.80005V6.80005C11.9 6.80005 11.3 6.90005 11 7.30005C10.6 7.60005 10.5 8.00005 10.5 8.60005V9.50005C10.5 10.1 10.3 10.4 9.90002 10.4V11.2C10.4 11.3 10.6 11.6 10.7 12.2Z" fill="#0078D4"/>
<path d="M18.5 11.4001V10.5001C18 10.5001 17.7 10.2001 17.7 9.70015V8.70015C17.7 8.10015 17.6 7.60015 17.3 7.30015C17.1 7.10015 16.7 6.90015 16.2 6.90015C16.1 6.90015 15.9 6.90015 15.8 6.90015V7.70015C16.3 7.70015 16.6 8.00015 16.6 8.50015V9.50015C16.6 10.3001 16.9 10.8001 17.4 11.0001C16.9 11.2001 16.6 11.6001 16.6 12.4001V13.4001C16.6 13.6001 16.5 13.9001 16.4 14.0001C16.3 14.1001 16.2 14.2001 15.9 14.2001V15.0001C16.5 15.0001 17.1 14.9001 17.4 14.6001C17.7 14.3001 17.8 13.9001 17.8 13.3001V12.3001C17.8 11.7001 18 11.4001 18.5 11.4001Z" fill="#0078D4"/>
<path d="M9.10004 2.80005V0.800049H20.4L23.2 3.70005V16.9H23.1H21.2V5.80005L18.4 2.90005L9.10004 2.80005Z" stroke="#0078D4" stroke-miterlimit="10"/>
<path d="M20.4 0.800049V3.70005H23.2" stroke="#0078D4" stroke-width="0.5" stroke-miterlimit="10"/>
<path d="M18.3 2.90015V5.80015H21.1" stroke="#0078D4" stroke-width="0.5" stroke-miterlimit="10"/>
</svg>
