<svg width="16" height="16" viewBox="0 0 16 16" fill="none" xmlns="http://www.w3.org/2000/svg">
<path fill-rule="evenodd" clip-rule="evenodd" d="M5 7C4.85937 7 4.72917 6.97396 4.60938 6.92188C4.48958 6.86979 4.38412 6.79818 4.29297 6.70703C4.20182 6.61588 4.13021 6.51042 4.07812 6.39062C4.02604 6.27083 4 6.14063 4 6C4 5.85937 4.02604 5.72917 4.07812 5.60938C4.13021 5.48958 4.20182 5.38412 4.29297 5.29297C4.38412 5.20182 4.48958 5.13021 4.60938 5.07812C4.72917 5.02604 4.85937 5 5 5C5.14063 5 5.27083 5.02604 5.39062 5.07812C5.51042 5.13021 5.61588 5.20182 5.70703 5.29297C5.79818 5.38412 5.86979 5.48958 5.92188 5.60938C5.97396 5.72917 6 5.85937 6 6C6 6.14063 5.97396 6.27083 5.92188 6.39062C5.86979 6.51042 5.79818 6.61588 5.70703 6.70703C5.61588 6.79818 5.51042 6.86979 5.39062 6.92188C5.27083 6.97396 5.14063 7 5 7ZM11 7C10.8594 7 10.7292 6.97396 10.6094 6.92188C10.4896 6.86979 10.3841 6.79818 10.293 6.70703C10.2018 6.61588 10.1302 6.51042 10.0781 6.39062C10.026 6.27083 10 6.14063 10 6C10 5.85937 10.026 5.72917 10.0781 5.60938C10.1302 5.48958 10.2018 5.38412 10.293 5.29297C10.3841 5.20182 10.4896 5.13021 10.6094 5.07812C10.7292 5.02604 10.8594 5 11 5C11.1406 5 11.2708 5.02604 11.3906 5.07812C11.5104 5.13021 11.6159 5.20182 11.707 5.29297C11.7982 5.38412 11.8698 5.48958 11.9219 5.60938C11.974 5.72917 12 5.85937 12 6C12 6.14063 11.974 6.27083 11.9219 6.39062C11.8698 6.51042 11.7982 6.61588 11.707 6.70703C11.6159 6.79818 11.5104 6.86979 11.3906 6.92188C11.2708 6.97396 11.1406 7 11 7ZM8 0C8.73438 0 9.44271 0.0950511 10.125 0.285156C10.8073 0.475261 11.4453 0.743488 12.0391 1.08984C12.6328 1.4362 13.1732 1.85286 13.6602 2.33984C14.1471 2.82683 14.5638 3.36718 14.9102 3.96094C15.2565 4.55469 15.5247 5.19271 15.7148 5.875C15.9049 6.55729 16 7.26562 16 8C16 8.73438 15.9049 9.44271 15.7148 10.125C15.5247 10.8073 15.2565 11.4453 14.9102 12.0391C14.5638 12.6328 14.1471 13.1732 13.6602 13.6602C13.1732 14.1471 12.6328 14.5638 12.0391 14.9102C11.4453 15.2565 10.8073 15.5247 10.125 15.7148C9.44271 15.9049 8.73438 16 8 16C7.26562 16 6.55729 15.9049 5.875 15.7148C5.19271 15.5247 4.55469 15.2565 3.96094 14.9102C3.36718 14.5638 2.82683 14.1471 2.33984 13.6602C1.85286 13.1732 1.4362 12.6328 1.08984 12.0391C0.743488 11.4453 0.475261 10.8086 0.285156 10.1289C0.0950511 9.44921 0 8.73959 0 8C0 7.26562 0.0950511 6.55729 0.285156 5.875C0.475261 5.19271 0.743488 4.55469 1.08984 3.96094C1.4362 3.36718 1.85286 2.82683 2.33984 2.33984C2.82683 1.85286 3.36718 1.4362 3.96094 1.08984C4.55469 0.743488 5.1914 0.475261 5.87109 0.285156C6.55078 0.0950511 7.26041 0 8 0ZM8 15C8.64063 15 9.25911 14.9167 9.85547 14.75C10.4518 14.5833 11.0091 14.3477 11.5273 14.043C12.0456 13.7383 12.5182 13.3724 12.9453 12.9453C13.3724 12.5182 13.7383 12.0456 14.043 11.5273C14.3477 11.0091 14.5833 10.4531 14.75 9.85938C14.9167 9.26562 15 8.64584 15 8C15 7.35937 14.9167 6.74089 14.75 6.14453C14.5833 5.54817 14.3477 4.99089 14.043 4.47266C13.7383 3.95442 13.3724 3.48177 12.9453 3.05469C12.5182 2.6276 12.0456 2.26172 11.5273 1.95703C11.0091 1.65234 10.4518 1.41667 9.85547 1.25C9.25911 1.08333 8.64063 1 8 1C7.35937 1 6.74089 1.08333 6.14453 1.25C5.54817 1.41667 4.99089 1.65234 4.47266 1.95703C3.95442 2.26172 3.48177 2.6276 3.05469 3.05469C2.6276 3.48177 2.26172 3.95442 1.95703 4.47266C1.65234 4.99089 1.41667 5.54817 1.25 6.14453C1.08333 6.74089 1 7.35937 1 8C1 8.64063 1.08333 9.25911 1.25 9.85547C1.41667 10.4518 1.65234 11.0091 1.95703 11.5273C2.26172 12.0456 2.6276 12.5182 3.05469 12.9453C3.48177 13.3724 3.95442 13.7383 4.47266 14.043C4.99089 14.3477 5.54687 14.5833 6.14062 14.75C6.73438 14.9167 7.35416 15 8 15ZM8 12C8.38021 12 8.7487 11.9479 9.10547 11.8438C9.46224 11.7396 9.79427 11.5911 10.1016 11.3984C10.4089 11.2057 10.6862 10.9714 10.9336 10.6953C11.181 10.4193 11.3906 10.112 11.5625 9.77344L12.4609 10.2266C12.2474 10.6484 11.9844 11.0312 11.6719 11.375C11.3594 11.7188 11.0104 12.0104 10.625 12.25C10.2396 12.4896 9.82422 12.6745 9.37891 12.8047C8.93359 12.9349 8.47396 13 8 13C7.52083 13 7.0599 12.9349 6.61719 12.8047C6.17448 12.6745 5.76042 12.4896 5.375 12.25C4.98958 12.0104 4.64063 11.7188 4.32812 11.375C4.01562 11.0312 3.75261 10.6484 3.53906 10.2266L4.4375 9.77344C4.60938 10.112 4.81901 10.4193 5.06641 10.6953C5.3138 10.9714 5.59114 11.2057 5.89844 11.3984C6.20573 11.5911 6.53646 11.7396 6.89062 11.8438C7.24479 11.9479 7.61458 12 8 12Z" fill="black"/>
<path fill-rule="evenodd" clip-rule="evenodd" d="M5 7C4.85937 7 4.72917 6.97396 4.60938 6.92188C4.48958 6.86979 4.38412 6.79818 4.29297 6.70703C4.20182 6.61588 4.13021 6.51042 4.07812 6.39062C4.02604 6.27083 4 6.14063 4 6C4 5.85937 4.02604 5.72917 4.07812 5.60938C4.13021 5.48958 4.20182 5.38412 4.29297 5.29297C4.38412 5.20182 4.48958 5.13021 4.60938 5.07812C4.72917 5.02604 4.85937 5 5 5C5.14063 5 5.27083 5.02604 5.39062 5.07812C5.51042 5.13021 5.61588 5.20182 5.70703 5.29297C5.79818 5.38412 5.86979 5.48958 5.92188 5.60938C5.97396 5.72917 6 5.85937 6 6C6 6.14063 5.97396 6.27083 5.92188 6.39062C5.86979 6.51042 5.79818 6.61588 5.70703 6.70703C5.61588 6.79818 5.51042 6.86979 5.39062 6.92188C5.27083 6.97396 5.14063 7 5 7ZM11 7C10.8594 7 10.7292 6.97396 10.6094 6.92188C10.4896 6.86979 10.3841 6.79818 10.293 6.70703C10.2018 6.61588 10.1302 6.51042 10.0781 6.39062C10.026 6.27083 10 6.14063 10 6C10 5.85937 10.026 5.72917 10.0781 5.60938C10.1302 5.48958 10.2018 5.38412 10.293 5.29297C10.3841 5.20182 10.4896 5.13021 10.6094 5.07812C10.7292 5.02604 10.8594 5 11 5C11.1406 5 11.2708 5.02604 11.3906 5.07812C11.5104 5.13021 11.6159 5.20182 11.707 5.29297C11.7982 5.38412 11.8698 5.48958 11.9219 5.60938C11.974 5.72917 12 5.85937 12 6C12 6.14063 11.974 6.27083 11.9219 6.39062C11.8698 6.51042 11.7982 6.61588 11.707 6.70703C11.6159 6.79818 11.5104 6.86979 11.3906 6.92188C11.2708 6.97396 11.1406 7 11 7ZM8 0C8.73438 0 9.44271 0.0950511 10.125 0.285156C10.8073 0.475261 11.4453 0.743488 12.0391 1.08984C12.6328 1.4362 13.1732 1.85286 13.6602 2.33984C14.1471 2.82683 14.5638 3.36718 14.9102 3.96094C15.2565 4.55469 15.5247 5.19271 15.7148 5.875C15.9049 6.55729 16 7.26562 16 8C16 8.73438 15.9049 9.44271 15.7148 10.125C15.5247 10.8073 15.2565 11.4453 14.9102 12.0391C14.5638 12.6328 14.1471 13.1732 13.6602 13.6602C13.1732 14.1471 12.6328 14.5638 12.0391 14.9102C11.4453 15.2565 10.8073 15.5247 10.125 15.7148C9.44271 15.9049 8.73438 16 8 16C7.26562 16 6.55729 15.9049 5.875 15.7148C5.19271 15.5247 4.55469 15.2565 3.96094 14.9102C3.36718 14.5638 2.82683 14.1471 2.33984 13.6602C1.85286 13.1732 1.4362 12.6328 1.08984 12.0391C0.743488 11.4453 0.475261 10.8086 0.285156 10.1289C0.0950511 9.44921 0 8.73959 0 8C0 7.26562 0.0950511 6.55729 0.285156 5.875C0.475261 5.19271 0.743488 4.55469 1.08984 3.96094C1.4362 3.36718 1.85286 2.82683 2.33984 2.33984C2.82683 1.85286 3.36718 1.4362 3.96094 1.08984C4.55469 0.743488 5.1914 0.475261 5.87109 0.285156C6.55078 0.0950511 7.26041 0 8 0ZM8 15C8.64063 15 9.25911 14.9167 9.85547 14.75C10.4518 14.5833 11.0091 14.3477 11.5273 14.043C12.0456 13.7383 12.5182 13.3724 12.9453 12.9453C13.3724 12.5182 13.7383 12.0456 14.043 11.5273C14.3477 11.0091 14.5833 10.4531 14.75 9.85938C14.9167 9.26562 15 8.64584 15 8C15 7.35937 14.9167 6.74089 14.75 6.14453C14.5833 5.54817 14.3477 4.99089 14.043 4.47266C13.7383 3.95442 13.3724 3.48177 12.9453 3.05469C12.5182 2.6276 12.0456 2.26172 11.5273 1.95703C11.0091 1.65234 10.4518 1.41667 9.85547 1.25C9.25911 1.08333 8.64063 1 8 1C7.35937 1 6.74089 1.08333 6.14453 1.25C5.54817 1.41667 4.99089 1.65234 4.47266 1.95703C3.95442 2.26172 3.48177 2.6276 3.05469 3.05469C2.6276 3.48177 2.26172 3.95442 1.95703 4.47266C1.65234 4.99089 1.41667 5.54817 1.25 6.14453C1.08333 6.74089 1 7.35937 1 8C1 8.64063 1.08333 9.25911 1.25 9.85547C1.41667 10.4518 1.65234 11.0091 1.95703 11.5273C2.26172 12.0456 2.6276 12.5182 3.05469 12.9453C3.48177 13.3724 3.95442 13.7383 4.47266 14.043C4.99089 14.3477 5.54687 14.5833 6.14062 14.75C6.73438 14.9167 7.35416 15 8 15ZM8 12C8.38021 12 8.7487 11.9479 9.10547 11.8438C9.46224 11.7396 9.79427 11.5911 10.1016 11.3984C10.4089 11.2057 10.6862 10.9714 10.9336 10.6953C11.181 10.4193 11.3906 10.112 11.5625 9.77344L12.4609 10.2266C12.2474 10.6484 11.9844 11.0312 11.6719 11.375C11.3594 11.7188 11.0104 12.0104 10.625 12.25C10.2396 12.4896 9.82422 12.6745 9.37891 12.8047C8.93359 12.9349 8.47396 13 8 13C7.52083 13 7.0599 12.9349 6.61719 12.8047C6.17448 12.6745 5.76042 12.4896 5.375 12.25C4.98958 12.0104 4.64063 11.7188 4.32812 11.375C4.01562 11.0312 3.75261 10.6484 3.53906 10.2266L4.4375 9.77344C4.60938 10.112 4.81901 10.4193 5.06641 10.6953C5.3138 10.9714 5.59114 11.2057 5.89844 11.3984C6.20573 11.5911 6.53646 11.7396 6.89062 11.8438C7.24479 11.9479 7.61458 12 8 12Z" fill="white"/>
</svg>
