<svg width="18" height="18" viewBox="0 0 18 18" fill="none" xmlns="http://www.w3.org/2000/svg">
<g clip-path="url(#clip0)">
<path d="M8.06668 0C8.80001 0 9.46668 0.0666667 10.1333 0.266667C10.8 0.466667 11.4667 0.733333 12 1.06667C12.6 1.4 13.1333 1.8 13.6 2.33333C14.0667 2.8 14.4667 3.33333 14.8667 3.93333C15.2 4.53333 15.4667 5.13333 15.6667 5.8C15.8667 6.46667 15.9333 7.2 15.9333 7.86667C15.9333 8.53333 15.9333 9.33333 15.7333 10C15.5333 10.6667 15.2667 11.3333 14.9333 11.8667C14.6 12.4667 14.2 13 13.6667 13.4667C13.1333 13.9333 12.6667 14.3333 12.0667 14.7333C11.4667 15.0667 10.8667 15.3333 10.2 15.5333C9.53335 15.7333 8.80001 15.8 8.13335 15.8C7.46668 15.8 6.66668 15.6667 6.00001 15.5333C5.33335 15.3333 4.66668 15.0667 4.13335 14.7333C3.53335 14.4 3.00001 14 2.53335 13.4667C2.06668 13 1.66668 12.4667 1.26668 11.8667C0.933345 11.2667 0.666679 10.6667 0.466679 10C0.266679 9.33333 0.200012 8.6 0.200012 7.86667C0.200012 7.13333 0.266679 6.46667 0.466679 5.8C0.666679 5.13333 0.933345 4.46667 1.26668 3.93333C1.60001 3.33333 2.00001 2.8 2.53335 2.33333C3.00001 1.86667 3.53335 1.46667 4.13335 1.06667C4.66668 0.733333 5.33335 0.466667 6.00001 0.266667C6.66668 0.0666667 7.40001 0 8.06668 0ZM8.06668 14.8C8.66668 14.8 9.33335 14.7333 9.86668 14.5333C10.4667 14.4 11 14.1333 11.5333 13.8667C12.0667 13.6 12.5333 13.2 12.9333 12.8C13.3333 12.4 13.7333 11.9333 14 11.4C14.2667 10.8667 14.5333 10.3333 14.6667 9.73333C14.8 9.13333 14.9333 8.53333 14.9333 7.86667C14.9333 7.26667 14.8667 6.6 14.6667 6.06667C14.4667 5.53333 14.2667 4.93333 14 4.4C13.7333 3.86667 13.3333 3.4 12.9333 3C12.5333 2.6 12.0667 2.2 11.5333 1.93333C11 1.6 10.4667 1.4 9.86668 1.26667C9.26668 1.13333 8.66668 1 8.06668 1C7.46668 1 6.80001 1.06667 6.26668 1.26667C5.73335 1.46667 5.13335 1.66667 4.60001 1.93333C4.06668 2.26667 3.60001 2.6 3.20001 3C2.80001 3.4 2.40001 3.86667 2.13335 4.4C1.80001 4.93333 1.60001 5.46667 1.46668 6.06667C1.33335 6.66667 1.20001 7.26667 1.20001 7.86667C1.20001 8.46667 1.26668 9.13333 1.46668 9.66667C1.60001 10.2667 1.86668 10.8 2.13335 11.3333C2.46668 11.8667 2.80001 12.3333 3.20001 12.7333C3.60001 13.1333 4.06668 13.5333 4.60001 13.8C5.13335 14.0667 5.66668 14.3333 6.26668 14.4667C6.86668 14.7333 7.46668 14.8 8.06668 14.8ZM8.06668 11.8667C8.46668 11.8667 8.80001 11.8 9.13335 11.7333C9.46668 11.6667 9.80001 11.4667 10.1333 11.2667C10.4667 11.0667 10.7333 10.8667 10.9333 10.6C11.2 10.3333 11.4 10 11.5333 9.66667L12.4 10.1333C12.2 10.5333 11.9333 10.9333 11.6 11.2667C11.2667 11.6 10.9333 11.8667 10.5333 12.1333C10.1333 12.4 9.73335 12.5333 9.33335 12.6667C8.86668 12.8 8.46668 12.8667 8.00001 12.8667C7.53335 12.8667 7.06668 12.8 6.66668 12.6667C6.20001 12.5333 5.80001 12.3333 5.46668 12.1333C5.06668 11.8667 4.73335 11.6 4.40001 11.2667C4.06668 10.9333 3.80001 10.5333 3.60001 10.1333L4.46668 9.66667C4.66668 10 4.86668 10.3333 5.06668 10.6C5.33335 10.8667 5.60001 11.1333 5.86668 11.2667C6.20001 11.4667 6.46668 11.6 6.86668 11.7333C7.33335 11.8 7.73335 11.8667 8.06668 11.8667ZM5.13335 6.93333C5.00001 6.93333 4.86668 6.93333 4.73335 6.86667C4.60001 6.8 4.53335 6.73333 4.40001 6.66667C4.33335 6.53333 4.26668 6.4 4.20001 6.33333C4.20001 6.2 4.13335 6.06667 4.13335 5.93333C4.13335 5.8 4.13335 5.66667 4.20001 5.53333C4.26668 5.4 4.33335 5.33333 4.46668 5.2C4.53335 5.13333 4.66668 5.06667 4.80001 5C4.93335 4.93333 5.06668 4.93333 5.20001 4.93333C5.33335 4.93333 5.46668 4.93333 5.60001 5C5.73335 5.06667 5.80001 5.13333 5.93335 5.2C5.93335 5.33333 6.00001 5.4 6.06668 5.53333C6.13335 5.66667 6.13335 5.8 6.13335 5.93333C6.13335 6.06667 6.13335 6.2 6.06668 6.33333C6.00001 6.4 5.93335 6.53333 5.86668 6.6C5.80001 6.66667 5.66668 6.73333 5.53335 6.8C5.40001 6.86667 5.26668 6.93333 5.13335 6.93333ZM11.0667 6.93333C10.9333 6.93333 10.8 6.93333 10.6667 6.86667C10.5333 6.8 10.4667 6.73333 10.3333 6.66667C10.2 6.6 10.2 6.46667 10.1333 6.33333C10.0667 6.2 10.0667 6.06667 10.0667 5.93333C10.0667 5.8 10.0667 5.66667 10.1333 5.53333C10.2 5.4 10.2667 5.33333 10.3333 5.2C10.4 5.13333 10.5333 5.06667 10.6667 5C10.8 4.93333 10.9333 4.93333 11.0667 4.93333C11.2 4.93333 11.3333 4.93333 11.4667 5C11.6 5.06667 11.6667 5.13333 11.8 5.2C11.8667 5.33333 11.9333 5.4 12 5.53333C12.0667 5.66667 12.0667 5.8 12.0667 5.93333C12.0667 6.06667 12.0667 6.2 12 6.33333C11.9333 6.46667 11.8667 6.53333 11.8 6.66667C11.7333 6.73333 11.6 6.8 11.4667 6.86667C11.3333 6.86667 11.2 6.93333 11.0667 6.93333Z" fill="#0078D4"/>
</g>
<defs>
<clipPath id="clip0">
<rect width="18" height="18" fill="white"/>
</clipPath>
</defs>
</svg>
