<svg width="24" height="24" viewBox="0 0 24 24" fill="none" xmlns="http://www.w3.org/2000/svg">
<path d="M12 24C18.6274 24 24 18.6274 24 12C24 5.37258 18.6274 0 12 0C5.37258 0 0 5.37258 0 12C0 18.6274 5.37258 24 12 24Z" fill="#57A300"/>
<path d="M5.32942 12.4366C5.21842 12.3181 5.16142 12.1621 5.16742 12.0001C5.17342 11.8366 5.24242 11.6866 5.36242 11.5741L6.61492 10.4161C6.72892 10.3126 6.87442 10.2556 7.02592 10.2556C7.19392 10.2556 7.35592 10.3261 7.46992 10.4491L10.6739 13.8871L16.3844 6.57461C16.4999 6.42611 16.6739 6.33911 16.8629 6.33911C16.9979 6.33911 17.1254 6.38261 17.2334 6.46511L18.5924 7.51361C18.8519 7.70561 18.9074 8.07911 18.7124 8.34461L11.4104 17.6941C11.1269 18.0571 10.5854 18.0811 10.2704 17.7436L5.32942 12.4366Z" fill="white"/>
</svg>
