<?xml version="1.0" encoding="UTF-8"?>
<svg width="155px" height="143px" viewBox="0 0 155 143" version="1.1" xmlns="http://www.w3.org/2000/svg" xmlns:xlink="http://www.w3.org/1999/xlink">
    <!-- Generator: Sketch 49.3 (51167) - http://www.bohemiancoding.com/sketch -->
    <title>cosmosdb-rgb-mono-darktheme copy</title>
    <desc>Created with Sketch.</desc>
    <defs></defs>
    <g id="Document_Mongo" stroke="none" stroke-width="1" fill="none" fill-rule="evenodd">
        <g id="00" transform="translate(-890.000000, -376.000000)" fill="#CCCCCC" fill-rule="nonzero">
            <g id="cosmosdb-rgb-mono-darktheme-copy" transform="translate(890.000000, 376.000000)">
                <path d="M21.4962458,42.2826834 C21.0816255,42.2839651 20.6834781,42.1204859 20.3893924,41.82821 C20.0953067,41.5359341 19.929373,41.1388034 19.9280953,40.7241831 C19.8961721,30.8954305 11.9137541,22.9475497 2.08495549,22.9582445 C1.50834214,22.9903654 0.961237781,22.7010018 0.663257027,22.2063078 C0.365276273,21.7116137 0.365276273,21.0926998 0.663257027,20.5980057 C0.961237781,20.1033117 1.50834214,19.813948 2.08495549,19.846069 C11.9148496,19.8594214 19.8988249,11.90999 19.9280953,2.08013041 C19.9280953,1.2114 20.6323404,0.507154859 21.5010708,0.507154859 C22.3698013,0.507154859 23.0740464,1.2114 23.0740464,2.08013041 C23.1059746,11.9126552 31.0942728,19.8620914 40.9268364,19.846069 C41.7875723,19.846069 42.4853367,20.5438333 42.4853367,21.4045693 C42.4853367,22.2653052 41.7875723,22.9630696 40.9268364,22.9630696 C31.0942728,22.9470471 23.1059746,30.8964833 23.0740464,40.7290082 C23.0714996,41.1444729 22.9036773,41.5418353 22.6076393,41.8333467 C22.3116013,42.1248581 21.9117004,42.2865382 21.4962458,42.2826834 Z" id="Shape"></path>
                <path d="M130.581618,141.563496 C130.55769,135.690113 125.786798,130.942957 119.913369,130.948324 C119.39906,130.948324 118.982129,130.531393 118.982129,130.017083 C118.982129,129.502774 119.39906,129.085843 119.913369,129.085843 C125.786798,129.09121 130.55769,124.344054 130.581618,118.470671 C130.581618,117.953696 131.000708,117.534606 131.517683,117.534606 C132.034657,117.534606 132.453748,117.953696 132.453748,118.470671 C132.477675,124.344054 137.248567,129.09121 143.121996,129.085843 C143.636306,129.085843 144.053236,129.502774 144.053236,130.017083 C144.053236,130.531393 143.636306,130.948324 143.121996,130.948324 C137.248567,130.942957 132.477675,135.690113 132.453748,141.563496 C132.453751,141.811314 132.354977,142.048913 132.17929,142.223694 C132.003604,142.398475 131.765498,142.49602 131.517683,142.494736 C131.002587,142.494743 130.584273,142.078585 130.581618,141.563496 Z" id="Shape"></path>
                <path d="M55.9955561,121.568371 C71.7053598,129.407071 90.34824,128.583198 105.305331,119.389255 C120.262421,110.195312 129.415639,93.9332592 129.515275,76.3766871 C118.729273,86.0319183 107.068262,94.6625844 94.6830345,102.157081 C82.4151483,109.809814 69.4638412,116.308081 55.9955561,121.568371 Z" id="Shape"></path>
                <path d="M86.2536226,88.3670069 C99.6835027,80.3261732 112.148983,70.7747012 123.406726,59.8990445 C124.328316,58.9822796 125.148579,58.142716 125.925417,57.3369279 C123.717786,51.7246064 120.521202,46.5538549 116.487564,42.0703799 C103.789306,28.0116672 84.3504329,22.1401518 65.9926759,26.8183895 C47.6349189,31.4966273 33.3769447,45.9553498 28.9558169,64.3767172 C25.1904227,80.4107094 29.4192156,97.2755384 40.3044013,109.635952 C41.4768953,109.293372 42.630089,108.965266 43.9087348,108.55031 C58.7450978,103.454227 72.9518594,96.6827042 86.2536226,88.3670069 Z" id="Shape"></path>
                <path d="M152.89278,30.3454395 C148.043576,22.37441 135.797527,20.5360552 117.534606,25.0040777 C111.849617,26.4420871 106.256794,28.2225741 100.786759,30.3357893 C104.312178,32.0556203 107.629273,34.1731215 110.673344,36.6469918 C113.780695,35.6240752 116.830144,34.7169605 119.734841,33.9980238 C124.593028,32.7115746 129.586232,32.0038125 134.610558,31.8894646 C140.58883,31.8894646 143.889184,33.3659386 144.989302,35.1656928 C146.793881,38.1186408 145.134054,45.9159674 134.518882,58.1813166 C132.632276,60.362252 130.504416,62.5721379 128.27523,64.7964991 C116.631756,76.0484409 103.74079,85.933188 89.853131,94.2584276 C76.0981041,102.869658 61.3974152,109.868675 46.0414194,115.117241 C27.5661944,121.134114 14.9486144,121.013487 12.1259436,116.395887 C9.30327273,111.778287 14.9486144,100.473129 28.7435135,86.774731 C27.8978612,82.8768705 27.5172412,78.8925074 27.6096201,74.9050382 C5.65551348,94.7457605 -1.45182696,111.947165 4.2224652,121.225791 C7.19471348,126.084645 13.6844439,128.844589 23.1657229,128.844589 C34.4418017,128.370413 45.5471385,125.920707 55.9762558,121.606972 C69.4585045,116.344582 82.4228718,109.8414 94.7023348,102.181206 C107.09129,94.6841258 118.755561,86.0502073 129.544226,76.3911624 C133.780528,72.5902652 137.78756,68.5413422 141.544196,64.2657404 C153.83367,50.0317592 157.766109,38.3068188 152.89278,30.3454395 Z" id="Shape"></path>
            </g>
        </g>
    </g>
</svg>