<svg width="64" height="64" viewBox="0 0 64 64" fill="none" xmlns="http://www.w3.org/2000/svg">
<g clip-path="url(#clip0)">
<path d="M7.70331 18.7249C7.53666 18.7254 7.37663 18.6597 7.25842 18.5422C7.14022 18.4247 7.07352 18.2651 7.07301 18.0984C7.06018 14.1479 3.85172 10.9533 -0.098866 10.9576C-0.33063 10.9705 -0.550533 10.8542 -0.670304 10.6554C-0.790074 10.4565 -0.790074 10.2078 -0.670304 10.0089C-0.550533 9.81008 -0.33063 9.69377 -0.098866 9.70668C3.85216 9.71205 7.06124 6.51685 7.07301 2.56584C7.07301 2.21666 7.35607 1.93359 7.70525 1.93359C8.05443 1.93359 8.33749 2.21666 8.33749 2.56584C8.35034 6.51792 11.5612 9.71312 15.5133 9.70668C15.8592 9.70668 16.1397 9.98714 16.1397 10.3331C16.1397 10.6791 15.8592 10.9595 15.5133 10.9595C11.5612 10.9531 8.35034 14.1483 8.33749 18.1004C8.33647 18.2674 8.26902 18.4271 8.15003 18.5443C8.03104 18.6614 7.87031 18.7264 7.70331 18.7249Z" fill="#333333"/>
<path d="M51.9253 59.0042C51.7183 59.0042 51.5501 58.8369 51.5491 58.6299C51.5395 56.2691 49.6218 54.361 47.2611 54.3632C47.0544 54.3632 46.8868 54.1956 46.8868 53.9889C46.8868 53.7822 47.0544 53.6146 47.2611 53.6146C49.6218 53.6167 51.5395 51.7087 51.5491 49.3479C51.5491 49.1401 51.7175 48.9717 51.9253 48.9717C52.1331 48.9717 52.3016 49.1401 52.3016 49.3479C52.3112 51.7087 54.2288 53.6167 56.5896 53.6146C56.7963 53.6146 56.9639 53.7822 56.9639 53.9889C56.9639 54.1956 56.7963 54.3632 56.5896 54.3632C54.2288 54.361 52.3112 56.2691 52.3016 58.6299C52.3016 58.7295 52.2619 58.825 52.1912 58.8952C52.1206 58.9655 52.0249 59.0047 51.9253 59.0042Z" fill="#333333"/>
<path d="M21.57 50.5928C27.8844 53.7435 35.3777 53.4124 41.3896 49.717C47.4014 46.0215 51.0805 39.4852 51.1205 32.4285C46.7852 36.3093 42.0982 39.7783 37.12 42.7907C32.1891 45.8666 26.9834 48.4785 21.57 50.5928Z" fill="#333333"/>
<path d="M33.732 37.2481C39.13 34.0161 44.1404 30.177 48.6653 25.8056C49.0357 25.4372 49.3654 25.0997 49.6777 24.7758C48.7903 22.52 47.5055 20.4417 45.8842 18.6396C40.7803 12.9888 32.967 10.6288 25.5883 12.5092C18.2096 14.3896 12.4787 20.2011 10.7017 27.6054C9.18821 34.0501 10.8879 40.8288 15.2631 45.7969C15.7344 45.6592 16.1979 45.5273 16.7119 45.3605C22.6752 43.3122 28.3855 40.5905 33.732 37.2481Z" fill="#333333"/>
<path d="M60.5169 13.9268C58.5678 10.7229 53.6456 9.98403 46.305 11.7799C44.02 12.3579 41.772 13.0736 39.5734 13.9229C40.9904 14.6142 42.3237 15.4653 43.5472 16.4597C44.7962 16.0485 46.0219 15.6839 47.1894 15.3949C49.1421 14.8779 51.149 14.5934 53.1685 14.5474C55.5714 14.5474 56.898 15.1409 57.3402 15.8643C58.0655 17.0512 57.3983 20.1852 53.1317 25.1152C52.3734 25.9918 51.5181 26.88 50.6221 27.7741C45.9421 32.2967 40.7607 36.2698 35.1787 39.616C29.65 43.0772 23.7412 45.8904 17.569 48C10.1431 50.4185 5.07151 50.37 3.93697 48.514C2.80242 46.658 5.07151 42.114 10.6163 36.608C10.2764 35.0413 10.1234 33.4398 10.1605 31.8371C1.33624 39.8119 -1.52049 46.7259 0.760246 50.4553C1.95491 52.4083 4.56339 53.5176 8.3743 53.5176C12.9067 53.327 17.3703 52.3424 21.5622 50.6085C26.9813 48.4934 32.1922 45.8795 37.1278 42.8005C42.1074 39.7871 46.7958 36.3168 51.1322 32.4345C52.8349 30.9067 54.4455 29.2793 55.9554 27.5608C60.8951 21.8395 62.4757 17.1268 60.5169 13.9268Z" fill="#333333"/>
<path d="M7.70331 18.7249C7.53666 18.7254 7.37663 18.6597 7.25842 18.5422C7.14022 18.4247 7.07352 18.2651 7.07301 18.0984C7.06018 14.1479 3.85172 10.9533 -0.098866 10.9576C-0.33063 10.9705 -0.550533 10.8542 -0.670304 10.6554C-0.790074 10.4565 -0.790074 10.2078 -0.670304 10.0089C-0.550533 9.81008 -0.33063 9.69377 -0.098866 9.70668C3.85216 9.71205 7.06124 6.51685 7.07301 2.56584C7.07301 2.21666 7.35607 1.93359 7.70525 1.93359C8.05443 1.93359 8.33749 2.21666 8.33749 2.56584C8.35034 6.51792 11.5612 9.71312 15.5133 9.70668C15.8592 9.70668 16.1397 9.98714 16.1397 10.3331C16.1397 10.6791 15.8592 10.9595 15.5133 10.9595C11.5612 10.9531 8.35034 14.1483 8.33749 18.1004C8.33647 18.2674 8.26902 18.4271 8.15003 18.5443C8.03104 18.6614 7.87031 18.7264 7.70331 18.7249Z" fill="#333333"/>
<path d="M51.9253 59.0042C51.7183 59.0042 51.5501 58.8369 51.5491 58.6299C51.5395 56.2691 49.6218 54.361 47.2611 54.3632C47.0544 54.3632 46.8868 54.1956 46.8868 53.9889C46.8868 53.7822 47.0544 53.6146 47.2611 53.6146C49.6218 53.6167 51.5395 51.7087 51.5491 49.3479C51.5491 49.1401 51.7175 48.9717 51.9253 48.9717C52.1331 48.9717 52.3016 49.1401 52.3016 49.3479C52.3112 51.7087 54.2288 53.6167 56.5896 53.6146C56.7963 53.6146 56.9639 53.7822 56.9639 53.9889C56.9639 54.1956 56.7963 54.3632 56.5896 54.3632C54.2288 54.361 52.3112 56.2691 52.3016 58.6299C52.3016 58.7295 52.2619 58.825 52.1912 58.8952C52.1206 58.9655 52.0249 59.0047 51.9253 59.0042Z" fill="#333333"/>
<path opacity="0.93" d="M21.57 50.5928C27.8844 53.7435 35.3777 53.4124 41.3896 49.717C47.4014 46.0215 51.0805 39.4852 51.1205 32.4285C46.7852 36.3093 42.0982 39.7783 37.12 42.7907C32.1891 45.8666 26.9834 48.4785 21.57 50.5928Z" fill="#333333"/>
<path opacity="0.93" d="M33.732 37.2481C39.13 34.0161 44.1404 30.177 48.6653 25.8056C49.0357 25.4372 49.3654 25.0997 49.6777 24.7758C48.7903 22.52 47.5055 20.4417 45.8842 18.6396C40.7803 12.9888 32.967 10.6288 25.5883 12.5092C18.2096 14.3896 12.4787 20.2011 10.7017 27.6054C9.18821 34.0501 10.8879 40.8288 15.2631 45.7969C15.7344 45.6592 16.1979 45.5273 16.7119 45.3605C22.6752 43.3122 28.3855 40.5905 33.732 37.2481Z" fill="#333333"/>
<path d="M60.5169 13.9268C58.5678 10.7229 53.6456 9.98403 46.305 11.7799C44.02 12.3579 41.772 13.0736 39.5734 13.9229C40.9904 14.6142 42.3237 15.4653 43.5472 16.4597C44.7962 16.0485 46.0219 15.6839 47.1894 15.3949C49.1421 14.8779 51.149 14.5934 53.1685 14.5474C55.5714 14.5474 56.898 15.1409 57.3402 15.8643C58.0655 17.0512 57.3983 20.1852 53.1317 25.1152C52.3734 25.9918 51.5181 26.88 50.6221 27.7741C45.9421 32.2967 40.7607 36.2698 35.1787 39.616C29.65 43.0772 23.7412 45.8904 17.569 48C10.1431 50.4185 5.07151 50.37 3.93697 48.514C2.80242 46.658 5.07151 42.114 10.6163 36.608C10.2764 35.0413 10.1234 33.4398 10.1605 31.8371C1.33624 39.8119 -1.52049 46.7259 0.760246 50.4553C1.95491 52.4083 4.56339 53.5176 8.3743 53.5176C12.9067 53.327 17.3703 52.3424 21.5622 50.6085C26.9813 48.4934 32.1922 45.8795 37.1278 42.8005C42.1074 39.7871 46.7958 36.3168 51.1322 32.4345C52.8349 30.9067 54.4455 29.2793 55.9554 27.5608C60.8951 21.8395 62.4757 17.1268 60.5169 13.9268Z" fill="#333333"/>
</g>
<defs>
<clipPath id="clip0">
<rect width="64" height="64" fill="white"/>
</clipPath>
</defs>
</svg>
