<svg width="16" height="16" viewBox="0 0 16 16" fill="none" xmlns="http://www.w3.org/2000/svg">
<path fill-rule="evenodd" clip-rule="evenodd" d="M13.9297 7.71875C13.9297 7.76562 13.931 7.8125 13.9336 7.85938C13.9362 7.90625 13.9375 7.95312 13.9375 8C13.9375 8.04688 13.9362 8.09375 13.9336 8.14062C13.931 8.1875 13.9297 8.23438 13.9297 8.28125L15.9531 9.53906L14.7109 12.5312L12.3906 12C12.2656 12.1354 12.1354 12.2656 12 12.3906L12.5312 14.7109L9.53906 15.9531L8.28125 13.9297C8.23438 13.9297 8.1875 13.931 8.14062 13.9336C8.09375 13.9362 8.04688 13.9375 8 13.9375C7.95312 13.9375 7.90625 13.9362 7.85938 13.9336C7.8125 13.931 7.76562 13.9297 7.71875 13.9297L6.46094 15.9531L3.46875 14.7109L4 12.3906C3.86458 12.2656 3.73438 12.1354 3.60938 12L1.28906 12.5312L0.046875 9.53906L2.07031 8.28125C2.07031 8.23438 2.06901 8.1875 2.06641 8.14062C2.0638 8.09375 2.0625 8.04688 2.0625 8C2.0625 7.95312 2.0638 7.90625 2.06641 7.85938C2.06901 7.8125 2.07031 7.76562 2.07031 7.71875L0.046875 6.46094L1.28906 3.46875L3.60938 4C3.73438 3.86458 3.86458 3.73438 4 3.60938L3.46875 1.28906L6.46094 0.046875L7.71875 2.07031C7.76562 2.07031 7.8125 2.06901 7.85938 2.06641C7.90625 2.0638 7.95312 2.0625 8 2.0625C8.04688 2.0625 8.09375 2.0638 8.14062 2.06641C8.1875 2.06901 8.23438 2.07031 8.28125 2.07031L9.53906 0.046875L12.5312 1.28906L12 3.60938C12.1354 3.73438 12.2656 3.86458 12.3906 4L14.7109 3.46875L15.9531 6.46094L13.9297 7.71875ZM13.0156 8.73438C13.026 8.60937 13.0365 8.48568 13.0469 8.36328C13.0573 8.24088 13.0625 8.11719 13.0625 7.99219C13.0625 7.8724 13.0573 7.75 13.0469 7.625C13.0365 7.5 13.026 7.3776 13.0156 7.25781L14.8594 6.10938L14.1875 4.48438L12.0703 4.97656C11.9089 4.77865 11.7435 4.59635 11.5742 4.42969C11.4049 4.26302 11.2214 4.09635 11.0234 3.92969L11.5156 1.8125L9.89062 1.14062L8.73438 2.98438C8.61458 2.97396 8.49219 2.96354 8.36719 2.95312C8.24219 2.94271 8.11979 2.9375 8 2.9375C7.875 2.9375 7.7513 2.94271 7.62891 2.95312C7.50651 2.96354 7.38281 2.97396 7.25781 2.98438L6.10938 1.14062L4.48438 1.8125L4.97656 3.92969C4.77865 4.09115 4.59635 4.25651 4.42969 4.42578C4.26302 4.59505 4.09635 4.77865 3.92969 4.97656L1.8125 4.48438L1.14062 6.10938L2.98438 7.26562C2.97396 7.39063 2.96354 7.51432 2.95312 7.63672C2.94271 7.75912 2.9375 7.88281 2.9375 8.00781C2.9375 8.1276 2.94271 8.25 2.95312 8.375C2.96354 8.5 2.97396 8.6224 2.98438 8.74219L1.14062 9.89062L1.8125 11.5156L3.92969 11.0234C4.09115 11.2214 4.25651 11.4036 4.42578 11.5703C4.59505 11.737 4.77865 11.9036 4.97656 12.0703L4.48438 14.1875L6.10938 14.8594L7.26562 13.0156C7.38542 13.026 7.50781 13.0365 7.63281 13.0469C7.75781 13.0573 7.88021 13.0625 8 13.0625C8.125 13.0625 8.2487 13.0573 8.37109 13.0469C8.49349 13.0365 8.61719 13.026 8.74219 13.0156L9.89062 14.8594L11.5156 14.1875L11.0234 12.0703C11.2214 11.9089 11.4036 11.7435 11.5703 11.5742C11.737 11.4049 11.9036 11.2214 12.0703 11.0234L14.1875 11.5156L14.8594 9.89062L13.0156 8.73438ZM8 5.0625C8.40625 5.0625 8.78776 5.13932 9.14453 5.29297C9.5013 5.44662 9.8125 5.65625 10.0781 5.92188C10.3438 6.1875 10.5534 6.4987 10.707 6.85547C10.8607 7.21224 10.9375 7.59375 10.9375 8C10.9375 8.40625 10.8607 8.78776 10.707 9.14453C10.5534 9.5013 10.3438 9.8125 10.0781 10.0781C9.8125 10.3438 9.5013 10.5534 9.14453 10.707C8.78776 10.8607 8.40625 10.9375 8 10.9375C7.59375 10.9375 7.21224 10.8607 6.85547 10.707C6.4987 10.5534 6.1875 10.3438 5.92188 10.0781C5.65625 9.8125 5.44662 9.5013 5.29297 9.14453C5.13932 8.78776 5.0625 8.40625 5.0625 8C5.0625 7.59375 5.13932 7.21224 5.29297 6.85547C5.44662 6.4987 5.65625 6.1875 5.92188 5.92188C6.1875 5.65625 6.4987 5.44662 6.85547 5.29297C7.21224 5.13932 7.59375 5.0625 8 5.0625ZM8 10.0625C8.28646 10.0625 8.55469 10.0091 8.80469 9.90234C9.05469 9.79557 9.27344 9.64844 9.46094 9.46094C9.64844 9.27344 9.79557 9.05469 9.90234 8.80469C10.0091 8.55469 10.0625 8.28646 10.0625 8C10.0625 7.71354 10.0091 7.44531 9.90234 7.19531C9.79557 6.94531 9.64844 6.72656 9.46094 6.53906C9.27344 6.35156 9.05469 6.20443 8.80469 6.09766C8.55469 5.99088 8.28646 5.9375 8 5.9375C7.71354 5.9375 7.44531 5.99088 7.19531 6.09766C6.94531 6.20443 6.72656 6.35156 6.53906 6.53906C6.35156 6.72656 6.20443 6.94531 6.09766 7.19531C5.99088 7.44531 5.9375 7.71354 5.9375 8C5.9375 8.28646 5.99088 8.55469 6.09766 8.80469C6.20443 9.05469 6.35156 9.27344 6.53906 9.46094C6.72656 9.64844 6.94531 9.79557 7.19531 9.90234C7.44531 10.0091 7.71354 10.0625 8 10.0625Z" fill="black"/>
<path fill-rule="evenodd" clip-rule="evenodd" d="M13.9297 7.71875C13.9297 7.76562 13.931 7.8125 13.9336 7.85938C13.9362 7.90625 13.9375 7.95312 13.9375 8C13.9375 8.04688 13.9362 8.09375 13.9336 8.14062C13.931 8.1875 13.9297 8.23438 13.9297 8.28125L15.9531 9.53906L14.7109 12.5312L12.3906 12C12.2656 12.1354 12.1354 12.2656 12 12.3906L12.5312 14.7109L9.53906 15.9531L8.28125 13.9297C8.23438 13.9297 8.1875 13.931 8.14062 13.9336C8.09375 13.9362 8.04688 13.9375 8 13.9375C7.95312 13.9375 7.90625 13.9362 7.85938 13.9336C7.8125 13.931 7.76562 13.9297 7.71875 13.9297L6.46094 15.9531L3.46875 14.7109L4 12.3906C3.86458 12.2656 3.73438 12.1354 3.60938 12L1.28906 12.5312L0.046875 9.53906L2.07031 8.28125C2.07031 8.23438 2.06901 8.1875 2.06641 8.14062C2.0638 8.09375 2.0625 8.04688 2.0625 8C2.0625 7.95312 2.0638 7.90625 2.06641 7.85938C2.06901 7.8125 2.07031 7.76562 2.07031 7.71875L0.046875 6.46094L1.28906 3.46875L3.60938 4C3.73438 3.86458 3.86458 3.73438 4 3.60938L3.46875 1.28906L6.46094 0.046875L7.71875 2.07031C7.76562 2.07031 7.8125 2.06901 7.85938 2.06641C7.90625 2.0638 7.95312 2.0625 8 2.0625C8.04688 2.0625 8.09375 2.0638 8.14062 2.06641C8.1875 2.06901 8.23438 2.07031 8.28125 2.07031L9.53906 0.046875L12.5312 1.28906L12 3.60938C12.1354 3.73438 12.2656 3.86458 12.3906 4L14.7109 3.46875L15.9531 6.46094L13.9297 7.71875ZM13.0156 8.73438C13.026 8.60937 13.0365 8.48568 13.0469 8.36328C13.0573 8.24088 13.0625 8.11719 13.0625 7.99219C13.0625 7.8724 13.0573 7.75 13.0469 7.625C13.0365 7.5 13.026 7.3776 13.0156 7.25781L14.8594 6.10938L14.1875 4.48438L12.0703 4.97656C11.9089 4.77865 11.7435 4.59635 11.5742 4.42969C11.4049 4.26302 11.2214 4.09635 11.0234 3.92969L11.5156 1.8125L9.89062 1.14062L8.73438 2.98438C8.61458 2.97396 8.49219 2.96354 8.36719 2.95312C8.24219 2.94271 8.11979 2.9375 8 2.9375C7.875 2.9375 7.7513 2.94271 7.62891 2.95312C7.50651 2.96354 7.38281 2.97396 7.25781 2.98438L6.10938 1.14062L4.48438 1.8125L4.97656 3.92969C4.77865 4.09115 4.59635 4.25651 4.42969 4.42578C4.26302 4.59505 4.09635 4.77865 3.92969 4.97656L1.8125 4.48438L1.14062 6.10938L2.98438 7.26562C2.97396 7.39063 2.96354 7.51432 2.95312 7.63672C2.94271 7.75912 2.9375 7.88281 2.9375 8.00781C2.9375 8.1276 2.94271 8.25 2.95312 8.375C2.96354 8.5 2.97396 8.6224 2.98438 8.74219L1.14062 9.89062L1.8125 11.5156L3.92969 11.0234C4.09115 11.2214 4.25651 11.4036 4.42578 11.5703C4.59505 11.737 4.77865 11.9036 4.97656 12.0703L4.48438 14.1875L6.10938 14.8594L7.26562 13.0156C7.38542 13.026 7.50781 13.0365 7.63281 13.0469C7.75781 13.0573 7.88021 13.0625 8 13.0625C8.125 13.0625 8.2487 13.0573 8.37109 13.0469C8.49349 13.0365 8.61719 13.026 8.74219 13.0156L9.89062 14.8594L11.5156 14.1875L11.0234 12.0703C11.2214 11.9089 11.4036 11.7435 11.5703 11.5742C11.737 11.4049 11.9036 11.2214 12.0703 11.0234L14.1875 11.5156L14.8594 9.89062L13.0156 8.73438ZM8 5.0625C8.40625 5.0625 8.78776 5.13932 9.14453 5.29297C9.5013 5.44662 9.8125 5.65625 10.0781 5.92188C10.3438 6.1875 10.5534 6.4987 10.707 6.85547C10.8607 7.21224 10.9375 7.59375 10.9375 8C10.9375 8.40625 10.8607 8.78776 10.707 9.14453C10.5534 9.5013 10.3438 9.8125 10.0781 10.0781C9.8125 10.3438 9.5013 10.5534 9.14453 10.707C8.78776 10.8607 8.40625 10.9375 8 10.9375C7.59375 10.9375 7.21224 10.8607 6.85547 10.707C6.4987 10.5534 6.1875 10.3438 5.92188 10.0781C5.65625 9.8125 5.44662 9.5013 5.29297 9.14453C5.13932 8.78776 5.0625 8.40625 5.0625 8C5.0625 7.59375 5.13932 7.21224 5.29297 6.85547C5.44662 6.4987 5.65625 6.1875 5.92188 5.92188C6.1875 5.65625 6.4987 5.44662 6.85547 5.29297C7.21224 5.13932 7.59375 5.0625 8 5.0625ZM8 10.0625C8.28646 10.0625 8.55469 10.0091 8.80469 9.90234C9.05469 9.79557 9.27344 9.64844 9.46094 9.46094C9.64844 9.27344 9.79557 9.05469 9.90234 8.80469C10.0091 8.55469 10.0625 8.28646 10.0625 8C10.0625 7.71354 10.0091 7.44531 9.90234 7.19531C9.79557 6.94531 9.64844 6.72656 9.46094 6.53906C9.27344 6.35156 9.05469 6.20443 8.80469 6.09766C8.55469 5.99088 8.28646 5.9375 8 5.9375C7.71354 5.9375 7.44531 5.99088 7.19531 6.09766C6.94531 6.20443 6.72656 6.35156 6.53906 6.53906C6.35156 6.72656 6.20443 6.94531 6.09766 7.19531C5.99088 7.44531 5.9375 7.71354 5.9375 8C5.9375 8.28646 5.99088 8.55469 6.09766 8.80469C6.20443 9.05469 6.35156 9.27344 6.53906 9.46094C6.72656 9.64844 6.94531 9.79557 7.19531 9.90234C7.44531 10.0091 7.71354 10.0625 8 10.0625Z" fill="#0078D4"/>
</svg>
