<svg width="24" height="24" viewBox="0 0 24 24" fill="none" xmlns="http://www.w3.org/2000/svg">
<path d="M18 3V0H0V13.5H3V16.5H13.7115C13.647 16.251 13.5975 16.0005 13.5585 15.75C13.518 15.501 13.5 15.2505 13.5 15H4.5V4.5H19.5V9C19.749 9 19.998 9.0195 20.25 9.0585C20.499 9.0975 20.748 9.1485 21 9.2115V3H18ZM16.5 3H3V12H1.5V1.5H16.5V3Z" fill="#0078D4"/>
<path d="M23.643 13.254C23.403 12.708 23.0805 12.231 22.6755 11.8245C22.269 11.418 21.7905 11.097 21.246 10.857C20.6985 10.62 20.115 10.5 19.5 10.5C18.882 10.5 18.2985 10.62 17.754 10.857C17.2065 11.0955 16.728 11.418 16.3245 11.8245C15.918 12.231 15.5955 12.708 15.357 13.254C15.117 13.8015 15 14.3835 15 15C15 15.4695 15.0705 15.9255 15.2115 16.371C15.3525 16.8165 15.5565 17.226 15.8325 17.601C15.7065 17.727 15.489 17.9355 15.1815 18.228C14.871 18.5205 14.52 18.8595 14.127 19.242C13.731 19.626 13.3215 20.0295 12.897 20.4555C12.4695 20.8815 12.0795 21.282 11.7255 21.657C11.3685 22.032 11.0745 22.365 10.8465 22.653C10.6155 22.941 10.5 23.1405 10.5 23.25C10.5 23.454 10.5735 23.6295 10.722 23.778C10.8705 23.925 11.046 24 11.25 24C11.358 24 11.5575 23.8845 11.847 23.655C12.1335 23.4255 12.468 23.1315 12.843 22.776C13.218 22.422 13.6155 22.0305 14.043 21.6045C14.4675 21.18 14.8725 20.769 15.2565 20.3745C15.6375 19.98 15.9765 19.629 16.2705 19.32C16.563 19.0125 16.7715 18.795 16.8975 18.669C17.2725 18.9435 17.682 19.149 18.1275 19.29C18.573 19.431 19.032 19.5 19.5 19.5C20.115 19.5 20.6985 19.3815 21.246 19.143C21.7905 18.906 22.269 18.5835 22.6755 18.1755C23.0805 17.769 23.4015 17.2935 23.643 16.746C23.88 16.2 24 15.618 24 15C24 14.3835 23.88 13.8015 23.643 13.254ZM22.26 16.1655C22.0995 16.5285 21.885 16.845 21.615 17.115C21.345 17.385 21.0255 17.5995 20.6595 17.76C20.2905 17.9205 19.905 18 19.5 18C19.0845 18 18.6975 17.9205 18.3345 17.76C17.9715 17.601 17.655 17.385 17.385 17.115C17.115 16.845 16.899 16.5285 16.74 16.1655C16.5795 15.8025 16.5 15.414 16.5 15C16.5 14.5935 16.5795 14.208 16.74 13.8405C16.8975 13.473 17.115 13.155 17.385 12.885C17.655 12.615 17.9715 12.4005 18.3345 12.24C18.6975 12.081 19.0845 12 19.5 12C19.905 12 20.2905 12.081 20.6595 12.24C21.0255 12.4005 21.345 12.615 21.615 12.885C21.885 13.155 22.098 13.473 22.26 13.8405C22.4175 14.208 22.5 14.5935 22.5 15C22.5 15.414 22.4175 15.8025 22.26 16.1655Z" fill="#0078D4"/>
</svg>
