<svg width="20" height="22" viewBox="0 0 20 22" fill="none" xmlns="http://www.w3.org/2000/svg">
<path d="M0.799805 3.99971C0.799805 2.79131 1.8498 1.89371 3.0798 1.33211C4.6378 0.684806 6.313 0.367334 7.9998 0.39971C9.68664 0.367334 11.3618 0.684806 12.9198 1.33211C14.1498 1.89371 15.1998 2.79131 15.1998 3.99971V10.1304C14.827 10.1594 14.4604 10.2471 14.1138 10.3906C14.0755 10.4066 14.0375 10.423 13.9998 10.4403V6.03971C13.6631 6.28732 13.301 6.49849 12.9198 6.66971C11.3616 7.3162 9.6864 7.63285 7.9998 7.59971C6.313 7.63209 4.6378 7.31461 3.0798 6.66731C2.69864 6.49686 2.33662 6.28648 1.9998 6.03971V15.9997C1.9998 16.4485 2.427 17.0497 3.5814 17.5753C4.98209 18.1502 6.48605 18.4308 7.9998 18.3997L8.02536 18.4002C8.03904 18.4647 8.05452 18.529 8.0718 18.593L7.15982 19.5098C7.13596 19.5337 7.11282 19.5582 7.09042 19.5832C5.71356 19.507 4.35728 19.198 3.0798 18.6673C1.8498 18.1057 0.799805 17.2081 0.799805 15.9997V3.99971ZM1.9998 3.99971C1.9998 4.44851 2.427 5.04971 3.5814 5.57531C4.98209 6.15018 6.48605 6.4308 7.9998 6.39971C9.5136 6.4308 11.0176 6.15018 12.4182 5.57531C13.5726 5.04971 13.9998 4.44851 13.9998 3.99971C13.9998 3.55091 13.5726 2.94971 12.4182 2.42411C11.0176 1.84924 9.5136 1.56863 7.9998 1.59971C6.48605 1.56863 4.98209 1.84924 3.5814 2.42411C2.427 2.94971 1.9998 3.55091 1.9998 3.99971ZM19.0373 11.0246C19.15 10.9122 19.2133 10.7595 19.2134 10.6003C19.2136 10.441 19.1504 10.2883 19.0379 10.1756C18.9254 10.0629 18.7728 9.99963 18.6136 9.99952C18.4543 9.9994 18.3016 10.0626 18.1889 10.175L16.7657 11.5982C16.7506 11.6187 16.7366 11.64 16.7237 11.6618C16.2658 11.3886 15.7297 11.2755 15.2004 11.3407C14.6711 11.4058 14.1785 11.6456 13.8005 12.0218L13.0805 12.7418C12.8603 12.9626 12.7366 13.2616 12.7366 13.5734C12.7366 13.8853 12.8603 14.1843 13.0805 14.405L14.8109 16.1318C15.0317 16.3525 15.331 16.4764 15.6431 16.4764C15.9552 16.4764 16.2546 16.3525 16.4753 16.1318L17.1953 15.4118C17.5718 15.0338 17.8117 14.541 17.8769 14.0114C17.942 13.4817 17.829 12.9456 17.5553 12.4874C17.5777 12.4753 17.599 12.4612 17.6189 12.4454L19.0373 11.0246ZM12.2317 15.2498C12.1225 15.1405 11.9928 15.054 11.8501 14.9948C11.7074 14.9356 11.5546 14.9053 11.4001 14.9053C11.2457 14.9053 11.0927 14.9356 10.95 14.9948C10.8073 15.054 10.6777 15.1405 10.5685 15.2498L9.84852 15.9698C9.47196 16.3478 9.23208 16.8406 9.16692 17.3702C9.10176 17.8998 9.21492 18.436 9.48852 18.8942C9.46632 18.9066 9.44508 18.9206 9.42492 18.9362L8.00652 20.3582C7.89722 20.4714 7.83674 20.6229 7.8381 20.7802C7.83947 20.9376 7.90258 21.088 8.01384 21.1993C8.12508 21.3105 8.27556 21.3736 8.43288 21.375C8.5902 21.3763 8.74176 21.3158 8.85492 21.2066L10.2769 19.7834C10.2926 19.7631 10.3072 19.7419 10.3201 19.7198C10.778 19.993 11.3141 20.1061 11.8434 20.0409C12.3727 19.9756 12.8653 19.736 13.2433 19.3598L13.9633 18.6398C14.184 18.419 14.3078 18.1197 14.3078 17.8076C14.3078 17.4955 14.184 17.1961 13.9633 16.9754L12.2317 15.2498Z" fill="#0078D4"/>
</svg>
