<svg width="14" height="14" viewBox="0 0 14 14" fill="none" xmlns="http://www.w3.org/2000/svg">
<path d="M7 12.5C7.4834 12.5 7.95825 12.439 8.42456 12.3169C8.89087 12.1948 9.33398 12.0142 9.75391 11.7749L10.2153 12.5879C9.72217 12.8662 9.20459 13.0774 8.6626 13.2214C8.12061 13.3655 7.56641 13.4375 7 13.4375C6.32617 13.4375 5.67065 13.3362 5.03345 13.1335C4.39624 12.9309 3.80176 12.6392 3.25 12.2583V13.4375H2.3125V10.625H5.125V11.5625H3.89453C4.35352 11.8701 4.84668 12.1033 5.37402 12.262C5.90137 12.4207 6.44336 12.5 7 12.5ZM13.5625 6.875C13.5625 7.54883 13.4612 8.20435 13.2585 8.84155C13.0559 9.47876 12.7642 10.0732 12.3833 10.625H13.5625V11.5625H10.75V8.75H11.6875V9.98047C11.9951 9.52148 12.2283 9.02832 12.387 8.50098C12.5457 7.97363 12.625 7.43164 12.625 6.875C12.625 6.3916 12.564 5.91675 12.4419 5.45044C12.3198 4.98413 12.1392 4.54102 11.8999 4.12109L12.7129 3.65967C12.9912 4.15283 13.2024 4.67041 13.3464 5.2124C13.4905 5.75439 13.5625 6.30859 13.5625 6.875ZM2.3125 3.77686C2.00488 4.23584 1.77173 4.729 1.61304 5.25635C1.45435 5.78369 1.375 6.32324 1.375 6.875C1.375 7.3584 1.43603 7.83325 1.55811 8.29956C1.68018 8.76587 1.86084 9.20898 2.1001 9.62891L1.28711 10.0903C1.00879 9.59717 0.797608 9.07959 0.653565 8.5376C0.509522 7.99561 0.4375 7.44141 0.4375 6.875C0.4375 6.20117 0.538819 5.54565 0.741455 4.90845C0.944092 4.27124 1.23828 3.67676 1.62402 3.125H0.4375V2.1875H3.25V5H2.3125V3.77686ZM7 1.25C6.50684 1.25 6.02588 1.31226 5.55713 1.43677C5.08838 1.56128 4.63916 1.74805 4.20947 1.99707L3.74805 1.18408C4.24609 0.900879 4.76855 0.684815 5.31543 0.535888C5.8623 0.386963 6.42383 0.3125 7 0.3125C7.67383 0.3125 8.32935 0.413819 8.96655 0.616455C9.60376 0.819092 10.1982 1.11084 10.75 1.4917V0.3125H11.6875V3.125H8.875V2.1875H10.1055C9.64648 1.87988 9.15332 1.64673 8.62598 1.48804C8.09863 1.32935 7.55664 1.25 7 1.25Z" fill="#0078D4"/>
</svg>
