<svg width="16" height="16" viewBox="0 0 16 16" fill="none" xmlns="http://www.w3.org/2000/svg">
<g clip-path="url(#clip0)">
<path d="M12.9272 4.32313C13.7321 3.41296 13.6468 2.02257 12.7367 1.21761C11.8265 0.412658 10.4361 0.497956 9.63114 1.40813C8.82619 2.31831 8.91149 3.7087 9.82167 4.51365C10.7318 5.31861 12.1222 5.23331 12.9272 4.32313Z" fill="#0078D4"/>
<path d="M5.04388 13.9625C5.84884 13.0524 5.76354 11.662 4.85336 10.857C3.94319 10.0521 2.5528 10.1374 1.74784 11.0475C0.942889 11.9577 1.02819 13.3481 1.93836 14.1531C2.84854 14.958 4.23893 14.8727 5.04388 13.9625Z" fill="#0078D4"/>
<path d="M10.6 3.8999L4.30002 11.3999" stroke="#0078D4" stroke-miterlimit="10"/>
<path d="M14.2 11.8998H11.7V14.5998H11.4V11.8998H8.80002V11.4998H11.3V8.7998H11.6V11.4998H14.1V11.8998H14.2Z" fill="#0078D4" stroke="#0078D4" stroke-width="0.5" stroke-miterlimit="10"/>
</g>
<defs>
<clipPath id="clip0">
<rect width="16" height="16" fill="white"/>
</clipPath>
</defs>
</svg>
