<svg width="14" height="15" viewBox="0 0 14 15" fill="none" xmlns="http://www.w3.org/2000/svg">
<path d="M13 11.2308H10.6596V14H10.3404V11.2308H8V10.8846H10.3404V8H10.6596V10.7692H13V11.2308Z" fill="#CCCCCC" stroke="#CCCCCC" stroke-width="0.5"/>
<path fill-rule="evenodd" clip-rule="evenodd" d="M7 3.50043C7 4.88067 8.11952 6 9.5 6C10.8805 6 12 4.88067 12 3.50043C12 2.11933 10.8805 1 9.5 1C8.11952 1 7 2.11933 7 3.50043Z" stroke="#CCCCCC"/>
<path fill-rule="evenodd" clip-rule="evenodd" d="M2 11.5004C2 12.8807 3.11952 14 4.5 14C5.88048 14 7 12.8807 7 11.5004C7 10.1193 5.88048 9 4.5 9C3.11952 9 2 10.1193 2 11.5004Z" stroke="#CCCCCC"/>
<path fill-rule="evenodd" clip-rule="evenodd" d="M1.09217 3.21868C0.108454 3.71945 -0.283169 4.92429 0.218482 5.90812C0.720133 6.89194 1.92484 7.28268 2.90856 6.7819C3.89228 6.2802 4.28297 5.07536 3.78132 4.09247C3.2806 3.10771 2.0759 2.71697 1.09217 3.21868Z" fill="#CCCCCC"/>
<path d="M7 4L3.5 4.5" stroke="#CCCCCC"/>
<path d="M3 6L5 9" stroke="#CCCCCC"/>
</svg>
