<svg width="24" height="24" viewBox="0 0 24 24" fill="none" xmlns="http://www.w3.org/2000/svg">
<g clip-path="url(#clip0_669_8707)">
<path d="M20.7873 0H4.403C4.30483 -1.37536e-07 4.20762 0.0193565 4.11694 0.0569623C4.02626 0.0945681 3.94389 0.149685 3.87453 0.21916C3.80517 0.288634 3.75019 0.371103 3.71273 0.461847C3.67528 0.552592 3.65609 0.64983 3.65625 0.748V21.1432C3.65625 21.3414 3.73489 21.5314 3.87491 21.6716C4.01492 21.8118 4.20486 21.8907 4.403 21.891H20.7873C20.9854 21.8908 21.1754 21.8119 21.3154 21.6717C21.4554 21.5315 21.5341 21.3414 21.534 21.1432V0.748C21.534 0.549834 21.4554 0.359767 21.3154 0.219526C21.1754 0.0792842 20.9854 0.000331159 20.7873 0V0Z" fill="url(#paint0_linear_669_8707)"/>
<path d="M11.433 2.1499H2.11601C1.92247 2.1499 1.73685 2.22679 1.6 2.36364C1.46314 2.5005 1.38626 2.68611 1.38626 2.87965V22.9767C1.38543 23.0725 1.4035 23.1675 1.43941 23.2564C1.47533 23.3452 1.5284 23.4261 1.59558 23.4944C1.66277 23.5627 1.74276 23.6172 1.83098 23.6546C1.91921 23.692 2.01394 23.7116 2.10976 23.7124H18.2618C18.4553 23.7124 18.6409 23.6355 18.7778 23.4987C18.9146 23.3618 18.9915 23.1762 18.9915 22.9827V9.68015C18.9916 9.58428 18.9727 9.48933 18.9361 9.40074C18.8995 9.31214 18.8457 9.23163 18.7779 9.16382C18.7102 9.096 18.6297 9.0422 18.5411 9.0055C18.4526 8.96879 18.3576 8.9499 18.2618 8.9499H12.9033C12.7095 8.94799 12.5243 8.86969 12.3879 8.73202C12.2516 8.59435 12.1751 8.40843 12.175 8.21465V2.8879C12.1752 2.69332 12.0985 2.50655 11.9616 2.3683C11.8246 2.23006 11.6386 2.15155 11.444 2.1499H11.433Z" fill="white"/>
<path d="M11.45 2.10889H1.99675C1.79861 2.10915 1.60867 2.18805 1.46866 2.32825C1.32864 2.46845 1.25 2.65849 1.25 2.85664V23.2519C1.25 23.4501 1.32864 23.6401 1.46864 23.7804C1.60865 23.9206 1.79858 23.9996 1.99675 23.9999H18.381C18.5792 23.9996 18.7691 23.9206 18.9091 23.7804C19.0491 23.6401 19.1278 23.4501 19.1278 23.2519V9.75364C19.1278 9.55559 19.0491 9.36565 18.909 9.22561C18.769 9.08556 18.5791 9.00689 18.381 9.00689H12.9423C12.7442 9.00689 12.5543 8.92821 12.4142 8.78817C12.2742 8.64813 12.1955 8.45819 12.1955 8.26014V8.26014V2.85664C12.1949 2.65889 12.1162 2.46938 11.9766 2.32934C11.837 2.1893 11.6477 2.11007 11.45 2.10889Z" fill="url(#paint1_linear_669_8707)"/>
<path d="M18.8418 9.15547L11.9375 2.27197V7.88072C11.9355 8.21667 12.067 8.53967 12.303 8.77874C12.539 9.01782 12.8603 9.15341 13.1963 9.15572L18.8418 9.15547Z" fill="#83B9F9"/>
<path d="M12.496 10.9395H3.84072C3.64797 10.9395 3.49072 11.0362 3.49072 11.1555V11.6882C3.49072 11.8075 3.64697 11.904 3.84072 11.904H12.496C12.6887 11.904 12.846 11.8075 12.846 11.6882V11.1555C12.845 11.0362 12.6887 10.9395 12.496 10.9395Z" fill="#83B9F9"/>
<path d="M12.496 13.8333H3.84072C3.64797 13.8333 3.49072 13.9298 3.49072 14.049V14.5818C3.49072 14.701 3.64697 14.7978 3.84072 14.7978H12.496C12.6887 14.7978 12.846 14.701 12.846 14.5818V14.05C12.845 13.9298 12.6887 13.8333 12.496 13.8333Z" fill="#83B9F9"/>
<path d="M12.496 16.7271H3.84072C3.64797 16.7271 3.49072 16.8236 3.49072 16.9428V17.4751C3.49072 17.5943 3.64697 17.6911 3.84072 17.6911H12.496C12.6887 17.6911 12.846 17.5943 12.846 17.4751V16.9428C12.845 16.8236 12.6887 16.7271 12.496 16.7271Z" fill="#83B9F9"/>
<path d="M8.98195 19.6208H3.93445C3.68995 19.6208 3.4917 19.7173 3.4917 19.8366V20.3693C3.4917 20.4886 3.68995 20.5854 3.93445 20.5854H8.98195C9.22645 20.5854 9.4247 20.4886 9.4247 20.3693V19.8366C9.42495 19.7173 9.22645 19.6208 8.98195 19.6208Z" fill="#83B9F9"/>
</g>
<defs>
<linearGradient id="paint0_linear_669_8707" x1="12.595" y1="1.4615" x2="12.595" y2="23.415" gradientUnits="userSpaceOnUse">
<stop stop-color="#DCDCDC"/>
<stop offset="1" stop-color="#AAAAAA"/>
</linearGradient>
<linearGradient id="paint1_linear_669_8707" x1="10.1888" y1="3.57039" x2="10.1888" y2="25.5236" gradientUnits="userSpaceOnUse">
<stop stop-color="#0078D7"/>
<stop offset="0.327" stop-color="#0076D4"/>
<stop offset="0.576" stop-color="#0071CA"/>
<stop offset="0.799" stop-color="#0068BA"/>
<stop offset="1" stop-color="#005BA4"/>
</linearGradient>
<clipPath id="clip0_669_8707">
<rect width="24" height="24" fill="white"/>
</clipPath>
</defs>
</svg>
