<svg width="32" height="36" viewBox="0 0 32 36" fill="none" xmlns="http://www.w3.org/2000/svg">
<path d="M30.1809 0H5.6045C5.45725 -2.06304e-07 5.31144 0.0290347 5.17541 0.0854435C5.03939 0.141852 4.91583 0.224528 4.81179 0.32874C4.70775 0.432952 4.62528 0.556655 4.5691 0.692771C4.51292 0.828887 4.48413 0.974745 4.48438 1.122V31.7149C4.48438 32.0121 4.60234 32.2972 4.81236 32.5075C5.02238 32.7178 5.30729 32.8361 5.6045 32.8365H30.1809C30.4781 32.8362 30.7631 32.7179 30.9731 32.5076C31.1832 32.2972 31.3011 32.0121 31.301 31.7149V1.122C31.301 0.824752 31.1831 0.53965 30.973 0.329288C30.763 0.118926 30.4781 0.000496739 30.1809 0V0Z" fill="url(#paint0_linear_1311_8669)"/>
<path d="M16.1495 3.22485H2.17401C1.8837 3.22485 1.60528 3.34018 1.39999 3.54546C1.19471 3.75074 1.07939 4.02917 1.07939 4.31948V34.465C1.07815 34.6087 1.10524 34.7513 1.15912 34.8845C1.21299 35.0178 1.2926 35.1391 1.39338 35.2416C1.49416 35.3441 1.61414 35.4257 1.74648 35.4818C1.87881 35.5379 2.0209 35.5674 2.16464 35.5686H26.3926C26.6829 35.5686 26.9614 35.4533 27.1667 35.248C27.3719 35.0427 27.4873 34.7643 27.4873 34.474V14.5202C27.4874 14.3764 27.4591 14.234 27.4042 14.1011C27.3492 13.9682 27.2686 13.8475 27.1669 13.7457C27.0653 13.644 26.9446 13.5633 26.8117 13.5082C26.6788 13.4532 26.5364 13.4249 26.3926 13.4249H18.3549C18.0642 13.422 17.7865 13.3045 17.5819 13.098C17.3774 12.8915 17.2626 12.6126 17.2625 12.322V4.33185C17.2628 4.03998 17.1477 3.75982 16.9423 3.55245C16.7369 3.34508 16.4579 3.22733 16.166 3.22485H16.1495Z" fill="white"/>
<path d="M16.175 3.16357H1.99513C1.69791 3.16397 1.41301 3.28232 1.20299 3.49262C0.992965 3.70292 0.875 3.98799 0.875 4.2852V34.8781C0.875 35.1753 0.992953 35.4604 1.20296 35.6708C1.41297 35.8812 1.69788 35.9996 1.99513 36.0001H26.5715C26.8687 35.9996 27.1537 35.8812 27.3637 35.6708C27.5737 35.4604 27.6916 35.1753 27.6916 34.8781V14.6307C27.6916 14.3336 27.5736 14.0487 27.3635 13.8387C27.1535 13.6286 26.8686 13.5106 26.5715 13.5106H18.4134C18.1163 13.5106 17.8314 13.3926 17.6213 13.1825C17.4113 12.9724 17.2933 12.6875 17.2933 12.3905V4.2852C17.2924 3.98858 17.1744 3.70432 16.9649 3.49426C16.7555 3.2842 16.4716 3.16535 16.175 3.16357Z" fill="url(#paint1_linear_1311_8669)"/>
<path d="M27.2629 13.7335L16.9065 3.4082V11.8213C16.9035 12.3253 17.1007 12.8097 17.4548 13.1684C17.8088 13.527 18.2907 13.7304 18.7947 13.7338L27.2629 13.7335Z" fill="#83B9F9"/>
<path d="M17.744 16.4092H4.76108C4.47196 16.4092 4.23608 16.5543 4.23608 16.7332V17.5323C4.23608 17.7112 4.47046 17.8559 4.76108 17.8559H17.744C18.0331 17.8559 18.269 17.7112 18.269 17.5323V16.7332C18.2675 16.5543 18.0331 16.4092 17.744 16.4092Z" fill="#83B9F9"/>
<path d="M17.744 20.7498H4.76108C4.47196 20.7498 4.23608 20.8945 4.23608 21.0734V21.8725C4.23608 22.0514 4.47046 22.1965 4.76108 22.1965H17.744C18.0331 22.1965 18.269 22.0514 18.269 21.8725V21.0749C18.2675 20.8945 18.0331 20.7498 17.744 20.7498Z" fill="#83B9F9"/>
<path d="M17.744 25.0906H4.76108C4.47196 25.0906 4.23608 25.2353 4.23608 25.4142V26.2126C4.23608 26.3915 4.47046 26.5366 4.76108 26.5366H17.744C18.0331 26.5366 18.269 26.3915 18.269 26.2126V25.4142C18.2675 25.2353 18.0331 25.0906 17.744 25.0906Z" fill="#83B9F9"/>
<path d="M12.4729 29.4312H4.90167C4.53492 29.4312 4.23755 29.5759 4.23755 29.7548V30.5539C4.23755 30.7328 4.53492 30.8779 4.90167 30.8779H12.4729C12.8397 30.8779 13.137 30.7328 13.137 30.5539V29.7548C13.1374 29.5759 12.8397 29.4312 12.4729 29.4312Z" fill="#83B9F9"/>
<defs>
<linearGradient id="paint0_linear_1311_8669" x1="17.8925" y1="2.19225" x2="17.8925" y2="35.1225" gradientUnits="userSpaceOnUse">
<stop stop-color="#DCDCDC"/>
<stop offset="1" stop-color="#AAAAAA"/>
</linearGradient>
<linearGradient id="paint1_linear_1311_8669" x1="14.2831" y1="5.35582" x2="14.2831" y2="38.2857" gradientUnits="userSpaceOnUse">
<stop stop-color="#0078D7"/>
<stop offset="0.327" stop-color="#0076D4"/>
<stop offset="0.576" stop-color="#0071CA"/>
<stop offset="0.799" stop-color="#0068BA"/>
<stop offset="1" stop-color="#005BA4"/>
</linearGradient>
</defs>
</svg>
