<svg width="16" height="16" viewBox="0 0 16 16" fill="none" xmlns="http://www.w3.org/2000/svg">
<g clip-path="url(#clip0)">
<path d="M9.10001 15.2001H0.600006V4.1001H13.3V8.50009" stroke="#0078D4" stroke-miterlimit="10"/>
<path d="M13.4 4.1001H0.699997V6.1001H13.4V4.1001Z" fill="#0078D4"/>
<path d="M9.00001 11.7001H2.60001V0.600098H15.2V8.50009" stroke="#0078D4" stroke-miterlimit="10"/>
<path d="M15.3 0.5H2.60001V2.5H15.3V0.5Z" fill="#0078D4"/>
<path d="M4.60001 8.2002H10.9" stroke="#0078D4" stroke-miterlimit="10"/>
<path d="M14.9963 9.99988V9.87988H14.8763H11.1649H11.0449V9.99988V10.3749V10.4949H11.1649H14.8763H14.9963V10.3749V9.99988ZM15.0865 12.9331L15.1712 12.8451L15.0816 12.762L13.1023 10.9245L13.0215 10.8494L12.9399 10.9236L10.9193 12.7611L10.8279 12.8442L10.9135 12.9331L11.2022 13.2331L11.2831 13.3172L11.3694 13.2387L12.6944 12.0337V15.9999V16.1199H12.8144H13.2268H13.3468V15.9999V12.0388L14.6294 13.2376L14.7158 13.3183L14.7978 13.2331L15.0865 12.9331Z" fill="#0078D4" stroke="#0078D4" stroke-width="0.24"/>
</g>
<defs>
<clipPath id="clip0">
<rect width="16" height="16" fill="white"/>
</clipPath>
</defs>
</svg>
