<svg width="16" height="16" viewBox="0 0 16 16" fill="none" xmlns="http://www.w3.org/2000/svg">
<circle cx="8" cy="8" r="7.5" stroke="#949494"/>
<path d="M7.21875 10.7207H10.1875V12H5.5293V11.4727C5.5293 11.1146 5.58952 10.7939 5.70996 10.5107C5.8304 10.2243 5.98177 9.96875 6.16406 9.74414C6.34635 9.51628 6.54492 9.31608 6.75977 9.14355C6.97786 8.96777 7.18457 8.8099 7.37988 8.66992C7.58496 8.52344 7.764 8.38346 7.91699 8.25C8.07324 8.11654 8.20345 7.9847 8.30762 7.85449C8.41504 7.72103 8.49479 7.58757 8.54688 7.4541C8.59896 7.31738 8.625 7.17253 8.625 7.01953C8.625 6.72005 8.54036 6.49382 8.37109 6.34082C8.20182 6.18783 7.94303 6.11133 7.59473 6.11133C6.99251 6.11133 6.41634 6.35059 5.86621 6.8291V5.47168C6.47493 5.0778 7.16178 4.88086 7.92676 4.88086C8.28158 4.88086 8.59896 4.92806 8.87891 5.02246C9.16211 5.11361 9.40137 5.24544 9.59668 5.41797C9.79199 5.59049 9.9401 5.80046 10.041 6.04785C10.1452 6.29199 10.1973 6.56543 10.1973 6.86816C10.1973 7.19043 10.1468 7.47689 10.0459 7.72754C9.94824 7.97819 9.81641 8.20605 9.65039 8.41113C9.48763 8.61621 9.29883 8.80501 9.08398 8.97754C8.86914 9.14681 8.64616 9.3112 8.41504 9.4707C8.25879 9.58138 8.10742 9.69206 7.96094 9.80273C7.81771 9.91016 7.69076 10.0176 7.58008 10.125C7.4694 10.2292 7.38151 10.3317 7.31641 10.4326C7.2513 10.5335 7.21875 10.6296 7.21875 10.7207Z" fill="#949494"/>
</svg>
