<svg width="16" height="16" viewBox="0 0 16 16" fill="none" xmlns="http://www.w3.org/2000/svg">
<circle cx="8" cy="8" r="8" fill="#0078D4"/>
<path d="M5.69531 11.7705V10.4277C6.16406 10.7695 6.71094 10.9404 7.33594 10.9404C7.72982 10.9404 8.03581 10.8558 8.25391 10.6865C8.47526 10.5173 8.58594 10.2812 8.58594 9.97852C8.58594 9.66602 8.44922 9.42513 8.17578 9.25586C7.9056 9.08659 7.53288 9.00195 7.05762 9.00195H6.4082V7.82031H7.00879C7.92025 7.82031 8.37598 7.51758 8.37598 6.91211C8.37598 6.34245 8.02604 6.05762 7.32617 6.05762C6.85742 6.05762 6.40169 6.20898 5.95898 6.51172V5.25195C6.45052 5.00456 7.02344 4.88086 7.67773 4.88086C8.39388 4.88086 8.95052 5.04199 9.34766 5.36426C9.74805 5.68652 9.94824 6.10482 9.94824 6.61914C9.94824 7.53385 9.48438 8.10677 8.55664 8.33789V8.3623C9.05143 8.42415 9.44206 8.60482 9.72852 8.9043C10.015 9.20052 10.1582 9.5651 10.1582 9.99805C10.1582 10.6523 9.91895 11.1699 9.44043 11.5508C8.96191 11.9316 8.30111 12.1221 7.45801 12.1221C6.73535 12.1221 6.14779 12.0049 5.69531 11.7705Z" fill="white"/>
</svg>
