<svg width="16" height="16" viewBox="0 0 16 16" fill="none" xmlns="http://www.w3.org/2000/svg">
<circle cx="8" cy="8" r="8" fill="#0078D4"/>
<path d="M5.81738 11.8193V10.501C6.2959 10.7939 6.80534 10.9404 7.3457 10.9404C7.7526 10.9404 8.06999 10.8444 8.29785 10.6523C8.52897 10.457 8.64453 10.1934 8.64453 9.86133C8.64453 9.16797 8.15462 8.82129 7.1748 8.82129C6.81348 8.82129 6.39681 8.84896 5.9248 8.9043L6.18848 4.99805H9.89453V6.25781H7.36523L7.26758 7.65918C7.51823 7.63965 7.7347 7.62988 7.91699 7.62988C8.63639 7.62988 9.19954 7.81868 9.60645 8.19629C10.0133 8.57389 10.2168 9.08171 10.2168 9.71973C10.2168 10.4261 9.97428 11.0039 9.48926 11.4531C9.00423 11.8991 8.34668 12.1221 7.5166 12.1221C6.84277 12.1221 6.27637 12.0212 5.81738 11.8193Z" fill="white"/>
</svg>
