<svg width="16" height="16" viewBox="0 0 16 16" fill="none" xmlns="http://www.w3.org/2000/svg">
<circle cx="8" cy="8" r="7.5" stroke="#949494"/>
<path d="M9.77246 4.99805V9.41211H10.6123V10.5645H9.77246V12H8.36621V10.5645H5.31445V9.3584C5.58464 9.05566 5.86458 8.72526 6.1543 8.36719C6.44401 8.00586 6.72396 7.63477 6.99414 7.25391C7.26432 6.87305 7.51497 6.49056 7.74609 6.10645C7.98047 5.71908 8.17904 5.34961 8.3418 4.99805H9.77246ZM6.69629 9.41211H8.36621V6.96582C8.25228 7.17741 8.12858 7.39225 7.99512 7.61035C7.86165 7.8252 7.72168 8.03841 7.5752 8.25C7.42871 8.45833 7.2806 8.66178 7.13086 8.86035C6.98112 9.05566 6.83626 9.23958 6.69629 9.41211Z" fill="#949494"/>
</svg>
