<svg width="480" height="181" viewBox="0 0 480 181" fill="none" xmlns="http://www.w3.org/2000/svg">
<rect width="480" height="180" fill="#EFF6FC"/>
<path d="M225.592 95H224.607V86.5977H225.592V95ZM236.197 95H235.236V91.5547C235.236 90.8906 235.133 90.4102 234.926 90.1133C234.723 89.8164 234.379 89.668 233.895 89.668C233.484 89.668 233.135 89.8555 232.846 90.2305C232.561 90.6055 232.418 91.0547 232.418 91.5781V95H231.457V91.4375C231.457 90.2578 231.002 89.668 230.092 89.668C229.67 89.668 229.322 89.8457 229.049 90.2012C228.775 90.5527 228.639 91.0117 228.639 91.5781V95H227.678V89H228.639V89.9492H228.662C229.088 89.2227 229.709 88.8594 230.525 88.8594C230.936 88.8594 231.293 88.9746 231.598 89.2051C231.902 89.4316 232.111 89.7305 232.225 90.1016C232.67 89.2734 233.334 88.8594 234.217 88.8594C235.537 88.8594 236.197 89.6738 236.197 91.3027V95ZM242.309 95H241.348V94.0625H241.324C240.906 94.7812 240.291 95.1406 239.479 95.1406C238.881 95.1406 238.412 94.9824 238.072 94.666C237.736 94.3496 237.568 93.9297 237.568 93.4062C237.568 92.2852 238.229 91.6328 239.549 91.4492L241.348 91.1973C241.348 90.1777 240.936 89.668 240.111 89.668C239.389 89.668 238.736 89.9141 238.154 90.4062V89.4219C238.744 89.0469 239.424 88.8594 240.193 88.8594C241.604 88.8594 242.309 89.6055 242.309 91.0977V95ZM241.348 91.9648L239.9 92.1641C239.455 92.2266 239.119 92.3379 238.893 92.498C238.666 92.6543 238.553 92.9336 238.553 93.3359C238.553 93.6289 238.656 93.8691 238.863 94.0566C239.074 94.2402 239.354 94.332 239.701 94.332C240.178 94.332 240.57 94.166 240.879 93.834C241.191 93.498 241.348 93.0742 241.348 92.5625V91.9648ZM249.24 94.5195C249.24 96.7227 248.186 97.8242 246.076 97.8242C245.334 97.8242 244.686 97.6836 244.131 97.4023V96.4414C244.807 96.8164 245.451 97.0039 246.064 97.0039C247.541 97.0039 248.279 96.2188 248.279 94.6484V93.9922H248.256C247.799 94.7578 247.111 95.1406 246.193 95.1406C245.447 95.1406 244.846 94.875 244.389 94.3438C243.936 93.8086 243.709 93.0918 243.709 92.1934C243.709 91.1738 243.953 90.3633 244.441 89.7617C244.934 89.1602 245.605 88.8594 246.457 88.8594C247.266 88.8594 247.865 89.1836 248.256 89.832H248.279V89H249.24V94.5195ZM248.279 92.2871V91.4023C248.279 90.9258 248.117 90.5176 247.793 90.1777C247.473 89.8379 247.072 89.668 246.592 89.668C245.998 89.668 245.533 89.8848 245.197 90.3184C244.861 90.748 244.693 91.3516 244.693 92.1289C244.693 92.7969 244.854 93.332 245.174 93.7344C245.498 94.1328 245.926 94.332 246.457 94.332C246.996 94.332 247.434 94.1406 247.77 93.7578C248.109 93.375 248.279 92.8848 248.279 92.2871ZM256.008 92.2402H251.771C251.787 92.9082 251.967 93.4238 252.311 93.7871C252.654 94.1504 253.127 94.332 253.729 94.332C254.404 94.332 255.025 94.1094 255.592 93.6641V94.5664C255.064 94.9492 254.367 95.1406 253.5 95.1406C252.652 95.1406 251.986 94.8691 251.502 94.3262C251.018 93.7793 250.775 93.0117 250.775 92.0234C250.775 91.0898 251.039 90.3301 251.566 89.7441C252.098 89.1543 252.756 88.8594 253.541 88.8594C254.326 88.8594 254.934 89.1133 255.363 89.6211C255.793 90.1289 256.008 90.834 256.008 91.7363V92.2402ZM255.023 91.4258C255.02 90.8711 254.885 90.4395 254.619 90.1309C254.357 89.8223 253.992 89.668 253.523 89.668C253.07 89.668 252.686 89.8301 252.369 90.1543C252.053 90.4785 251.857 90.9023 251.783 91.4258H255.023Z" fill="#0078D4"/>
<circle cx="187" cy="163" r="4" fill="#B8B9BA"/>
<circle cx="223" cy="163" r="4" fill="#0078D4"/>
<circle cx="259" cy="163" r="4" fill="#B8B9BA"/>
<circle cx="295" cy="163" r="4" fill="#B8B9BA"/>
</svg>
