<svg version="1.0" xmlns="http://www.w3.org/2000/svg" width="25" height="25" viewBox="0 0 512.000000 512.000000" preserveAspectRatio="xMidYMid meet">

<g transform="translate(0.000000,512.000000) scale(0.100000,-0.100000)" fill="#000000" stroke="none">
<path d="M2340 4950 c-570 -60 -1076 -298 -1473 -694 -198 -197 -347 -408
-472 -669 -348 -725 -304 -1578 117 -2275 126 -210 343 -458 532 -612 592
-479 1363 -650 2106 -466 674 168 1255 637 1560 1260 116 238 186 461 227 726
25 161 25 520 0 680 -84 537 -308 981 -682 1355 -369 369 -829 602 -1345 680
-125 19 -450 27 -570 15z m520 -236 c805 -106 1504 -686 1764 -1465 312 -937
-38 -1952 -864 -2504 -354 -237 -762 -359 -1200 -359 -247 0 -403 23 -645 96
-471 142 -902 470 -1183 901 -170 260 -293 602 -332 922 -14 116 -14 394 0
510 89 719 528 1352 1165 1677 409 209 835 282 1295 222z"></path>
<path d="M2524 3831 c-17 -11 -36 -34 -43 -52 -8 -22 -11 -196 -11 -570 l0
-539 -586 -2 -586 -3 -29 -33 c-43 -47 -41 -102 5 -148 l34 -34 581 0 581 0 0
-557 c0 -339 4 -572 10 -594 24 -87 119 -114 182 -51 l33 32 3 585 2 585 548
0 c522 0 548 1 578 19 42 26 60 78 44 127 -7 21 -24 43 -44 55 -30 18 -56 19
-578 19 l-547 0 -3 553 c-3 508 -4 554 -21 578 -34 50 -99 63 -153 30z"></path>
</g>
</svg>