<svg width="16" height="16" viewBox="0 0 16 16" fill="none" xmlns="http://www.w3.org/2000/svg">
<path d="M2.9 10.4C2.86142 9.92426 2.92976 9.44591 3.1 9C3.2722 8.57315 3.54698 8.19534 3.9 7.9L5.6 6.1L10.6 11.1L8.8 12.8C8.50466 13.153 8.12685 13.4278 7.7 13.6C7.29358 13.7932 6.84997 13.8955 6.4 13.9L5.2 13.7L4.3 13.2L1.7 15.7L1 15L3.5 12.4C3.29618 12.1222 3.12819 11.8198 3 11.5C2.92162 11.1388 2.88804 10.7694 2.9 10.4ZM6.4 12.9L7.3 12.7C7.60584 12.5584 7.87842 12.354 8.1 12.1L9.2 11.1L5.6 7.5L4.6 8.6L4 9.4C3.9125 9.72567 3.87872 10.0634 3.9 10.4C3.88428 10.7034 3.91806 11.0074 4 11.3L4.6 12.1L5.4 12.7L6.4 12.9ZM13.2 4.3C13.4038 4.5778 13.5718 4.88018 13.7 5.2C13.8153 5.59037 13.8824 5.99335 13.9 6.4C13.8955 6.84997 13.7932 7.29358 13.6 7.7C13.4278 8.12685 13.153 8.50466 12.8 8.8L11.1 10.6L6.1 5.6L7.9 3.9C8.19534 3.54698 8.57315 3.2722 9 3.1C9.44591 2.92976 9.92426 2.86142 10.4 2.9H11.5L12.4 3.4L15 1L15.7 1.7L13.2 4.3ZM12.1 8.1C12.354 7.87842 12.5584 7.60584 12.7 7.3C12.8142 7.01258 12.8818 6.70875 12.9 6.4C12.8909 6.0577 12.8232 5.71948 12.7 5.4L12.1 4.6L11.3 4.1C11.0284 3.9405 10.7136 3.87053 10.4 3.9H9.4L8.6 4.5L7.5 5.5L11.1 9.1L12.1 8.1Z" fill="#0078D4"/>
</svg>
