<svg width="34" height="34" viewBox="0 0 34 34" fill="none" xmlns="http://www.w3.org/2000/svg">
<path d="M0.944458 10.9331H33.0556V28.836C33.0556 29.1205 32.9425 29.3934 32.7413 29.5946C32.5401 29.7958 32.2672 29.9089 31.9827 29.9089H2.01735C1.7328 29.9089 1.45991 29.7958 1.2587 29.5946C1.05749 29.3934 0.944458 29.1205 0.944458 28.836V10.9331Z" fill="url(#paint0_linear_1497_136679)"/>
<path d="M2.02301 4.09132H31.977C32.1179 4.09132 32.2574 4.11907 32.3876 4.17299C32.5178 4.22691 32.636 4.30594 32.7357 4.40557C32.8353 4.50519 32.9143 4.62347 32.9682 4.75364C33.0222 4.8838 33.0499 5.02332 33.0499 5.16421V10.9329H0.944458V5.16421C0.944456 5.02284 0.972394 4.88286 1.02667 4.75232C1.08094 4.62178 1.16047 4.50326 1.2607 4.40356C1.36093 4.30385 1.47987 4.22494 1.6107 4.17136C1.74152 4.11778 1.88164 4.09058 2.02301 4.09132Z" fill="#0078D4"/>
<path d="M5.33553 15.0706L6.03309 14.371C6.09216 14.3118 6.17235 14.2785 6.25601 14.2783C6.33967 14.2782 6.41995 14.3113 6.47919 14.3704L11.6394 19.5161C11.6982 19.5747 11.7449 19.6444 11.7769 19.7211C11.8088 19.7979 11.8252 19.8801 11.8254 19.9632C11.8255 20.0463 11.8092 20.1286 11.7775 20.2055C11.7458 20.2823 11.6993 20.3521 11.6407 20.4109L10.9444 21.1091L5.3375 15.518C5.27826 15.4589 5.24491 15.3788 5.24479 15.2951C5.24467 15.2114 5.27779 15.1312 5.33687 15.0719L5.33553 15.0706Z" fill="#F2F2F2"/>
<path d="M6.1367 25.5068L5.43717 24.8092C5.37793 24.7501 5.34459 24.67 5.34447 24.5863C5.34435 24.5026 5.37747 24.4224 5.43654 24.3631L10.9463 18.8378L11.6445 19.534C11.7633 19.6525 11.8302 19.8133 11.8305 19.9812C11.8307 20.149 11.7643 20.31 11.6457 20.4289L6.57747 25.5115C6.5184 25.5707 6.43821 25.6041 6.35455 25.6042C6.27089 25.6043 6.19061 25.5712 6.13137 25.5121L6.1367 25.5068Z" fill="#E6E6E6"/>
<path d="M22.1019 23.8755H14.1893C13.8857 23.8755 13.6396 24.1216 13.6396 24.4252V25.2355C13.6396 25.5391 13.8857 25.7852 14.1893 25.7852H22.1019C22.4054 25.7852 22.6515 25.5391 22.6515 25.2355V24.4252C22.6515 24.1216 22.4054 23.8755 22.1019 23.8755Z" fill="#F2F2F2"/>
<defs>
<linearGradient id="paint0_linear_1497_136679" x1="17" y1="29.9089" x2="17" y2="10.9331" gradientUnits="userSpaceOnUse">
<stop stop-color="#32BEDD"/>
<stop offset="0.175" stop-color="#32CAEA"/>
<stop offset="0.41" stop-color="#32D2F2"/>
<stop offset="0.775" stop-color="#32D4F5"/>
</linearGradient>
</defs>
</svg>
