<svg width="16" height="16" viewBox="0 0 16 16" fill="none" xmlns="http://www.w3.org/2000/svg">
<path d="M13.9 0.200195C14.1 0.200195 14.4 0.200195 14.6 0.300195C14.8 0.400195 15 0.500195 15.2 0.700195C15.4 0.900195 15.5 1.1002 15.6 1.3002C15.7 1.5002 15.7 1.8002 15.7 2.0002C15.7 2.2002 15.7 2.4002 15.6 2.6002C15.5 2.8002 15.5 2.9002 15.3 3.1002C15.1 3.3002 15.1 3.4002 14.9 3.5002C14.8 3.6002 14.6 3.8002 14.5 3.9002V15.2002H0.699997V1.3002H12C12.1 1.2002 12.3 1.0002 12.4 0.900195C12.5 0.800195 12.7 0.600195 12.8 0.500195C12.9 0.400195 13.1 0.300195 13.3 0.200195C13.4 0.200195 13.6 0.200195 13.9 0.200195ZM13.4 5.0002L6.4 12.0002L3 12.9002L3.8 9.5002L10.8 2.5002H1.8V14.0002H13.3V5.0002H13.4ZM13.9 1.3002C13.7 1.3002 13.6 1.4002 13.4 1.5002L4.9 10.0002L4.6 11.2002L5.8 11.0002L14.3 2.5002C14.4 2.4002 14.5 2.2002 14.5 2.0002C14.5 1.8002 14.4 1.7002 14.3 1.5002C14.2 1.3002 14 1.3002 13.9 1.3002Z" fill="#CCCCCC"/>
</svg>
