<svg width="30" height="34" viewBox="0 0 30 34" fill="none" xmlns="http://www.w3.org/2000/svg">
<path d="M12.6457 18.9089H0.67782C0.520018 18.9215 0.361625 18.8893 0.235445 18.819C0.109264 18.7487 0.0249634 18.6456 0 18.5312C0.000766863 18.4748 0.0212497 18.4196 0.0595033 18.3706L14.4179 0.229509C14.4859 0.156313 14.5784 0.0970502 14.6866 0.0573734C14.7949 0.0176966 14.9152 -0.00107025 15.0362 0.00286318H29.1877C29.3456 -0.0102086 29.5043 0.0218054 29.6306 0.0922084C29.757 0.162611 29.8411 0.26595 29.8655 0.380607C29.8655 0.463721 29.823 0.54385 29.7465 0.605364L12.8941 14.7991H29.3222C29.48 14.7865 29.6384 14.8187 29.7646 14.889C29.8907 14.9593 29.975 15.0624 30 15.1768C29.998 15.2265 29.9814 15.2752 29.9516 15.3198C29.9217 15.3645 29.8791 15.4039 29.8267 15.4356L2.51725 33.5994C2.25854 33.6957 0.447568 34.6608 1.33236 33.1952L12.6457 18.9089Z" fill="url(#paint0_radial_480_182017)"/>
<defs>
<radialGradient id="paint0_radial_480_182017" cx="0" cy="0" r="1" gradientUnits="userSpaceOnUse" gradientTransform="translate(15.0039 17.0718) scale(23.6442 13.4446)">
<stop offset="0.196" stop-color="#FFD70F"/>
<stop offset="0.438" stop-color="#FFCB12"/>
<stop offset="0.873" stop-color="#FEAC19"/>
<stop offset="1" stop-color="#FEA11B"/>
</radialGradient>
</defs>
</svg>
