<svg width="17" height="16" viewBox="0 0 17 16" fill="none" xmlns="http://www.w3.org/2000/svg">
<path d="M15.9342 7.04998C15.4095 3.21975 11.8792 0.540074 8.04894 1.06475C6.10618 1.33087 4.46008 2.36951 3.37682 3.82964L3.25046 3.99997H6.49985C6.77599 3.99997 6.99985 4.22383 6.99985 4.49997C6.99985 4.77611 6.77599 4.99997 6.49985 4.99997H2.49985C2.22371 4.99997 1.99985 4.77611 1.99985 4.49997V0.499969C1.99985 0.223826 2.22371 -3.14998e-05 2.49985 -3.14998e-05C2.77599 -3.14998e-05 2.99985 0.223826 2.99985 0.499968V2.70729C4.22416 1.31847 5.93463 0.345036 7.91322 0.0740017C12.2906 -0.525627 16.3253 2.53686 16.9249 6.91426C17.5246 11.2917 14.4621 15.3263 10.0847 15.926C5.70727 16.5256 1.67259 13.4631 1.07296 9.08571C0.998819 8.54443 0.980672 8.00788 1.01426 7.48208C1.03186 7.2065 1.26953 6.99737 1.54511 7.01497C1.82069 7.03258 2.02982 7.27025 2.01222 7.54583C1.98287 8.00544 1.99867 8.47516 2.06371 8.94999C2.58839 12.7802 6.11873 15.4599 9.94896 14.9352C13.7792 14.4105 16.4589 10.8802 15.9342 7.04998Z" fill="#424242"/>
</svg>
