<svg width="16" height="16" viewBox="0 0 16 16" fill="none" xmlns="http://www.w3.org/2000/svg">
<path d="M12.3 3.9H12.8L10.8 5.5L11.6 6.5L15.5 3.3L11.6 0L10.8 1L12.8 2.7H12.2C8.09999 2.7 6.49999 5.8 5.09999 8.3C5.09999 8.4 5.09999 8.5 4.99999 8.6C4.99999 8.7 4.89999 8.8 4.79999 9C3.39999 11.6 2.19999 12.3 0.399994 12.3V13.6C1.89999 13.6 2.69999 13.2 3.19999 12.9C4.19999 12.3 4.99999 11.2 5.89999 9.7C5.99999 9.4 6.09999 9.3 6.09999 9.2C6.19999 9.1 6.29999 9 6.29999 8.9C7.59999 6.4 8.99999 3.9 12.3 3.9Z" fill="#0078D4"/>
<path d="M11.6 9.4998L10.8 10.4998L12.8 12.0998H12.3C9.49999 12.0998 8.09999 10.2998 6.99999 8.2998L6.29999 9.5998C7.49999 11.5998 9.19999 13.2998 12.3 13.2998H12.9L10.9 14.9998L11.7 15.9998L15.6 12.6998L11.6 9.4998Z" fill="#0078D4"/>
<path d="M4.8 7C4.9 7.2 5 7.3 5 7.4C5 7.5 5.1 7.6 5.1 7.7C5.3 7.3 5.6 6.8 5.8 6.4C5.1 4.9 4.3 3.8 3.3 3.2C2.7 2.9 1.9 2.5 0.5 2.5V3.8C2.2 3.8 3.5 4.5 4.8 7Z" fill="#0078D4"/>
</svg>
