<svg width="16" height="16" viewBox="0 0 16 16" fill="none" xmlns="http://www.w3.org/2000/svg">
<path d="M12.3 3.9H12.8L10.8 5.5L11.6 6.5L15.5 3.3L11.6 0L10.8 1L12.8 2.7H12.2C8.10002 2.7 6.50002 5.8 5.10002 8.3C5.10002 8.4 5.10002 8.5 5.00002 8.6C5.00002 8.7 4.90002 8.8 4.80002 9C3.40002 11.6 2.20002 12.3 0.400024 12.3V13.6C1.90002 13.6 2.70002 13.2 3.20002 12.9C4.20002 12.3 5.00002 11.2 5.90002 9.7C6.00002 9.4 6.10002 9.3 6.10002 9.2C6.20002 9.1 6.30002 9 6.30002 8.9C7.60002 6.4 9.00003 3.9 12.3 3.9Z" fill="#CCCCCC"/>
<path d="M11.6 9.4998L10.8 10.4998L12.8 12.0998H12.3C9.50005 12.0998 8.10005 10.2998 7.00005 8.2998L6.30005 9.5998C7.50005 11.5998 9.20005 13.2998 12.3 13.2998H12.9L10.9 14.9998L11.7 15.9998L15.6 12.6998L11.6 9.4998Z" fill="#CCCCCC"/>
<path d="M4.8 7C4.9 7.2 5 7.3 5 7.4C5 7.5 5.1 7.6 5.1 7.7C5.3 7.3 5.6 6.8 5.8 6.4C5.1 4.9 4.3 3.8 3.3 3.2C2.7 2.9 1.9 2.5 0.5 2.5V3.8C2.2 3.8 3.5 4.5 4.8 7Z" fill="#CCCCCC"/>
</svg>
