<svg width="16" height="16" viewBox="0 0 16 16" fill="none" xmlns="http://www.w3.org/2000/svg">
<path d="M13.9 0.799805C14 0.799805 14.2 0.799805 14.3 0.899805C14.4 0.999805 14.6 0.999805 14.6 1.0998C14.7 1.1998 14.8 1.2998 14.8 1.3998C14.8 1.4998 14.9 1.6998 14.9 1.7998V14.7998H2.69999L0.899994 12.9998V1.7998C0.899994 1.6998 0.899994 1.4998 0.999994 1.3998C1.09999 1.2998 1.09999 1.1998 1.19999 1.0998C1.29999 0.999805 1.39999 0.999805 1.49999 0.899805C1.59999 0.799805 1.79999 0.799805 1.89999 0.799805H13.9ZM13.9 1.7998H12.9V7.7998H2.89999V1.7998H1.89999V12.5998L3.09999 13.7998H3.89999V9.7998H10.9V13.7998H13.9V1.7998ZM3.89999 6.7998H11.9V1.7998H3.89999V6.7998ZM9.89999 10.7998H4.89999V13.7998H5.89999V11.7998H6.89999V13.7998H9.89999V10.7998Z" fill="#0078D4"/>
</svg>
