<svg width="15" height="15" viewBox="0 0 15 15" fill="none" xmlns="http://www.w3.org/2000/svg">
<path d="M10.9 8.0999V10.8999H4.4V4.2999H7.2V2.8999H3.9C3.4 2.8999 3 3.3999 3 3.8999V11.3999C3 11.8999 3.4 12.2999 3.9 12.2999H11.4C11.9 12.2999 12.3 11.8999 12.3 11.3999V8.0999H10.9Z" fill="#CCCCCC"/>
<path d="M8.60001 0.600098H6.70001V2.0001H8.60001V0.600098Z" fill="#CCCCCC"/>
<path d="M5.80002 0.600098H3.90002V2.0001H5.80002V0.600098Z" fill="#CCCCCC"/>
<path d="M13.3 13.2003H12.4V14.6003H13.8C14.3 14.6003 14.7 14.2003 14.7 13.7003V12.3003H13.3V13.2003Z" fill="#CCCCCC"/>
<path d="M2.10001 9.5H0.700012V11.4H2.10001V9.5Z" fill="#CCCCCC"/>
<path d="M8.60001 13.2002H6.70001V14.6002H8.60001V13.2002Z" fill="#CCCCCC"/>
<path d="M14.7 9.5H13.3V11.4H14.7V9.5Z" fill="#CCCCCC"/>
<path d="M11.4 13.2002H9.5V14.6002H11.4V13.2002Z" fill="#CCCCCC"/>
<path d="M5.80002 13.2002H3.90002V14.6002H5.80002V13.2002Z" fill="#CCCCCC"/>
<path d="M2.10001 13.2003V12.3003H0.700012V13.7003C0.700012 14.2003 1.10001 14.6003 1.60001 14.6003H3.00001V13.2003H2.10001Z" fill="#CCCCCC"/>
<path d="M2.10001 3.8999H0.700012V5.7999H2.10001V3.8999Z" fill="#CCCCCC"/>
<path d="M2.10001 2.0001H3.00001V0.600098H1.60001C1.10001 0.600098 0.700012 1.0001 0.700012 1.5001V2.9001H2.10001V2.0001V2.0001Z" fill="#CCCCCC"/>
<path d="M2.10001 6.7002H0.700012V8.6002H2.10001V6.7002Z" fill="#CCCCCC"/>
<path d="M14.7 6.7002H13.3V8.6002H14.7V6.7002Z" fill="#CCCCCC"/>
<path d="M14.7 0.600098H10.5L12 2.2001L6.10004 8.2001L7.10004 9.2001L13.1 3.3001L14.7 4.8001V0.600098Z" fill="#CCCCCC"/>
</svg>
