<svg width="24" height="24" viewBox="0 0 24 24" fill="none" xmlns="http://www.w3.org/2000/svg">
<g clip-path="url(#clip0)">
<path d="M21.1 11.6C21.1 11.7 21.1 11.7 21.1 11.8C21.1 11.9 21.1 11.9 21.1 12C21.1 12.1 21.1 12.1 21.1 12.2C21.1 12.3 21.1 12.3 21.1 12.4L24.1 14.3L22.2 18.8L18.8 18C18.6 18.2 18.4 18.4 18.2 18.6L19 22.1L14.5 24L12.6 21C12.5 21 12.5 21 12.4 21C12.3 21 12.3 21 12.2 21C12.1 21 12.1 21 12 21C11.9 21 11.9 21 11.8 21L9.90001 24L5.40001 22.1L6.20001 18.6C6.00001 18.4 5.80001 18.2 5.60001 18L2.10001 18.8L0.200012 14.3L3.20001 12.4C3.20001 12.3 3.20001 12.3 3.20001 12.2C3.20001 12.1 3.20001 12.1 3.20001 12C3.20001 11.9 3.20001 11.9 3.20001 11.8C3.20001 11.7 3.20001 11.7 3.20001 11.6L0.200012 9.7L2.10001 5.2L5.60001 6C5.80001 5.8 6.00001 5.6 6.20001 5.4L5.40001 1.9L9.90001 0L11.8 3C11.9 3 11.9 3 12 3C12.1 3 12.1 3 12.2 3C12.3 3 12.3 3 12.4 3C12.5 3 12.5 3 12.6 3L14.5 0L19 1.9L18.2 5.4C18.4 5.6 18.6 5.8 18.8 6L22.3 5.2L24.2 9.7L21.1 11.6ZM19.7 13.1C19.7 12.9 19.7 12.7 19.7 12.5C19.7 12.3 19.7 12.1 19.7 11.9C19.7 11.7 19.7 11.5 19.7 11.3C19.7 11.1 19.7 10.9 19.7 10.7L22.5 9L21.5 6.6L18.3 7.3C18.1 7 17.8 6.7 17.6 6.5C17.4 6.3 17 6.1 16.7 5.9L17.4 2.7L15 1.7L13.3 4.5C13.1 4.5 12.9 4.5 12.7 4.5C12.5 4.5 12.3 4.5 12.1 4.5C11.9 4.5 11.7 4.5 11.5 4.5C11.3 4.5 11.1 4.5 10.9 4.5L9.40001 1.7L7.00001 2.7L7.70001 5.9C7.40001 6.1 7.10001 6.4 6.90001 6.6C6.70001 6.8 6.40001 7.2 6.10001 7.5L2.90001 6.7L1.90001 9.1L4.70001 10.8C4.70001 11 4.70001 11.2 4.70001 11.4C4.70001 11.6 4.70001 11.8 4.70001 12C4.70001 12.2 4.70001 12.4 4.70001 12.6C4.70001 12.8 4.70001 13 4.70001 13.2L1.90001 14.9L2.90001 17.3L6.10001 16.6C6.30001 16.9 6.60001 17.2 6.80001 17.4C7.00001 17.6 7.30001 17.9 7.60001 18.2L6.90001 21.4L9.30001 22.4L11 19.6C11.2 19.6 11.4 19.6 11.6 19.6C11.8 19.6 12 19.6 12.2 19.6C12.4 19.6 12.6 19.6 12.8 19.6C13 19.6 13.2 19.6 13.4 19.6L15.1 22.4L17.5 21.4L16.8 18.2C17.1 18 17.4 17.7 17.6 17.5C17.8 17.3 18.1 17 18.4 16.7L21.6 17.4L22.6 15L19.7 13.1ZM12.2 7.6C12.8 7.6 13.4 7.7 13.9 7.9C14.4 8.1 14.9 8.4 15.3 8.8C15.7 9.2 16 9.7 16.2 10.2C16.4 10.7 16.5 11.3 16.5 11.9C16.5 12.5 16.4 13.1 16.2 13.6C16 14.1 15.7 14.6 15.3 15C14.9 15.4 14.4 15.7 13.9 15.9C13.4 16.1 12.8 16.2 12.2 16.2C11.6 16.2 11 16.1 10.5 15.9C10 15.7 9.50001 15.4 9.10001 15C8.70001 14.6 8.40001 14.1 8.20001 13.6C8.00001 13.1 7.80001 12.6 7.80001 12C7.80001 11.4 7.90001 10.8 8.10001 10.3C8.30001 9.8 8.60001 9.3 9.00001 8.9C9.40001 8.5 9.90001 8.2 10.4 8C10.9 7.8 11.6 7.6 12.2 7.6ZM12.2 15.1C12.6 15.1 13 15 13.4 14.9C13.8 14.8 14.1 14.5 14.4 14.2C14.7 13.9 14.9 13.6 15.1 13.2C15.3 12.8 15.3 12.4 15.3 12C15.3 11.6 15.2 11.2 15.1 10.8C15 10.4 14.7 10.1 14.4 9.8C14.1 9.5 13.8 9.3 13.4 9.1C13 8.9 12.6 8.9 12.2 8.9C11.8 8.9 11.4 9 11 9.1C10.6 9.2 10.3 9.5 10 9.8C9.70001 10.1 9.50001 10.4 9.30001 10.8C9.10001 11.2 9.10001 11.6 9.10001 12C9.10001 12.4 9.20001 12.8 9.30001 13.2C9.40001 13.6 9.70001 13.9 10 14.2C10.3 14.5 10.6 14.7 11 14.9C11.4 15.1 11.8 15.1 12.2 15.1Z" fill="#0078D4"/>
</g>
<defs>
<clipPath id="clip0">
<rect width="24" height="24" fill="white"/>
</clipPath>
</defs>
</svg>
