<svg width="19" height="21" viewBox="0 0 19 21" fill="none" xmlns="http://www.w3.org/2000/svg">
<path d="M0 4C0 3.30945 0.3153 2.70664 0.77423 2.22025C1.2294 1.73784 1.85301 1.33745 2.56668 1.01752C3.99575 0.3769 5.91738 0 8 0C10.0826 0 12.0042 0.3769 13.4333 1.01752C14.147 1.33745 14.7706 1.73784 15.2258 2.22025C15.6847 2.70664 16 3.30945 16 4V10.2572C15.5537 9.8886 15.0482 9.589 14.5 9.3749V6.39242C14.1791 6.61282 13.8194 6.80942 13.4333 6.98248C12.0042 7.6231 10.0826 8 8 8C5.91738 8 3.99575 7.6231 2.56668 6.98248C2.18063 6.80942 1.82094 6.61282 1.5 6.39242V16C1.5 16.2069 1.59044 16.4591 1.86525 16.7503C2.14382 17.0456 2.58195 17.3455 3.18027 17.6137C4.37519 18.1494 6.0786 18.5 8 18.5C8.2396 18.5 8.4759 18.4945 8.7081 18.484C9.3109 19.0579 10.0438 19.4964 10.858 19.7507C9.9673 19.9127 9.0023 20 8 20C5.91738 20 3.99575 19.6231 2.56668 18.9825C1.85301 18.6626 1.2294 18.2622 0.77423 17.7798C0.3153 17.2934 0 16.6906 0 16V4ZM1.5 4C1.5 4.20691 1.59044 4.45909 1.86525 4.75034C2.14382 5.04559 2.58195 5.3455 3.18027 5.61372C4.37519 6.14937 6.0786 6.5 8 6.5C9.9214 6.5 11.6248 6.14937 12.8197 5.61372C13.418 5.3455 13.8562 5.04559 14.1348 4.75034C14.4096 4.45909 14.5 4.20691 14.5 4C14.5 3.79309 14.4096 3.54091 14.1348 3.24966C13.8562 2.95441 13.418 2.65449 12.8197 2.38628C11.6248 1.85063 9.9214 1.5 8 1.5C6.0786 1.5 4.37519 1.85063 3.18027 2.38628C2.58195 2.65449 2.14382 2.95441 1.86525 3.24966C1.59044 3.54091 1.5 3.79309 1.5 4ZM12.5 19C13.4719 19 14.3718 18.6919 15.1074 18.1681L17.7197 20.7803C18.0126 21.0732 18.4874 21.0732 18.7803 20.7803C19.0732 20.4874 19.0732 20.0126 18.7803 19.7197L16.1681 17.1074C16.6919 16.3718 17 15.4719 17 14.5C17 12.0147 14.9853 10 12.5 10C10.0147 10 8 12.0147 8 14.5C8 16.9853 10.0147 19 12.5 19ZM12.5 17.5C10.8431 17.5 9.5 16.1569 9.5 14.5C9.5 12.8431 10.8431 11.5 12.5 11.5C14.1569 11.5 15.5 12.8431 15.5 14.5C15.5 16.1569 14.1569 17.5 12.5 17.5Z" fill="#0078D4"/>
</svg>
