<svg width="14" height="13" viewBox="0 0 14 13" fill="none" xmlns="http://www.w3.org/2000/svg">
<path d="M3 0C1.61929 0 0.5 1.11929 0.5 2.5V9.5C0.5 10.8807 1.61929 12 3 12H4.75716C4.50353 11.6929 4.28261 11.3578 4.09971 11H3C2.17157 11 1.5 10.3284 1.5 9.5V2.5C1.5 1.67157 2.17157 1 3 1H10C10.8284 1 11.5 1.67157 11.5 2.5V3.59971C11.8578 3.78261 12.1929 4.00353 12.5 4.25716V2.5C12.5 1.11929 11.3807 0 10 0H3ZM9 13C11.4853 13 13.5 10.9853 13.5 8.5C13.5 6.01472 11.4853 4 9 4C6.51472 4 4.5 6.01472 4.5 8.5C4.5 10.9853 6.51472 13 9 13ZM10.8536 6.64645C11.0488 6.84171 11.0488 7.15829 10.8536 7.35355L9.70711 8.5L10.8536 9.64645C11.0488 9.84171 11.0488 10.1583 10.8536 10.3536C10.6583 10.5488 10.3417 10.5488 10.1464 10.3536L9 9.20711L7.85355 10.3536C7.65829 10.5488 7.34171 10.5488 7.14645 10.3536C6.95118 10.1583 6.95118 9.84171 7.14645 9.64645L8.29289 8.5L7.14645 7.35355C6.95118 7.15829 6.95118 6.84171 7.14645 6.64645C7.34171 6.45118 7.65829 6.45118 7.85355 6.64645L9 7.79289L10.1464 6.64645C10.3417 6.45118 10.6583 6.45118 10.8536 6.64645Z" fill="#0078D4"/>
</svg>
