<svg width="16" height="16" viewBox="0 0 16 16" fill="none" xmlns="http://www.w3.org/2000/svg">
<path d="M8 0.5C8.7 0.5 9.4 0.6 10 0.8C10.6 1 11.2 1.2 11.8 1.6C12.4 2 12.9 2.3 13.3 2.8C13.8 3.3 14.1 3.8 14.5 4.3C14.8 4.7 15 5.3 15.2 6C15.4 6.6 15.5 7.3 15.5 8C15.5 8.7 15.4 9.4 15.2 10C15 10.6 14.8 11.2 14.4 11.8C14.1 12.4 13.7 12.9 13.2 13.3C12.7 13.8 12.2 14.1 11.7 14.5C11.1 14.8 10.5 15.1 9.9 15.3C9.3 15.5 8.6 15.6 7.9 15.6C7.6 15.6 7.4 15.6 7.2 15.4C7 15.3 6.8 15.2 6.6 15C6.4 14.8 6.3 14.6 6.2 14.4C6.1 14.2 6.1 13.9 6.1 13.7C6.1 13.5 6.1 13.3 6.2 13.1C6.2 12.9 6.3 12.8 6.4 12.6C6.5 12.4 6.5 12.3 6.6 12.2C6.7 12.1 6.8 11.9 6.8 11.8C6.9 11.7 6.9 11.5 7 11.4C7 11.1 7 11 7 10.8C7 10.5 6.9 10.3 6.8 10.1C6.7 9.9 6.6 9.6 6.5 9.5C6.3 9.3 6.1 9.2 5.9 9.1C5.6 9 5.4 8.9 5.1 8.9C5 8.9 4.8 8.9 4.6 9C4.4 9.1 4.4 9.1 4.2 9.2C4 9.3 4 9.3 3.8 9.4C3.6 9.5 3.6 9.5 3.4 9.6C3.2 9.7 3.1 9.7 2.9 9.8C2.7 9.8 2.5 9.9 2.3 9.9C2 9.9 1.8 9.9 1.6 9.7C1.4 9.6 1.2 9.5 1 9.3C0.8 9.1 0.7 8.9 0.6 8.7C0.5 8.5 0.5 8.2 0.5 8C0.5 7.3 0.6 6.6 0.8 6C1 5.4 1.2 4.8 1.6 4.2C2 3.6 2.3 3.1 2.8 2.7C3.3 2.3 3.8 1.9 4.3 1.5C4.8 1.1 5.3 0.9 6 0.7C6.7 0.5 7.3 0.5 8 0.5ZM8 14.5C8.6 14.5 9.2 14.4 9.7 14.3C10.3 14.1 10.8 13.9 11.3 13.6C11.8 13.3 12.2 13 12.6 12.6C13 12.2 13.3 11.8 13.6 11.3C13.9 10.8 14.1 10.3 14.3 9.7C14.5 9.1 14.5 8.6 14.5 8C14.5 7.4 14.4 6.8 14.3 6.3C14.2 5.8 13.9 5.2 13.6 4.7C13.3 4.2 13 3.8 12.6 3.4C12.2 3 11.8 2.7 11.3 2.4C10.8 2.1 10.3 1.9 9.7 1.7C9.1 1.5 8.6 1.4 8 1.4C7.4 1.4 6.8 1.5 6.2 1.6C5.7 1.8 5.1 2 4.6 2.3C4.1 2.6 3.7 2.9 3.3 3.3C2.9 3.7 2.6 4.1 2.3 4.6C2 5.1 1.8 5.6 1.6 6.2C1.4 6.8 1.4 7.4 1.4 8C1.4 8.1 1.4 8.3 1.5 8.4C1.6 8.5 1.6 8.6 1.7 8.7C1.8 8.8 1.8 8.8 2 8.8C2.2 8.8 2.2 8.9 2.4 8.9C2.6 8.9 2.8 8.9 2.9 8.8C3 8.7 3.2 8.7 3.3 8.6C3.4 8.5 3.6 8.5 3.7 8.4C3.8 8.3 3.9 8.3 4 8.2C4.1 8.1 4.3 8.1 4.5 8C4.7 7.9 4.9 8 5.1 8C5.5 8 5.9 8 6.2 8.2C6.5 8.4 6.8 8.5 7.1 8.8C7.4 9.1 7.6 9.4 7.7 9.7C7.8 10 8 10.4 8 10.8C8 11 8 11.3 7.9 11.4C7.9 11.6 7.8 11.7 7.7 11.9C7.6 12 7.6 12.2 7.5 12.3C7.4 12.4 7.3 12.6 7.3 12.7C7.2 12.8 7.2 13 7.1 13.1C7 13.3 7 13.4 7 13.6C7 13.7 7 13.9 7.1 14C7.2 14.1 7.2 14.2 7.3 14.3C7.4 14.4 7.5 14.5 7.6 14.5C7.7 14.5 7.8 14.5 8 14.5ZM4.2 5.2C4.3 5.2 4.5 5.2 4.6 5.3C4.7 5.4 4.8 5.4 4.9 5.5C5 5.6 5 5.6 5.1 5.7C5.2 5.8 5.1 6 5.1 6.1C5.1 6.2 5.1 6.4 5 6.5C4.9 6.6 4.9 6.7 4.9 6.8C4.9 6.9 4.7 6.9 4.6 7C4.5 7.1 4.3 7 4.2 7C4.1 7 3.9 7 3.8 7C3.7 7 3.6 6.9 3.5 6.8C3.4 6.7 3.4 6.6 3.3 6.5C3.2 6.4 3.3 6.2 3.3 6.1C3.3 6 3.3 5.8 3.4 5.7C3.5 5.6 3.5 5.5 3.6 5.4C3.7 5.3 3.8 5.2 3.9 5.2C4 5.2 4.1 5.2 4.2 5.2ZM7 3.3C7.1 3.3 7.3 3.3 7.4 3.4C7.5 3.4 7.6 3.5 7.7 3.6C7.8 3.7 7.9 3.8 7.9 3.9C7.9 4 8 4.1 8 4.2C8 4.3 8 4.5 7.9 4.6C7.8 4.7 7.8 4.8 7.7 4.9C7.6 5 7.5 5 7.4 5.1C7.3 5.2 7.1 5.2 7 5.2C6.9 5.2 6.7 5.2 6.6 5.1C6.5 5 6.4 5 6.3 4.9C6.2 4.8 6.2 4.7 6.1 4.6C6 4.5 6.1 4.4 6.1 4.2C6.1 4 6.1 3.9 6.2 3.8C6.3 3.7 6.3 3.6 6.4 3.5C6.5 3.4 6.6 3.3 6.7 3.3C6.8 3.3 6.9 3.3 7 3.3ZM9.8 10.8C9.9 10.8 10.1 10.8 10.2 10.9C10.3 11 10.4 11 10.5 11.1C10.6 11.2 10.7 11.3 10.7 11.4C10.7 11.5 10.8 11.6 10.8 11.8C10.8 12 10.8 12.1 10.7 12.2C10.6 12.3 10.6 12.4 10.5 12.5C10.4 12.6 10.3 12.7 10.2 12.7C10.1 12.7 10 12.8 9.8 12.8C9.6 12.8 9.5 12.8 9.4 12.7C9.3 12.6 9.2 12.6 9.1 12.5C9.1 12.3 9 12.2 9 12.1C9 12 8.9 11.9 8.9 11.7C8.9 11.5 8.9 11.4 9 11.3C9.1 11.2 9.1 11.1 9.2 11C9.3 10.9 9.4 10.8 9.5 10.8C9.6 10.8 9.7 10.8 9.8 10.8ZM10.8 6.1C10.7 6.1 10.5 6.1 10.4 6C10.3 5.9 10.2 5.9 10.1 5.8C10 5.7 9.9 5.6 9.9 5.5C9.9 5.4 9.8 5.3 9.8 5.2C9.8 5.1 9.8 4.9 9.9 4.8C10 4.7 10 4.6 10.1 4.5C10.2 4.4 10.3 4.3 10.4 4.3C10.5 4.3 10.6 4.2 10.8 4.2C11 4.2 11.1 4.2 11.2 4.3C11.3 4.4 11.4 4.4 11.5 4.5C11.6 4.6 11.7 4.7 11.7 4.8C11.7 4.9 11.8 5 11.8 5.2C11.8 5.4 11.8 5.5 11.7 5.6C11.6 5.7 11.6 5.8 11.5 5.9C11.3 5.9 11.2 6 11.1 6C11 6 10.9 6.1 10.8 6.1ZM11.7 8C11.8 8 12 8 12.1 8C12.2 8 12.3 8.1 12.4 8.2C12.5 8.3 12.6 8.4 12.6 8.5C12.6 8.6 12.7 8.7 12.7 8.9C12.7 9.1 12.7 9.2 12.6 9.3C12.5 9.4 12.5 9.5 12.4 9.6C12.3 9.7 12.2 9.8 12.1 9.8C12 9.8 11.9 9.9 11.7 9.9C11.5 9.9 11.4 9.9 11.3 9.8C11.2 9.7 11.1 9.7 11 9.6C10.9 9.5 10.8 9.4 10.8 9.3C10.8 9.2 10.8 9 10.8 8.9C10.8 8.8 10.8 8.6 10.9 8.5C11 8.4 11 8.3 11 8.3C11.1 8.2 11.2 8.1 11.3 8.1C11.4 8.1 11.6 8 11.7 8Z" fill="#0078D4"/>
</svg>
