<svg width="14" height="14" viewBox="0 0 14 14" fill="none" xmlns="http://www.w3.org/2000/svg">
<path d="M7 14C10.866 14 14 10.866 14 7C14 3.13401 10.866 0 7 0C3.13401 0 0 3.13401 0 7C0 10.866 3.13401 14 7 14Z" fill="#57A300"/>
<path d="M3.10891 7.25414C3.04416 7.18502 3.01091 7.09402 3.01441 6.99952C3.01791 6.90414 3.05816 6.81664 3.12816 6.75102L3.85879 6.07552C3.92529 6.01514 4.01016 5.98189 4.09854 5.98189C4.19654 5.98189 4.29104 6.02302 4.35754 6.09477L6.22654 8.10027L9.55766 3.83464C9.62504 3.74802 9.72653 3.69727 9.83678 3.69727C9.91553 3.69727 9.98991 3.72264 10.0529 3.77077L10.8457 4.38239C10.997 4.49439 11.0294 4.71227 10.9157 4.86714L6.65616 10.321C6.49079 10.5328 6.17491 10.5468 5.99116 10.3499L3.10891 7.25414Z" fill="white"/>
</svg>
