<svg width="15" height="15" viewBox="0 0 15 15" fill="none" xmlns="http://www.w3.org/2000/svg">
<path d="M6 2C6 1.44772 6.44772 1 7 1C7.55228 1 8 1.44772 8 2C8 2.55228 7.55228 3 7 3C6.44772 3 6 2.55228 6 2Z" fill="#0078D4"/>
<path d="M6 13C6 12.4477 6.44772 12 7 12C7.55228 12 8 12.4477 8 13C8 13.5523 7.55228 14 7 14C6.44772 14 6 13.5523 6 13Z" fill="#0078D4"/>
<path d="M1 7C1 6.44772 1.44772 6 2 6C2.55228 6 3 6.44772 3 7C3 7.55228 2.55228 8 2 8C1.44772 8 1 7.55228 1 7Z" fill="#0078D4"/>
<path d="M12 7C12 6.44772 12.4477 6 13 6C13.5523 6 14 6.44772 14 7C14 7.55228 13.5523 8 13 8C12.4477 8 12 7.55228 12 7Z" fill="#0078D4"/>
<path d="M2.63604 3.63604C3.02656 3.24551 3.65973 3.24551 4.05025 3.63604C4.44078 4.02656 4.44078 4.65973 4.05025 5.05025C3.65973 5.44078 3.02656 5.44078 2.63604 5.05025C2.24551 4.65973 2.24551 4.02656 2.63604 3.63604Z" fill="#0078D4"/>
<path d="M10.9497 9.94975C11.3403 9.55922 11.9734 9.55922 12.364 9.94975C12.7545 10.3403 12.7545 10.9734 12.364 11.364C11.9734 11.7545 11.3403 11.7545 10.9497 11.364C10.5592 10.9734 10.5592 10.3403 10.9497 9.94975Z" fill="#0078D4"/>
<path d="M10.9497 5.05025C10.5592 4.65973 10.5592 4.02656 10.9497 3.63604C11.3403 3.24551 11.9734 3.24551 12.364 3.63604C12.7545 4.02656 12.7545 4.65973 12.364 5.05025C11.9734 5.44078 11.3403 5.44078 10.9497 5.05025Z" fill="#0078D4"/>
<path d="M2.63604 11.364C2.24551 10.9734 2.24551 10.3403 2.63604 9.94975C3.02656 9.55922 3.65973 9.55922 4.05025 9.94975C4.44078 10.3403 4.44078 10.9734 4.05025 11.364C3.65973 11.7545 3.02656 11.7545 2.63604 11.364Z" fill="#0078D4"/>
<circle cx="7.5" cy="7.5" r="2.5" fill="#0078D4"/>
</svg>