<svg width="16" height="16" viewBox="0 0 16 16" fill="none" xmlns="http://www.w3.org/2000/svg">
  <path d="M8 1.33C8.276 1.33 8.5 1.554 8.5 1.83V2.83C8.5 3.106 8.276 3.33 8 3.33C7.724 3.33 7.5 3.106 7.5 2.83V1.83C7.5 1.554 7.724 1.33 8 1.33ZM8 11.33C9.841 11.33 11.33 9.841 11.33 8C11.33 6.159 9.841 4.67 8 4.67C6.159 4.67 4.67 6.159 4.67 8C4.67 9.841 6.159 11.33 8 11.33ZM8 10.33C6.711 10.33 5.67 9.289 5.67 8C5.67 6.711 6.711 5.67 8 5.67C9.289 5.67 10.33 6.711 10.33 8C10.33 9.289 9.289 10.33 8 10.33ZM14.17 8.5C14.446 8.5 14.67 8.276 14.67 8C14.67 7.724 14.446 7.5 14.17 7.5H13.17C12.894 7.5 12.67 7.724 12.67 8C12.67 8.276 12.894 8.5 13.17 8.5H14.17ZM8 12.67C8.276 12.67 8.5 12.894 8.5 13.17V14.17C8.5 14.446 8.276 14.67 8 14.67C7.724 14.67 7.5 14.446 7.5 14.17V13.17C7.5 12.894 7.724 12.67 8 12.67ZM2.83 8.5C3.106 8.5 3.33 8.276 3.33 8C3.33 7.724 3.106 7.5 2.83 7.5H1.83C1.554 7.5 1.33 7.724 1.33 8C1.33 8.276 1.554 8.5 1.83 8.5H2.83ZM2.813 2.813C3.009 2.617 3.325 2.617 3.521 2.813L4.521 3.813C4.717 4.009 4.717 4.325 4.521 4.521C4.325 4.717 4.009 4.717 3.813 4.521L2.813 3.521C2.617 3.325 2.617 3.009 2.813 2.813ZM3.521 13.187C3.325 13.383 3.009 13.383 2.813 13.187C2.617 12.991 2.617 12.675 2.813 12.479L3.813 11.479C4.009 11.283 4.325 11.283 4.521 11.479C4.717 11.675 4.717 11.991 4.521 12.187L3.521 13.187ZM13.187 2.813C12.991 2.617 12.675 2.617 12.479 2.813L11.479 3.813C11.283 4.009 11.283 4.325 11.479 4.521C11.675 4.717 11.991 4.717 12.187 4.521L13.187 3.521C13.383 3.325 13.383 3.009 13.187 2.813ZM12.479 13.187C12.675 13.383 12.991 13.383 13.187 13.187C13.383 12.991 13.383 12.675 13.187 12.479L12.187 11.479C11.991 11.283 11.675 11.283 11.479 11.479C11.283 11.675 11.283 11.991 11.479 12.187L12.479 13.187Z" fill="#0078d4" />
</svg>