<svg width="40" height="40" viewBox="0 0 40 40" fill="none" xmlns="http://www.w3.org/2000/svg">
<path d="M1.11108 12.8623H38.8889V33.9245C38.8889 34.2593 38.7559 34.5803 38.5192 34.8171C38.2825 35.0538 37.9614 35.1867 37.6266 35.1867H2.37331C2.03854 35.1867 1.71749 35.0538 1.48078 34.8171C1.24407 34.5803 1.11108 34.2593 1.11108 33.9245V12.8623Z" fill="url(#paint0_linear_307_12833)"/>
<path d="M2.37997 4.81349H37.62C37.7857 4.81349 37.9499 4.84614 38.103 4.90958C38.2561 4.97301 38.3953 5.06598 38.5125 5.18319C38.6297 5.3004 38.7227 5.43955 38.7861 5.59269C38.8495 5.74582 38.8822 5.90996 38.8822 6.07572V12.8624H1.11108V6.07572C1.11108 5.9094 1.14395 5.74472 1.2078 5.59114C1.27165 5.43756 1.36522 5.29812 1.48313 5.18083C1.60105 5.06353 1.74098 4.97069 1.89489 4.90766C2.0488 4.84462 2.21366 4.81262 2.37997 4.81349V4.81349Z" fill="#0078D4"/>
<path opacity="0.9" d="M12.6021 15.8242H5.74876C5.40144 15.8242 5.11987 16.1058 5.11987 16.4531V19.3064C5.11987 19.6538 5.40144 19.9353 5.74876 19.9353H12.6021C12.9494 19.9353 13.231 19.6538 13.231 19.3064V16.4531C13.231 16.1058 12.9494 15.8242 12.6021 15.8242Z" fill="white"/>
<path opacity="0.9" d="M23.4821 15.7666H16.6288C16.2814 15.7666 15.9999 16.0482 15.9999 16.3955V19.2488C15.9999 19.5961 16.2814 19.8777 16.6288 19.8777H23.4821C23.8294 19.8777 24.111 19.5961 24.111 19.2488V16.3955C24.111 16.0482 23.8294 15.7666 23.4821 15.7666Z" fill="white"/>
<path opacity="0.9" d="M34.3621 15.7666H27.5088C27.1614 15.7666 26.8799 16.0482 26.8799 16.3955V19.2488C26.8799 19.5961 27.1614 19.8777 27.5088 19.8777H34.3621C34.7094 19.8777 34.991 19.5961 34.991 19.2488V16.3955C34.991 16.0482 34.7094 15.7666 34.3621 15.7666Z" fill="white"/>
<path opacity="0.9" d="M12.7221 21.7051H5.86876C5.52143 21.7051 5.23987 21.9866 5.23987 22.334V25.1873C5.23987 25.5346 5.52143 25.8162 5.86876 25.8162H12.7221C13.0694 25.8162 13.351 25.5346 13.351 25.1873V22.334C13.351 21.9866 13.0694 21.7051 12.7221 21.7051Z" fill="white"/>
<path d="M23.6021 21.6465H16.7488C16.4014 21.6465 16.1199 21.928 16.1199 22.2754V25.1287C16.1199 25.476 16.4014 25.7576 16.7488 25.7576H23.6021C23.9494 25.7576 24.231 25.476 24.231 25.1287V22.2754C24.231 21.928 23.9494 21.6465 23.6021 21.6465Z" fill="#ECF4FD"/>
<path d="M34.4821 21.6465H27.6288C27.2814 21.6465 26.9999 21.928 26.9999 22.2754V25.1287C26.9999 25.476 27.2814 25.7576 27.6288 25.7576H34.4821C34.8294 25.7576 35.111 25.476 35.111 25.1287V22.2754C35.111 21.928 34.8294 21.6465 34.4821 21.6465Z" fill="#ECF4FD"/>
<path d="M12.7221 27.6426H5.86876C5.52143 27.6426 5.23987 27.9241 5.23987 28.2715V31.1248C5.23987 31.4721 5.52143 31.7537 5.86876 31.7537H12.7221C13.0694 31.7537 13.351 31.4721 13.351 31.1248V28.2715C13.351 27.9241 13.0694 27.6426 12.7221 27.6426Z" fill="#ECF4FD"/>
<path d="M23.6021 27.585H16.7488C16.4014 27.585 16.1199 27.8665 16.1199 28.2139V31.0672C16.1199 31.4145 16.4014 31.6961 16.7488 31.6961H23.6021C23.9494 31.6961 24.231 31.4145 24.231 31.0672V28.2139C24.231 27.8665 23.9494 27.585 23.6021 27.585Z" fill="#ECF4FD"/>
<path d="M34.4821 27.585H27.6288C27.2814 27.585 26.9999 27.8665 26.9999 28.2139V31.0672C26.9999 31.4145 27.2814 31.6961 27.6288 31.6961H34.4821C34.8294 31.6961 35.111 31.4145 35.111 31.0672V28.2139C35.111 27.8665 34.8294 27.585 34.4821 27.585Z" fill="#ECF4FD"/>
<defs>
<linearGradient id="paint0_linear_307_12833" x1="20" y1="35.1867" x2="20" y2="12.8623" gradientUnits="userSpaceOnUse">
<stop stop-color="#0078D4"/>
<stop offset="0.502" stop-color="#4093E6"/>
<stop offset="0.775" stop-color="#5EA0EF"/>
</linearGradient>
</defs>
</svg>
