<svg width="16" height="16" viewBox="0 0 16 16" fill="none" xmlns="http://www.w3.org/2000/svg">
<path d="M14.664 3.05C13.626 3.05 12.781 2.206 12.781 1.168C12.781 0.995004 12.641 0.854004 12.468 0.854004C12.295 0.854004 12.153 0.995004 12.153 1.168C12.153 2.206 11.31 3.05 10.27 3.05C10.097 3.05 9.95697 3.191 9.95697 3.364C9.95697 3.537 10.098 3.678 10.27 3.678C11.31 3.678 12.153 4.522 12.153 5.56C12.153 5.733 12.295 5.874 12.468 5.874C12.641 5.874 12.781 5.733 12.781 5.56C12.781 4.522 13.626 3.678 14.664 3.678C14.837 3.678 14.977 3.537 14.977 3.364C14.977 3.191 14.837 3.05 14.664 3.05Z" fill="#B9D432"/>
<path d="M14.285 13.2252C14.9306 13.2252 15.454 12.7018 15.454 12.0562C15.454 11.4106 14.9306 10.8872 14.285 10.8872C13.6394 10.8872 13.116 11.4106 13.116 12.0562C13.116 12.7018 13.6394 13.2252 14.285 13.2252Z" fill="#2B3681"/>
<path d="M14.284 12.3712C14.231 12.3712 14.177 12.3572 14.128 12.3292C13.978 12.2412 13.925 12.0502 14.013 11.8992C14.896 10.3702 15.161 8.5812 14.765 6.8622C14.726 6.6932 14.831 6.5242 14.999 6.4842C15.169 6.4452 15.339 6.5502 15.378 6.7202C15.812 8.5952 15.521 10.5452 14.558 12.2132C14.499 12.3142 14.394 12.3712 14.284 12.3712Z" fill="#2B3681"/>
<path d="M7.99902 2.338C8.64464 2.338 9.16802 1.81462 9.16802 1.169C9.16802 0.523379 8.64464 0 7.99902 0C7.3534 0 6.83002 0.523379 6.83002 1.169C6.83002 1.81462 7.3534 2.338 7.99902 2.338Z" fill="#2B3681"/>
<path d="M0.776002 9.466C0.616002 9.466 0.479002 9.345 0.464002 9.183C0.439002 8.933 0.427002 8.68 0.427002 8.427C0.427002 4.252 3.823 0.854004 7.999 0.854004C8.173 0.854004 8.313 0.995004 8.313 1.168C8.313 1.341 8.173 1.483 7.999 1.483C4.171 1.483 1.056 4.598 1.056 8.426C1.056 8.657 1.068 8.891 1.09 9.119C1.107 9.293 0.982002 9.446 0.808002 9.464C0.798002 9.466 0.786002 9.466 0.776002 9.466Z" fill="#2B3681"/>
<path d="M1.71402 13.2242C2.35909 13.2242 2.88202 12.7013 2.88202 12.0562C2.88202 11.4111 2.35909 10.8882 1.71402 10.8882C1.06895 10.8882 0.546021 11.4111 0.546021 12.0562C0.546021 12.7013 1.06895 13.2242 1.71402 13.2242Z" fill="#2B3681"/>
<path d="M7.99897 16.0002C5.13797 16.0002 2.55197 14.4162 1.24997 11.8662C1.17097 11.7102 1.23197 11.5202 1.38797 11.4422C1.54197 11.3622 1.73197 11.4242 1.81197 11.5792C3.00497 13.9182 5.37597 15.3702 7.99997 15.3702C9.54097 15.3702 11.002 14.8762 12.221 13.9402C12.36 13.8352 12.557 13.8602 12.662 13.9992C12.769 14.1362 12.742 14.3342 12.605 14.4402C11.272 15.4602 9.68097 16.0002 7.99897 16.0002Z" fill="#2B3681"/>
<path d="M6.24801 9.67816C7.49563 9.67816 8.50701 8.66677 8.50701 7.41916C8.50701 6.17155 7.49563 5.16016 6.24801 5.16016C5.0004 5.16016 3.98901 6.17155 3.98901 7.41916C3.98901 8.66677 5.0004 9.67816 6.24801 9.67816Z" fill="#59B3D9"/>
<path d="M7.68898 5.68018C7.69098 5.72618 7.69198 5.77218 7.69198 5.81918C7.69198 7.48218 6.59598 8.88818 5.08698 9.35718C5.42698 9.56018 5.82298 9.67818 6.24798 9.67818C7.49498 9.67718 8.50698 8.66618 8.50698 7.41918C8.50698 6.71918 8.18798 6.09418 7.68898 5.68018Z" fill="#3898C5"/>
<path d="M9.79598 12.3272C10.4466 12.3272 10.974 11.7998 10.974 11.1492C10.974 10.4986 10.4466 9.97119 9.79598 9.97119C9.14539 9.97119 8.61798 10.4986 8.61798 11.1492C8.61798 11.7998 9.14539 12.3272 9.79598 12.3272Z" fill="#59B3D9"/>
<path d="M10.548 10.2422C10.55 10.2662 10.55 10.2902 10.55 10.3142C10.55 11.1812 9.97798 11.9152 9.19098 12.1592C9.36898 12.2662 9.57598 12.3272 9.79598 12.3272C10.446 12.3272 10.974 11.8002 10.974 11.1492C10.974 10.7842 10.808 10.4582 10.548 10.2422Z" fill="#3898C5"/>
</svg>
