<svg width="16" height="16" viewBox="0 0 16 16" fill="none" xmlns="http://www.w3.org/2000/svg">
<path d="M12.8 3.5998H9.70001V0.799805" stroke="#0078D4" stroke-miterlimit="10"/>
<path d="M4.80403 11.3161C4.02929 11.3074 3.64192 10.9766 3.64192 10.3238V9.36078C3.64192 8.92989 3.47218 8.70356 3.13268 8.6818V8.2052C3.47218 8.18344 3.64192 7.95276 3.64192 7.51316V6.57629C3.64192 5.91471 4.02929 5.57957 4.80403 5.57087V6.07684C4.45801 6.08555 4.285 6.29338 4.285 6.70033V7.62088C4.285 8.06048 4.06847 8.33142 3.63539 8.43371V8.4435C4.06847 8.53925 4.285 8.80802 4.285 9.2498V10.1606C4.285 10.3934 4.32309 10.5588 4.39925 10.6567C4.4776 10.7568 4.61252 10.8091 4.80403 10.8134V11.3161ZM10.6244 8.6818C10.2871 8.70356 10.1184 8.92989 10.1184 9.36078V10.3238C10.1184 10.9766 9.73321 11.3074 8.96282 11.3161V10.8134C9.15215 10.8091 9.28599 10.7568 9.36434 10.6567C9.44486 10.5566 9.48512 10.3912 9.48512 10.1606V9.2498C9.48512 8.80802 9.69948 8.53925 10.1282 8.4435V8.43371C9.69948 8.33142 9.48512 8.06048 9.48512 7.62088V6.70033C9.48512 6.29338 9.31102 6.08555 8.96282 6.07684V5.57087C9.73321 5.57957 10.1184 5.91471 10.1184 6.57629V7.51316C10.1184 7.95276 10.2871 8.18344 10.6244 8.2052V8.6818Z" fill="#0078D4"/>
<path d="M11.5 9.2998V15.7998" stroke="#0078D4" stroke-miterlimit="10"/>
<path d="M8.39999 12.5996H14.6" stroke="#0078D4" stroke-miterlimit="10"/>
<path d="M7.50001 14.5998H2.10001V0.799805H9.70001L12.8 3.5998V8.8998" stroke="#0078D4" stroke-miterlimit="10"/>
</svg>
