<svg width="32" height="32" viewBox="0 0 32 32" fill="none" xmlns="http://www.w3.org/2000/svg">
<path d="M14.3078 6.05449C15.1779 4.64683 16.5906 4.65018 17.4586 6.05449L28.2437 23.5035C29.4052 25.3827 28.5591 26.9061 26.355 26.9061H5.41141C3.20678 26.9061 2.35743 25.3888 3.52271 23.5035L14.3078 6.05449ZM15.8836 11.9061C15.3313 11.9061 14.8836 12.3591 14.8836 12.9031V18.9091C14.8836 19.4597 15.3274 19.9061 15.8836 19.9061C16.4358 19.9061 16.8836 19.4531 16.8836 18.9091V12.9031C16.8836 12.3525 16.4397 11.9061 15.8836 11.9061ZM15.8836 23.9061C16.4358 23.9061 16.8836 23.4584 16.8836 22.9061C16.8836 22.3538 16.4358 21.9061 15.8836 21.9061C15.3313 21.9061 14.8836 22.3538 14.8836 22.9061C14.8836 23.4584 15.3313 23.9061 15.8836 23.9061Z" fill="#DF6B15"/>
</svg>
