<svg width="16" height="14" viewBox="0 0 16 14" fill="none" xmlns="http://www.w3.org/2000/svg">
<path d="M16 2.03125V13.9375H2.09375V10.9375H3V13.0312H15.0938V2.9375H9V2.03125H16ZM2.92188 8.9375H0V8.59375C0.0989583 8.57812 0.197917 8.5651 0.296875 8.55469C0.395833 8.53906 0.492188 8.51823 0.585938 8.49219C0.658854 8.47135 0.736979 8.40365 0.820312 8.28906C0.908854 8.17448 0.992188 8.04688 1.07031 7.90625C1.14844 7.76562 1.21875 7.6276 1.28125 7.49219C1.34896 7.35156 1.39844 7.24479 1.42969 7.17188L4.46094 0H5.10156L8.08594 7.25C8.13281 7.36458 8.1875 7.49479 8.25 7.64062C8.31771 7.78646 8.39323 7.92708 8.47656 8.0625C8.5651 8.19271 8.66406 8.30729 8.77344 8.40625C8.88802 8.5 9.01562 8.55469 9.15625 8.57031C9.30208 8.58594 9.44792 8.59375 9.59375 8.59375V8.9375H6.10938V8.59375C6.19792 8.59375 6.29427 8.59635 6.39844 8.60156C6.5026 8.60156 6.59896 8.59115 6.6875 8.57031C6.78125 8.54427 6.85938 8.5026 6.92188 8.44531C6.98438 8.38281 7.01562 8.28646 7.01562 8.15625C7.01562 8.04167 6.98698 7.88542 6.92969 7.6875C6.8724 7.48438 6.80469 7.27604 6.72656 7.0625C6.64844 6.84896 6.56771 6.64323 6.48438 6.44531C6.40625 6.24219 6.34115 6.08073 6.28906 5.96094H2.80469C2.75781 6.08073 2.6875 6.24219 2.59375 6.44531C2.50521 6.64323 2.41667 6.84896 2.32812 7.0625C2.24479 7.27604 2.16927 7.48177 2.10156 7.67969C2.03906 7.8776 2.00781 8.03385 2.00781 8.14844C2.00781 8.27344 2.03906 8.36719 2.10156 8.42969C2.16406 8.48698 2.24219 8.52604 2.33594 8.54688C2.42969 8.56771 2.52865 8.58073 2.63281 8.58594C2.74219 8.58594 2.83854 8.58854 2.92188 8.59375V8.9375ZM3.14062 4.96094H5.82812L4.45312 2.00781L3.14062 4.96094Z" fill="#0078D4"/>
</svg>
