<svg width="16" height="16" viewBox="0 0 16 16" fill="none" xmlns="http://www.w3.org/2000/svg">
<g clip-path="url(#clip0)">
<path d="M15.499 0C15.6347 0 15.7521 0.049576 15.8513 0.148728C15.9504 0.24788 16 0.365297 16 0.500978C16 0.63666 15.9504 0.754077 15.8513 0.853229L10.137 6.56751C10.4188 6.92759 10.6314 7.31898 10.775 7.74168C10.9185 8.16438 10.9902 8.60274 10.9902 9.05675C10.9902 9.59426 10.8885 10.1096 10.6849 10.6027C10.4814 11.0959 10.1892 11.5329 9.80822 11.9139L9.27593 12.4462L7.49902 16L0 8.50098L3.55382 6.72407L4.08611 6.19178C4.46706 5.81083 4.90411 5.51859 5.39726 5.31507C5.89041 5.11155 6.40574 5.00978 6.94325 5.00978C7.39726 5.00978 7.83562 5.08154 8.25832 5.22505C8.68102 5.36856 9.07241 5.58121 9.43249 5.86301L15.1468 0.148728C15.2459 0.049576 15.3633 0 15.499 0ZM7.22505 14.3092L8.3366 12.0783L3.92172 7.6634L1.6908 8.77495L7.22505 14.3092ZM4.68885 7.0137L8.9863 11.3112C9.30463 10.998 9.55121 10.6575 9.72603 10.2896C9.90085 9.92172 9.98826 9.51076 9.98826 9.05675C9.98826 8.63405 9.90868 8.23875 9.74951 7.87084C9.59035 7.50294 9.37247 7.18069 9.09589 6.90411C8.81931 6.62753 8.49706 6.40965 8.12916 6.25049C7.76125 6.09132 7.36595 6.01174 6.94325 6.01174C6.48924 6.01174 6.07828 6.09785 5.71037 6.27006C5.34247 6.44227 5.00196 6.69015 4.68885 7.0137Z" fill="#CCCCCC"/>
</g>
<defs>
<clipPath id="clip0">
<rect width="16" height="16" fill="white"/>
</clipPath>
</defs>
</svg>
