<svg width="16" height="16" viewBox="0 0 16 16" fill="none" xmlns="http://www.w3.org/2000/svg">
<g clip-path="url(#clip0)">
<path d="M7.52137 0.0315427C7.01656 0.0315427 6.53015 0.0972564 6.06215 0.228684C5.59415 0.360111 5.15507 0.546739 4.74491 0.788565C4.33475 1.03039 3.9614 1.31953 3.62486 1.65599C3.28832 1.99244 2.9991 2.3657 2.75721 2.77575C2.51532 3.18581 2.32865 3.62477 2.19719 4.09266C2.06573 4.56054 2 5.04682 2 5.5515C2 6.27173 2.13803 6.96698 2.4141 7.63726C2.69017 8.30754 3.08324 8.89765 3.59331 9.40759L10.1953 16L10.9052 15.2903L4.31108 8.68999C3.89567 8.27468 3.5749 7.79497 3.34879 7.25086C3.12268 6.70675 3.00962 6.1403 3.00962 5.5515C3.00962 4.93642 3.12925 4.35551 3.36851 3.80877C3.60777 3.26203 3.93248 2.78364 4.34264 2.37358C4.75279 1.96353 5.23131 1.6389 5.77819 1.3997C6.32507 1.16051 6.90613 1.04091 7.52137 1.04091C8.08928 1.04091 8.59015 1.12633 9.02397 1.29719C9.45779 1.46805 9.85875 1.6941 10.2269 1.97536C10.5949 2.25661 10.9486 2.57598 11.2877 2.93346C11.6269 3.29095 11.9832 3.65894 12.3565 4.03746H9.0358V5.04682H14.0839V0H13.0743V3.31986C12.7851 3.02546 12.5077 2.74027 12.2422 2.46427C11.9766 2.18827 11.711 1.92804 11.4455 1.68359C11.1799 1.43913 10.9091 1.21571 10.6331 1.01331C10.357 0.810908 10.0625 0.637424 9.74964 0.492853C9.43676 0.348283 9.09759 0.235255 8.73213 0.15377C8.36666 0.0722852 7.96308 0.0315427 7.52137 0.0315427Z" fill="#0078D4"/>
</g>
<defs>
<clipPath id="clip0">
<rect width="16" height="16" fill="white"/>
</clipPath>
</defs>
</svg>
