<svg width="16" height="16" viewBox="0 0 16 16" fill="none" xmlns="http://www.w3.org/2000/svg">
<path d="M16 6.79707L8.84933 14.1611H13.1316V15.5H3.09218L0.569612 12.9059C0.386523 12.7176 0.245815 12.4997 0.147489 12.2521C0.049163 12.0045 0 11.7483 0 11.4833C0 11.2183 0.049163 10.962 0.147489 10.7144C0.245815 10.4669 0.386523 10.249 0.569612 10.0607L6.0623 4.41213L9.87667 0.5L16 6.79707ZM14.1691 6.79707L9.87667 2.38285L4.28226 8.13598L8.5747 12.5502L14.1691 6.79707ZM3.64145 14.1611H6.99809L7.65925 13.4916L3.36681 9.07741L1.49523 11.0126C1.36639 11.145 1.30197 11.302 1.30197 11.4833C1.30197 11.6646 1.36639 11.8215 1.49523 11.954L3.64145 14.1611Z" fill="#0078D4"/>
</svg>
